M48
; DRILL file {KiCad (5.1.6)-1} date 06/21/20 16:44:25
; FORMAT={-:-/ absolute / metric / decimal}
; #@! TF.CreationDate,2020-06-21T16:44:25+09:00
; #@! TF.GenerationSoftware,Kicad,Pcbnew,(5.1.6)-1
FMAT,2
METRIC
T1C0.300
T2C0.400
T3C0.800
T4C0.850
T5C1.000
T6C3.400
%
G90
G05
T1
X101.2Y-125.0
X101.3Y-135.3
X102.0Y-61.0
X102.0Y-65.0
X102.1Y-131.4
X102.1Y-145.0
X102.4Y-106.4
X102.5Y-68.5
X102.5Y-71.0
X102.5Y-73.5
X102.5Y-76.0
X102.5Y-78.5
X102.5Y-81.0
X102.5Y-83.5
X102.5Y-86.0
X102.5Y-88.5
X102.5Y-91.0
X102.5Y-93.5
X102.5Y-96.0
X102.5Y-98.5
X102.5Y-101.0
X102.6Y-118.3
X102.7Y-116.1
X102.8Y-126.6
X103.6Y-109.7
X103.6Y-122.0
X103.6Y-130.3
X104.0Y-63.0
X104.1Y-135.4
X105.0Y-68.5
X105.0Y-71.0
X105.0Y-73.5
X105.0Y-76.0
X105.0Y-78.5
X105.0Y-81.0
X105.0Y-83.5
X105.0Y-86.0
X105.0Y-88.5
X105.0Y-91.0
X105.0Y-93.5
X105.0Y-96.0
X105.0Y-98.5
X105.0Y-101.0
X106.0Y-61.0
X106.0Y-65.0
X106.5Y-131.5
X107.0Y-109.6
X107.0Y-115.0
X107.0Y-134.0
X107.2Y-119.8
X107.5Y-68.5
X107.5Y-71.0
X107.5Y-73.5
X107.5Y-78.5
X107.5Y-81.0
X107.5Y-83.5
X107.5Y-83.5
X107.5Y-86.0
X107.5Y-93.5
X107.5Y-96.0
X107.5Y-98.5
X107.5Y-101.0
X108.0Y-63.0
X108.65Y-139.15
X109.1Y-121.1
X109.2Y-133.4
X109.2Y-143.6
X109.4Y-128.8
X109.9Y-114.7
X110.0Y-61.0
X110.0Y-65.0
X110.0Y-81.0
X110.0Y-86.0
X110.0Y-88.5
X110.0Y-96.0
X110.0Y-98.9
X110.0Y-101.0
X110.0Y-145.0
X111.75Y-68.75
X111.75Y-69.75
X111.75Y-70.75
X111.75Y-71.75
X111.75Y-72.75
X111.75Y-73.75
X111.75Y-74.75
X111.75Y-75.75
X111.75Y-90.9
X111.75Y-91.9
X111.75Y-92.9
X111.75Y-94.4
X111.75Y-95.9
X111.8Y-89.9
X112.0Y-63.0
X112.3Y-125.1
X112.5Y-109.0
X112.7Y-122.0
X112.75Y-74.75
X112.75Y-75.75
X113.2Y-67.0
X113.2Y-105.2
X113.2Y-111.3
X113.25Y-89.9
X113.25Y-90.9
X113.25Y-99.0
X113.5Y-92.9
X113.5Y-94.4
X113.5Y-95.9
X113.5Y-97.4
X113.55Y-74.75
X113.55Y-75.75
X113.6Y-120.6
X113.75Y-68.75
X113.75Y-70.25
X113.75Y-71.75
X113.75Y-73.25
X114.0Y-61.0
X114.0Y-65.0
X114.2Y-67.0
X114.25Y-89.9
X114.25Y-90.9
X114.25Y-99.0
X114.35Y-74.75
X114.4Y-75.75
X114.5Y-144.8
X114.6Y-115.7
X114.6Y-132.8
X114.9Y-123.2
X114.95Y-112.65
X115.0Y-92.9
X115.0Y-94.4
X115.0Y-95.9
X115.0Y-97.4
X115.2Y-67.0
X115.25Y-68.75
X115.25Y-70.25
X115.25Y-71.75
X115.25Y-73.25
X115.25Y-74.75
X115.25Y-89.9
X115.25Y-90.9
X115.25Y-99.0
X115.3Y-75.75
X115.6Y-108.0
X116.0Y-63.0
X116.2Y-67.0
X116.25Y-74.75
X116.25Y-75.75
X116.25Y-89.9
X116.25Y-90.9
X116.25Y-99.0
X116.3Y-105.5
X116.7Y-112.7
X116.7Y-129.8
X116.75Y-68.75
X116.75Y-70.25
X116.75Y-71.75
X116.75Y-73.25
X116.75Y-92.9
X116.75Y-94.4
X116.75Y-95.9
X116.75Y-97.4
X117.2Y-67.0
X117.25Y-74.75
X117.25Y-75.75
X117.25Y-89.9
X117.25Y-90.9
X117.25Y-99.0
X117.3Y-126.1
X117.5Y-78.0
X117.5Y-80.0
X117.5Y-82.0
X117.5Y-85.0
X117.5Y-87.0
X117.5Y-144.8
X118.0Y-61.0
X118.0Y-65.0
X118.2Y-67.0
X118.25Y-68.75
X118.25Y-70.25
X118.25Y-71.75
X118.25Y-73.25
X118.25Y-74.75
X118.25Y-75.75
X118.25Y-89.9
X118.25Y-90.9
X118.25Y-92.9
X118.25Y-94.4
X118.25Y-95.9
X118.25Y-97.4
X118.25Y-99.0
X119.2Y-67.0
X119.25Y-74.75
X119.25Y-75.75
X119.25Y-89.9
X119.25Y-90.9
X119.25Y-99.0
X119.5Y-78.0
X119.5Y-80.0
X119.5Y-82.0
X119.5Y-85.0
X119.5Y-87.0
X120.0Y-63.0
X120.2Y-67.0
X120.25Y-67.85
X120.25Y-68.75
X120.25Y-69.75
X120.25Y-70.75
X120.25Y-71.75
X120.25Y-72.75
X120.25Y-73.75
X120.25Y-74.75
X120.25Y-75.75
X120.25Y-89.9
X120.25Y-90.9
X120.25Y-91.9
X120.25Y-92.9
X120.25Y-93.9
X120.25Y-94.9
X120.25Y-95.9
X120.25Y-96.9
X120.25Y-98.0
X120.25Y-99.0
X121.2Y-67.0
X121.25Y-67.85
X121.25Y-68.75
X121.25Y-69.75
X121.25Y-70.75
X121.25Y-71.75
X121.25Y-72.75
X121.25Y-73.75
X121.25Y-74.75
X121.25Y-75.75
X121.25Y-89.9
X121.25Y-90.9
X121.25Y-91.9
X121.25Y-92.9
X121.25Y-93.9
X121.25Y-94.9
X121.25Y-95.9
X121.25Y-96.9
X121.25Y-98.0
X121.25Y-99.0
X121.5Y-78.0
X121.5Y-80.0
X121.5Y-82.0
X121.5Y-85.0
X121.5Y-87.0
X122.0Y-61.0
X122.0Y-65.0
X122.0Y-145.0
X122.2Y-104.8
X122.25Y-134.7
X122.6Y-101.9
X123.5Y-68.0
X123.5Y-70.0
X123.5Y-72.0
X123.5Y-74.0
X123.5Y-76.0
X123.5Y-78.0
X123.5Y-80.0
X123.5Y-82.0
X123.5Y-85.0
X123.5Y-87.0
X123.5Y-89.0
X123.5Y-91.0
X123.5Y-93.0
X123.5Y-95.0
X123.5Y-97.0
X123.5Y-99.0
X123.9Y-142.8
X124.0Y-63.0
X124.0Y-113.0
X124.05Y-122.55
X124.4Y-138.15
X125.0Y-116.0
X125.5Y-68.0
X125.5Y-70.0
X125.5Y-72.0
X125.5Y-74.0
X125.5Y-76.0
X125.5Y-78.0
X125.5Y-80.0
X125.5Y-82.0
X125.5Y-85.0
X125.5Y-87.0
X125.5Y-89.0
X125.5Y-91.0
X125.5Y-93.0
X125.5Y-95.0
X125.5Y-97.0
X125.5Y-99.0
X126.0Y-61.0
X126.0Y-65.0
X126.0Y-106.4
X126.0Y-127.8
X126.05Y-125.0
X126.6Y-103.9
X127.3Y-118.3
X127.5Y-68.0
X127.5Y-70.0
X127.5Y-72.0
X127.5Y-74.0
X127.5Y-76.0
X127.5Y-78.0
X127.5Y-80.0
X127.5Y-82.0
X127.5Y-85.0
X127.5Y-87.0
X127.5Y-89.0
X127.5Y-91.0
X127.5Y-93.0
X127.5Y-95.0
X127.5Y-97.0
X127.5Y-99.0
X127.75Y-128.55
X127.8Y-108.6
X128.0Y-63.0
X128.0Y-110.0
X129.0Y-106.0
X129.5Y-70.0
X129.5Y-72.0
X129.5Y-76.0
X129.5Y-78.0
X129.5Y-80.0
X129.5Y-82.0
X129.5Y-85.0
X129.5Y-87.0
X129.5Y-89.0
X129.5Y-91.0
X129.5Y-95.0
X129.5Y-99.0
X129.5Y-112.4
X129.5Y-116.3
X129.65Y-134.55
X130.0Y-61.0
X130.0Y-65.0
X131.0Y-145.0
X131.5Y-68.0
X131.5Y-70.0
X131.5Y-72.0
X131.5Y-78.0
X131.5Y-80.0
X131.5Y-82.0
X131.5Y-85.0
X131.5Y-97.5
X131.5Y-99.0
X132.0Y-61.0
X132.0Y-63.0
X132.0Y-65.0
X132.9Y-80.5
X133.0Y-88.0
X133.0Y-90.1
X133.0Y-91.15
X133.0Y-99.15
X133.0Y-143.0
X133.0Y-145.0
X133.25Y-74.75
X133.25Y-75.75
X133.5Y-68.75
X133.5Y-70.25
X133.5Y-71.75
X133.5Y-73.0
X133.5Y-92.65
X133.5Y-94.15
X133.5Y-95.9
X133.5Y-97.4
X134.0Y-61.0
X134.0Y-63.0
X134.0Y-65.0
X134.0Y-90.1
X134.0Y-91.15
X134.0Y-99.15
X134.25Y-74.75
X134.25Y-75.75
X134.25Y-76.75
X134.5Y-104.0
X134.9Y-82.7
X135.0Y-68.75
X135.0Y-70.25
X135.0Y-71.75
X135.0Y-73.0
X135.0Y-90.1
X135.0Y-91.15
X135.0Y-92.65
X135.0Y-94.15
X135.0Y-95.9
X135.0Y-97.4
X135.0Y-99.15
X135.0Y-112.9
X135.0Y-141.0
X135.0Y-143.0
X135.0Y-145.0
X135.25Y-74.75
X135.25Y-75.75
X135.25Y-76.75
X135.7Y-102.0
X135.9Y-130.1
X135.9Y-137.1
X136.0Y-61.0
X136.0Y-63.0
X136.0Y-65.0
X136.0Y-90.1
X136.0Y-91.15
X136.0Y-99.15
X136.0Y-116.0
X136.25Y-74.75
X136.25Y-75.75
X136.25Y-76.75
X136.5Y-68.75
X136.5Y-70.25
X136.5Y-71.75
X136.5Y-73.0
X136.5Y-92.65
X136.5Y-94.15
X136.5Y-95.9
X136.5Y-97.4
X137.0Y-90.1
X137.0Y-91.15
X137.0Y-99.15
X137.0Y-141.0
X137.0Y-143.0
X137.0Y-145.0
X137.25Y-74.75
X137.25Y-75.75
X137.25Y-76.75
X138.0Y-61.0
X138.0Y-63.0
X138.0Y-65.0
X138.0Y-68.75
X138.0Y-70.25
X138.0Y-71.75
X138.0Y-73.0
X138.0Y-90.1
X138.0Y-91.15
X138.0Y-92.65
X138.0Y-94.15
X138.0Y-95.9
X138.0Y-97.4
X138.0Y-99.15
X138.1Y-118.0
X138.2Y-111.2
X138.25Y-74.75
X138.25Y-75.75
X138.25Y-76.75
X138.5Y-108.5
X139.0Y-90.1
X139.0Y-91.15
X139.0Y-99.15
X139.0Y-128.1
X139.0Y-131.6
X139.0Y-137.0
X139.0Y-143.0
X139.0Y-145.0
X139.25Y-74.75
X139.25Y-75.75
X139.25Y-76.75
X139.25Y-122.75
X140.0Y-61.0
X140.0Y-63.0
X140.0Y-65.0
X140.0Y-90.1
X140.0Y-91.15
X140.0Y-92.15
X140.0Y-93.15
X140.0Y-94.15
X140.0Y-95.15
X140.0Y-96.15
X140.0Y-97.15
X140.0Y-98.15
X140.0Y-99.15
X140.2Y-67.9
X140.25Y-68.75
X140.25Y-69.75
X140.25Y-70.75
X140.25Y-71.75
X140.25Y-72.75
X140.25Y-73.75
X140.25Y-74.75
X140.25Y-75.75
X140.25Y-76.75
X140.6Y-82.6
X141.0Y-90.1
X141.0Y-91.15
X141.0Y-92.15
X141.0Y-93.15
X141.0Y-94.15
X141.0Y-95.15
X141.0Y-96.15
X141.0Y-97.15
X141.0Y-98.15
X141.0Y-99.15
X141.0Y-141.0
X141.0Y-143.0
X141.0Y-145.0
X141.2Y-67.9
X141.2Y-68.7
X141.25Y-69.75
X141.25Y-70.75
X141.25Y-71.75
X141.25Y-72.75
X141.25Y-73.75
X141.25Y-74.75
X141.25Y-75.75
X141.25Y-76.75
X141.4Y-119.2
X141.75Y-129.25
X141.75Y-130.25
X141.75Y-131.25
X141.75Y-132.25
X141.75Y-133.25
X141.75Y-134.25
X141.8Y-135.2
X141.8Y-136.3
X141.8Y-137.3
X141.8Y-138.1
X141.9Y-125.2
X142.0Y-61.0
X142.0Y-63.0
X142.0Y-65.0
X142.0Y-90.1
X142.0Y-91.15
X142.0Y-92.15
X142.0Y-93.15
X142.0Y-94.15
X142.0Y-95.15
X142.0Y-96.15
X142.0Y-97.15
X142.0Y-98.15
X142.0Y-99.15
X142.0Y-107.85
X142.0Y-108.85
X142.0Y-109.85
X142.0Y-110.85
X142.0Y-111.85
X142.0Y-112.85
X142.0Y-113.85
X142.0Y-114.85
X142.0Y-115.9
X142.2Y-67.9
X142.2Y-68.7
X142.2Y-69.7
X142.25Y-70.75
X142.25Y-71.75
X142.25Y-72.75
X142.25Y-73.75
X142.25Y-74.75
X142.25Y-75.75
X142.25Y-76.75
X142.75Y-129.25
X142.75Y-130.25
X142.75Y-131.25
X142.75Y-132.25
X142.75Y-133.25
X142.75Y-134.25
X142.75Y-135.25
X142.8Y-136.3
X142.8Y-137.3
X142.8Y-138.1
X143.0Y-90.1
X143.0Y-91.15
X143.0Y-92.15
X143.0Y-93.15
X143.0Y-94.15
X143.0Y-95.15
X143.0Y-96.15
X143.0Y-97.15
X143.0Y-98.15
X143.0Y-106.85
X143.0Y-107.85
X143.0Y-108.85
X143.0Y-109.85
X143.0Y-110.85
X143.0Y-111.85
X143.0Y-112.85
X143.0Y-113.85
X143.0Y-114.85
X143.0Y-115.9
X143.0Y-141.0
X143.0Y-143.0
X143.0Y-145.0
X143.1Y-80.8
X143.2Y-67.9
X143.2Y-68.7
X143.2Y-69.7
X143.2Y-70.8
X143.25Y-71.75
X143.25Y-72.75
X143.25Y-73.75
X143.25Y-74.75
X143.25Y-75.75
X143.25Y-76.75
X143.6Y-86.8
X143.75Y-129.25
X143.75Y-130.25
X143.75Y-131.25
X143.75Y-132.25
X143.75Y-133.25
X143.75Y-134.25
X143.75Y-135.25
X143.75Y-136.25
X143.8Y-137.3
X143.8Y-138.1
X144.0Y-61.0
X144.0Y-63.0
X144.0Y-65.0
X144.0Y-106.85
X144.0Y-107.85
X144.0Y-108.85
X144.0Y-109.85
X144.0Y-110.85
X144.0Y-111.85
X144.0Y-112.85
X144.0Y-113.85
X144.0Y-114.85
X144.0Y-115.9
X144.4Y-123.4
X144.75Y-129.25
X144.75Y-130.25
X144.75Y-131.25
X144.75Y-132.25
X144.75Y-133.25
X144.75Y-134.25
X144.75Y-135.25
X144.75Y-136.25
X144.75Y-137.25
X144.8Y-138.1
X145.0Y-106.85
X145.0Y-107.85
X145.0Y-108.85
X145.0Y-109.85
X145.0Y-110.85
X145.0Y-111.85
X145.0Y-112.85
X145.0Y-113.85
X145.0Y-114.85
X145.0Y-115.9
X145.0Y-141.0
X145.0Y-143.0
X145.0Y-145.0
X145.75Y-83.25
X145.75Y-129.25
X145.75Y-130.25
X145.75Y-131.25
X146.0Y-61.0
X146.0Y-63.0
X146.0Y-69.0
X146.0Y-74.4
X146.0Y-77.9
X146.0Y-106.85
X146.0Y-114.85
X146.0Y-115.9
X146.5Y-97.5
X146.75Y-129.25
X146.75Y-130.25
X146.75Y-131.25
X146.8Y-94.8
X146.9Y-88.0
X147.0Y-106.85
X147.0Y-108.6
X147.0Y-110.1
X147.0Y-111.85
X147.0Y-113.35
X147.0Y-114.85
X147.0Y-115.9
X147.0Y-133.0
X147.0Y-134.25
X147.0Y-135.75
X147.0Y-137.25
X147.0Y-141.0
X147.0Y-143.0
X147.0Y-145.0
X147.75Y-129.25
X147.75Y-130.25
X147.75Y-131.25
X148.0Y-61.0
X148.0Y-63.0
X148.0Y-65.0
X148.0Y-106.85
X148.0Y-114.85
X148.0Y-115.9
X148.5Y-108.6
X148.5Y-110.1
X148.5Y-111.85
X148.5Y-113.35
X148.5Y-133.0
X148.5Y-134.25
X148.5Y-135.75
X148.5Y-137.25
X148.75Y-129.25
X148.75Y-130.25
X148.75Y-131.25
X149.0Y-90.0
X149.0Y-106.85
X149.0Y-114.85
X149.0Y-115.9
X149.0Y-141.0
X149.0Y-143.0
X149.0Y-145.0
X149.1Y-68.9
X149.1Y-75.9
X149.3Y-104.0
X149.75Y-129.25
X149.75Y-130.25
X149.75Y-131.25
X150.0Y-61.0
X150.0Y-63.0
X150.0Y-65.0
X150.0Y-93.1
X150.0Y-106.85
X150.0Y-108.6
X150.0Y-110.1
X150.0Y-111.85
X150.0Y-113.35
X150.0Y-114.85
X150.0Y-115.9
X150.0Y-133.0
X150.0Y-134.25
X150.0Y-135.75
X150.0Y-137.25
X150.1Y-123.3
X150.5Y-102.0
X150.75Y-129.25
X150.75Y-130.25
X150.75Y-131.25
X151.0Y-106.85
X151.0Y-114.85
X151.0Y-115.9
X151.0Y-141.0
X151.0Y-143.0
X151.0Y-145.0
X151.5Y-108.6
X151.5Y-110.1
X151.5Y-111.85
X151.5Y-113.35
X151.5Y-133.0
X151.5Y-134.25
X151.5Y-135.75
X151.5Y-137.25
X151.75Y-130.25
X151.75Y-131.25
X152.0Y-61.0
X152.0Y-63.0
X152.0Y-106.85
X152.0Y-114.85
X152.0Y-115.9
X152.0Y-118.0
X152.1Y-125.5
X153.0Y-141.0
X153.0Y-143.0
X153.0Y-145.0
X153.5Y-107.0
X153.5Y-108.5
X153.5Y-121.0
X153.5Y-124.0
X153.5Y-126.0
X153.5Y-128.0
X153.5Y-134.0
X153.5Y-136.0
X153.5Y-138.0
X154.0Y-61.0
X155.0Y-141.0
X155.0Y-145.0
X155.35Y-71.45
X155.5Y-89.7
X155.5Y-93.6
X155.5Y-107.0
X155.5Y-111.0
X155.5Y-115.0
X155.5Y-117.0
X155.5Y-119.0
X155.5Y-121.0
X155.5Y-124.0
X155.5Y-126.0
X155.5Y-128.0
X155.5Y-130.0
X155.5Y-134.0
X155.5Y-136.0
X156.0Y-100.0
X157.0Y-96.0
X157.0Y-143.0
X157.2Y-97.4
X157.25Y-77.45
X157.5Y-107.0
X157.5Y-109.0
X157.5Y-111.0
X157.5Y-113.0
X157.5Y-115.0
X157.5Y-117.0
X157.5Y-119.0
X157.5Y-121.0
X157.5Y-124.0
X157.5Y-126.0
X157.5Y-128.0
X157.5Y-130.0
X157.5Y-132.0
X157.5Y-134.0
X157.5Y-136.0
X157.5Y-138.0
X157.7Y-87.7
X158.4Y-102.1
X158.95Y-81.0
X159.0Y-78.2
X159.0Y-99.6
X159.0Y-141.0
X159.0Y-145.0
X159.5Y-107.0
X159.5Y-109.0
X159.5Y-111.0
X159.5Y-113.0
X159.5Y-115.0
X159.5Y-117.0
X159.5Y-119.0
X159.5Y-121.0
X159.5Y-124.0
X159.5Y-126.0
X159.5Y-128.0
X159.5Y-130.0
X159.5Y-132.0
X159.5Y-134.0
X159.5Y-136.0
X159.5Y-138.0
X160.0Y-90.0
X160.6Y-67.85
X160.95Y-83.45
X161.0Y-93.0
X161.0Y-143.0
X161.1Y-63.2
X161.5Y-107.0
X161.5Y-109.0
X161.5Y-111.0
X161.5Y-113.0
X161.5Y-115.0
X161.5Y-117.0
X161.5Y-119.0
X161.5Y-121.0
X161.5Y-124.0
X161.5Y-126.0
X161.5Y-128.0
X161.5Y-130.0
X161.5Y-132.0
X161.5Y-134.0
X161.5Y-136.0
X161.5Y-138.0
X162.4Y-104.1
X162.75Y-71.3
X162.8Y-101.2
X163.0Y-61.0
X163.0Y-141.0
X163.0Y-145.0
X163.5Y-119.0
X163.5Y-121.0
X163.5Y-124.0
X163.5Y-126.0
X163.5Y-128.0
X163.75Y-107.0
X163.75Y-108.0
X163.75Y-109.1
X163.75Y-110.1
X163.75Y-111.1
X163.75Y-112.1
X163.75Y-113.1
X163.75Y-114.1
X163.75Y-115.1
X163.75Y-116.1
X163.75Y-130.25
X163.75Y-131.25
X163.75Y-132.25
X163.75Y-133.25
X163.75Y-134.25
X163.75Y-135.25
X163.75Y-136.25
X163.75Y-137.25
X163.75Y-138.15
X163.8Y-139.0
X164.75Y-107.0
X164.75Y-108.0
X164.75Y-109.1
X164.75Y-110.1
X164.75Y-111.1
X164.75Y-112.1
X164.75Y-113.1
X164.75Y-114.1
X164.75Y-115.1
X164.75Y-116.1
X164.75Y-130.25
X164.75Y-131.25
X164.75Y-132.25
X164.75Y-133.25
X164.75Y-134.25
X164.75Y-135.25
X164.75Y-136.25
X164.75Y-137.25
X164.75Y-138.15
X164.8Y-139.0
X165.0Y-143.0
X165.5Y-119.0
X165.5Y-121.0
X165.5Y-124.0
X165.5Y-126.0
X165.5Y-128.0
X165.75Y-107.0
X165.75Y-115.1
X165.75Y-116.1
X165.75Y-130.25
X165.75Y-131.25
X165.8Y-139.0
X166.75Y-107.0
X166.75Y-108.6
X166.75Y-110.1
X166.75Y-111.6
X166.75Y-113.1
X166.75Y-115.1
X166.75Y-116.1
X166.75Y-130.25
X166.75Y-131.25
X166.75Y-132.75
X166.75Y-134.25
X166.75Y-135.75
X166.75Y-137.25
X166.8Y-139.0
X167.0Y-141.0
X167.0Y-145.0
X167.5Y-61.2
X167.5Y-119.0
X167.5Y-121.0
X167.5Y-124.0
X167.5Y-126.0
X167.5Y-128.0
X167.7Y-79.9
X167.75Y-107.0
X167.75Y-115.1
X167.75Y-116.1
X167.75Y-130.25
X167.75Y-131.25
X167.8Y-139.0
X168.25Y-108.6
X168.25Y-110.1
X168.25Y-111.6
X168.25Y-113.1
X168.25Y-132.75
X168.25Y-134.25
X168.25Y-135.75
X168.25Y-137.25
X168.3Y-76.2
X168.3Y-93.3
X168.7Y-100.5
X168.75Y-107.0
X168.75Y-115.1
X168.75Y-116.1
X168.75Y-130.25
X168.75Y-131.25
X168.8Y-139.0
X169.0Y-143.0
X169.4Y-98.0
X169.7Y-130.25
X169.75Y-107.0
X169.75Y-115.1
X169.75Y-116.1
X169.75Y-131.25
X169.75Y-132.75
X169.75Y-134.25
X169.75Y-135.75
X169.75Y-137.25
X169.8Y-139.0
X170.0Y-108.6
X170.0Y-110.1
X170.0Y-111.6
X170.0Y-113.1
X170.05Y-93.35
X170.1Y-82.8
X170.4Y-73.2
X170.4Y-90.3
X170.5Y-61.2
X170.6Y-130.25
X170.65Y-131.25
X170.75Y-107.0
X170.75Y-115.1
X170.75Y-116.1
X170.8Y-139.0
X171.0Y-141.0
X171.0Y-145.0
X171.25Y-132.75
X171.25Y-134.25
X171.25Y-135.75
X171.25Y-137.25
X171.4Y-85.4
X171.45Y-130.25
X171.45Y-131.25
X171.5Y-108.6
X171.5Y-110.1
X171.5Y-111.6
X171.5Y-113.1
X171.75Y-107.0
X171.75Y-115.1
X171.75Y-116.1
X171.8Y-94.7
X171.8Y-100.8
X171.8Y-139.0
X172.25Y-130.25
X172.25Y-131.25
X172.3Y-84.0
X172.5Y-97.0
X172.7Y-80.9
X173.0Y-143.0
X173.2Y-116.1
X173.25Y-110.1
X173.25Y-111.6
X173.25Y-113.1
X173.25Y-114.1
X173.25Y-115.1
X173.25Y-130.25
X173.25Y-131.25
X173.25Y-132.25
X173.25Y-133.25
X173.25Y-134.25
X173.25Y-135.25
X173.25Y-136.25
X173.25Y-137.25
X175.0Y-61.0
X175.0Y-105.0
X175.0Y-107.1
X175.0Y-110.0
X175.0Y-117.5
X175.0Y-120.0
X175.0Y-125.0
X175.0Y-141.0
X175.0Y-145.0
X175.1Y-91.3
X175.6Y-77.2
X175.8Y-62.4
X175.8Y-72.6
X175.9Y-84.9
X176.35Y-66.85
X177.0Y-143.0
X177.5Y-105.0
X177.5Y-107.5
X177.5Y-110.0
X177.5Y-112.5
X177.5Y-120.0
X177.5Y-122.5
X177.5Y-122.5
X177.5Y-125.0
X177.5Y-127.5
X177.5Y-132.5
X177.5Y-135.0
X177.5Y-137.5
X177.8Y-86.2
X178.0Y-72.0
X178.0Y-91.0
X178.0Y-96.4
X178.5Y-74.5
X179.0Y-141.0
X179.0Y-145.0
X180.0Y-105.0
X180.0Y-107.5
X180.0Y-110.0
X180.0Y-112.5
X180.0Y-115.0
X180.0Y-117.5
X180.0Y-120.0
X180.0Y-122.5
X180.0Y-125.0
X180.0Y-127.5
X180.0Y-130.0
X180.0Y-132.5
X180.0Y-135.0
X180.0Y-137.5
X180.9Y-70.6
X181.0Y-143.0
X181.4Y-75.7
X181.4Y-84.0
X181.4Y-96.3
X182.2Y-79.4
X182.3Y-89.9
X182.4Y-87.7
X182.5Y-105.0
X182.5Y-107.5
X182.5Y-110.0
X182.5Y-112.5
X182.5Y-115.0
X182.5Y-117.5
X182.5Y-120.0
X182.5Y-122.5
X182.5Y-125.0
X182.5Y-127.5
X182.5Y-130.0
X182.5Y-132.5
X182.5Y-135.0
X182.5Y-137.5
X182.6Y-99.6
X182.9Y-61.0
X182.9Y-74.6
X183.0Y-141.0
X183.0Y-145.0
X183.7Y-70.7
X183.8Y-81.0
T2
X101.0Y-143.2
X105.1Y-114.5
X105.4Y-122.2
X106.4Y-122.9
X107.248Y-124.181
X107.322Y-122.514
X107.6Y-125.4
X108.989Y-123.782
X110.4Y-71.65
X111.5Y-98.5
X113.6Y-135.5
X127.4Y-120.4
X128.15Y-125.0
X128.25Y-126.675
X129.85Y-128.65
X131.75Y-74.5
X131.75Y-95.65
X153.25Y-110.35
X153.25Y-131.5
X155.15Y-77.35
X156.75Y-79.325
X156.85Y-81.0
X157.6Y-85.6
X171.4Y-70.5
X173.5Y-107.5
X174.6Y-134.35
X176.011Y-82.218
X177.4Y-80.6
X177.678Y-83.486
X177.752Y-81.819
X178.6Y-83.1
X179.6Y-83.8
X179.9Y-91.5
X184.0Y-62.8
T3
X103.88Y-105.4
X103.88Y-113.02
X106.42Y-105.4
X106.42Y-113.02
X108.96Y-105.4
X108.96Y-113.02
X111.5Y-105.4
X111.5Y-113.02
X173.5Y-92.98
X173.5Y-100.6
X176.04Y-92.98
X176.04Y-100.6
X178.58Y-92.98
X178.58Y-100.6
X181.12Y-92.98
X181.12Y-100.6
T4
X115.04Y-110.0
X117.58Y-110.0
X120.12Y-110.0
X122.66Y-110.0
X125.2Y-110.0
X159.8Y-96.0
X162.34Y-96.0
X164.88Y-96.0
X167.42Y-96.0
X169.96Y-96.0
T5
X149.92Y-96.0
X152.46Y-96.0
X155.0Y-96.0
X130.0Y-110.0
X132.54Y-110.0
X135.08Y-110.0
T6
X114.0Y-79.4
X114.0Y-86.6
X171.0Y-119.4
X171.0Y-126.6
T5
G00X107.4Y-76.25
M15
G01X108.6Y-76.25
M16
G05
G00X107.4Y-89.75
M15
G01X108.6Y-89.75
M16
G05
G00X177.6Y-116.25
M15
G01X176.4Y-116.25
M16
G05
G00X177.6Y-129.75
M15
G01X176.4Y-129.75
M16
G05
T0
M30
