G04 #@! TF.GenerationSoftware,KiCad,Pcbnew,(5.1.5)-3*
G04 #@! TF.CreationDate,2019-12-27T07:31:54+09:00*
G04 #@! TF.ProjectId,CAN_H-Bridge_Solo_MD_fin,43414e5f-482d-4427-9269-6467655f536f,rev?*
G04 #@! TF.SameCoordinates,Original*
G04 #@! TF.FileFunction,Legend,Top*
G04 #@! TF.FilePolarity,Positive*
%FSLAX46Y46*%
G04 Gerber Fmt 4.6, Leading zero omitted, Abs format (unit mm)*
G04 Created by KiCad (PCBNEW (5.1.5)-3) date 2019-12-27 07:31:54*
%MOMM*%
%LPD*%
G04 APERTURE LIST*
%ADD10C,0.150000*%
%ADD11C,0.080000*%
%ADD12C,0.090000*%
%ADD13C,0.120000*%
%ADD14C,0.200000*%
%ADD15C,0.254000*%
G04 APERTURE END LIST*
D10*
X176642857Y-68452380D02*
X176642857Y-67452380D01*
X176880952Y-67452380D01*
X177023809Y-67500000D01*
X177119047Y-67595238D01*
X177166666Y-67690476D01*
X177214285Y-67880952D01*
X177214285Y-68023809D01*
X177166666Y-68214285D01*
X177119047Y-68309523D01*
X177023809Y-68404761D01*
X176880952Y-68452380D01*
X176642857Y-68452380D01*
X178023809Y-68404761D02*
X177928571Y-68452380D01*
X177738095Y-68452380D01*
X177642857Y-68404761D01*
X177595238Y-68309523D01*
X177595238Y-67928571D01*
X177642857Y-67833333D01*
X177738095Y-67785714D01*
X177928571Y-67785714D01*
X178023809Y-67833333D01*
X178071428Y-67928571D01*
X178071428Y-68023809D01*
X177595238Y-68119047D01*
X178452380Y-68404761D02*
X178547619Y-68452380D01*
X178738095Y-68452380D01*
X178833333Y-68404761D01*
X178880952Y-68309523D01*
X178880952Y-68261904D01*
X178833333Y-68166666D01*
X178738095Y-68119047D01*
X178595238Y-68119047D01*
X178500000Y-68071428D01*
X178452380Y-67976190D01*
X178452380Y-67928571D01*
X178500000Y-67833333D01*
X178595238Y-67785714D01*
X178738095Y-67785714D01*
X178833333Y-67833333D01*
X179309523Y-68452380D02*
X179309523Y-67785714D01*
X179309523Y-67452380D02*
X179261904Y-67500000D01*
X179309523Y-67547619D01*
X179357142Y-67500000D01*
X179309523Y-67452380D01*
X179309523Y-67547619D01*
X180214285Y-67785714D02*
X180214285Y-68595238D01*
X180166666Y-68690476D01*
X180119047Y-68738095D01*
X180023809Y-68785714D01*
X179880952Y-68785714D01*
X179785714Y-68738095D01*
X180214285Y-68404761D02*
X180119047Y-68452380D01*
X179928571Y-68452380D01*
X179833333Y-68404761D01*
X179785714Y-68357142D01*
X179738095Y-68261904D01*
X179738095Y-67976190D01*
X179785714Y-67880952D01*
X179833333Y-67833333D01*
X179928571Y-67785714D01*
X180119047Y-67785714D01*
X180214285Y-67833333D01*
X180690476Y-67785714D02*
X180690476Y-68452380D01*
X180690476Y-67880952D02*
X180738095Y-67833333D01*
X180833333Y-67785714D01*
X180976190Y-67785714D01*
X181071428Y-67833333D01*
X181119047Y-67928571D01*
X181119047Y-68452380D01*
X181976190Y-68404761D02*
X181880952Y-68452380D01*
X181690476Y-68452380D01*
X181595238Y-68404761D01*
X181547619Y-68309523D01*
X181547619Y-67928571D01*
X181595238Y-67833333D01*
X181690476Y-67785714D01*
X181880952Y-67785714D01*
X181976190Y-67833333D01*
X182023809Y-67928571D01*
X182023809Y-68023809D01*
X181547619Y-68119047D01*
X182880952Y-68452380D02*
X182880952Y-67452380D01*
X182880952Y-68404761D02*
X182785714Y-68452380D01*
X182595238Y-68452380D01*
X182500000Y-68404761D01*
X182452380Y-68357142D01*
X182404761Y-68261904D01*
X182404761Y-67976190D01*
X182452380Y-67880952D01*
X182500000Y-67833333D01*
X182595238Y-67785714D01*
X182785714Y-67785714D01*
X182880952Y-67833333D01*
X184119047Y-68452380D02*
X184119047Y-67452380D01*
X184119047Y-67833333D02*
X184214285Y-67785714D01*
X184404761Y-67785714D01*
X184500000Y-67833333D01*
X184547619Y-67880952D01*
X184595238Y-67976190D01*
X184595238Y-68261904D01*
X184547619Y-68357142D01*
X184500000Y-68404761D01*
X184404761Y-68452380D01*
X184214285Y-68452380D01*
X184119047Y-68404761D01*
X184928571Y-67785714D02*
X185166666Y-68452380D01*
X185404761Y-67785714D02*
X185166666Y-68452380D01*
X185071428Y-68690476D01*
X185023809Y-68738095D01*
X184928571Y-68785714D01*
X186404761Y-67452380D02*
X186976190Y-67452380D01*
X186690476Y-68452380D02*
X186690476Y-67452380D01*
X187309523Y-68452380D02*
X187309523Y-67452380D01*
X187880952Y-68452380D01*
X187880952Y-67452380D01*
X188357142Y-68452380D02*
X188357142Y-67452380D01*
X188928571Y-68452380D02*
X188500000Y-67880952D01*
X188928571Y-67452380D02*
X188357142Y-68023809D01*
X189357142Y-68357142D02*
X189404761Y-68404761D01*
X189357142Y-68452380D01*
X189309523Y-68404761D01*
X189357142Y-68357142D01*
X189357142Y-68452380D01*
X176642857Y-68452380D02*
X176642857Y-67452380D01*
X176880952Y-67452380D01*
X177023809Y-67500000D01*
X177119047Y-67595238D01*
X177166666Y-67690476D01*
X177214285Y-67880952D01*
X177214285Y-68023809D01*
X177166666Y-68214285D01*
X177119047Y-68309523D01*
X177023809Y-68404761D01*
X176880952Y-68452380D01*
X176642857Y-68452380D01*
X178023809Y-68404761D02*
X177928571Y-68452380D01*
X177738095Y-68452380D01*
X177642857Y-68404761D01*
X177595238Y-68309523D01*
X177595238Y-67928571D01*
X177642857Y-67833333D01*
X177738095Y-67785714D01*
X177928571Y-67785714D01*
X178023809Y-67833333D01*
X178071428Y-67928571D01*
X178071428Y-68023809D01*
X177595238Y-68119047D01*
X178452380Y-68404761D02*
X178547619Y-68452380D01*
X178738095Y-68452380D01*
X178833333Y-68404761D01*
X178880952Y-68309523D01*
X178880952Y-68261904D01*
X178833333Y-68166666D01*
X178738095Y-68119047D01*
X178595238Y-68119047D01*
X178500000Y-68071428D01*
X178452380Y-67976190D01*
X178452380Y-67928571D01*
X178500000Y-67833333D01*
X178595238Y-67785714D01*
X178738095Y-67785714D01*
X178833333Y-67833333D01*
X179309523Y-68452380D02*
X179309523Y-67785714D01*
X179309523Y-67452380D02*
X179261904Y-67500000D01*
X179309523Y-67547619D01*
X179357142Y-67500000D01*
X179309523Y-67452380D01*
X179309523Y-67547619D01*
X180214285Y-67785714D02*
X180214285Y-68595238D01*
X180166666Y-68690476D01*
X180119047Y-68738095D01*
X180023809Y-68785714D01*
X179880952Y-68785714D01*
X179785714Y-68738095D01*
X180214285Y-68404761D02*
X180119047Y-68452380D01*
X179928571Y-68452380D01*
X179833333Y-68404761D01*
X179785714Y-68357142D01*
X179738095Y-68261904D01*
X179738095Y-67976190D01*
X179785714Y-67880952D01*
X179833333Y-67833333D01*
X179928571Y-67785714D01*
X180119047Y-67785714D01*
X180214285Y-67833333D01*
X180690476Y-67785714D02*
X180690476Y-68452380D01*
X180690476Y-67880952D02*
X180738095Y-67833333D01*
X180833333Y-67785714D01*
X180976190Y-67785714D01*
X181071428Y-67833333D01*
X181119047Y-67928571D01*
X181119047Y-68452380D01*
X181976190Y-68404761D02*
X181880952Y-68452380D01*
X181690476Y-68452380D01*
X181595238Y-68404761D01*
X181547619Y-68309523D01*
X181547619Y-67928571D01*
X181595238Y-67833333D01*
X181690476Y-67785714D01*
X181880952Y-67785714D01*
X181976190Y-67833333D01*
X182023809Y-67928571D01*
X182023809Y-68023809D01*
X181547619Y-68119047D01*
X182880952Y-68452380D02*
X182880952Y-67452380D01*
X182880952Y-68404761D02*
X182785714Y-68452380D01*
X182595238Y-68452380D01*
X182500000Y-68404761D01*
X182452380Y-68357142D01*
X182404761Y-68261904D01*
X182404761Y-67976190D01*
X182452380Y-67880952D01*
X182500000Y-67833333D01*
X182595238Y-67785714D01*
X182785714Y-67785714D01*
X182880952Y-67833333D01*
X184119047Y-68452380D02*
X184119047Y-67452380D01*
X184119047Y-67833333D02*
X184214285Y-67785714D01*
X184404761Y-67785714D01*
X184500000Y-67833333D01*
X184547619Y-67880952D01*
X184595238Y-67976190D01*
X184595238Y-68261904D01*
X184547619Y-68357142D01*
X184500000Y-68404761D01*
X184404761Y-68452380D01*
X184214285Y-68452380D01*
X184119047Y-68404761D01*
X184928571Y-67785714D02*
X185166666Y-68452380D01*
X185404761Y-67785714D02*
X185166666Y-68452380D01*
X185071428Y-68690476D01*
X185023809Y-68738095D01*
X184928571Y-68785714D01*
X186404761Y-67452380D02*
X186976190Y-67452380D01*
X186690476Y-68452380D02*
X186690476Y-67452380D01*
X187309523Y-68452380D02*
X187309523Y-67452380D01*
X187880952Y-68452380D01*
X187880952Y-67452380D01*
X188357142Y-68452380D02*
X188357142Y-67452380D01*
X188928571Y-68452380D02*
X188500000Y-67880952D01*
X188928571Y-67452380D02*
X188357142Y-68023809D01*
X189357142Y-68357142D02*
X189404761Y-68404761D01*
X189357142Y-68452380D01*
X189309523Y-68404761D01*
X189357142Y-68357142D01*
X189357142Y-68452380D01*
X176642857Y-113952380D02*
X176642857Y-112952380D01*
X176880952Y-112952380D01*
X177023809Y-113000000D01*
X177119047Y-113095238D01*
X177166666Y-113190476D01*
X177214285Y-113380952D01*
X177214285Y-113523809D01*
X177166666Y-113714285D01*
X177119047Y-113809523D01*
X177023809Y-113904761D01*
X176880952Y-113952380D01*
X176642857Y-113952380D01*
X178023809Y-113904761D02*
X177928571Y-113952380D01*
X177738095Y-113952380D01*
X177642857Y-113904761D01*
X177595238Y-113809523D01*
X177595238Y-113428571D01*
X177642857Y-113333333D01*
X177738095Y-113285714D01*
X177928571Y-113285714D01*
X178023809Y-113333333D01*
X178071428Y-113428571D01*
X178071428Y-113523809D01*
X177595238Y-113619047D01*
X178452380Y-113904761D02*
X178547619Y-113952380D01*
X178738095Y-113952380D01*
X178833333Y-113904761D01*
X178880952Y-113809523D01*
X178880952Y-113761904D01*
X178833333Y-113666666D01*
X178738095Y-113619047D01*
X178595238Y-113619047D01*
X178500000Y-113571428D01*
X178452380Y-113476190D01*
X178452380Y-113428571D01*
X178500000Y-113333333D01*
X178595238Y-113285714D01*
X178738095Y-113285714D01*
X178833333Y-113333333D01*
X179309523Y-113952380D02*
X179309523Y-113285714D01*
X179309523Y-112952380D02*
X179261904Y-113000000D01*
X179309523Y-113047619D01*
X179357142Y-113000000D01*
X179309523Y-112952380D01*
X179309523Y-113047619D01*
X180214285Y-113285714D02*
X180214285Y-114095238D01*
X180166666Y-114190476D01*
X180119047Y-114238095D01*
X180023809Y-114285714D01*
X179880952Y-114285714D01*
X179785714Y-114238095D01*
X180214285Y-113904761D02*
X180119047Y-113952380D01*
X179928571Y-113952380D01*
X179833333Y-113904761D01*
X179785714Y-113857142D01*
X179738095Y-113761904D01*
X179738095Y-113476190D01*
X179785714Y-113380952D01*
X179833333Y-113333333D01*
X179928571Y-113285714D01*
X180119047Y-113285714D01*
X180214285Y-113333333D01*
X180690476Y-113285714D02*
X180690476Y-113952380D01*
X180690476Y-113380952D02*
X180738095Y-113333333D01*
X180833333Y-113285714D01*
X180976190Y-113285714D01*
X181071428Y-113333333D01*
X181119047Y-113428571D01*
X181119047Y-113952380D01*
X181976190Y-113904761D02*
X181880952Y-113952380D01*
X181690476Y-113952380D01*
X181595238Y-113904761D01*
X181547619Y-113809523D01*
X181547619Y-113428571D01*
X181595238Y-113333333D01*
X181690476Y-113285714D01*
X181880952Y-113285714D01*
X181976190Y-113333333D01*
X182023809Y-113428571D01*
X182023809Y-113523809D01*
X181547619Y-113619047D01*
X182880952Y-113952380D02*
X182880952Y-112952380D01*
X182880952Y-113904761D02*
X182785714Y-113952380D01*
X182595238Y-113952380D01*
X182500000Y-113904761D01*
X182452380Y-113857142D01*
X182404761Y-113761904D01*
X182404761Y-113476190D01*
X182452380Y-113380952D01*
X182500000Y-113333333D01*
X182595238Y-113285714D01*
X182785714Y-113285714D01*
X182880952Y-113333333D01*
X184119047Y-113952380D02*
X184119047Y-112952380D01*
X184119047Y-113333333D02*
X184214285Y-113285714D01*
X184404761Y-113285714D01*
X184500000Y-113333333D01*
X184547619Y-113380952D01*
X184595238Y-113476190D01*
X184595238Y-113761904D01*
X184547619Y-113857142D01*
X184500000Y-113904761D01*
X184404761Y-113952380D01*
X184214285Y-113952380D01*
X184119047Y-113904761D01*
X184928571Y-113285714D02*
X185166666Y-113952380D01*
X185404761Y-113285714D02*
X185166666Y-113952380D01*
X185071428Y-114190476D01*
X185023809Y-114238095D01*
X184928571Y-114285714D01*
X186404761Y-112952380D02*
X186976190Y-112952380D01*
X186690476Y-113952380D02*
X186690476Y-112952380D01*
X187309523Y-113952380D02*
X187309523Y-112952380D01*
X187880952Y-113952380D01*
X187880952Y-112952380D01*
X188357142Y-113952380D02*
X188357142Y-112952380D01*
X188928571Y-113952380D02*
X188500000Y-113380952D01*
X188928571Y-112952380D02*
X188357142Y-113523809D01*
X189357142Y-113857142D02*
X189404761Y-113904761D01*
X189357142Y-113952380D01*
X189309523Y-113904761D01*
X189357142Y-113857142D01*
X189357142Y-113952380D01*
D11*
X136145238Y-67826190D02*
X135978571Y-68326190D01*
X135811904Y-67826190D01*
X135359523Y-68278571D02*
X135383333Y-68302380D01*
X135454761Y-68326190D01*
X135502380Y-68326190D01*
X135573809Y-68302380D01*
X135621428Y-68254761D01*
X135645238Y-68207142D01*
X135669047Y-68111904D01*
X135669047Y-68040476D01*
X135645238Y-67945238D01*
X135621428Y-67897619D01*
X135573809Y-67850000D01*
X135502380Y-67826190D01*
X135454761Y-67826190D01*
X135383333Y-67850000D01*
X135359523Y-67873809D01*
X135145238Y-68326190D02*
X135145238Y-67826190D01*
X134954761Y-67826190D01*
X134907142Y-67850000D01*
X134883333Y-67873809D01*
X134859523Y-67921428D01*
X134859523Y-67992857D01*
X134883333Y-68040476D01*
X134907142Y-68064285D01*
X134954761Y-68088095D01*
X135145238Y-68088095D01*
X134764285Y-68373809D02*
X134383333Y-68373809D01*
X133978571Y-68326190D02*
X134145238Y-68088095D01*
X134264285Y-68326190D02*
X134264285Y-67826190D01*
X134073809Y-67826190D01*
X134026190Y-67850000D01*
X134002380Y-67873809D01*
X133978571Y-67921428D01*
X133978571Y-67992857D01*
X134002380Y-68040476D01*
X134026190Y-68064285D01*
X134073809Y-68088095D01*
X134264285Y-68088095D01*
X133811904Y-67826190D02*
X133478571Y-68326190D01*
X133478571Y-67826190D02*
X133811904Y-68326190D01*
X138885714Y-67426190D02*
X138719047Y-67926190D01*
X138552380Y-67426190D01*
X138100000Y-67878571D02*
X138123809Y-67902380D01*
X138195238Y-67926190D01*
X138242857Y-67926190D01*
X138314285Y-67902380D01*
X138361904Y-67854761D01*
X138385714Y-67807142D01*
X138409523Y-67711904D01*
X138409523Y-67640476D01*
X138385714Y-67545238D01*
X138361904Y-67497619D01*
X138314285Y-67450000D01*
X138242857Y-67426190D01*
X138195238Y-67426190D01*
X138123809Y-67450000D01*
X138100000Y-67473809D01*
X137885714Y-67926190D02*
X137885714Y-67426190D01*
X137695238Y-67426190D01*
X137647619Y-67450000D01*
X137623809Y-67473809D01*
X137600000Y-67521428D01*
X137600000Y-67592857D01*
X137623809Y-67640476D01*
X137647619Y-67664285D01*
X137695238Y-67688095D01*
X137885714Y-67688095D01*
X137504761Y-67973809D02*
X137123809Y-67973809D01*
X137076190Y-67426190D02*
X136790476Y-67426190D01*
X136933333Y-67926190D02*
X136933333Y-67426190D01*
X136671428Y-67426190D02*
X136338095Y-67926190D01*
X136338095Y-67426190D02*
X136671428Y-67926190D01*
D12*
X140457142Y-67800000D02*
X140514285Y-67771428D01*
X140600000Y-67771428D01*
X140685714Y-67800000D01*
X140742857Y-67857142D01*
X140771428Y-67914285D01*
X140800000Y-68028571D01*
X140800000Y-68114285D01*
X140771428Y-68228571D01*
X140742857Y-68285714D01*
X140685714Y-68342857D01*
X140600000Y-68371428D01*
X140542857Y-68371428D01*
X140457142Y-68342857D01*
X140428571Y-68314285D01*
X140428571Y-68114285D01*
X140542857Y-68114285D01*
X140171428Y-68371428D02*
X140171428Y-67771428D01*
X139828571Y-68371428D01*
X139828571Y-67771428D01*
X139542857Y-68371428D02*
X139542857Y-67771428D01*
X139400000Y-67771428D01*
X139314285Y-67800000D01*
X139257142Y-67857142D01*
X139228571Y-67914285D01*
X139200000Y-68028571D01*
X139200000Y-68114285D01*
X139228571Y-68228571D01*
X139257142Y-68285714D01*
X139314285Y-68342857D01*
X139400000Y-68371428D01*
X139542857Y-68371428D01*
X140457142Y-113100000D02*
X140514285Y-113071428D01*
X140600000Y-113071428D01*
X140685714Y-113100000D01*
X140742857Y-113157142D01*
X140771428Y-113214285D01*
X140800000Y-113328571D01*
X140800000Y-113414285D01*
X140771428Y-113528571D01*
X140742857Y-113585714D01*
X140685714Y-113642857D01*
X140600000Y-113671428D01*
X140542857Y-113671428D01*
X140457142Y-113642857D01*
X140428571Y-113614285D01*
X140428571Y-113414285D01*
X140542857Y-113414285D01*
X140171428Y-113671428D02*
X140171428Y-113071428D01*
X139828571Y-113671428D01*
X139828571Y-113071428D01*
X139542857Y-113671428D02*
X139542857Y-113071428D01*
X139400000Y-113071428D01*
X139314285Y-113100000D01*
X139257142Y-113157142D01*
X139228571Y-113214285D01*
X139200000Y-113328571D01*
X139200000Y-113414285D01*
X139228571Y-113528571D01*
X139257142Y-113585714D01*
X139314285Y-113642857D01*
X139400000Y-113671428D01*
X139542857Y-113671428D01*
D11*
X138885714Y-112726190D02*
X138719047Y-113226190D01*
X138552380Y-112726190D01*
X138100000Y-113178571D02*
X138123809Y-113202380D01*
X138195238Y-113226190D01*
X138242857Y-113226190D01*
X138314285Y-113202380D01*
X138361904Y-113154761D01*
X138385714Y-113107142D01*
X138409523Y-113011904D01*
X138409523Y-112940476D01*
X138385714Y-112845238D01*
X138361904Y-112797619D01*
X138314285Y-112750000D01*
X138242857Y-112726190D01*
X138195238Y-112726190D01*
X138123809Y-112750000D01*
X138100000Y-112773809D01*
X137885714Y-113226190D02*
X137885714Y-112726190D01*
X137695238Y-112726190D01*
X137647619Y-112750000D01*
X137623809Y-112773809D01*
X137600000Y-112821428D01*
X137600000Y-112892857D01*
X137623809Y-112940476D01*
X137647619Y-112964285D01*
X137695238Y-112988095D01*
X137885714Y-112988095D01*
X137504761Y-113273809D02*
X137123809Y-113273809D01*
X137076190Y-112726190D02*
X136790476Y-112726190D01*
X136933333Y-113226190D02*
X136933333Y-112726190D01*
X136671428Y-112726190D02*
X136338095Y-113226190D01*
X136338095Y-112726190D02*
X136671428Y-113226190D01*
X136145238Y-113126190D02*
X135978571Y-113626190D01*
X135811904Y-113126190D01*
X135359523Y-113578571D02*
X135383333Y-113602380D01*
X135454761Y-113626190D01*
X135502380Y-113626190D01*
X135573809Y-113602380D01*
X135621428Y-113554761D01*
X135645238Y-113507142D01*
X135669047Y-113411904D01*
X135669047Y-113340476D01*
X135645238Y-113245238D01*
X135621428Y-113197619D01*
X135573809Y-113150000D01*
X135502380Y-113126190D01*
X135454761Y-113126190D01*
X135383333Y-113150000D01*
X135359523Y-113173809D01*
X135145238Y-113626190D02*
X135145238Y-113126190D01*
X134954761Y-113126190D01*
X134907142Y-113150000D01*
X134883333Y-113173809D01*
X134859523Y-113221428D01*
X134859523Y-113292857D01*
X134883333Y-113340476D01*
X134907142Y-113364285D01*
X134954761Y-113388095D01*
X135145238Y-113388095D01*
X134764285Y-113673809D02*
X134383333Y-113673809D01*
X133978571Y-113626190D02*
X134145238Y-113388095D01*
X134264285Y-113626190D02*
X134264285Y-113126190D01*
X134073809Y-113126190D01*
X134026190Y-113150000D01*
X134002380Y-113173809D01*
X133978571Y-113221428D01*
X133978571Y-113292857D01*
X134002380Y-113340476D01*
X134026190Y-113364285D01*
X134073809Y-113388095D01*
X134264285Y-113388095D01*
X133811904Y-113126190D02*
X133478571Y-113626190D01*
X133478571Y-113126190D02*
X133811904Y-113626190D01*
D13*
X173624721Y-68190000D02*
X173950279Y-68190000D01*
X173624721Y-69210000D02*
X173950279Y-69210000D01*
X132690000Y-96050279D02*
X132690000Y-95724721D01*
X133710000Y-96050279D02*
X133710000Y-95724721D01*
X172420000Y-91430000D02*
X182660000Y-91430000D01*
X172420000Y-96071000D02*
X182660000Y-96071000D01*
X172420000Y-91430000D02*
X172420000Y-96071000D01*
X182660000Y-91430000D02*
X182660000Y-96071000D01*
X172420000Y-92940000D02*
X182660000Y-92940000D01*
X175690000Y-91430000D02*
X175690000Y-92940000D01*
X179391000Y-91430000D02*
X179391000Y-92940000D01*
X133935000Y-91687500D02*
X133935000Y-89402500D01*
X133935000Y-89402500D02*
X132465000Y-89402500D01*
X132465000Y-89402500D02*
X132465000Y-91687500D01*
X189700000Y-105700000D02*
X189700000Y-111500000D01*
X118400000Y-105700000D02*
X118400000Y-111500000D01*
X118400000Y-111500000D02*
X189700000Y-111500000D01*
X189700000Y-105700000D02*
X118400000Y-105700000D01*
X105300000Y-111500000D02*
X105300000Y-105700000D01*
X116600000Y-111500000D02*
X105300000Y-111500000D01*
X116600000Y-105700000D02*
X116600000Y-111500000D01*
X105300000Y-105700000D02*
X116600000Y-105700000D01*
X118400000Y-102500000D02*
X118400000Y-105700000D01*
X116600000Y-102500000D02*
X118400000Y-102500000D01*
X116600000Y-105700000D02*
X116600000Y-102500000D01*
X137135000Y-91687500D02*
X137135000Y-89402500D01*
X137135000Y-89402500D02*
X135665000Y-89402500D01*
X135665000Y-89402500D02*
X135665000Y-91687500D01*
D14*
X141675000Y-86500000D02*
X140200000Y-86500000D01*
D13*
X151340000Y-70430000D02*
X161580000Y-70430000D01*
X151340000Y-75071000D02*
X161580000Y-75071000D01*
X151340000Y-70430000D02*
X151340000Y-75071000D01*
X161580000Y-70430000D02*
X161580000Y-75071000D01*
X151340000Y-71940000D02*
X161580000Y-71940000D01*
X154610000Y-70430000D02*
X154610000Y-71940000D01*
X158311000Y-70430000D02*
X158311000Y-71940000D01*
D14*
X122688000Y-74305000D02*
X125888000Y-74305000D01*
X125888000Y-74305000D02*
X125888000Y-84205000D01*
X125888000Y-84205000D02*
X122688000Y-84205000D01*
X122688000Y-84205000D02*
X122688000Y-74305000D01*
X120813000Y-74135000D02*
X122338000Y-74135000D01*
D13*
X152624721Y-68190000D02*
X152950279Y-68190000D01*
X152624721Y-69210000D02*
X152950279Y-69210000D01*
X114024721Y-69990000D02*
X114350279Y-69990000D01*
X114024721Y-71010000D02*
X114350279Y-71010000D01*
X107510000Y-88537221D02*
X107510000Y-88862779D01*
X106490000Y-88537221D02*
X106490000Y-88862779D01*
X151420000Y-91430000D02*
X161660000Y-91430000D01*
X151420000Y-96071000D02*
X161660000Y-96071000D01*
X151420000Y-91430000D02*
X151420000Y-96071000D01*
X161660000Y-91430000D02*
X161660000Y-96071000D01*
X151420000Y-92940000D02*
X161660000Y-92940000D01*
X154690000Y-91430000D02*
X154690000Y-92940000D01*
X158391000Y-91430000D02*
X158391000Y-92940000D01*
X172420000Y-70430000D02*
X182660000Y-70430000D01*
X172420000Y-75071000D02*
X182660000Y-75071000D01*
X172420000Y-70430000D02*
X172420000Y-75071000D01*
X182660000Y-70430000D02*
X182660000Y-75071000D01*
X172420000Y-71940000D02*
X182660000Y-71940000D01*
X175690000Y-70430000D02*
X175690000Y-71940000D01*
X179391000Y-70430000D02*
X179391000Y-71940000D01*
X110387500Y-69765000D02*
X108102500Y-69765000D01*
X108102500Y-69765000D02*
X108102500Y-71235000D01*
X108102500Y-71235000D02*
X110387500Y-71235000D01*
X118710000Y-68370000D02*
X118710000Y-71030000D01*
X128930000Y-68370000D02*
X118710000Y-68370000D01*
X128930000Y-71030000D02*
X118710000Y-71030000D01*
X128930000Y-68370000D02*
X128930000Y-71030000D01*
X130200000Y-68370000D02*
X131530000Y-68370000D01*
X131530000Y-68370000D02*
X131530000Y-69700000D01*
X142587500Y-72965000D02*
X140302500Y-72965000D01*
X140302500Y-72965000D02*
X140302500Y-74435000D01*
X140302500Y-74435000D02*
X142587500Y-74435000D01*
X146678922Y-84590000D02*
X147196078Y-84590000D01*
X146678922Y-86010000D02*
X147196078Y-86010000D01*
X114049721Y-72990000D02*
X114375279Y-72990000D01*
X114049721Y-74010000D02*
X114375279Y-74010000D01*
X112212132Y-76874751D02*
X112000000Y-76662619D01*
X112000000Y-76662619D02*
X111787868Y-76874751D01*
X116893179Y-81555798D02*
X117105311Y-81767930D01*
X117105311Y-81767930D02*
X116893179Y-81980062D01*
X107106821Y-81980062D02*
X106894689Y-81767930D01*
X106894689Y-81767930D02*
X107106821Y-81555798D01*
X111787868Y-86661109D02*
X112000000Y-86873241D01*
X112000000Y-86873241D02*
X112212132Y-86661109D01*
X112212132Y-86661109D02*
X113141977Y-87590954D01*
X135890000Y-96050279D02*
X135890000Y-95724721D01*
X136910000Y-96050279D02*
X136910000Y-95724721D01*
X152950279Y-100210000D02*
X152624721Y-100210000D01*
X152950279Y-99190000D02*
X152624721Y-99190000D01*
X174162779Y-100210000D02*
X173837221Y-100210000D01*
X174162779Y-99190000D02*
X173837221Y-99190000D01*
X113060000Y-99110000D02*
X113060000Y-97850000D01*
X113060000Y-92290000D02*
X113060000Y-93550000D01*
X109300000Y-99110000D02*
X113060000Y-99110000D01*
X107050000Y-92290000D02*
X113060000Y-92290000D01*
X127910000Y-97110000D02*
X127910000Y-95850000D01*
X127910000Y-90290000D02*
X127910000Y-91550000D01*
X124150000Y-97110000D02*
X127910000Y-97110000D01*
X121900000Y-90290000D02*
X127910000Y-90290000D01*
X107521078Y-101410000D02*
X107003922Y-101410000D01*
X107521078Y-99990000D02*
X107003922Y-99990000D01*
X111741422Y-88990000D02*
X112258578Y-88990000D01*
X111741422Y-90410000D02*
X112258578Y-90410000D01*
X117290000Y-97021078D02*
X117290000Y-96503922D01*
X118710000Y-97021078D02*
X118710000Y-96503922D01*
X132321078Y-74410000D02*
X131803922Y-74410000D01*
X132321078Y-72990000D02*
X131803922Y-72990000D01*
X122196078Y-100410000D02*
X121678922Y-100410000D01*
X122196078Y-98990000D02*
X121678922Y-98990000D01*
X127878922Y-86990000D02*
X128396078Y-86990000D01*
X127878922Y-88410000D02*
X128396078Y-88410000D01*
X110412500Y-72765000D02*
X108127500Y-72765000D01*
X108127500Y-72765000D02*
X108127500Y-74235000D01*
X108127500Y-74235000D02*
X110412500Y-74235000D01*
X137196078Y-74410000D02*
X136678922Y-74410000D01*
X137196078Y-72990000D02*
X136678922Y-72990000D01*
X146678922Y-81190000D02*
X147196078Y-81190000D01*
X146678922Y-82610000D02*
X147196078Y-82610000D01*
X146678922Y-77790000D02*
X147196078Y-77790000D01*
X146678922Y-79210000D02*
X147196078Y-79210000D01*
X114049721Y-119310000D02*
X114375279Y-119310000D01*
X114049721Y-118290000D02*
X114375279Y-118290000D01*
X146678922Y-131310000D02*
X147196078Y-131310000D01*
X146678922Y-129890000D02*
X147196078Y-129890000D01*
X121900000Y-135590000D02*
X127910000Y-135590000D01*
X124150000Y-142410000D02*
X127910000Y-142410000D01*
X127910000Y-135590000D02*
X127910000Y-136850000D01*
X127910000Y-142410000D02*
X127910000Y-141150000D01*
X112212132Y-131961109D02*
X113141977Y-132890954D01*
X112000000Y-132173241D02*
X112212132Y-131961109D01*
X111787868Y-131961109D02*
X112000000Y-132173241D01*
X106894689Y-127067930D02*
X107106821Y-126855798D01*
X107106821Y-127280062D02*
X106894689Y-127067930D01*
X117105311Y-127067930D02*
X116893179Y-127280062D01*
X116893179Y-126855798D02*
X117105311Y-127067930D01*
X112000000Y-121962619D02*
X111787868Y-122174751D01*
X112212132Y-122174751D02*
X112000000Y-121962619D01*
X107050000Y-137590000D02*
X113060000Y-137590000D01*
X109300000Y-144410000D02*
X113060000Y-144410000D01*
X113060000Y-137590000D02*
X113060000Y-138850000D01*
X113060000Y-144410000D02*
X113060000Y-143150000D01*
X174162779Y-144490000D02*
X173837221Y-144490000D01*
X174162779Y-145510000D02*
X173837221Y-145510000D01*
X152950279Y-144490000D02*
X152624721Y-144490000D01*
X152950279Y-145510000D02*
X152624721Y-145510000D01*
X136910000Y-141350279D02*
X136910000Y-141024721D01*
X135890000Y-141350279D02*
X135890000Y-141024721D01*
X133710000Y-141350279D02*
X133710000Y-141024721D01*
X132690000Y-141350279D02*
X132690000Y-141024721D01*
X106490000Y-133837221D02*
X106490000Y-134162779D01*
X107510000Y-133837221D02*
X107510000Y-134162779D01*
X173624721Y-114510000D02*
X173950279Y-114510000D01*
X173624721Y-113490000D02*
X173950279Y-113490000D01*
X152624721Y-114510000D02*
X152950279Y-114510000D01*
X152624721Y-113490000D02*
X152950279Y-113490000D01*
X114024721Y-116310000D02*
X114350279Y-116310000D01*
X114024721Y-115290000D02*
X114350279Y-115290000D01*
X179391000Y-136730000D02*
X179391000Y-138240000D01*
X175690000Y-136730000D02*
X175690000Y-138240000D01*
X172420000Y-138240000D02*
X182660000Y-138240000D01*
X182660000Y-136730000D02*
X182660000Y-141371000D01*
X172420000Y-136730000D02*
X172420000Y-141371000D01*
X172420000Y-141371000D02*
X182660000Y-141371000D01*
X172420000Y-136730000D02*
X182660000Y-136730000D01*
X158391000Y-136730000D02*
X158391000Y-138240000D01*
X154690000Y-136730000D02*
X154690000Y-138240000D01*
X151420000Y-138240000D02*
X161660000Y-138240000D01*
X161660000Y-136730000D02*
X161660000Y-141371000D01*
X151420000Y-136730000D02*
X151420000Y-141371000D01*
X151420000Y-141371000D02*
X161660000Y-141371000D01*
X151420000Y-136730000D02*
X161660000Y-136730000D01*
X179391000Y-115730000D02*
X179391000Y-117240000D01*
X175690000Y-115730000D02*
X175690000Y-117240000D01*
X172420000Y-117240000D02*
X182660000Y-117240000D01*
X182660000Y-115730000D02*
X182660000Y-120371000D01*
X172420000Y-115730000D02*
X172420000Y-120371000D01*
X172420000Y-120371000D02*
X182660000Y-120371000D01*
X172420000Y-115730000D02*
X182660000Y-115730000D01*
X158311000Y-115730000D02*
X158311000Y-117240000D01*
X154610000Y-115730000D02*
X154610000Y-117240000D01*
X151340000Y-117240000D02*
X161580000Y-117240000D01*
X161580000Y-115730000D02*
X161580000Y-120371000D01*
X151340000Y-115730000D02*
X151340000Y-120371000D01*
X151340000Y-120371000D02*
X161580000Y-120371000D01*
X151340000Y-115730000D02*
X161580000Y-115730000D01*
X116600000Y-151000000D02*
X116600000Y-147800000D01*
X116600000Y-147800000D02*
X118400000Y-147800000D01*
X118400000Y-147800000D02*
X118400000Y-151000000D01*
X105300000Y-151000000D02*
X116600000Y-151000000D01*
X116600000Y-151000000D02*
X116600000Y-156800000D01*
X116600000Y-156800000D02*
X105300000Y-156800000D01*
X105300000Y-156800000D02*
X105300000Y-151000000D01*
X189700000Y-151000000D02*
X118400000Y-151000000D01*
X118400000Y-156800000D02*
X189700000Y-156800000D01*
X118400000Y-151000000D02*
X118400000Y-156800000D01*
X189700000Y-151000000D02*
X189700000Y-156800000D01*
X131530000Y-113670000D02*
X131530000Y-115000000D01*
X130200000Y-113670000D02*
X131530000Y-113670000D01*
X128930000Y-113670000D02*
X128930000Y-116330000D01*
X128930000Y-116330000D02*
X118710000Y-116330000D01*
X128930000Y-113670000D02*
X118710000Y-113670000D01*
X118710000Y-113670000D02*
X118710000Y-116330000D01*
D14*
X141675000Y-131800000D02*
X140200000Y-131800000D01*
X120813000Y-119435000D02*
X122338000Y-119435000D01*
X122688000Y-129505000D02*
X122688000Y-119605000D01*
X125888000Y-129505000D02*
X122688000Y-129505000D01*
X125888000Y-119605000D02*
X125888000Y-129505000D01*
X122688000Y-119605000D02*
X125888000Y-119605000D01*
D13*
X140302500Y-119735000D02*
X142587500Y-119735000D01*
X140302500Y-118265000D02*
X140302500Y-119735000D01*
X142587500Y-118265000D02*
X140302500Y-118265000D01*
X135665000Y-134702500D02*
X135665000Y-136987500D01*
X137135000Y-134702500D02*
X135665000Y-134702500D01*
X137135000Y-136987500D02*
X137135000Y-134702500D01*
X132465000Y-134702500D02*
X132465000Y-136987500D01*
X133935000Y-134702500D02*
X132465000Y-134702500D01*
X133935000Y-136987500D02*
X133935000Y-134702500D01*
X108102500Y-116535000D02*
X110387500Y-116535000D01*
X108102500Y-115065000D02*
X108102500Y-116535000D01*
X110387500Y-115065000D02*
X108102500Y-115065000D01*
X108127500Y-119535000D02*
X110412500Y-119535000D01*
X108127500Y-118065000D02*
X108127500Y-119535000D01*
X110412500Y-118065000D02*
X108127500Y-118065000D01*
X127878922Y-133710000D02*
X128396078Y-133710000D01*
X127878922Y-132290000D02*
X128396078Y-132290000D01*
X122196078Y-144290000D02*
X121678922Y-144290000D01*
X122196078Y-145710000D02*
X121678922Y-145710000D01*
X132321078Y-118290000D02*
X131803922Y-118290000D01*
X132321078Y-119710000D02*
X131803922Y-119710000D01*
X137196078Y-118290000D02*
X136678922Y-118290000D01*
X137196078Y-119710000D02*
X136678922Y-119710000D01*
X146678922Y-124510000D02*
X147196078Y-124510000D01*
X146678922Y-123090000D02*
X147196078Y-123090000D01*
X146678922Y-127910000D02*
X147196078Y-127910000D01*
X146678922Y-126490000D02*
X147196078Y-126490000D01*
X111741422Y-135710000D02*
X112258578Y-135710000D01*
X111741422Y-134290000D02*
X112258578Y-134290000D01*
X118710000Y-142321078D02*
X118710000Y-141803922D01*
X117290000Y-142321078D02*
X117290000Y-141803922D01*
X107521078Y-145290000D02*
X107003922Y-145290000D01*
X107521078Y-146710000D02*
X107003922Y-146710000D01*
D10*
X173620833Y-67722380D02*
X173287500Y-67246190D01*
X173049404Y-67722380D02*
X173049404Y-66722380D01*
X173430357Y-66722380D01*
X173525595Y-66770000D01*
X173573214Y-66817619D01*
X173620833Y-66912857D01*
X173620833Y-67055714D01*
X173573214Y-67150952D01*
X173525595Y-67198571D01*
X173430357Y-67246190D01*
X173049404Y-67246190D01*
X174477976Y-67055714D02*
X174477976Y-67722380D01*
X174239880Y-66674761D02*
X174001785Y-67389047D01*
X174620833Y-67389047D01*
X132222380Y-96054166D02*
X131746190Y-96387500D01*
X132222380Y-96625595D02*
X131222380Y-96625595D01*
X131222380Y-96244642D01*
X131270000Y-96149404D01*
X131317619Y-96101785D01*
X131412857Y-96054166D01*
X131555714Y-96054166D01*
X131650952Y-96101785D01*
X131698571Y-96149404D01*
X131746190Y-96244642D01*
X131746190Y-96625595D01*
X131222380Y-95197023D02*
X131222380Y-95387500D01*
X131270000Y-95482738D01*
X131317619Y-95530357D01*
X131460476Y-95625595D01*
X131650952Y-95673214D01*
X132031904Y-95673214D01*
X132127142Y-95625595D01*
X132174761Y-95577976D01*
X132222380Y-95482738D01*
X132222380Y-95292261D01*
X132174761Y-95197023D01*
X132127142Y-95149404D01*
X132031904Y-95101785D01*
X131793809Y-95101785D01*
X131698571Y-95149404D01*
X131650952Y-95197023D01*
X131603333Y-95292261D01*
X131603333Y-95482738D01*
X131650952Y-95577976D01*
X131698571Y-95625595D01*
X131793809Y-95673214D01*
X177444761Y-90977619D02*
X177349523Y-90930000D01*
X177254285Y-90834761D01*
X177111428Y-90691904D01*
X177016190Y-90644285D01*
X176920952Y-90644285D01*
X176968571Y-90882380D02*
X176873333Y-90834761D01*
X176778095Y-90739523D01*
X176730476Y-90549047D01*
X176730476Y-90215714D01*
X176778095Y-90025238D01*
X176873333Y-89930000D01*
X176968571Y-89882380D01*
X177159047Y-89882380D01*
X177254285Y-89930000D01*
X177349523Y-90025238D01*
X177397142Y-90215714D01*
X177397142Y-90549047D01*
X177349523Y-90739523D01*
X177254285Y-90834761D01*
X177159047Y-90882380D01*
X176968571Y-90882380D01*
X178254285Y-90215714D02*
X178254285Y-90882380D01*
X178016190Y-89834761D02*
X177778095Y-90549047D01*
X178397142Y-90549047D01*
X135082380Y-91625595D02*
X134082380Y-91625595D01*
X134082380Y-91387500D01*
X134130000Y-91244642D01*
X134225238Y-91149404D01*
X134320476Y-91101785D01*
X134510952Y-91054166D01*
X134653809Y-91054166D01*
X134844285Y-91101785D01*
X134939523Y-91149404D01*
X135034761Y-91244642D01*
X135082380Y-91387500D01*
X135082380Y-91625595D01*
X134082380Y-90720833D02*
X134082380Y-90101785D01*
X134463333Y-90435119D01*
X134463333Y-90292261D01*
X134510952Y-90197023D01*
X134558571Y-90149404D01*
X134653809Y-90101785D01*
X134891904Y-90101785D01*
X134987142Y-90149404D01*
X135034761Y-90197023D01*
X135082380Y-90292261D01*
X135082380Y-90577976D01*
X135034761Y-90673214D01*
X134987142Y-90720833D01*
X110716666Y-103842380D02*
X110716666Y-104556666D01*
X110669047Y-104699523D01*
X110573809Y-104794761D01*
X110430952Y-104842380D01*
X110335714Y-104842380D01*
X111621428Y-104175714D02*
X111621428Y-104842380D01*
X111383333Y-103794761D02*
X111145238Y-104509047D01*
X111764285Y-104509047D01*
X138282380Y-91625595D02*
X137282380Y-91625595D01*
X137282380Y-91387500D01*
X137330000Y-91244642D01*
X137425238Y-91149404D01*
X137520476Y-91101785D01*
X137710952Y-91054166D01*
X137853809Y-91054166D01*
X138044285Y-91101785D01*
X138139523Y-91149404D01*
X138234761Y-91244642D01*
X138282380Y-91387500D01*
X138282380Y-91625595D01*
X137615714Y-90197023D02*
X138282380Y-90197023D01*
X137234761Y-90435119D02*
X137949047Y-90673214D01*
X137949047Y-90054166D01*
D15*
X136760238Y-82274523D02*
X136760238Y-81004523D01*
X138090714Y-82153571D02*
X138030238Y-82214047D01*
X137848809Y-82274523D01*
X137727857Y-82274523D01*
X137546428Y-82214047D01*
X137425476Y-82093095D01*
X137365000Y-81972142D01*
X137304523Y-81730238D01*
X137304523Y-81548809D01*
X137365000Y-81306904D01*
X137425476Y-81185952D01*
X137546428Y-81065000D01*
X137727857Y-81004523D01*
X137848809Y-81004523D01*
X138030238Y-81065000D01*
X138090714Y-81125476D01*
X138574523Y-81125476D02*
X138635000Y-81065000D01*
X138755952Y-81004523D01*
X139058333Y-81004523D01*
X139179285Y-81065000D01*
X139239761Y-81125476D01*
X139300238Y-81246428D01*
X139300238Y-81367380D01*
X139239761Y-81548809D01*
X138514047Y-82274523D01*
X139300238Y-82274523D01*
D10*
X156364761Y-69977619D02*
X156269523Y-69930000D01*
X156174285Y-69834761D01*
X156031428Y-69691904D01*
X155936190Y-69644285D01*
X155840952Y-69644285D01*
X155888571Y-69882380D02*
X155793333Y-69834761D01*
X155698095Y-69739523D01*
X155650476Y-69549047D01*
X155650476Y-69215714D01*
X155698095Y-69025238D01*
X155793333Y-68930000D01*
X155888571Y-68882380D01*
X156079047Y-68882380D01*
X156174285Y-68930000D01*
X156269523Y-69025238D01*
X156317142Y-69215714D01*
X156317142Y-69549047D01*
X156269523Y-69739523D01*
X156174285Y-69834761D01*
X156079047Y-69882380D01*
X155888571Y-69882380D01*
X157269523Y-69882380D02*
X156698095Y-69882380D01*
X156983809Y-69882380D02*
X156983809Y-68882380D01*
X156888571Y-69025238D01*
X156793333Y-69120476D01*
X156698095Y-69168095D01*
D15*
X123048238Y-79829523D02*
X123048238Y-78559523D01*
X124378714Y-79708571D02*
X124318238Y-79769047D01*
X124136809Y-79829523D01*
X124015857Y-79829523D01*
X123834428Y-79769047D01*
X123713476Y-79648095D01*
X123653000Y-79527142D01*
X123592523Y-79285238D01*
X123592523Y-79103809D01*
X123653000Y-78861904D01*
X123713476Y-78740952D01*
X123834428Y-78620000D01*
X124015857Y-78559523D01*
X124136809Y-78559523D01*
X124318238Y-78620000D01*
X124378714Y-78680476D01*
X125588238Y-79829523D02*
X124862523Y-79829523D01*
X125225380Y-79829523D02*
X125225380Y-78559523D01*
X125104428Y-78740952D01*
X124983476Y-78861904D01*
X124862523Y-78922380D01*
D10*
X152620833Y-67722380D02*
X152287500Y-67246190D01*
X152049404Y-67722380D02*
X152049404Y-66722380D01*
X152430357Y-66722380D01*
X152525595Y-66770000D01*
X152573214Y-66817619D01*
X152620833Y-66912857D01*
X152620833Y-67055714D01*
X152573214Y-67150952D01*
X152525595Y-67198571D01*
X152430357Y-67246190D01*
X152049404Y-67246190D01*
X152954166Y-66722380D02*
X153573214Y-66722380D01*
X153239880Y-67103333D01*
X153382738Y-67103333D01*
X153477976Y-67150952D01*
X153525595Y-67198571D01*
X153573214Y-67293809D01*
X153573214Y-67531904D01*
X153525595Y-67627142D01*
X153477976Y-67674761D01*
X153382738Y-67722380D01*
X153097023Y-67722380D01*
X153001785Y-67674761D01*
X152954166Y-67627142D01*
X114020833Y-69522380D02*
X113687500Y-69046190D01*
X113449404Y-69522380D02*
X113449404Y-68522380D01*
X113830357Y-68522380D01*
X113925595Y-68570000D01*
X113973214Y-68617619D01*
X114020833Y-68712857D01*
X114020833Y-68855714D01*
X113973214Y-68950952D01*
X113925595Y-68998571D01*
X113830357Y-69046190D01*
X113449404Y-69046190D01*
X114401785Y-68617619D02*
X114449404Y-68570000D01*
X114544642Y-68522380D01*
X114782738Y-68522380D01*
X114877976Y-68570000D01*
X114925595Y-68617619D01*
X114973214Y-68712857D01*
X114973214Y-68808095D01*
X114925595Y-68950952D01*
X114354166Y-69522380D01*
X114973214Y-69522380D01*
X108882380Y-88866666D02*
X108406190Y-89200000D01*
X108882380Y-89438095D02*
X107882380Y-89438095D01*
X107882380Y-89057142D01*
X107930000Y-88961904D01*
X107977619Y-88914285D01*
X108072857Y-88866666D01*
X108215714Y-88866666D01*
X108310952Y-88914285D01*
X108358571Y-88961904D01*
X108406190Y-89057142D01*
X108406190Y-89438095D01*
X107882380Y-87961904D02*
X107882380Y-88438095D01*
X108358571Y-88485714D01*
X108310952Y-88438095D01*
X108263333Y-88342857D01*
X108263333Y-88104761D01*
X108310952Y-88009523D01*
X108358571Y-87961904D01*
X108453809Y-87914285D01*
X108691904Y-87914285D01*
X108787142Y-87961904D01*
X108834761Y-88009523D01*
X108882380Y-88104761D01*
X108882380Y-88342857D01*
X108834761Y-88438095D01*
X108787142Y-88485714D01*
X156444761Y-90977619D02*
X156349523Y-90930000D01*
X156254285Y-90834761D01*
X156111428Y-90691904D01*
X156016190Y-90644285D01*
X155920952Y-90644285D01*
X155968571Y-90882380D02*
X155873333Y-90834761D01*
X155778095Y-90739523D01*
X155730476Y-90549047D01*
X155730476Y-90215714D01*
X155778095Y-90025238D01*
X155873333Y-89930000D01*
X155968571Y-89882380D01*
X156159047Y-89882380D01*
X156254285Y-89930000D01*
X156349523Y-90025238D01*
X156397142Y-90215714D01*
X156397142Y-90549047D01*
X156349523Y-90739523D01*
X156254285Y-90834761D01*
X156159047Y-90882380D01*
X155968571Y-90882380D01*
X156730476Y-89882380D02*
X157349523Y-89882380D01*
X157016190Y-90263333D01*
X157159047Y-90263333D01*
X157254285Y-90310952D01*
X157301904Y-90358571D01*
X157349523Y-90453809D01*
X157349523Y-90691904D01*
X157301904Y-90787142D01*
X157254285Y-90834761D01*
X157159047Y-90882380D01*
X156873333Y-90882380D01*
X156778095Y-90834761D01*
X156730476Y-90787142D01*
X177444761Y-69977619D02*
X177349523Y-69930000D01*
X177254285Y-69834761D01*
X177111428Y-69691904D01*
X177016190Y-69644285D01*
X176920952Y-69644285D01*
X176968571Y-69882380D02*
X176873333Y-69834761D01*
X176778095Y-69739523D01*
X176730476Y-69549047D01*
X176730476Y-69215714D01*
X176778095Y-69025238D01*
X176873333Y-68930000D01*
X176968571Y-68882380D01*
X177159047Y-68882380D01*
X177254285Y-68930000D01*
X177349523Y-69025238D01*
X177397142Y-69215714D01*
X177397142Y-69549047D01*
X177349523Y-69739523D01*
X177254285Y-69834761D01*
X177159047Y-69882380D01*
X176968571Y-69882380D01*
X177778095Y-68977619D02*
X177825714Y-68930000D01*
X177920952Y-68882380D01*
X178159047Y-68882380D01*
X178254285Y-68930000D01*
X178301904Y-68977619D01*
X178349523Y-69072857D01*
X178349523Y-69168095D01*
X178301904Y-69310952D01*
X177730476Y-69882380D01*
X178349523Y-69882380D01*
X108849404Y-69522380D02*
X108849404Y-68522380D01*
X109087500Y-68522380D01*
X109230357Y-68570000D01*
X109325595Y-68665238D01*
X109373214Y-68760476D01*
X109420833Y-68950952D01*
X109420833Y-69093809D01*
X109373214Y-69284285D01*
X109325595Y-69379523D01*
X109230357Y-69474761D01*
X109087500Y-69522380D01*
X108849404Y-69522380D01*
X109801785Y-68617619D02*
X109849404Y-68570000D01*
X109944642Y-68522380D01*
X110182738Y-68522380D01*
X110277976Y-68570000D01*
X110325595Y-68617619D01*
X110373214Y-68712857D01*
X110373214Y-68808095D01*
X110325595Y-68950952D01*
X109754166Y-69522380D01*
X110373214Y-69522380D01*
X131982380Y-70033333D02*
X132696666Y-70033333D01*
X132839523Y-70080952D01*
X132934761Y-70176190D01*
X132982380Y-70319047D01*
X132982380Y-70414285D01*
X131982380Y-69652380D02*
X131982380Y-69033333D01*
X132363333Y-69366666D01*
X132363333Y-69223809D01*
X132410952Y-69128571D01*
X132458571Y-69080952D01*
X132553809Y-69033333D01*
X132791904Y-69033333D01*
X132887142Y-69080952D01*
X132934761Y-69128571D01*
X132982380Y-69223809D01*
X132982380Y-69509523D01*
X132934761Y-69604761D01*
X132887142Y-69652380D01*
X141049404Y-72722380D02*
X141049404Y-71722380D01*
X141287500Y-71722380D01*
X141430357Y-71770000D01*
X141525595Y-71865238D01*
X141573214Y-71960476D01*
X141620833Y-72150952D01*
X141620833Y-72293809D01*
X141573214Y-72484285D01*
X141525595Y-72579523D01*
X141430357Y-72674761D01*
X141287500Y-72722380D01*
X141049404Y-72722380D01*
X142525595Y-71722380D02*
X142049404Y-71722380D01*
X142001785Y-72198571D01*
X142049404Y-72150952D01*
X142144642Y-72103333D01*
X142382738Y-72103333D01*
X142477976Y-72150952D01*
X142525595Y-72198571D01*
X142573214Y-72293809D01*
X142573214Y-72531904D01*
X142525595Y-72627142D01*
X142477976Y-72674761D01*
X142382738Y-72722380D01*
X142144642Y-72722380D01*
X142049404Y-72674761D01*
X142001785Y-72627142D01*
X146770833Y-84007142D02*
X146723214Y-84054761D01*
X146580357Y-84102380D01*
X146485119Y-84102380D01*
X146342261Y-84054761D01*
X146247023Y-83959523D01*
X146199404Y-83864285D01*
X146151785Y-83673809D01*
X146151785Y-83530952D01*
X146199404Y-83340476D01*
X146247023Y-83245238D01*
X146342261Y-83150000D01*
X146485119Y-83102380D01*
X146580357Y-83102380D01*
X146723214Y-83150000D01*
X146770833Y-83197619D01*
X147104166Y-83102380D02*
X147770833Y-83102380D01*
X147342261Y-84102380D01*
X114045833Y-72522380D02*
X113712500Y-72046190D01*
X113474404Y-72522380D02*
X113474404Y-71522380D01*
X113855357Y-71522380D01*
X113950595Y-71570000D01*
X113998214Y-71617619D01*
X114045833Y-71712857D01*
X114045833Y-71855714D01*
X113998214Y-71950952D01*
X113950595Y-71998571D01*
X113855357Y-72046190D01*
X113474404Y-72046190D01*
X114998214Y-72522380D02*
X114426785Y-72522380D01*
X114712500Y-72522380D02*
X114712500Y-71522380D01*
X114617261Y-71665238D01*
X114522023Y-71760476D01*
X114426785Y-71808095D01*
X107690689Y-84999744D02*
X107118269Y-85572164D01*
X107084597Y-85673179D01*
X107084597Y-85740523D01*
X107118269Y-85841538D01*
X107252956Y-85976225D01*
X107353971Y-86009897D01*
X107421315Y-86009897D01*
X107522330Y-85976225D01*
X108094750Y-85403805D01*
X108330452Y-85774195D02*
X108397795Y-85774195D01*
X108498811Y-85807866D01*
X108667169Y-85976225D01*
X108700841Y-86077240D01*
X108700841Y-86144584D01*
X108667169Y-86245599D01*
X108599826Y-86312943D01*
X108465139Y-86380286D01*
X107657017Y-86380286D01*
X108094750Y-86818019D01*
X135422380Y-96054166D02*
X134946190Y-96387500D01*
X135422380Y-96625595D02*
X134422380Y-96625595D01*
X134422380Y-96244642D01*
X134470000Y-96149404D01*
X134517619Y-96101785D01*
X134612857Y-96054166D01*
X134755714Y-96054166D01*
X134850952Y-96101785D01*
X134898571Y-96149404D01*
X134946190Y-96244642D01*
X134946190Y-96625595D01*
X134422380Y-95720833D02*
X134422380Y-95054166D01*
X135422380Y-95482738D01*
X152620833Y-101582380D02*
X152287500Y-101106190D01*
X152049404Y-101582380D02*
X152049404Y-100582380D01*
X152430357Y-100582380D01*
X152525595Y-100630000D01*
X152573214Y-100677619D01*
X152620833Y-100772857D01*
X152620833Y-100915714D01*
X152573214Y-101010952D01*
X152525595Y-101058571D01*
X152430357Y-101106190D01*
X152049404Y-101106190D01*
X153192261Y-101010952D02*
X153097023Y-100963333D01*
X153049404Y-100915714D01*
X153001785Y-100820476D01*
X153001785Y-100772857D01*
X153049404Y-100677619D01*
X153097023Y-100630000D01*
X153192261Y-100582380D01*
X153382738Y-100582380D01*
X153477976Y-100630000D01*
X153525595Y-100677619D01*
X153573214Y-100772857D01*
X153573214Y-100820476D01*
X153525595Y-100915714D01*
X153477976Y-100963333D01*
X153382738Y-101010952D01*
X153192261Y-101010952D01*
X153097023Y-101058571D01*
X153049404Y-101106190D01*
X153001785Y-101201428D01*
X153001785Y-101391904D01*
X153049404Y-101487142D01*
X153097023Y-101534761D01*
X153192261Y-101582380D01*
X153382738Y-101582380D01*
X153477976Y-101534761D01*
X153525595Y-101487142D01*
X153573214Y-101391904D01*
X153573214Y-101201428D01*
X153525595Y-101106190D01*
X153477976Y-101058571D01*
X153382738Y-101010952D01*
X173833333Y-101582380D02*
X173500000Y-101106190D01*
X173261904Y-101582380D02*
X173261904Y-100582380D01*
X173642857Y-100582380D01*
X173738095Y-100630000D01*
X173785714Y-100677619D01*
X173833333Y-100772857D01*
X173833333Y-100915714D01*
X173785714Y-101010952D01*
X173738095Y-101058571D01*
X173642857Y-101106190D01*
X173261904Y-101106190D01*
X174309523Y-101582380D02*
X174500000Y-101582380D01*
X174595238Y-101534761D01*
X174642857Y-101487142D01*
X174738095Y-101344285D01*
X174785714Y-101153809D01*
X174785714Y-100772857D01*
X174738095Y-100677619D01*
X174690476Y-100630000D01*
X174595238Y-100582380D01*
X174404761Y-100582380D01*
X174309523Y-100630000D01*
X174261904Y-100677619D01*
X174214285Y-100772857D01*
X174214285Y-101010952D01*
X174261904Y-101106190D01*
X174309523Y-101153809D01*
X174404761Y-101201428D01*
X174595238Y-101201428D01*
X174690476Y-101153809D01*
X174738095Y-101106190D01*
X174785714Y-101010952D01*
X110388095Y-90652380D02*
X110388095Y-91461904D01*
X110435714Y-91557142D01*
X110483333Y-91604761D01*
X110578571Y-91652380D01*
X110769047Y-91652380D01*
X110864285Y-91604761D01*
X110911904Y-91557142D01*
X110959523Y-91461904D01*
X110959523Y-90652380D01*
X111959523Y-91652380D02*
X111388095Y-91652380D01*
X111673809Y-91652380D02*
X111673809Y-90652380D01*
X111578571Y-90795238D01*
X111483333Y-90890476D01*
X111388095Y-90938095D01*
X125238095Y-88652380D02*
X125238095Y-89461904D01*
X125285714Y-89557142D01*
X125333333Y-89604761D01*
X125428571Y-89652380D01*
X125619047Y-89652380D01*
X125714285Y-89604761D01*
X125761904Y-89557142D01*
X125809523Y-89461904D01*
X125809523Y-88652380D01*
X126714285Y-88985714D02*
X126714285Y-89652380D01*
X126476190Y-88604761D02*
X126238095Y-89319047D01*
X126857142Y-89319047D01*
X107095833Y-102707142D02*
X107048214Y-102754761D01*
X106905357Y-102802380D01*
X106810119Y-102802380D01*
X106667261Y-102754761D01*
X106572023Y-102659523D01*
X106524404Y-102564285D01*
X106476785Y-102373809D01*
X106476785Y-102230952D01*
X106524404Y-102040476D01*
X106572023Y-101945238D01*
X106667261Y-101850000D01*
X106810119Y-101802380D01*
X106905357Y-101802380D01*
X107048214Y-101850000D01*
X107095833Y-101897619D01*
X108048214Y-102802380D02*
X107476785Y-102802380D01*
X107762500Y-102802380D02*
X107762500Y-101802380D01*
X107667261Y-101945238D01*
X107572023Y-102040476D01*
X107476785Y-102088095D01*
X111833333Y-88407142D02*
X111785714Y-88454761D01*
X111642857Y-88502380D01*
X111547619Y-88502380D01*
X111404761Y-88454761D01*
X111309523Y-88359523D01*
X111261904Y-88264285D01*
X111214285Y-88073809D01*
X111214285Y-87930952D01*
X111261904Y-87740476D01*
X111309523Y-87645238D01*
X111404761Y-87550000D01*
X111547619Y-87502380D01*
X111642857Y-87502380D01*
X111785714Y-87550000D01*
X111833333Y-87597619D01*
X112166666Y-87502380D02*
X112785714Y-87502380D01*
X112452380Y-87883333D01*
X112595238Y-87883333D01*
X112690476Y-87930952D01*
X112738095Y-87978571D01*
X112785714Y-88073809D01*
X112785714Y-88311904D01*
X112738095Y-88407142D01*
X112690476Y-88454761D01*
X112595238Y-88502380D01*
X112309523Y-88502380D01*
X112214285Y-88454761D01*
X112166666Y-88407142D01*
X116707142Y-96929166D02*
X116754761Y-96976785D01*
X116802380Y-97119642D01*
X116802380Y-97214880D01*
X116754761Y-97357738D01*
X116659523Y-97452976D01*
X116564285Y-97500595D01*
X116373809Y-97548214D01*
X116230952Y-97548214D01*
X116040476Y-97500595D01*
X115945238Y-97452976D01*
X115850000Y-97357738D01*
X115802380Y-97214880D01*
X115802380Y-97119642D01*
X115850000Y-96976785D01*
X115897619Y-96929166D01*
X115897619Y-96548214D02*
X115850000Y-96500595D01*
X115802380Y-96405357D01*
X115802380Y-96167261D01*
X115850000Y-96072023D01*
X115897619Y-96024404D01*
X115992857Y-95976785D01*
X116088095Y-95976785D01*
X116230952Y-96024404D01*
X116802380Y-96595833D01*
X116802380Y-95976785D01*
X131419642Y-75707142D02*
X131372023Y-75754761D01*
X131229166Y-75802380D01*
X131133928Y-75802380D01*
X130991071Y-75754761D01*
X130895833Y-75659523D01*
X130848214Y-75564285D01*
X130800595Y-75373809D01*
X130800595Y-75230952D01*
X130848214Y-75040476D01*
X130895833Y-74945238D01*
X130991071Y-74850000D01*
X131133928Y-74802380D01*
X131229166Y-74802380D01*
X131372023Y-74850000D01*
X131419642Y-74897619D01*
X132372023Y-75802380D02*
X131800595Y-75802380D01*
X132086309Y-75802380D02*
X132086309Y-74802380D01*
X131991071Y-74945238D01*
X131895833Y-75040476D01*
X131800595Y-75088095D01*
X132991071Y-74802380D02*
X133086309Y-74802380D01*
X133181547Y-74850000D01*
X133229166Y-74897619D01*
X133276785Y-74992857D01*
X133324404Y-75183333D01*
X133324404Y-75421428D01*
X133276785Y-75611904D01*
X133229166Y-75707142D01*
X133181547Y-75754761D01*
X133086309Y-75802380D01*
X132991071Y-75802380D01*
X132895833Y-75754761D01*
X132848214Y-75707142D01*
X132800595Y-75611904D01*
X132752976Y-75421428D01*
X132752976Y-75183333D01*
X132800595Y-74992857D01*
X132848214Y-74897619D01*
X132895833Y-74850000D01*
X132991071Y-74802380D01*
X121294642Y-101707142D02*
X121247023Y-101754761D01*
X121104166Y-101802380D01*
X121008928Y-101802380D01*
X120866071Y-101754761D01*
X120770833Y-101659523D01*
X120723214Y-101564285D01*
X120675595Y-101373809D01*
X120675595Y-101230952D01*
X120723214Y-101040476D01*
X120770833Y-100945238D01*
X120866071Y-100850000D01*
X121008928Y-100802380D01*
X121104166Y-100802380D01*
X121247023Y-100850000D01*
X121294642Y-100897619D01*
X122247023Y-101802380D02*
X121675595Y-101802380D01*
X121961309Y-101802380D02*
X121961309Y-100802380D01*
X121866071Y-100945238D01*
X121770833Y-101040476D01*
X121675595Y-101088095D01*
X123199404Y-101802380D02*
X122627976Y-101802380D01*
X122913690Y-101802380D02*
X122913690Y-100802380D01*
X122818452Y-100945238D01*
X122723214Y-101040476D01*
X122627976Y-101088095D01*
X127494642Y-86407142D02*
X127447023Y-86454761D01*
X127304166Y-86502380D01*
X127208928Y-86502380D01*
X127066071Y-86454761D01*
X126970833Y-86359523D01*
X126923214Y-86264285D01*
X126875595Y-86073809D01*
X126875595Y-85930952D01*
X126923214Y-85740476D01*
X126970833Y-85645238D01*
X127066071Y-85550000D01*
X127208928Y-85502380D01*
X127304166Y-85502380D01*
X127447023Y-85550000D01*
X127494642Y-85597619D01*
X128447023Y-86502380D02*
X127875595Y-86502380D01*
X128161309Y-86502380D02*
X128161309Y-85502380D01*
X128066071Y-85645238D01*
X127970833Y-85740476D01*
X127875595Y-85788095D01*
X128780357Y-85502380D02*
X129399404Y-85502380D01*
X129066071Y-85883333D01*
X129208928Y-85883333D01*
X129304166Y-85930952D01*
X129351785Y-85978571D01*
X129399404Y-86073809D01*
X129399404Y-86311904D01*
X129351785Y-86407142D01*
X129304166Y-86454761D01*
X129208928Y-86502380D01*
X128923214Y-86502380D01*
X128827976Y-86454761D01*
X128780357Y-86407142D01*
X108874404Y-72522380D02*
X108874404Y-71522380D01*
X109112500Y-71522380D01*
X109255357Y-71570000D01*
X109350595Y-71665238D01*
X109398214Y-71760476D01*
X109445833Y-71950952D01*
X109445833Y-72093809D01*
X109398214Y-72284285D01*
X109350595Y-72379523D01*
X109255357Y-72474761D01*
X109112500Y-72522380D01*
X108874404Y-72522380D01*
X110398214Y-72522380D02*
X109826785Y-72522380D01*
X110112500Y-72522380D02*
X110112500Y-71522380D01*
X110017261Y-71665238D01*
X109922023Y-71760476D01*
X109826785Y-71808095D01*
X136770833Y-75707142D02*
X136723214Y-75754761D01*
X136580357Y-75802380D01*
X136485119Y-75802380D01*
X136342261Y-75754761D01*
X136247023Y-75659523D01*
X136199404Y-75564285D01*
X136151785Y-75373809D01*
X136151785Y-75230952D01*
X136199404Y-75040476D01*
X136247023Y-74945238D01*
X136342261Y-74850000D01*
X136485119Y-74802380D01*
X136580357Y-74802380D01*
X136723214Y-74850000D01*
X136770833Y-74897619D01*
X137247023Y-75802380D02*
X137437500Y-75802380D01*
X137532738Y-75754761D01*
X137580357Y-75707142D01*
X137675595Y-75564285D01*
X137723214Y-75373809D01*
X137723214Y-74992857D01*
X137675595Y-74897619D01*
X137627976Y-74850000D01*
X137532738Y-74802380D01*
X137342261Y-74802380D01*
X137247023Y-74850000D01*
X137199404Y-74897619D01*
X137151785Y-74992857D01*
X137151785Y-75230952D01*
X137199404Y-75326190D01*
X137247023Y-75373809D01*
X137342261Y-75421428D01*
X137532738Y-75421428D01*
X137627976Y-75373809D01*
X137675595Y-75326190D01*
X137723214Y-75230952D01*
X146770833Y-80607142D02*
X146723214Y-80654761D01*
X146580357Y-80702380D01*
X146485119Y-80702380D01*
X146342261Y-80654761D01*
X146247023Y-80559523D01*
X146199404Y-80464285D01*
X146151785Y-80273809D01*
X146151785Y-80130952D01*
X146199404Y-79940476D01*
X146247023Y-79845238D01*
X146342261Y-79750000D01*
X146485119Y-79702380D01*
X146580357Y-79702380D01*
X146723214Y-79750000D01*
X146770833Y-79797619D01*
X147627976Y-79702380D02*
X147437500Y-79702380D01*
X147342261Y-79750000D01*
X147294642Y-79797619D01*
X147199404Y-79940476D01*
X147151785Y-80130952D01*
X147151785Y-80511904D01*
X147199404Y-80607142D01*
X147247023Y-80654761D01*
X147342261Y-80702380D01*
X147532738Y-80702380D01*
X147627976Y-80654761D01*
X147675595Y-80607142D01*
X147723214Y-80511904D01*
X147723214Y-80273809D01*
X147675595Y-80178571D01*
X147627976Y-80130952D01*
X147532738Y-80083333D01*
X147342261Y-80083333D01*
X147247023Y-80130952D01*
X147199404Y-80178571D01*
X147151785Y-80273809D01*
X146770833Y-77207142D02*
X146723214Y-77254761D01*
X146580357Y-77302380D01*
X146485119Y-77302380D01*
X146342261Y-77254761D01*
X146247023Y-77159523D01*
X146199404Y-77064285D01*
X146151785Y-76873809D01*
X146151785Y-76730952D01*
X146199404Y-76540476D01*
X146247023Y-76445238D01*
X146342261Y-76350000D01*
X146485119Y-76302380D01*
X146580357Y-76302380D01*
X146723214Y-76350000D01*
X146770833Y-76397619D01*
X147342261Y-76730952D02*
X147247023Y-76683333D01*
X147199404Y-76635714D01*
X147151785Y-76540476D01*
X147151785Y-76492857D01*
X147199404Y-76397619D01*
X147247023Y-76350000D01*
X147342261Y-76302380D01*
X147532738Y-76302380D01*
X147627976Y-76350000D01*
X147675595Y-76397619D01*
X147723214Y-76492857D01*
X147723214Y-76540476D01*
X147675595Y-76635714D01*
X147627976Y-76683333D01*
X147532738Y-76730952D01*
X147342261Y-76730952D01*
X147247023Y-76778571D01*
X147199404Y-76826190D01*
X147151785Y-76921428D01*
X147151785Y-77111904D01*
X147199404Y-77207142D01*
X147247023Y-77254761D01*
X147342261Y-77302380D01*
X147532738Y-77302380D01*
X147627976Y-77254761D01*
X147675595Y-77207142D01*
X147723214Y-77111904D01*
X147723214Y-76921428D01*
X147675595Y-76826190D01*
X147627976Y-76778571D01*
X147532738Y-76730952D01*
X114045833Y-117822380D02*
X113712500Y-117346190D01*
X113474404Y-117822380D02*
X113474404Y-116822380D01*
X113855357Y-116822380D01*
X113950595Y-116870000D01*
X113998214Y-116917619D01*
X114045833Y-117012857D01*
X114045833Y-117155714D01*
X113998214Y-117250952D01*
X113950595Y-117298571D01*
X113855357Y-117346190D01*
X113474404Y-117346190D01*
X114998214Y-117822380D02*
X114426785Y-117822380D01*
X114712500Y-117822380D02*
X114712500Y-116822380D01*
X114617261Y-116965238D01*
X114522023Y-117060476D01*
X114426785Y-117108095D01*
X146770833Y-129307142D02*
X146723214Y-129354761D01*
X146580357Y-129402380D01*
X146485119Y-129402380D01*
X146342261Y-129354761D01*
X146247023Y-129259523D01*
X146199404Y-129164285D01*
X146151785Y-128973809D01*
X146151785Y-128830952D01*
X146199404Y-128640476D01*
X146247023Y-128545238D01*
X146342261Y-128450000D01*
X146485119Y-128402380D01*
X146580357Y-128402380D01*
X146723214Y-128450000D01*
X146770833Y-128497619D01*
X147104166Y-128402380D02*
X147770833Y-128402380D01*
X147342261Y-129402380D01*
X125238095Y-133952380D02*
X125238095Y-134761904D01*
X125285714Y-134857142D01*
X125333333Y-134904761D01*
X125428571Y-134952380D01*
X125619047Y-134952380D01*
X125714285Y-134904761D01*
X125761904Y-134857142D01*
X125809523Y-134761904D01*
X125809523Y-133952380D01*
X126714285Y-134285714D02*
X126714285Y-134952380D01*
X126476190Y-133904761D02*
X126238095Y-134619047D01*
X126857142Y-134619047D01*
X107690689Y-130299744D02*
X107118269Y-130872164D01*
X107084597Y-130973179D01*
X107084597Y-131040523D01*
X107118269Y-131141538D01*
X107252956Y-131276225D01*
X107353971Y-131309897D01*
X107421315Y-131309897D01*
X107522330Y-131276225D01*
X108094750Y-130703805D01*
X108330452Y-131074195D02*
X108397795Y-131074195D01*
X108498811Y-131107866D01*
X108667169Y-131276225D01*
X108700841Y-131377240D01*
X108700841Y-131444584D01*
X108667169Y-131545599D01*
X108599826Y-131612943D01*
X108465139Y-131680286D01*
X107657017Y-131680286D01*
X108094750Y-132118019D01*
X110388095Y-135952380D02*
X110388095Y-136761904D01*
X110435714Y-136857142D01*
X110483333Y-136904761D01*
X110578571Y-136952380D01*
X110769047Y-136952380D01*
X110864285Y-136904761D01*
X110911904Y-136857142D01*
X110959523Y-136761904D01*
X110959523Y-135952380D01*
X111959523Y-136952380D02*
X111388095Y-136952380D01*
X111673809Y-136952380D02*
X111673809Y-135952380D01*
X111578571Y-136095238D01*
X111483333Y-136190476D01*
X111388095Y-136238095D01*
X173833333Y-146882380D02*
X173500000Y-146406190D01*
X173261904Y-146882380D02*
X173261904Y-145882380D01*
X173642857Y-145882380D01*
X173738095Y-145930000D01*
X173785714Y-145977619D01*
X173833333Y-146072857D01*
X173833333Y-146215714D01*
X173785714Y-146310952D01*
X173738095Y-146358571D01*
X173642857Y-146406190D01*
X173261904Y-146406190D01*
X174309523Y-146882380D02*
X174500000Y-146882380D01*
X174595238Y-146834761D01*
X174642857Y-146787142D01*
X174738095Y-146644285D01*
X174785714Y-146453809D01*
X174785714Y-146072857D01*
X174738095Y-145977619D01*
X174690476Y-145930000D01*
X174595238Y-145882380D01*
X174404761Y-145882380D01*
X174309523Y-145930000D01*
X174261904Y-145977619D01*
X174214285Y-146072857D01*
X174214285Y-146310952D01*
X174261904Y-146406190D01*
X174309523Y-146453809D01*
X174404761Y-146501428D01*
X174595238Y-146501428D01*
X174690476Y-146453809D01*
X174738095Y-146406190D01*
X174785714Y-146310952D01*
X152620833Y-146882380D02*
X152287500Y-146406190D01*
X152049404Y-146882380D02*
X152049404Y-145882380D01*
X152430357Y-145882380D01*
X152525595Y-145930000D01*
X152573214Y-145977619D01*
X152620833Y-146072857D01*
X152620833Y-146215714D01*
X152573214Y-146310952D01*
X152525595Y-146358571D01*
X152430357Y-146406190D01*
X152049404Y-146406190D01*
X153192261Y-146310952D02*
X153097023Y-146263333D01*
X153049404Y-146215714D01*
X153001785Y-146120476D01*
X153001785Y-146072857D01*
X153049404Y-145977619D01*
X153097023Y-145930000D01*
X153192261Y-145882380D01*
X153382738Y-145882380D01*
X153477976Y-145930000D01*
X153525595Y-145977619D01*
X153573214Y-146072857D01*
X153573214Y-146120476D01*
X153525595Y-146215714D01*
X153477976Y-146263333D01*
X153382738Y-146310952D01*
X153192261Y-146310952D01*
X153097023Y-146358571D01*
X153049404Y-146406190D01*
X153001785Y-146501428D01*
X153001785Y-146691904D01*
X153049404Y-146787142D01*
X153097023Y-146834761D01*
X153192261Y-146882380D01*
X153382738Y-146882380D01*
X153477976Y-146834761D01*
X153525595Y-146787142D01*
X153573214Y-146691904D01*
X153573214Y-146501428D01*
X153525595Y-146406190D01*
X153477976Y-146358571D01*
X153382738Y-146310952D01*
X135422380Y-141354166D02*
X134946190Y-141687500D01*
X135422380Y-141925595D02*
X134422380Y-141925595D01*
X134422380Y-141544642D01*
X134470000Y-141449404D01*
X134517619Y-141401785D01*
X134612857Y-141354166D01*
X134755714Y-141354166D01*
X134850952Y-141401785D01*
X134898571Y-141449404D01*
X134946190Y-141544642D01*
X134946190Y-141925595D01*
X134422380Y-141020833D02*
X134422380Y-140354166D01*
X135422380Y-140782738D01*
X132222380Y-141354166D02*
X131746190Y-141687500D01*
X132222380Y-141925595D02*
X131222380Y-141925595D01*
X131222380Y-141544642D01*
X131270000Y-141449404D01*
X131317619Y-141401785D01*
X131412857Y-141354166D01*
X131555714Y-141354166D01*
X131650952Y-141401785D01*
X131698571Y-141449404D01*
X131746190Y-141544642D01*
X131746190Y-141925595D01*
X131222380Y-140497023D02*
X131222380Y-140687500D01*
X131270000Y-140782738D01*
X131317619Y-140830357D01*
X131460476Y-140925595D01*
X131650952Y-140973214D01*
X132031904Y-140973214D01*
X132127142Y-140925595D01*
X132174761Y-140877976D01*
X132222380Y-140782738D01*
X132222380Y-140592261D01*
X132174761Y-140497023D01*
X132127142Y-140449404D01*
X132031904Y-140401785D01*
X131793809Y-140401785D01*
X131698571Y-140449404D01*
X131650952Y-140497023D01*
X131603333Y-140592261D01*
X131603333Y-140782738D01*
X131650952Y-140877976D01*
X131698571Y-140925595D01*
X131793809Y-140973214D01*
X108882380Y-134166666D02*
X108406190Y-134500000D01*
X108882380Y-134738095D02*
X107882380Y-134738095D01*
X107882380Y-134357142D01*
X107930000Y-134261904D01*
X107977619Y-134214285D01*
X108072857Y-134166666D01*
X108215714Y-134166666D01*
X108310952Y-134214285D01*
X108358571Y-134261904D01*
X108406190Y-134357142D01*
X108406190Y-134738095D01*
X107882380Y-133261904D02*
X107882380Y-133738095D01*
X108358571Y-133785714D01*
X108310952Y-133738095D01*
X108263333Y-133642857D01*
X108263333Y-133404761D01*
X108310952Y-133309523D01*
X108358571Y-133261904D01*
X108453809Y-133214285D01*
X108691904Y-133214285D01*
X108787142Y-133261904D01*
X108834761Y-133309523D01*
X108882380Y-133404761D01*
X108882380Y-133642857D01*
X108834761Y-133738095D01*
X108787142Y-133785714D01*
X173620833Y-113022380D02*
X173287500Y-112546190D01*
X173049404Y-113022380D02*
X173049404Y-112022380D01*
X173430357Y-112022380D01*
X173525595Y-112070000D01*
X173573214Y-112117619D01*
X173620833Y-112212857D01*
X173620833Y-112355714D01*
X173573214Y-112450952D01*
X173525595Y-112498571D01*
X173430357Y-112546190D01*
X173049404Y-112546190D01*
X174477976Y-112355714D02*
X174477976Y-113022380D01*
X174239880Y-111974761D02*
X174001785Y-112689047D01*
X174620833Y-112689047D01*
X152620833Y-113022380D02*
X152287500Y-112546190D01*
X152049404Y-113022380D02*
X152049404Y-112022380D01*
X152430357Y-112022380D01*
X152525595Y-112070000D01*
X152573214Y-112117619D01*
X152620833Y-112212857D01*
X152620833Y-112355714D01*
X152573214Y-112450952D01*
X152525595Y-112498571D01*
X152430357Y-112546190D01*
X152049404Y-112546190D01*
X152954166Y-112022380D02*
X153573214Y-112022380D01*
X153239880Y-112403333D01*
X153382738Y-112403333D01*
X153477976Y-112450952D01*
X153525595Y-112498571D01*
X153573214Y-112593809D01*
X153573214Y-112831904D01*
X153525595Y-112927142D01*
X153477976Y-112974761D01*
X153382738Y-113022380D01*
X153097023Y-113022380D01*
X153001785Y-112974761D01*
X152954166Y-112927142D01*
X114020833Y-114822380D02*
X113687500Y-114346190D01*
X113449404Y-114822380D02*
X113449404Y-113822380D01*
X113830357Y-113822380D01*
X113925595Y-113870000D01*
X113973214Y-113917619D01*
X114020833Y-114012857D01*
X114020833Y-114155714D01*
X113973214Y-114250952D01*
X113925595Y-114298571D01*
X113830357Y-114346190D01*
X113449404Y-114346190D01*
X114401785Y-113917619D02*
X114449404Y-113870000D01*
X114544642Y-113822380D01*
X114782738Y-113822380D01*
X114877976Y-113870000D01*
X114925595Y-113917619D01*
X114973214Y-114012857D01*
X114973214Y-114108095D01*
X114925595Y-114250952D01*
X114354166Y-114822380D01*
X114973214Y-114822380D01*
X177444761Y-136277619D02*
X177349523Y-136230000D01*
X177254285Y-136134761D01*
X177111428Y-135991904D01*
X177016190Y-135944285D01*
X176920952Y-135944285D01*
X176968571Y-136182380D02*
X176873333Y-136134761D01*
X176778095Y-136039523D01*
X176730476Y-135849047D01*
X176730476Y-135515714D01*
X176778095Y-135325238D01*
X176873333Y-135230000D01*
X176968571Y-135182380D01*
X177159047Y-135182380D01*
X177254285Y-135230000D01*
X177349523Y-135325238D01*
X177397142Y-135515714D01*
X177397142Y-135849047D01*
X177349523Y-136039523D01*
X177254285Y-136134761D01*
X177159047Y-136182380D01*
X176968571Y-136182380D01*
X178254285Y-135515714D02*
X178254285Y-136182380D01*
X178016190Y-135134761D02*
X177778095Y-135849047D01*
X178397142Y-135849047D01*
X156444761Y-136277619D02*
X156349523Y-136230000D01*
X156254285Y-136134761D01*
X156111428Y-135991904D01*
X156016190Y-135944285D01*
X155920952Y-135944285D01*
X155968571Y-136182380D02*
X155873333Y-136134761D01*
X155778095Y-136039523D01*
X155730476Y-135849047D01*
X155730476Y-135515714D01*
X155778095Y-135325238D01*
X155873333Y-135230000D01*
X155968571Y-135182380D01*
X156159047Y-135182380D01*
X156254285Y-135230000D01*
X156349523Y-135325238D01*
X156397142Y-135515714D01*
X156397142Y-135849047D01*
X156349523Y-136039523D01*
X156254285Y-136134761D01*
X156159047Y-136182380D01*
X155968571Y-136182380D01*
X156730476Y-135182380D02*
X157349523Y-135182380D01*
X157016190Y-135563333D01*
X157159047Y-135563333D01*
X157254285Y-135610952D01*
X157301904Y-135658571D01*
X157349523Y-135753809D01*
X157349523Y-135991904D01*
X157301904Y-136087142D01*
X157254285Y-136134761D01*
X157159047Y-136182380D01*
X156873333Y-136182380D01*
X156778095Y-136134761D01*
X156730476Y-136087142D01*
X177444761Y-115277619D02*
X177349523Y-115230000D01*
X177254285Y-115134761D01*
X177111428Y-114991904D01*
X177016190Y-114944285D01*
X176920952Y-114944285D01*
X176968571Y-115182380D02*
X176873333Y-115134761D01*
X176778095Y-115039523D01*
X176730476Y-114849047D01*
X176730476Y-114515714D01*
X176778095Y-114325238D01*
X176873333Y-114230000D01*
X176968571Y-114182380D01*
X177159047Y-114182380D01*
X177254285Y-114230000D01*
X177349523Y-114325238D01*
X177397142Y-114515714D01*
X177397142Y-114849047D01*
X177349523Y-115039523D01*
X177254285Y-115134761D01*
X177159047Y-115182380D01*
X176968571Y-115182380D01*
X177778095Y-114277619D02*
X177825714Y-114230000D01*
X177920952Y-114182380D01*
X178159047Y-114182380D01*
X178254285Y-114230000D01*
X178301904Y-114277619D01*
X178349523Y-114372857D01*
X178349523Y-114468095D01*
X178301904Y-114610952D01*
X177730476Y-115182380D01*
X178349523Y-115182380D01*
X156364761Y-115277619D02*
X156269523Y-115230000D01*
X156174285Y-115134761D01*
X156031428Y-114991904D01*
X155936190Y-114944285D01*
X155840952Y-114944285D01*
X155888571Y-115182380D02*
X155793333Y-115134761D01*
X155698095Y-115039523D01*
X155650476Y-114849047D01*
X155650476Y-114515714D01*
X155698095Y-114325238D01*
X155793333Y-114230000D01*
X155888571Y-114182380D01*
X156079047Y-114182380D01*
X156174285Y-114230000D01*
X156269523Y-114325238D01*
X156317142Y-114515714D01*
X156317142Y-114849047D01*
X156269523Y-115039523D01*
X156174285Y-115134761D01*
X156079047Y-115182380D01*
X155888571Y-115182380D01*
X157269523Y-115182380D02*
X156698095Y-115182380D01*
X156983809Y-115182380D02*
X156983809Y-114182380D01*
X156888571Y-114325238D01*
X156793333Y-114420476D01*
X156698095Y-114468095D01*
X110716666Y-149142380D02*
X110716666Y-149856666D01*
X110669047Y-149999523D01*
X110573809Y-150094761D01*
X110430952Y-150142380D01*
X110335714Y-150142380D01*
X111621428Y-149475714D02*
X111621428Y-150142380D01*
X111383333Y-149094761D02*
X111145238Y-149809047D01*
X111764285Y-149809047D01*
X131982380Y-115333333D02*
X132696666Y-115333333D01*
X132839523Y-115380952D01*
X132934761Y-115476190D01*
X132982380Y-115619047D01*
X132982380Y-115714285D01*
X131982380Y-114952380D02*
X131982380Y-114333333D01*
X132363333Y-114666666D01*
X132363333Y-114523809D01*
X132410952Y-114428571D01*
X132458571Y-114380952D01*
X132553809Y-114333333D01*
X132791904Y-114333333D01*
X132887142Y-114380952D01*
X132934761Y-114428571D01*
X132982380Y-114523809D01*
X132982380Y-114809523D01*
X132934761Y-114904761D01*
X132887142Y-114952380D01*
D15*
X136760238Y-127574523D02*
X136760238Y-126304523D01*
X138090714Y-127453571D02*
X138030238Y-127514047D01*
X137848809Y-127574523D01*
X137727857Y-127574523D01*
X137546428Y-127514047D01*
X137425476Y-127393095D01*
X137365000Y-127272142D01*
X137304523Y-127030238D01*
X137304523Y-126848809D01*
X137365000Y-126606904D01*
X137425476Y-126485952D01*
X137546428Y-126365000D01*
X137727857Y-126304523D01*
X137848809Y-126304523D01*
X138030238Y-126365000D01*
X138090714Y-126425476D01*
X138574523Y-126425476D02*
X138635000Y-126365000D01*
X138755952Y-126304523D01*
X139058333Y-126304523D01*
X139179285Y-126365000D01*
X139239761Y-126425476D01*
X139300238Y-126546428D01*
X139300238Y-126667380D01*
X139239761Y-126848809D01*
X138514047Y-127574523D01*
X139300238Y-127574523D01*
X123048238Y-125129523D02*
X123048238Y-123859523D01*
X124378714Y-125008571D02*
X124318238Y-125069047D01*
X124136809Y-125129523D01*
X124015857Y-125129523D01*
X123834428Y-125069047D01*
X123713476Y-124948095D01*
X123653000Y-124827142D01*
X123592523Y-124585238D01*
X123592523Y-124403809D01*
X123653000Y-124161904D01*
X123713476Y-124040952D01*
X123834428Y-123920000D01*
X124015857Y-123859523D01*
X124136809Y-123859523D01*
X124318238Y-123920000D01*
X124378714Y-123980476D01*
X125588238Y-125129523D02*
X124862523Y-125129523D01*
X125225380Y-125129523D02*
X125225380Y-123859523D01*
X125104428Y-124040952D01*
X124983476Y-124161904D01*
X124862523Y-124222380D01*
D10*
X141049404Y-118022380D02*
X141049404Y-117022380D01*
X141287500Y-117022380D01*
X141430357Y-117070000D01*
X141525595Y-117165238D01*
X141573214Y-117260476D01*
X141620833Y-117450952D01*
X141620833Y-117593809D01*
X141573214Y-117784285D01*
X141525595Y-117879523D01*
X141430357Y-117974761D01*
X141287500Y-118022380D01*
X141049404Y-118022380D01*
X142525595Y-117022380D02*
X142049404Y-117022380D01*
X142001785Y-117498571D01*
X142049404Y-117450952D01*
X142144642Y-117403333D01*
X142382738Y-117403333D01*
X142477976Y-117450952D01*
X142525595Y-117498571D01*
X142573214Y-117593809D01*
X142573214Y-117831904D01*
X142525595Y-117927142D01*
X142477976Y-117974761D01*
X142382738Y-118022380D01*
X142144642Y-118022380D01*
X142049404Y-117974761D01*
X142001785Y-117927142D01*
X138282380Y-136925595D02*
X137282380Y-136925595D01*
X137282380Y-136687500D01*
X137330000Y-136544642D01*
X137425238Y-136449404D01*
X137520476Y-136401785D01*
X137710952Y-136354166D01*
X137853809Y-136354166D01*
X138044285Y-136401785D01*
X138139523Y-136449404D01*
X138234761Y-136544642D01*
X138282380Y-136687500D01*
X138282380Y-136925595D01*
X137615714Y-135497023D02*
X138282380Y-135497023D01*
X137234761Y-135735119D02*
X137949047Y-135973214D01*
X137949047Y-135354166D01*
X135082380Y-136925595D02*
X134082380Y-136925595D01*
X134082380Y-136687500D01*
X134130000Y-136544642D01*
X134225238Y-136449404D01*
X134320476Y-136401785D01*
X134510952Y-136354166D01*
X134653809Y-136354166D01*
X134844285Y-136401785D01*
X134939523Y-136449404D01*
X135034761Y-136544642D01*
X135082380Y-136687500D01*
X135082380Y-136925595D01*
X134082380Y-136020833D02*
X134082380Y-135401785D01*
X134463333Y-135735119D01*
X134463333Y-135592261D01*
X134510952Y-135497023D01*
X134558571Y-135449404D01*
X134653809Y-135401785D01*
X134891904Y-135401785D01*
X134987142Y-135449404D01*
X135034761Y-135497023D01*
X135082380Y-135592261D01*
X135082380Y-135877976D01*
X135034761Y-135973214D01*
X134987142Y-136020833D01*
X108849404Y-114822380D02*
X108849404Y-113822380D01*
X109087500Y-113822380D01*
X109230357Y-113870000D01*
X109325595Y-113965238D01*
X109373214Y-114060476D01*
X109420833Y-114250952D01*
X109420833Y-114393809D01*
X109373214Y-114584285D01*
X109325595Y-114679523D01*
X109230357Y-114774761D01*
X109087500Y-114822380D01*
X108849404Y-114822380D01*
X109801785Y-113917619D02*
X109849404Y-113870000D01*
X109944642Y-113822380D01*
X110182738Y-113822380D01*
X110277976Y-113870000D01*
X110325595Y-113917619D01*
X110373214Y-114012857D01*
X110373214Y-114108095D01*
X110325595Y-114250952D01*
X109754166Y-114822380D01*
X110373214Y-114822380D01*
X108874404Y-117822380D02*
X108874404Y-116822380D01*
X109112500Y-116822380D01*
X109255357Y-116870000D01*
X109350595Y-116965238D01*
X109398214Y-117060476D01*
X109445833Y-117250952D01*
X109445833Y-117393809D01*
X109398214Y-117584285D01*
X109350595Y-117679523D01*
X109255357Y-117774761D01*
X109112500Y-117822380D01*
X108874404Y-117822380D01*
X110398214Y-117822380D02*
X109826785Y-117822380D01*
X110112500Y-117822380D02*
X110112500Y-116822380D01*
X110017261Y-116965238D01*
X109922023Y-117060476D01*
X109826785Y-117108095D01*
X127494642Y-131707142D02*
X127447023Y-131754761D01*
X127304166Y-131802380D01*
X127208928Y-131802380D01*
X127066071Y-131754761D01*
X126970833Y-131659523D01*
X126923214Y-131564285D01*
X126875595Y-131373809D01*
X126875595Y-131230952D01*
X126923214Y-131040476D01*
X126970833Y-130945238D01*
X127066071Y-130850000D01*
X127208928Y-130802380D01*
X127304166Y-130802380D01*
X127447023Y-130850000D01*
X127494642Y-130897619D01*
X128447023Y-131802380D02*
X127875595Y-131802380D01*
X128161309Y-131802380D02*
X128161309Y-130802380D01*
X128066071Y-130945238D01*
X127970833Y-131040476D01*
X127875595Y-131088095D01*
X128780357Y-130802380D02*
X129399404Y-130802380D01*
X129066071Y-131183333D01*
X129208928Y-131183333D01*
X129304166Y-131230952D01*
X129351785Y-131278571D01*
X129399404Y-131373809D01*
X129399404Y-131611904D01*
X129351785Y-131707142D01*
X129304166Y-131754761D01*
X129208928Y-131802380D01*
X128923214Y-131802380D01*
X128827976Y-131754761D01*
X128780357Y-131707142D01*
X121294642Y-147007142D02*
X121247023Y-147054761D01*
X121104166Y-147102380D01*
X121008928Y-147102380D01*
X120866071Y-147054761D01*
X120770833Y-146959523D01*
X120723214Y-146864285D01*
X120675595Y-146673809D01*
X120675595Y-146530952D01*
X120723214Y-146340476D01*
X120770833Y-146245238D01*
X120866071Y-146150000D01*
X121008928Y-146102380D01*
X121104166Y-146102380D01*
X121247023Y-146150000D01*
X121294642Y-146197619D01*
X122247023Y-147102380D02*
X121675595Y-147102380D01*
X121961309Y-147102380D02*
X121961309Y-146102380D01*
X121866071Y-146245238D01*
X121770833Y-146340476D01*
X121675595Y-146388095D01*
X123199404Y-147102380D02*
X122627976Y-147102380D01*
X122913690Y-147102380D02*
X122913690Y-146102380D01*
X122818452Y-146245238D01*
X122723214Y-146340476D01*
X122627976Y-146388095D01*
X131419642Y-121007142D02*
X131372023Y-121054761D01*
X131229166Y-121102380D01*
X131133928Y-121102380D01*
X130991071Y-121054761D01*
X130895833Y-120959523D01*
X130848214Y-120864285D01*
X130800595Y-120673809D01*
X130800595Y-120530952D01*
X130848214Y-120340476D01*
X130895833Y-120245238D01*
X130991071Y-120150000D01*
X131133928Y-120102380D01*
X131229166Y-120102380D01*
X131372023Y-120150000D01*
X131419642Y-120197619D01*
X132372023Y-121102380D02*
X131800595Y-121102380D01*
X132086309Y-121102380D02*
X132086309Y-120102380D01*
X131991071Y-120245238D01*
X131895833Y-120340476D01*
X131800595Y-120388095D01*
X132991071Y-120102380D02*
X133086309Y-120102380D01*
X133181547Y-120150000D01*
X133229166Y-120197619D01*
X133276785Y-120292857D01*
X133324404Y-120483333D01*
X133324404Y-120721428D01*
X133276785Y-120911904D01*
X133229166Y-121007142D01*
X133181547Y-121054761D01*
X133086309Y-121102380D01*
X132991071Y-121102380D01*
X132895833Y-121054761D01*
X132848214Y-121007142D01*
X132800595Y-120911904D01*
X132752976Y-120721428D01*
X132752976Y-120483333D01*
X132800595Y-120292857D01*
X132848214Y-120197619D01*
X132895833Y-120150000D01*
X132991071Y-120102380D01*
X136770833Y-121007142D02*
X136723214Y-121054761D01*
X136580357Y-121102380D01*
X136485119Y-121102380D01*
X136342261Y-121054761D01*
X136247023Y-120959523D01*
X136199404Y-120864285D01*
X136151785Y-120673809D01*
X136151785Y-120530952D01*
X136199404Y-120340476D01*
X136247023Y-120245238D01*
X136342261Y-120150000D01*
X136485119Y-120102380D01*
X136580357Y-120102380D01*
X136723214Y-120150000D01*
X136770833Y-120197619D01*
X137247023Y-121102380D02*
X137437500Y-121102380D01*
X137532738Y-121054761D01*
X137580357Y-121007142D01*
X137675595Y-120864285D01*
X137723214Y-120673809D01*
X137723214Y-120292857D01*
X137675595Y-120197619D01*
X137627976Y-120150000D01*
X137532738Y-120102380D01*
X137342261Y-120102380D01*
X137247023Y-120150000D01*
X137199404Y-120197619D01*
X137151785Y-120292857D01*
X137151785Y-120530952D01*
X137199404Y-120626190D01*
X137247023Y-120673809D01*
X137342261Y-120721428D01*
X137532738Y-120721428D01*
X137627976Y-120673809D01*
X137675595Y-120626190D01*
X137723214Y-120530952D01*
X146770833Y-122507142D02*
X146723214Y-122554761D01*
X146580357Y-122602380D01*
X146485119Y-122602380D01*
X146342261Y-122554761D01*
X146247023Y-122459523D01*
X146199404Y-122364285D01*
X146151785Y-122173809D01*
X146151785Y-122030952D01*
X146199404Y-121840476D01*
X146247023Y-121745238D01*
X146342261Y-121650000D01*
X146485119Y-121602380D01*
X146580357Y-121602380D01*
X146723214Y-121650000D01*
X146770833Y-121697619D01*
X147342261Y-122030952D02*
X147247023Y-121983333D01*
X147199404Y-121935714D01*
X147151785Y-121840476D01*
X147151785Y-121792857D01*
X147199404Y-121697619D01*
X147247023Y-121650000D01*
X147342261Y-121602380D01*
X147532738Y-121602380D01*
X147627976Y-121650000D01*
X147675595Y-121697619D01*
X147723214Y-121792857D01*
X147723214Y-121840476D01*
X147675595Y-121935714D01*
X147627976Y-121983333D01*
X147532738Y-122030952D01*
X147342261Y-122030952D01*
X147247023Y-122078571D01*
X147199404Y-122126190D01*
X147151785Y-122221428D01*
X147151785Y-122411904D01*
X147199404Y-122507142D01*
X147247023Y-122554761D01*
X147342261Y-122602380D01*
X147532738Y-122602380D01*
X147627976Y-122554761D01*
X147675595Y-122507142D01*
X147723214Y-122411904D01*
X147723214Y-122221428D01*
X147675595Y-122126190D01*
X147627976Y-122078571D01*
X147532738Y-122030952D01*
X146770833Y-125907142D02*
X146723214Y-125954761D01*
X146580357Y-126002380D01*
X146485119Y-126002380D01*
X146342261Y-125954761D01*
X146247023Y-125859523D01*
X146199404Y-125764285D01*
X146151785Y-125573809D01*
X146151785Y-125430952D01*
X146199404Y-125240476D01*
X146247023Y-125145238D01*
X146342261Y-125050000D01*
X146485119Y-125002380D01*
X146580357Y-125002380D01*
X146723214Y-125050000D01*
X146770833Y-125097619D01*
X147627976Y-125002380D02*
X147437500Y-125002380D01*
X147342261Y-125050000D01*
X147294642Y-125097619D01*
X147199404Y-125240476D01*
X147151785Y-125430952D01*
X147151785Y-125811904D01*
X147199404Y-125907142D01*
X147247023Y-125954761D01*
X147342261Y-126002380D01*
X147532738Y-126002380D01*
X147627976Y-125954761D01*
X147675595Y-125907142D01*
X147723214Y-125811904D01*
X147723214Y-125573809D01*
X147675595Y-125478571D01*
X147627976Y-125430952D01*
X147532738Y-125383333D01*
X147342261Y-125383333D01*
X147247023Y-125430952D01*
X147199404Y-125478571D01*
X147151785Y-125573809D01*
X111833333Y-133707142D02*
X111785714Y-133754761D01*
X111642857Y-133802380D01*
X111547619Y-133802380D01*
X111404761Y-133754761D01*
X111309523Y-133659523D01*
X111261904Y-133564285D01*
X111214285Y-133373809D01*
X111214285Y-133230952D01*
X111261904Y-133040476D01*
X111309523Y-132945238D01*
X111404761Y-132850000D01*
X111547619Y-132802380D01*
X111642857Y-132802380D01*
X111785714Y-132850000D01*
X111833333Y-132897619D01*
X112166666Y-132802380D02*
X112785714Y-132802380D01*
X112452380Y-133183333D01*
X112595238Y-133183333D01*
X112690476Y-133230952D01*
X112738095Y-133278571D01*
X112785714Y-133373809D01*
X112785714Y-133611904D01*
X112738095Y-133707142D01*
X112690476Y-133754761D01*
X112595238Y-133802380D01*
X112309523Y-133802380D01*
X112214285Y-133754761D01*
X112166666Y-133707142D01*
X116707142Y-142229166D02*
X116754761Y-142276785D01*
X116802380Y-142419642D01*
X116802380Y-142514880D01*
X116754761Y-142657738D01*
X116659523Y-142752976D01*
X116564285Y-142800595D01*
X116373809Y-142848214D01*
X116230952Y-142848214D01*
X116040476Y-142800595D01*
X115945238Y-142752976D01*
X115850000Y-142657738D01*
X115802380Y-142514880D01*
X115802380Y-142419642D01*
X115850000Y-142276785D01*
X115897619Y-142229166D01*
X115897619Y-141848214D02*
X115850000Y-141800595D01*
X115802380Y-141705357D01*
X115802380Y-141467261D01*
X115850000Y-141372023D01*
X115897619Y-141324404D01*
X115992857Y-141276785D01*
X116088095Y-141276785D01*
X116230952Y-141324404D01*
X116802380Y-141895833D01*
X116802380Y-141276785D01*
X107095833Y-148007142D02*
X107048214Y-148054761D01*
X106905357Y-148102380D01*
X106810119Y-148102380D01*
X106667261Y-148054761D01*
X106572023Y-147959523D01*
X106524404Y-147864285D01*
X106476785Y-147673809D01*
X106476785Y-147530952D01*
X106524404Y-147340476D01*
X106572023Y-147245238D01*
X106667261Y-147150000D01*
X106810119Y-147102380D01*
X106905357Y-147102380D01*
X107048214Y-147150000D01*
X107095833Y-147197619D01*
X108048214Y-148102380D02*
X107476785Y-148102380D01*
X107762500Y-148102380D02*
X107762500Y-147102380D01*
X107667261Y-147245238D01*
X107572023Y-147340476D01*
X107476785Y-147388095D01*
M02*
