M48
; DRILL file {KiCad (5.1.5)-3} date 2019/12/27 7:31:59
; FORMAT={-:-/ absolute / metric / decimal}
; #@! TF.CreationDate,2019-12-27T07:31:59+09:00
; #@! TF.GenerationSoftware,Kicad,Pcbnew,(5.1.5)-3
FMAT,2
METRIC
T1C0.300
T2C0.400
T3C1.000
T4C1.100
T5C3.400
%
G90
G05
T1
X106.0Y-91.7
X106.0Y-137.0
X106.2Y-84.7
X106.2Y-95.7
X106.2Y-130.0
X106.2Y-141.0
X107.0Y-72.7
X107.0Y-77.5
X107.0Y-103.3
X107.0Y-104.1
X107.0Y-104.9
X107.0Y-118.0
X107.0Y-122.8
X107.0Y-148.6
X107.0Y-149.4
X107.0Y-150.2
X107.8Y-86.3
X107.8Y-131.6
X108.4Y-91.3
X108.4Y-136.6
X109.2Y-103.9
X109.2Y-149.2
X110.0Y-101.7
X110.0Y-147.0
X110.2Y-75.7
X110.2Y-121.0
X111.8Y-71.5
X111.8Y-72.3
X111.8Y-116.8
X111.8Y-117.6
X112.0Y-75.9
X112.0Y-92.7
X112.0Y-121.2
X112.0Y-138.0
X113.2Y-91.5
X113.2Y-136.8
X114.0Y-92.7
X114.0Y-138.0
X114.2Y-103.3
X114.2Y-148.6
X115.0Y-88.7
X115.0Y-104.7
X115.0Y-134.0
X115.0Y-150.0
X117.2Y-72.5
X117.2Y-117.8
X117.6Y-68.7
X117.6Y-114.0
X118.0Y-74.3
X118.0Y-119.6
X118.2Y-81.7
X118.2Y-85.3
X118.2Y-127.0
X118.2Y-130.6
X118.6Y-80.7
X118.6Y-126.0
X119.0Y-88.7
X119.0Y-134.0
X119.4Y-82.3
X119.4Y-127.6
X119.6Y-92.5
X119.6Y-137.8
X120.0Y-71.7
X120.0Y-117.0
X122.0Y-72.5
X122.0Y-87.7
X122.0Y-117.8
X122.0Y-133.0
X127.0Y-90.7
X127.0Y-136.0
X127.2Y-102.1
X127.2Y-103.1
X127.2Y-104.3
X127.2Y-147.4
X127.2Y-148.4
X127.2Y-149.6
X128.4Y-102.1
X128.4Y-103.1
X128.4Y-104.3
X128.4Y-147.4
X128.4Y-148.4
X128.4Y-149.6
X129.2Y-99.7
X129.2Y-145.0
X132.0Y-98.7
X132.0Y-144.0
X132.8Y-68.3
X132.8Y-113.6
X133.0Y-69.7
X133.0Y-115.0
X133.8Y-76.3
X133.8Y-121.6
X135.0Y-103.7
X135.0Y-149.0
X138.8Y-86.1
X138.8Y-131.4
X139.625Y-86.1
X139.625Y-131.4
X140.938Y-87.162
X140.938Y-87.962
X140.938Y-132.462
X140.938Y-133.262
X142.0Y-69.7
X142.0Y-115.0
X145.0Y-67.7
X145.0Y-113.0
X149.0Y-69.7
X149.0Y-115.0
X159.0Y-68.7
X159.0Y-114.0
X160.0Y-72.2
X160.0Y-77.2
X160.0Y-82.2
X160.0Y-87.2
X160.0Y-92.2
X160.0Y-97.2
X160.0Y-117.5
X160.0Y-122.5
X160.0Y-127.5
X160.0Y-132.5
X160.0Y-137.5
X160.0Y-142.5
X162.5Y-74.7
X162.5Y-79.7
X162.5Y-89.7
X162.5Y-94.7
X162.5Y-102.2
X162.5Y-120.0
X162.5Y-125.0
X162.5Y-135.0
X162.5Y-140.0
X162.5Y-147.5
X165.0Y-72.2
X165.0Y-77.2
X165.0Y-82.2
X165.0Y-87.2
X165.0Y-92.2
X165.0Y-97.2
X165.0Y-99.7
X165.0Y-104.7
X165.0Y-117.5
X165.0Y-122.5
X165.0Y-127.5
X165.0Y-132.5
X165.0Y-137.5
X165.0Y-142.5
X165.0Y-145.0
X165.0Y-150.0
X167.5Y-74.7
X167.5Y-79.7
X167.5Y-89.7
X167.5Y-94.7
X167.5Y-102.2
X167.5Y-120.0
X167.5Y-125.0
X167.5Y-135.0
X167.5Y-140.0
X167.5Y-147.5
X170.0Y-72.2
X170.0Y-77.2
X170.0Y-82.2
X170.0Y-87.2
X170.0Y-92.2
X170.0Y-97.2
X170.0Y-99.7
X170.0Y-104.7
X170.0Y-117.5
X170.0Y-122.5
X170.0Y-127.5
X170.0Y-132.5
X170.0Y-137.5
X170.0Y-142.5
X170.0Y-145.0
X170.0Y-150.0
X171.0Y-68.7
X171.0Y-114.0
X172.5Y-74.7
X172.5Y-94.7
X172.5Y-102.2
X172.5Y-120.0
X172.5Y-140.0
X172.5Y-147.5
X175.0Y-92.2
X175.0Y-104.7
X175.0Y-137.5
X175.0Y-150.0
X177.5Y-102.2
X177.5Y-147.5
X180.0Y-69.7
X180.0Y-79.7
X180.0Y-84.7
X180.0Y-99.7
X180.0Y-104.7
X180.0Y-115.0
X180.0Y-125.0
X180.0Y-130.0
X180.0Y-145.0
X180.0Y-150.0
X182.5Y-67.2
X182.5Y-72.2
X182.5Y-82.2
X182.5Y-87.2
X182.5Y-92.2
X182.5Y-97.2
X182.5Y-102.2
X182.5Y-112.5
X182.5Y-117.5
X182.5Y-127.5
X182.5Y-132.5
X182.5Y-137.5
X182.5Y-142.5
X182.5Y-147.5
X185.0Y-69.7
X185.0Y-74.7
X185.0Y-79.7
X185.0Y-84.7
X185.0Y-89.7
X185.0Y-94.7
X185.0Y-99.7
X185.0Y-104.7
X185.0Y-115.0
X185.0Y-120.0
X185.0Y-125.0
X185.0Y-130.0
X185.0Y-135.0
X185.0Y-140.0
X185.0Y-145.0
X185.0Y-150.0
X187.5Y-67.2
X187.5Y-72.2
X187.5Y-77.2
X187.5Y-82.2
X187.5Y-87.2
X187.5Y-92.2
X187.5Y-97.2
X187.5Y-102.2
X187.5Y-112.5
X187.5Y-117.5
X187.5Y-122.5
X187.5Y-127.5
X187.5Y-132.5
X187.5Y-137.5
X187.5Y-142.5
X187.5Y-147.5
T2
X108.6Y-81.7
X108.6Y-127.0
X109.618Y-81.9
X109.618Y-127.2
X111.4Y-83.1
X111.4Y-128.4
X112.016Y-85.423
X112.016Y-130.723
X112.189Y-82.286
X112.189Y-127.586
X112.4Y-84.5
X112.4Y-129.8
X113.989Y-83.482
X113.989Y-128.782
X120.0Y-94.5
X120.0Y-139.8
X131.2Y-85.1
X131.2Y-130.4
X132.4Y-80.1
X132.4Y-125.4
X133.0Y-84.9
X133.0Y-86.3
X133.0Y-130.2
X133.0Y-131.6
X134.8Y-88.3
X134.8Y-93.3
X134.8Y-133.6
X134.8Y-138.6
X142.903Y-86.472
X142.903Y-131.772
X144.0Y-73.7
X144.0Y-119.0
X144.8Y-86.5
X144.8Y-131.8
X145.266Y-76.566
X145.266Y-121.866
X148.4Y-76.7
X148.4Y-122.0
T3
X120.04Y-69.7
X122.58Y-69.7
X125.12Y-69.7
X127.66Y-69.7
X130.2Y-69.7
X135.0Y-69.7
X137.54Y-69.7
X140.08Y-69.7
X135.0Y-115.0
X137.54Y-115.0
X140.08Y-115.0
X120.04Y-115.0
X122.58Y-115.0
X125.12Y-115.0
X127.66Y-115.0
X130.2Y-115.0
T4
X175.0Y-119.0
X177.54Y-119.0
X180.08Y-119.0
X175.0Y-94.7
X177.54Y-94.7
X180.08Y-94.7
X175.0Y-140.0
X177.54Y-140.0
X180.08Y-140.0
X175.0Y-73.7
X177.54Y-73.7
X180.08Y-73.7
X154.0Y-140.0
X156.54Y-140.0
X159.08Y-140.0
X154.0Y-94.7
X156.54Y-94.7
X159.08Y-94.7
X153.92Y-119.0
X156.46Y-119.0
X159.0Y-119.0
X153.92Y-73.7
X156.46Y-73.7
X159.0Y-73.7
T5
X175.0Y-80.5
X175.0Y-87.7
X175.0Y-125.8
X175.0Y-133.0
T3
G00X180.4Y-122.65
M15
G01X181.6Y-122.65
M16
G05
G00X180.4Y-136.15
M15
G01X181.6Y-136.15
M16
G05
G00X180.4Y-77.35
M15
G01X181.6Y-77.35
M16
G05
G00X180.4Y-90.85
M15
G01X181.6Y-90.85
M16
G05
T0
M30
