M48
METRIC,TZ
T1C0.300
T2C0.400
T3C0.800
T4C0.850
T5C1.000
T6C3.400
%
G90
G05
T1
X101200Y-125000
X101300Y-135300
X102000Y-61000
X102000Y-65000
X102100Y-131400
X102100Y-145000
X102400Y-106400
X102500Y-68500
X102500Y-71000
X102500Y-73500
X102500Y-76000
X102500Y-78500
X102500Y-81000
X102500Y-83500
X102500Y-86000
X102500Y-88500
X102500Y-91000
X102500Y-93500
X102500Y-96000
X102500Y-98500
X102500Y-101000
X102600Y-118300
X102700Y-116100
X102800Y-126600
X103600Y-109700
X103600Y-122000
X103600Y-130300
X104000Y-63000
X104100Y-135400
X105000Y-68500
X105000Y-71000
X105000Y-73500
X105000Y-76000
X105000Y-78500
X105000Y-81000
X105000Y-83500
X105000Y-86000
X105000Y-88500
X105000Y-91000
X105000Y-93500
X105000Y-96000
X105000Y-98500
X105000Y-101000
X106000Y-61000
X106000Y-65000
X106500Y-131500
X107000Y-109600
X107000Y-115000
X107000Y-134000
X107200Y-119800
X107500Y-68500
X107500Y-71000
X107500Y-73500
X107500Y-78500
X107500Y-81000
X107500Y-83500
X107500Y-83500
X107500Y-86000
X107500Y-93500
X107500Y-96000
X107500Y-98500
X107500Y-101000
X108000Y-63000
X108650Y-139150
X109100Y-121100
X109200Y-133400
X109200Y-143600
X109400Y-128800
X109900Y-114700
X110000Y-61000
X110000Y-65000
X110000Y-81000
X110000Y-86000
X110000Y-88500
X110000Y-96000
X110000Y-98900
X110000Y-101000
X110000Y-145000
X111750Y-68750
X111750Y-69750
X111750Y-70750
X111750Y-71750
X111750Y-72750
X111750Y-73750
X111750Y-74750
X111750Y-75750
X111750Y-90900
X111750Y-91900
X111750Y-92900
X111750Y-94400
X111750Y-95900
X111800Y-89900
X112000Y-63000
X112300Y-125100
X112500Y-109000
X112700Y-122000
X112750Y-74750
X112750Y-75750
X113200Y-67000
X113200Y-105200
X113200Y-111300
X113250Y-89900
X113250Y-90900
X113250Y-99000
X113500Y-92900
X113500Y-94400
X113500Y-95900
X113500Y-97400
X113550Y-74750
X113550Y-75750
X113600Y-120600
X113750Y-68750
X113750Y-70250
X113750Y-71750
X113750Y-73250
X114000Y-61000
X114000Y-65000
X114200Y-67000
X114250Y-89900
X114250Y-90900
X114250Y-99000
X114350Y-74750
X114400Y-75750
X114500Y-144800
X114600Y-115700
X114600Y-132800
X114900Y-123200
X114950Y-112650
X115000Y-92900
X115000Y-94400
X115000Y-95900
X115000Y-97400
X115200Y-67000
X115250Y-68750
X115250Y-70250
X115250Y-71750
X115250Y-73250
X115250Y-74750
X115250Y-89900
X115250Y-90900
X115250Y-99000
X115300Y-75750
X115600Y-108000
X116000Y-63000
X116200Y-67000
X116250Y-74750
X116250Y-75750
X116250Y-89900
X116250Y-90900
X116250Y-99000
X116300Y-105500
X116700Y-112700
X116700Y-129800
X116750Y-68750
X116750Y-70250
X116750Y-71750
X116750Y-73250
X116750Y-92900
X116750Y-94400
X116750Y-95900
X116750Y-97400
X117200Y-67000
X117250Y-74750
X117250Y-75750
X117250Y-89900
X117250Y-90900
X117250Y-99000
X117300Y-126100
X117500Y-78000
X117500Y-80000
X117500Y-82000
X117500Y-85000
X117500Y-87000
X117500Y-144800
X118000Y-61000
X118000Y-65000
X118200Y-67000
X118250Y-68750
X118250Y-70250
X118250Y-71750
X118250Y-73250
X118250Y-74750
X118250Y-75750
X118250Y-89900
X118250Y-90900
X118250Y-92900
X118250Y-94400
X118250Y-95900
X118250Y-97400
X118250Y-99000
X119200Y-67000
X119250Y-74750
X119250Y-75750
X119250Y-89900
X119250Y-90900
X119250Y-99000
X119500Y-78000
X119500Y-80000
X119500Y-82000
X119500Y-85000
X119500Y-87000
X120000Y-63000
X120200Y-67000
X120250Y-67850
X120250Y-68750
X120250Y-69750
X120250Y-70750
X120250Y-71750
X120250Y-72750
X120250Y-73750
X120250Y-74750
X120250Y-75750
X120250Y-89900
X120250Y-90900
X120250Y-91900
X120250Y-92900
X120250Y-93900
X120250Y-94900
X120250Y-95900
X120250Y-96900
X120250Y-98000
X120250Y-99000
X121200Y-67000
X121250Y-67850
X121250Y-68750
X121250Y-69750
X121250Y-70750
X121250Y-71750
X121250Y-72750
X121250Y-73750
X121250Y-74750
X121250Y-75750
X121250Y-89900
X121250Y-90900
X121250Y-91900
X121250Y-92900
X121250Y-93900
X121250Y-94900
X121250Y-95900
X121250Y-96900
X121250Y-98000
X121250Y-99000
X121500Y-78000
X121500Y-80000
X121500Y-82000
X121500Y-85000
X121500Y-87000
X122000Y-61000
X122000Y-65000
X122000Y-145000
X122200Y-104800
X122250Y-134700
X122600Y-101900
X123500Y-68000
X123500Y-70000
X123500Y-72000
X123500Y-74000
X123500Y-76000
X123500Y-78000
X123500Y-80000
X123500Y-82000
X123500Y-85000
X123500Y-87000
X123500Y-89000
X123500Y-91000
X123500Y-93000
X123500Y-95000
X123500Y-97000
X123500Y-99000
X123900Y-142800
X124000Y-63000
X124000Y-113000
X124050Y-122550
X124400Y-138150
X125000Y-116000
X125500Y-68000
X125500Y-70000
X125500Y-72000
X125500Y-74000
X125500Y-76000
X125500Y-78000
X125500Y-80000
X125500Y-82000
X125500Y-85000
X125500Y-87000
X125500Y-89000
X125500Y-91000
X125500Y-93000
X125500Y-95000
X125500Y-97000
X125500Y-99000
X126000Y-61000
X126000Y-65000
X126000Y-106400
X126000Y-127800
X126050Y-125000
X126600Y-103900
X127300Y-118300
X127500Y-68000
X127500Y-70000
X127500Y-72000
X127500Y-74000
X127500Y-76000
X127500Y-78000
X127500Y-80000
X127500Y-82000
X127500Y-85000
X127500Y-87000
X127500Y-89000
X127500Y-91000
X127500Y-93000
X127500Y-95000
X127500Y-97000
X127500Y-99000
X127750Y-128550
X127800Y-108600
X128000Y-63000
X128000Y-110000
X129000Y-106000
X129500Y-70000
X129500Y-72000
X129500Y-76000
X129500Y-78000
X129500Y-80000
X129500Y-82000
X129500Y-85000
X129500Y-87000
X129500Y-89000
X129500Y-91000
X129500Y-95000
X129500Y-99000
X129500Y-112400
X129500Y-116300
X129650Y-134550
X130000Y-61000
X130000Y-65000
X131000Y-145000
X131500Y-68000
X131500Y-70000
X131500Y-72000
X131500Y-78000
X131500Y-80000
X131500Y-82000
X131500Y-85000
X131500Y-97500
X131500Y-99000
X132000Y-61000
X132000Y-63000
X132000Y-65000
X132900Y-80500
X133000Y-88000
X133000Y-90100
X133000Y-91150
X133000Y-99150
X133000Y-143000
X133000Y-145000
X133250Y-74750
X133250Y-75750
X133500Y-68750
X133500Y-70250
X133500Y-71750
X133500Y-73000
X133500Y-92650
X133500Y-94150
X133500Y-95900
X133500Y-97400
X134000Y-61000
X134000Y-63000
X134000Y-65000
X134000Y-90100
X134000Y-91150
X134000Y-99150
X134250Y-74750
X134250Y-75750
X134250Y-76750
X134500Y-104000
X134900Y-82700
X135000Y-68750
X135000Y-70250
X135000Y-71750
X135000Y-73000
X135000Y-90100
X135000Y-91150
X135000Y-92650
X135000Y-94150
X135000Y-95900
X135000Y-97400
X135000Y-99150
X135000Y-112900
X135000Y-141000
X135000Y-143000
X135000Y-145000
X135250Y-74750
X135250Y-75750
X135250Y-76750
X135700Y-102000
X135900Y-130100
X135900Y-137100
X136000Y-61000
X136000Y-63000
X136000Y-65000
X136000Y-90100
X136000Y-91150
X136000Y-99150
X136000Y-116000
X136250Y-74750
X136250Y-75750
X136250Y-76750
X136500Y-68750
X136500Y-70250
X136500Y-71750
X136500Y-73000
X136500Y-92650
X136500Y-94150
X136500Y-95900
X136500Y-97400
X137000Y-90100
X137000Y-91150
X137000Y-99150
X137000Y-141000
X137000Y-143000
X137000Y-145000
X137250Y-74750
X137250Y-75750
X137250Y-76750
X138000Y-61000
X138000Y-63000
X138000Y-65000
X138000Y-68750
X138000Y-70250
X138000Y-71750
X138000Y-73000
X138000Y-90100
X138000Y-91150
X138000Y-92650
X138000Y-94150
X138000Y-95900
X138000Y-97400
X138000Y-99150
X138100Y-118000
X138200Y-111200
X138250Y-74750
X138250Y-75750
X138250Y-76750
X138500Y-108500
X139000Y-90100
X139000Y-91150
X139000Y-99150
X139000Y-128100
X139000Y-131600
X139000Y-137000
X139000Y-143000
X139000Y-145000
X139250Y-74750
X139250Y-75750
X139250Y-76750
X139250Y-122750
X140000Y-61000
X140000Y-63000
X140000Y-65000
X140000Y-90100
X140000Y-91150
X140000Y-92150
X140000Y-93150
X140000Y-94150
X140000Y-95150
X140000Y-96150
X140000Y-97150
X140000Y-98150
X140000Y-99150
X140200Y-67900
X140250Y-68750
X140250Y-69750
X140250Y-70750
X140250Y-71750
X140250Y-72750
X140250Y-73750
X140250Y-74750
X140250Y-75750
X140250Y-76750
X140600Y-82600
X141000Y-90100
X141000Y-91150
X141000Y-92150
X141000Y-93150
X141000Y-94150
X141000Y-95150
X141000Y-96150
X141000Y-97150
X141000Y-98150
X141000Y-99150
X141000Y-141000
X141000Y-143000
X141000Y-145000
X141200Y-67900
X141200Y-68700
X141250Y-69750
X141250Y-70750
X141250Y-71750
X141250Y-72750
X141250Y-73750
X141250Y-74750
X141250Y-75750
X141250Y-76750
X141400Y-119200
X141750Y-129250
X141750Y-130250
X141750Y-131250
X141750Y-132250
X141750Y-133250
X141750Y-134250
X141800Y-135200
X141800Y-136300
X141800Y-137300
X141800Y-138100
X141900Y-125200
X142000Y-61000
X142000Y-63000
X142000Y-65000
X142000Y-90100
X142000Y-91150
X142000Y-92150
X142000Y-93150
X142000Y-94150
X142000Y-95150
X142000Y-96150
X142000Y-97150
X142000Y-98150
X142000Y-99150
X142000Y-107850
X142000Y-108850
X142000Y-109850
X142000Y-110850
X142000Y-111850
X142000Y-112850
X142000Y-113850
X142000Y-114850
X142000Y-115900
X142200Y-67900
X142200Y-68700
X142200Y-69700
X142250Y-70750
X142250Y-71750
X142250Y-72750
X142250Y-73750
X142250Y-74750
X142250Y-75750
X142250Y-76750
X142750Y-129250
X142750Y-130250
X142750Y-131250
X142750Y-132250
X142750Y-133250
X142750Y-134250
X142750Y-135250
X142800Y-136300
X142800Y-137300
X142800Y-138100
X143000Y-90100
X143000Y-91150
X143000Y-92150
X143000Y-93150
X143000Y-94150
X143000Y-95150
X143000Y-96150
X143000Y-97150
X143000Y-98150
X143000Y-106850
X143000Y-107850
X143000Y-108850
X143000Y-109850
X143000Y-110850
X143000Y-111850
X143000Y-112850
X143000Y-113850
X143000Y-114850
X143000Y-115900
X143000Y-141000
X143000Y-143000
X143000Y-145000
X143100Y-80800
X143200Y-67900
X143200Y-68700
X143200Y-69700
X143200Y-70800
X143250Y-71750
X143250Y-72750
X143250Y-73750
X143250Y-74750
X143250Y-75750
X143250Y-76750
X143600Y-86800
X143750Y-129250
X143750Y-130250
X143750Y-131250
X143750Y-132250
X143750Y-133250
X143750Y-134250
X143750Y-135250
X143750Y-136250
X143800Y-137300
X143800Y-138100
X144000Y-61000
X144000Y-63000
X144000Y-65000
X144000Y-106850
X144000Y-107850
X144000Y-108850
X144000Y-109850
X144000Y-110850
X144000Y-111850
X144000Y-112850
X144000Y-113850
X144000Y-114850
X144000Y-115900
X144400Y-123400
X144750Y-129250
X144750Y-130250
X144750Y-131250
X144750Y-132250
X144750Y-133250
X144750Y-134250
X144750Y-135250
X144750Y-136250
X144750Y-137250
X144800Y-138100
X145000Y-106850
X145000Y-107850
X145000Y-108850
X145000Y-109850
X145000Y-110850
X145000Y-111850
X145000Y-112850
X145000Y-113850
X145000Y-114850
X145000Y-115900
X145000Y-141000
X145000Y-143000
X145000Y-145000
X145750Y-83250
X145750Y-129250
X145750Y-130250
X145750Y-131250
X146000Y-61000
X146000Y-63000
X146000Y-69000
X146000Y-74400
X146000Y-77900
X146000Y-106850
X146000Y-114850
X146000Y-115900
X146500Y-97500
X146750Y-129250
X146750Y-130250
X146750Y-131250
X146800Y-94800
X146900Y-88000
X147000Y-106850
X147000Y-108600
X147000Y-110100
X147000Y-111850
X147000Y-113350
X147000Y-114850
X147000Y-115900
X147000Y-133000
X147000Y-134250
X147000Y-135750
X147000Y-137250
X147000Y-141000
X147000Y-143000
X147000Y-145000
X147750Y-129250
X147750Y-130250
X147750Y-131250
X148000Y-61000
X148000Y-63000
X148000Y-65000
X148000Y-106850
X148000Y-114850
X148000Y-115900
X148500Y-108600
X148500Y-110100
X148500Y-111850
X148500Y-113350
X148500Y-133000
X148500Y-134250
X148500Y-135750
X148500Y-137250
X148750Y-129250
X148750Y-130250
X148750Y-131250
X149000Y-90000
X149000Y-106850
X149000Y-114850
X149000Y-115900
X149000Y-141000
X149000Y-143000
X149000Y-145000
X149100Y-68900
X149100Y-75900
X149300Y-104000
X149750Y-129250
X149750Y-130250
X149750Y-131250
X150000Y-61000
X150000Y-63000
X150000Y-65000
X150000Y-93100
X150000Y-106850
X150000Y-108600
X150000Y-110100
X150000Y-111850
X150000Y-113350
X150000Y-114850
X150000Y-115900
X150000Y-133000
X150000Y-134250
X150000Y-135750
X150000Y-137250
X150100Y-123300
X150500Y-102000
X150750Y-129250
X150750Y-130250
X150750Y-131250
X151000Y-106850
X151000Y-114850
X151000Y-115900
X151000Y-141000
X151000Y-143000
X151000Y-145000
X151500Y-108600
X151500Y-110100
X151500Y-111850
X151500Y-113350
X151500Y-133000
X151500Y-134250
X151500Y-135750
X151500Y-137250
X151750Y-130250
X151750Y-131250
X152000Y-61000
X152000Y-63000
X152000Y-106850
X152000Y-114850
X152000Y-115900
X152000Y-118000
X152100Y-125500
X153000Y-141000
X153000Y-143000
X153000Y-145000
X153500Y-107000
X153500Y-108500
X153500Y-121000
X153500Y-124000
X153500Y-126000
X153500Y-128000
X153500Y-134000
X153500Y-136000
X153500Y-138000
X154000Y-61000
X155000Y-141000
X155000Y-145000
X155350Y-71450
X155500Y-89700
X155500Y-93600
X155500Y-107000
X155500Y-111000
X155500Y-115000
X155500Y-117000
X155500Y-119000
X155500Y-121000
X155500Y-124000
X155500Y-126000
X155500Y-128000
X155500Y-130000
X155500Y-134000
X155500Y-136000
X156000Y-100000
X157000Y-96000
X157000Y-143000
X157200Y-97400
X157250Y-77450
X157500Y-107000
X157500Y-109000
X157500Y-111000
X157500Y-113000
X157500Y-115000
X157500Y-117000
X157500Y-119000
X157500Y-121000
X157500Y-124000
X157500Y-126000
X157500Y-128000
X157500Y-130000
X157500Y-132000
X157500Y-134000
X157500Y-136000
X157500Y-138000
X157700Y-87700
X158400Y-102100
X158950Y-81000
X159000Y-78200
X159000Y-99600
X159000Y-141000
X159000Y-145000
X159500Y-107000
X159500Y-109000
X159500Y-111000
X159500Y-113000
X159500Y-115000
X159500Y-117000
X159500Y-119000
X159500Y-121000
X159500Y-124000
X159500Y-126000
X159500Y-128000
X159500Y-130000
X159500Y-132000
X159500Y-134000
X159500Y-136000
X159500Y-138000
X160000Y-90000
X160600Y-67850
X160950Y-83450
X161000Y-93000
X161000Y-143000
X161100Y-63200
X161500Y-107000
X161500Y-109000
X161500Y-111000
X161500Y-113000
X161500Y-115000
X161500Y-117000
X161500Y-119000
X161500Y-121000
X161500Y-124000
X161500Y-126000
X161500Y-128000
X161500Y-130000
X161500Y-132000
X161500Y-134000
X161500Y-136000
X161500Y-138000
X162400Y-104100
X162750Y-71300
X162800Y-101200
X163000Y-61000
X163000Y-141000
X163000Y-145000
X163500Y-119000
X163500Y-121000
X163500Y-124000
X163500Y-126000
X163500Y-128000
X163750Y-107000
X163750Y-108000
X163750Y-109100
X163750Y-110100
X163750Y-111100
X163750Y-112100
X163750Y-113100
X163750Y-114100
X163750Y-115100
X163750Y-116100
X163750Y-130250
X163750Y-131250
X163750Y-132250
X163750Y-133250
X163750Y-134250
X163750Y-135250
X163750Y-136250
X163750Y-137250
X163750Y-138150
X163800Y-139000
X164750Y-107000
X164750Y-108000
X164750Y-109100
X164750Y-110100
X164750Y-111100
X164750Y-112100
X164750Y-113100
X164750Y-114100
X164750Y-115100
X164750Y-116100
X164750Y-130250
X164750Y-131250
X164750Y-132250
X164750Y-133250
X164750Y-134250
X164750Y-135250
X164750Y-136250
X164750Y-137250
X164750Y-138150
X164800Y-139000
X165000Y-143000
X165500Y-119000
X165500Y-121000
X165500Y-124000
X165500Y-126000
X165500Y-128000
X165750Y-107000
X165750Y-115100
X165750Y-116100
X165750Y-130250
X165750Y-131250
X165800Y-139000
X166750Y-107000
X166750Y-108600
X166750Y-110100
X166750Y-111600
X166750Y-113100
X166750Y-115100
X166750Y-116100
X166750Y-130250
X166750Y-131250
X166750Y-132750
X166750Y-134250
X166750Y-135750
X166750Y-137250
X166800Y-139000
X167000Y-141000
X167000Y-145000
X167500Y-61200
X167500Y-119000
X167500Y-121000
X167500Y-124000
X167500Y-126000
X167500Y-128000
X167700Y-79900
X167750Y-107000
X167750Y-115100
X167750Y-116100
X167750Y-130250
X167750Y-131250
X167800Y-139000
X168250Y-108600
X168250Y-110100
X168250Y-111600
X168250Y-113100
X168250Y-132750
X168250Y-134250
X168250Y-135750
X168250Y-137250
X168300Y-76200
X168300Y-93300
X168700Y-100500
X168750Y-107000
X168750Y-115100
X168750Y-116100
X168750Y-130250
X168750Y-131250
X168800Y-139000
X169000Y-143000
X169400Y-98000
X169700Y-130250
X169750Y-107000
X169750Y-115100
X169750Y-116100
X169750Y-131250
X169750Y-132750
X169750Y-134250
X169750Y-135750
X169750Y-137250
X169800Y-139000
X170000Y-108600
X170000Y-110100
X170000Y-111600
X170000Y-113100
X170050Y-93350
X170100Y-82800
X170400Y-73200
X170400Y-90300
X170500Y-61200
X170600Y-130250
X170650Y-131250
X170750Y-107000
X170750Y-115100
X170750Y-116100
X170800Y-139000
X171000Y-141000
X171000Y-145000
X171250Y-132750
X171250Y-134250
X171250Y-135750
X171250Y-137250
X171400Y-85400
X171450Y-130250
X171450Y-131250
X171500Y-108600
X171500Y-110100
X171500Y-111600
X171500Y-113100
X171750Y-107000
X171750Y-115100
X171750Y-116100
X171800Y-94700
X171800Y-100800
X171800Y-139000
X172250Y-130250
X172250Y-131250
X172300Y-84000
X172500Y-97000
X172700Y-80900
X173000Y-143000
X173200Y-116100
X173250Y-110100
X173250Y-111600
X173250Y-113100
X173250Y-114100
X173250Y-115100
X173250Y-130250
X173250Y-131250
X173250Y-132250
X173250Y-133250
X173250Y-134250
X173250Y-135250
X173250Y-136250
X173250Y-137250
X175000Y-61000
X175000Y-105000
X175000Y-107100
X175000Y-110000
X175000Y-117500
X175000Y-120000
X175000Y-125000
X175000Y-141000
X175000Y-145000
X175100Y-91300
X175600Y-77200
X175800Y-62400
X175800Y-72600
X175900Y-84900
X176350Y-66850
X177000Y-143000
X177500Y-105000
X177500Y-107500
X177500Y-110000
X177500Y-112500
X177500Y-120000
X177500Y-122500
X177500Y-122500
X177500Y-125000
X177500Y-127500
X177500Y-132500
X177500Y-135000
X177500Y-137500
X177800Y-86200
X178000Y-72000
X178000Y-91000
X178000Y-96400
X178500Y-74500
X179000Y-141000
X179000Y-145000
X180000Y-105000
X180000Y-107500
X180000Y-110000
X180000Y-112500
X180000Y-115000
X180000Y-117500
X180000Y-120000
X180000Y-122500
X180000Y-125000
X180000Y-127500
X180000Y-130000
X180000Y-132500
X180000Y-135000
X180000Y-137500
X180900Y-70600
X181000Y-143000
X181400Y-75700
X181400Y-84000
X181400Y-96300
X182200Y-79400
X182300Y-89900
X182400Y-87700
X182500Y-105000
X182500Y-107500
X182500Y-110000
X182500Y-112500
X182500Y-115000
X182500Y-117500
X182500Y-120000
X182500Y-122500
X182500Y-125000
X182500Y-127500
X182500Y-130000
X182500Y-132500
X182500Y-135000
X182500Y-137500
X182600Y-99600
X182900Y-61000
X182900Y-74600
X183000Y-141000
X183000Y-145000
X183700Y-70700
X183800Y-81000
T2
X101000Y-143200
X105100Y-114500
X105400Y-122200
X106400Y-122900
X107248Y-124181
X107322Y-122514
X107600Y-125400
X108989Y-123782
X110400Y-71650
X111500Y-98500
X113600Y-135500
X127400Y-120400
X128150Y-125000
X128250Y-126675
X129850Y-128650
X131750Y-74500
X131750Y-95650
X153250Y-110350
X153250Y-131500
X155150Y-77350
X156750Y-79325
X156850Y-81000
X157600Y-85600
X171400Y-70500
X173500Y-107500
X174600Y-134350
X176011Y-82218
X177400Y-80600
X177678Y-83486
X177752Y-81819
X178600Y-83100
X179600Y-83800
X179900Y-91500
X184000Y-62800
T3
X103880Y-105400
X103880Y-113020
X106420Y-105400
X106420Y-113020
X108960Y-105400
X108960Y-113020
X111500Y-105400
X111500Y-113020
X173500Y-92980
X173500Y-100600
X176040Y-92980
X176040Y-100600
X178580Y-92980
X178580Y-100600
X181120Y-92980
X181120Y-100600
T4
X115040Y-110000
X117580Y-110000
X120120Y-110000
X122660Y-110000
X125200Y-110000
X159800Y-96000
X162340Y-96000
X164880Y-96000
X167420Y-96000
X169960Y-96000
T5
X149920Y-96000
X152460Y-96000
X155000Y-96000
X130000Y-110000
X132540Y-110000
X135080Y-110000
T6
X114000Y-79400
X114000Y-86600
X171000Y-119400
X171000Y-126600
T5
G00X107400Y-76250
M15
G01X108600Y-76250
M16
G05
G00X107400Y-89750
M15
G01X108600Y-89750
M16
G05
G00X177600Y-116250
M15
G01X176400Y-116250
M16
G05
G00X177600Y-129750
M15
G01X176400Y-129750
M16
G05
T0
M30
