G04 #@! TF.GenerationSoftware,KiCad,Pcbnew,(5.1.5)-3*
G04 #@! TF.CreationDate,2020-02-02T14:12:43+09:00*
G04 #@! TF.ProjectId,CAN_H-Bridge_Solo_MD_fin,43414e5f-482d-4427-9269-6467655f536f,rev?*
G04 #@! TF.SameCoordinates,Original*
G04 #@! TF.FileFunction,Legend,Bot*
G04 #@! TF.FilePolarity,Positive*
%FSLAX46Y46*%
G04 Gerber Fmt 4.6, Leading zero omitted, Abs format (unit mm)*
G04 Created by KiCad (PCBNEW (5.1.5)-3) date 2020-02-02 14:12:43*
%MOMM*%
%LPD*%
G04 APERTURE LIST*
%ADD10C,0.090000*%
%ADD11C,0.150000*%
%ADD12C,0.120000*%
%ADD13C,0.100000*%
%ADD14C,0.220000*%
%ADD15C,0.200000*%
%ADD16C,0.254000*%
%ADD17O,2.902000X1.602000*%
%ADD18C,5.202000*%
%ADD19O,2.007000X2.102000*%
%ADD20R,2.007000X2.102000*%
%ADD21R,0.902000X1.702000*%
%ADD22O,1.802000X1.802000*%
%ADD23R,1.802000X1.802000*%
%ADD24R,0.952000X0.702000*%
%ADD25R,0.802000X4.402000*%
%ADD26R,0.802000X3.302000*%
G04 APERTURE END LIST*
D10*
X174257142Y-110428571D02*
X174628571Y-110428571D01*
X174428571Y-110200000D01*
X174514285Y-110200000D01*
X174571428Y-110171428D01*
X174600000Y-110142857D01*
X174628571Y-110085714D01*
X174628571Y-109942857D01*
X174600000Y-109885714D01*
X174571428Y-109857142D01*
X174514285Y-109828571D01*
X174342857Y-109828571D01*
X174285714Y-109857142D01*
X174257142Y-109885714D01*
X174800000Y-110428571D02*
X175000000Y-109828571D01*
X175200000Y-110428571D01*
X175342857Y-110428571D02*
X175714285Y-110428571D01*
X175514285Y-110200000D01*
X175600000Y-110200000D01*
X175657142Y-110171428D01*
X175685714Y-110142857D01*
X175714285Y-110085714D01*
X175714285Y-109942857D01*
X175685714Y-109885714D01*
X175657142Y-109857142D01*
X175600000Y-109828571D01*
X175428571Y-109828571D01*
X175371428Y-109857142D01*
X175342857Y-109885714D01*
X171042857Y-110257142D02*
X171128571Y-110228571D01*
X171271428Y-110228571D01*
X171328571Y-110257142D01*
X171357142Y-110285714D01*
X171385714Y-110342857D01*
X171385714Y-110400000D01*
X171357142Y-110457142D01*
X171328571Y-110485714D01*
X171271428Y-110514285D01*
X171157142Y-110542857D01*
X171100000Y-110571428D01*
X171071428Y-110600000D01*
X171042857Y-110657142D01*
X171042857Y-110714285D01*
X171071428Y-110771428D01*
X171100000Y-110800000D01*
X171157142Y-110828571D01*
X171300000Y-110828571D01*
X171385714Y-110800000D01*
X171585714Y-110828571D02*
X171728571Y-110228571D01*
X171842857Y-110657142D01*
X171957142Y-110228571D01*
X172100000Y-110828571D01*
X172671428Y-110285714D02*
X172642857Y-110257142D01*
X172557142Y-110228571D01*
X172500000Y-110228571D01*
X172414285Y-110257142D01*
X172357142Y-110314285D01*
X172328571Y-110371428D01*
X172300000Y-110485714D01*
X172300000Y-110571428D01*
X172328571Y-110685714D01*
X172357142Y-110742857D01*
X172414285Y-110800000D01*
X172500000Y-110828571D01*
X172557142Y-110828571D01*
X172642857Y-110800000D01*
X172671428Y-110771428D01*
X173214285Y-110228571D02*
X172928571Y-110228571D01*
X172928571Y-110828571D01*
X173414285Y-110228571D02*
X173414285Y-110828571D01*
X173757142Y-110228571D02*
X173500000Y-110571428D01*
X173757142Y-110828571D02*
X173414285Y-110485714D01*
X169342857Y-110400000D02*
X169285714Y-110428571D01*
X169200000Y-110428571D01*
X169114285Y-110400000D01*
X169057142Y-110342857D01*
X169028571Y-110285714D01*
X169000000Y-110171428D01*
X169000000Y-110085714D01*
X169028571Y-109971428D01*
X169057142Y-109914285D01*
X169114285Y-109857142D01*
X169200000Y-109828571D01*
X169257142Y-109828571D01*
X169342857Y-109857142D01*
X169371428Y-109885714D01*
X169371428Y-110085714D01*
X169257142Y-110085714D01*
X169628571Y-109828571D02*
X169628571Y-110428571D01*
X169971428Y-109828571D01*
X169971428Y-110428571D01*
X170257142Y-109828571D02*
X170257142Y-110428571D01*
X170400000Y-110428571D01*
X170485714Y-110400000D01*
X170542857Y-110342857D01*
X170571428Y-110285714D01*
X170600000Y-110171428D01*
X170600000Y-110085714D01*
X170571428Y-109971428D01*
X170542857Y-109914285D01*
X170485714Y-109857142D01*
X170400000Y-109828571D01*
X170257142Y-109828571D01*
X163814285Y-109828571D02*
X163814285Y-110428571D01*
X164157142Y-109828571D01*
X164157142Y-110428571D01*
X164785714Y-109828571D02*
X164585714Y-110114285D01*
X164442857Y-109828571D02*
X164442857Y-110428571D01*
X164671428Y-110428571D01*
X164728571Y-110400000D01*
X164757142Y-110371428D01*
X164785714Y-110314285D01*
X164785714Y-110228571D01*
X164757142Y-110171428D01*
X164728571Y-110142857D01*
X164671428Y-110114285D01*
X164442857Y-110114285D01*
X165014285Y-109857142D02*
X165100000Y-109828571D01*
X165242857Y-109828571D01*
X165300000Y-109857142D01*
X165328571Y-109885714D01*
X165357142Y-109942857D01*
X165357142Y-110000000D01*
X165328571Y-110057142D01*
X165300000Y-110085714D01*
X165242857Y-110114285D01*
X165128571Y-110142857D01*
X165071428Y-110171428D01*
X165042857Y-110200000D01*
X165014285Y-110257142D01*
X165014285Y-110314285D01*
X165042857Y-110371428D01*
X165071428Y-110400000D01*
X165128571Y-110428571D01*
X165271428Y-110428571D01*
X165357142Y-110400000D01*
X165528571Y-110428571D02*
X165871428Y-110428571D01*
X165700000Y-109828571D02*
X165700000Y-110428571D01*
X166128571Y-110257142D02*
X166214285Y-110228571D01*
X166357142Y-110228571D01*
X166414285Y-110257142D01*
X166442857Y-110285714D01*
X166471428Y-110342857D01*
X166471428Y-110400000D01*
X166442857Y-110457142D01*
X166414285Y-110485714D01*
X166357142Y-110514285D01*
X166242857Y-110542857D01*
X166185714Y-110571428D01*
X166157142Y-110600000D01*
X166128571Y-110657142D01*
X166128571Y-110714285D01*
X166157142Y-110771428D01*
X166185714Y-110800000D01*
X166242857Y-110828571D01*
X166385714Y-110828571D01*
X166471428Y-110800000D01*
X166671428Y-110828571D02*
X166814285Y-110228571D01*
X166928571Y-110657142D01*
X167042857Y-110228571D01*
X167185714Y-110828571D01*
X167414285Y-110228571D02*
X167414285Y-110828571D01*
X167557142Y-110828571D01*
X167642857Y-110800000D01*
X167700000Y-110742857D01*
X167728571Y-110685714D01*
X167757142Y-110571428D01*
X167757142Y-110485714D01*
X167728571Y-110371428D01*
X167700000Y-110314285D01*
X167642857Y-110257142D01*
X167557142Y-110228571D01*
X167414285Y-110228571D01*
X168014285Y-110228571D02*
X168014285Y-110828571D01*
X168414285Y-110828571D02*
X168528571Y-110828571D01*
X168585714Y-110800000D01*
X168642857Y-110742857D01*
X168671428Y-110628571D01*
X168671428Y-110428571D01*
X168642857Y-110314285D01*
X168585714Y-110257142D01*
X168528571Y-110228571D01*
X168414285Y-110228571D01*
X168357142Y-110257142D01*
X168300000Y-110314285D01*
X168271428Y-110428571D01*
X168271428Y-110628571D01*
X168300000Y-110742857D01*
X168357142Y-110800000D01*
X168414285Y-110828571D01*
D11*
X121376190Y-108167857D02*
X121328571Y-108120238D01*
X121185714Y-108072619D01*
X121090476Y-108072619D01*
X120947619Y-108120238D01*
X120852380Y-108215476D01*
X120804761Y-108310714D01*
X120757142Y-108501190D01*
X120757142Y-108644047D01*
X120804761Y-108834523D01*
X120852380Y-108929761D01*
X120947619Y-109025000D01*
X121090476Y-109072619D01*
X121185714Y-109072619D01*
X121328571Y-109025000D01*
X121376190Y-108977380D01*
X121757142Y-108358333D02*
X122233333Y-108358333D01*
X121661904Y-108072619D02*
X121995238Y-109072619D01*
X122328571Y-108072619D01*
X122661904Y-108072619D02*
X122661904Y-109072619D01*
X123233333Y-108072619D01*
X123233333Y-109072619D01*
X124471428Y-108072619D02*
X124471428Y-109072619D01*
X124471428Y-108596428D02*
X125042857Y-108596428D01*
X125042857Y-108072619D02*
X125042857Y-109072619D01*
X125519047Y-108453571D02*
X126280952Y-108453571D01*
X127090476Y-108596428D02*
X127233333Y-108548809D01*
X127280952Y-108501190D01*
X127328571Y-108405952D01*
X127328571Y-108263095D01*
X127280952Y-108167857D01*
X127233333Y-108120238D01*
X127138095Y-108072619D01*
X126757142Y-108072619D01*
X126757142Y-109072619D01*
X127090476Y-109072619D01*
X127185714Y-109025000D01*
X127233333Y-108977380D01*
X127280952Y-108882142D01*
X127280952Y-108786904D01*
X127233333Y-108691666D01*
X127185714Y-108644047D01*
X127090476Y-108596428D01*
X126757142Y-108596428D01*
X127757142Y-108072619D02*
X127757142Y-108739285D01*
X127757142Y-108548809D02*
X127804761Y-108644047D01*
X127852380Y-108691666D01*
X127947619Y-108739285D01*
X128042857Y-108739285D01*
X128376190Y-108072619D02*
X128376190Y-108739285D01*
X128376190Y-109072619D02*
X128328571Y-109025000D01*
X128376190Y-108977380D01*
X128423809Y-109025000D01*
X128376190Y-109072619D01*
X128376190Y-108977380D01*
X129280952Y-108072619D02*
X129280952Y-109072619D01*
X129280952Y-108120238D02*
X129185714Y-108072619D01*
X128995238Y-108072619D01*
X128899999Y-108120238D01*
X128852380Y-108167857D01*
X128804761Y-108263095D01*
X128804761Y-108548809D01*
X128852380Y-108644047D01*
X128899999Y-108691666D01*
X128995238Y-108739285D01*
X129185714Y-108739285D01*
X129280952Y-108691666D01*
X130185714Y-108739285D02*
X130185714Y-107929761D01*
X130138095Y-107834523D01*
X130090476Y-107786904D01*
X129995238Y-107739285D01*
X129852380Y-107739285D01*
X129757142Y-107786904D01*
X130185714Y-108120238D02*
X130090476Y-108072619D01*
X129899999Y-108072619D01*
X129804761Y-108120238D01*
X129757142Y-108167857D01*
X129709523Y-108263095D01*
X129709523Y-108548809D01*
X129757142Y-108644047D01*
X129804761Y-108691666D01*
X129899999Y-108739285D01*
X130090476Y-108739285D01*
X130185714Y-108691666D01*
X131042857Y-108120238D02*
X130947619Y-108072619D01*
X130757142Y-108072619D01*
X130661904Y-108120238D01*
X130614285Y-108215476D01*
X130614285Y-108596428D01*
X130661904Y-108691666D01*
X130757142Y-108739285D01*
X130947619Y-108739285D01*
X131042857Y-108691666D01*
X131090476Y-108596428D01*
X131090476Y-108501190D01*
X130614285Y-108405952D01*
X132233333Y-108120238D02*
X132376190Y-108072619D01*
X132614285Y-108072619D01*
X132709523Y-108120238D01*
X132757142Y-108167857D01*
X132804761Y-108263095D01*
X132804761Y-108358333D01*
X132757142Y-108453571D01*
X132709523Y-108501190D01*
X132614285Y-108548809D01*
X132423809Y-108596428D01*
X132328571Y-108644047D01*
X132280952Y-108691666D01*
X132233333Y-108786904D01*
X132233333Y-108882142D01*
X132280952Y-108977380D01*
X132328571Y-109025000D01*
X132423809Y-109072619D01*
X132661904Y-109072619D01*
X132804761Y-109025000D01*
X133376190Y-108072619D02*
X133280952Y-108120238D01*
X133233333Y-108167857D01*
X133185714Y-108263095D01*
X133185714Y-108548809D01*
X133233333Y-108644047D01*
X133280952Y-108691666D01*
X133376190Y-108739285D01*
X133519047Y-108739285D01*
X133614285Y-108691666D01*
X133661904Y-108644047D01*
X133709523Y-108548809D01*
X133709523Y-108263095D01*
X133661904Y-108167857D01*
X133614285Y-108120238D01*
X133519047Y-108072619D01*
X133376190Y-108072619D01*
X134280952Y-108072619D02*
X134185714Y-108120238D01*
X134138095Y-108215476D01*
X134138095Y-109072619D01*
X134804761Y-108072619D02*
X134709523Y-108120238D01*
X134661904Y-108167857D01*
X134614285Y-108263095D01*
X134614285Y-108548809D01*
X134661904Y-108644047D01*
X134709523Y-108691666D01*
X134804761Y-108739285D01*
X134947619Y-108739285D01*
X135042857Y-108691666D01*
X135090476Y-108644047D01*
X135138095Y-108548809D01*
X135138095Y-108263095D01*
X135090476Y-108167857D01*
X135042857Y-108120238D01*
X134947619Y-108072619D01*
X134804761Y-108072619D01*
X136328571Y-108072619D02*
X136328571Y-109072619D01*
X136661904Y-108358333D01*
X136995238Y-109072619D01*
X136995238Y-108072619D01*
X137471428Y-108072619D02*
X137471428Y-109072619D01*
X137709523Y-109072619D01*
X137852380Y-109025000D01*
X137947619Y-108929761D01*
X137995238Y-108834523D01*
X138042857Y-108644047D01*
X138042857Y-108501190D01*
X137995238Y-108310714D01*
X137947619Y-108215476D01*
X137852380Y-108120238D01*
X137709523Y-108072619D01*
X137471428Y-108072619D01*
X124519047Y-106422619D02*
X124519047Y-107422619D01*
X124900000Y-107422619D01*
X124995238Y-107375000D01*
X125042857Y-107327380D01*
X125090476Y-107232142D01*
X125090476Y-107089285D01*
X125042857Y-106994047D01*
X124995238Y-106946428D01*
X124900000Y-106898809D01*
X124519047Y-106898809D01*
X125519047Y-106422619D02*
X125519047Y-107089285D01*
X125519047Y-106898809D02*
X125566666Y-106994047D01*
X125614285Y-107041666D01*
X125709523Y-107089285D01*
X125804761Y-107089285D01*
X126280952Y-106422619D02*
X126185714Y-106470238D01*
X126138095Y-106517857D01*
X126090476Y-106613095D01*
X126090476Y-106898809D01*
X126138095Y-106994047D01*
X126185714Y-107041666D01*
X126280952Y-107089285D01*
X126423809Y-107089285D01*
X126519047Y-107041666D01*
X126566666Y-106994047D01*
X126614285Y-106898809D01*
X126614285Y-106613095D01*
X126566666Y-106517857D01*
X126519047Y-106470238D01*
X126423809Y-106422619D01*
X126280952Y-106422619D01*
X126900000Y-107089285D02*
X127280952Y-107089285D01*
X127042857Y-107422619D02*
X127042857Y-106565476D01*
X127090476Y-106470238D01*
X127185714Y-106422619D01*
X127280952Y-106422619D01*
X127757142Y-106422619D02*
X127661904Y-106470238D01*
X127614285Y-106517857D01*
X127566666Y-106613095D01*
X127566666Y-106898809D01*
X127614285Y-106994047D01*
X127661904Y-107041666D01*
X127757142Y-107089285D01*
X127900000Y-107089285D01*
X127995238Y-107041666D01*
X128042857Y-106994047D01*
X128090476Y-106898809D01*
X128090476Y-106613095D01*
X128042857Y-106517857D01*
X127995238Y-106470238D01*
X127900000Y-106422619D01*
X127757142Y-106422619D01*
X128376190Y-107089285D02*
X128757142Y-107089285D01*
X128519047Y-107422619D02*
X128519047Y-106565476D01*
X128566666Y-106470238D01*
X128661904Y-106422619D01*
X128757142Y-106422619D01*
X128995238Y-107089285D02*
X129233333Y-106422619D01*
X129471428Y-107089285D02*
X129233333Y-106422619D01*
X129138095Y-106184523D01*
X129090476Y-106136904D01*
X128995238Y-106089285D01*
X129852380Y-107089285D02*
X129852380Y-106089285D01*
X129852380Y-107041666D02*
X129947619Y-107089285D01*
X130138095Y-107089285D01*
X130233333Y-107041666D01*
X130280952Y-106994047D01*
X130328571Y-106898809D01*
X130328571Y-106613095D01*
X130280952Y-106517857D01*
X130233333Y-106470238D01*
X130138095Y-106422619D01*
X129947619Y-106422619D01*
X129852380Y-106470238D01*
X131138095Y-106470238D02*
X131042857Y-106422619D01*
X130852380Y-106422619D01*
X130757142Y-106470238D01*
X130709523Y-106565476D01*
X130709523Y-106946428D01*
X130757142Y-107041666D01*
X130852380Y-107089285D01*
X131042857Y-107089285D01*
X131138095Y-107041666D01*
X131185714Y-106946428D01*
X131185714Y-106851190D01*
X130709523Y-106755952D01*
X132900000Y-106422619D02*
X132328571Y-106422619D01*
X132614285Y-106422619D02*
X132614285Y-107422619D01*
X132519047Y-107279761D01*
X132423809Y-107184523D01*
X132328571Y-107136904D01*
X133328571Y-106517857D02*
X133376190Y-106470238D01*
X133328571Y-106422619D01*
X133280952Y-106470238D01*
X133328571Y-106517857D01*
X133328571Y-106422619D01*
X134328571Y-106422619D02*
X133757142Y-106422619D01*
X134042857Y-106422619D02*
X134042857Y-107422619D01*
X133947619Y-107279761D01*
X133852380Y-107184523D01*
X133757142Y-107136904D01*
D12*
X178449428Y-89778095D02*
X178068476Y-89778095D01*
X178068476Y-90578095D01*
X178716095Y-90197142D02*
X178982761Y-90197142D01*
X179097047Y-89778095D02*
X178716095Y-89778095D01*
X178716095Y-90578095D01*
X179097047Y-90578095D01*
X179439904Y-89778095D02*
X179439904Y-90578095D01*
X179630380Y-90578095D01*
X179744666Y-90540000D01*
X179820857Y-90463809D01*
X179858952Y-90387619D01*
X179897047Y-90235238D01*
X179897047Y-90120952D01*
X179858952Y-89968571D01*
X179820857Y-89892380D01*
X179744666Y-89816190D01*
X179630380Y-89778095D01*
X179439904Y-89778095D01*
X180468476Y-89473333D02*
X180430380Y-89511428D01*
X180354190Y-89625714D01*
X180316095Y-89701904D01*
X180278000Y-89816190D01*
X180239904Y-90006666D01*
X180239904Y-90159047D01*
X180278000Y-90349523D01*
X180316095Y-90463809D01*
X180354190Y-90540000D01*
X180430380Y-90654285D01*
X180468476Y-90692380D01*
X180925619Y-90578095D02*
X181078000Y-90578095D01*
X181154190Y-90540000D01*
X181230380Y-90463809D01*
X181268476Y-90311428D01*
X181268476Y-90044761D01*
X181230380Y-89892380D01*
X181154190Y-89816190D01*
X181078000Y-89778095D01*
X180925619Y-89778095D01*
X180849428Y-89816190D01*
X180773238Y-89892380D01*
X180735142Y-90044761D01*
X180735142Y-90311428D01*
X180773238Y-90463809D01*
X180849428Y-90540000D01*
X180925619Y-90578095D01*
X181611333Y-89778095D02*
X181611333Y-90578095D01*
X182068476Y-89778095D01*
X182068476Y-90578095D01*
X182449428Y-89854285D02*
X182487523Y-89816190D01*
X182449428Y-89778095D01*
X182411333Y-89816190D01*
X182449428Y-89854285D01*
X182449428Y-89778095D01*
X182449428Y-90273333D02*
X182487523Y-90235238D01*
X182449428Y-90197142D01*
X182411333Y-90235238D01*
X182449428Y-90273333D01*
X182449428Y-90197142D01*
X183249428Y-89778095D02*
X182792285Y-89778095D01*
X183020857Y-89778095D02*
X183020857Y-90578095D01*
X182944666Y-90463809D01*
X182868476Y-90387619D01*
X182792285Y-90349523D01*
X184354190Y-90578095D02*
X184506571Y-90578095D01*
X184582761Y-90540000D01*
X184658952Y-90463809D01*
X184697047Y-90311428D01*
X184697047Y-90044761D01*
X184658952Y-89892380D01*
X184582761Y-89816190D01*
X184506571Y-89778095D01*
X184354190Y-89778095D01*
X184278000Y-89816190D01*
X184201809Y-89892380D01*
X184163714Y-90044761D01*
X184163714Y-90311428D01*
X184201809Y-90463809D01*
X184278000Y-90540000D01*
X184354190Y-90578095D01*
X185306571Y-90197142D02*
X185039904Y-90197142D01*
X185039904Y-89778095D02*
X185039904Y-90578095D01*
X185420857Y-90578095D01*
X185992285Y-90197142D02*
X185725619Y-90197142D01*
X185725619Y-89778095D02*
X185725619Y-90578095D01*
X186106571Y-90578095D01*
X186411333Y-89854285D02*
X186449428Y-89816190D01*
X186411333Y-89778095D01*
X186373238Y-89816190D01*
X186411333Y-89854285D01*
X186411333Y-89778095D01*
X186411333Y-90273333D02*
X186449428Y-90235238D01*
X186411333Y-90197142D01*
X186373238Y-90235238D01*
X186411333Y-90273333D01*
X186411333Y-90197142D01*
X186944666Y-90578095D02*
X187020857Y-90578095D01*
X187097047Y-90540000D01*
X187135142Y-90501904D01*
X187173238Y-90425714D01*
X187211333Y-90273333D01*
X187211333Y-90082857D01*
X187173238Y-89930476D01*
X187135142Y-89854285D01*
X187097047Y-89816190D01*
X187020857Y-89778095D01*
X186944666Y-89778095D01*
X186868476Y-89816190D01*
X186830380Y-89854285D01*
X186792285Y-89930476D01*
X186754190Y-90082857D01*
X186754190Y-90273333D01*
X186792285Y-90425714D01*
X186830380Y-90501904D01*
X186868476Y-90540000D01*
X186944666Y-90578095D01*
X187478000Y-89473333D02*
X187516095Y-89511428D01*
X187592285Y-89625714D01*
X187630380Y-89701904D01*
X187668476Y-89816190D01*
X187706571Y-90006666D01*
X187706571Y-90159047D01*
X187668476Y-90349523D01*
X187630380Y-90463809D01*
X187592285Y-90540000D01*
X187516095Y-90654285D01*
X187478000Y-90692380D01*
X178220857Y-89258095D02*
X178297047Y-89258095D01*
X178373238Y-89220000D01*
X178411333Y-89181904D01*
X178449428Y-89105714D01*
X178487523Y-88953333D01*
X178487523Y-88762857D01*
X178449428Y-88610476D01*
X178411333Y-88534285D01*
X178373238Y-88496190D01*
X178297047Y-88458095D01*
X178220857Y-88458095D01*
X178144666Y-88496190D01*
X178106571Y-88534285D01*
X178068476Y-88610476D01*
X178030380Y-88762857D01*
X178030380Y-88953333D01*
X178068476Y-89105714D01*
X178106571Y-89181904D01*
X178144666Y-89220000D01*
X178220857Y-89258095D01*
X178982761Y-89258095D02*
X179058952Y-89258095D01*
X179135142Y-89220000D01*
X179173238Y-89181904D01*
X179211333Y-89105714D01*
X179249428Y-88953333D01*
X179249428Y-88762857D01*
X179211333Y-88610476D01*
X179173238Y-88534285D01*
X179135142Y-88496190D01*
X179058952Y-88458095D01*
X178982761Y-88458095D01*
X178906571Y-88496190D01*
X178868476Y-88534285D01*
X178830380Y-88610476D01*
X178792285Y-88762857D01*
X178792285Y-88953333D01*
X178830380Y-89105714D01*
X178868476Y-89181904D01*
X178906571Y-89220000D01*
X178982761Y-89258095D01*
X180201809Y-88762857D02*
X180811333Y-88762857D01*
X181192285Y-88991428D02*
X181801809Y-88762857D01*
X181192285Y-88534285D01*
X183058952Y-88877142D02*
X182792285Y-88877142D01*
X182792285Y-88458095D02*
X182792285Y-89258095D01*
X183173238Y-89258095D01*
X183478000Y-88458095D02*
X183478000Y-88991428D01*
X183478000Y-88839047D02*
X183516095Y-88915238D01*
X183554190Y-88953333D01*
X183630380Y-88991428D01*
X183706571Y-88991428D01*
X184278000Y-88496190D02*
X184201809Y-88458095D01*
X184049428Y-88458095D01*
X183973238Y-88496190D01*
X183935142Y-88572380D01*
X183935142Y-88877142D01*
X183973238Y-88953333D01*
X184049428Y-88991428D01*
X184201809Y-88991428D01*
X184278000Y-88953333D01*
X184316095Y-88877142D01*
X184316095Y-88800952D01*
X183935142Y-88724761D01*
X184963714Y-88496190D02*
X184887523Y-88458095D01*
X184735142Y-88458095D01*
X184658952Y-88496190D01*
X184620857Y-88572380D01*
X184620857Y-88877142D01*
X184658952Y-88953333D01*
X184735142Y-88991428D01*
X184887523Y-88991428D01*
X184963714Y-88953333D01*
X185001809Y-88877142D01*
X185001809Y-88800952D01*
X184620857Y-88724761D01*
X178220857Y-87938095D02*
X178297047Y-87938095D01*
X178373238Y-87900000D01*
X178411333Y-87861904D01*
X178449428Y-87785714D01*
X178487523Y-87633333D01*
X178487523Y-87442857D01*
X178449428Y-87290476D01*
X178411333Y-87214285D01*
X178373238Y-87176190D01*
X178297047Y-87138095D01*
X178220857Y-87138095D01*
X178144666Y-87176190D01*
X178106571Y-87214285D01*
X178068476Y-87290476D01*
X178030380Y-87442857D01*
X178030380Y-87633333D01*
X178068476Y-87785714D01*
X178106571Y-87861904D01*
X178144666Y-87900000D01*
X178220857Y-87938095D01*
X179249428Y-87138095D02*
X178792285Y-87138095D01*
X179020857Y-87138095D02*
X179020857Y-87938095D01*
X178944666Y-87823809D01*
X178868476Y-87747619D01*
X178792285Y-87709523D01*
X180201809Y-87442857D02*
X180811333Y-87442857D01*
X181192285Y-87671428D02*
X181801809Y-87442857D01*
X181192285Y-87214285D01*
X183249428Y-87214285D02*
X183211333Y-87176190D01*
X183097047Y-87138095D01*
X183020857Y-87138095D01*
X182906571Y-87176190D01*
X182830380Y-87252380D01*
X182792285Y-87328571D01*
X182754190Y-87480952D01*
X182754190Y-87595238D01*
X182792285Y-87747619D01*
X182830380Y-87823809D01*
X182906571Y-87900000D01*
X183020857Y-87938095D01*
X183097047Y-87938095D01*
X183211333Y-87900000D01*
X183249428Y-87861904D01*
X183516095Y-87938095D02*
X183706571Y-87138095D01*
X183858952Y-87709523D01*
X184011333Y-87138095D01*
X184201809Y-87938095D01*
X178487523Y-85818095D02*
X178030380Y-85818095D01*
X178258952Y-85818095D02*
X178258952Y-86618095D01*
X178182761Y-86503809D01*
X178106571Y-86427619D01*
X178030380Y-86389523D01*
X178982761Y-86618095D02*
X179058952Y-86618095D01*
X179135142Y-86580000D01*
X179173238Y-86541904D01*
X179211333Y-86465714D01*
X179249428Y-86313333D01*
X179249428Y-86122857D01*
X179211333Y-85970476D01*
X179173238Y-85894285D01*
X179135142Y-85856190D01*
X179058952Y-85818095D01*
X178982761Y-85818095D01*
X178906571Y-85856190D01*
X178868476Y-85894285D01*
X178830380Y-85970476D01*
X178792285Y-86122857D01*
X178792285Y-86313333D01*
X178830380Y-86465714D01*
X178868476Y-86541904D01*
X178906571Y-86580000D01*
X178982761Y-86618095D01*
X180201809Y-86122857D02*
X180811333Y-86122857D01*
X181192285Y-86351428D02*
X181801809Y-86122857D01*
X181192285Y-85894285D01*
X183249428Y-85894285D02*
X183211333Y-85856190D01*
X183097047Y-85818095D01*
X183020857Y-85818095D01*
X182906571Y-85856190D01*
X182830380Y-85932380D01*
X182792285Y-86008571D01*
X182754190Y-86160952D01*
X182754190Y-86275238D01*
X182792285Y-86427619D01*
X182830380Y-86503809D01*
X182906571Y-86580000D01*
X183020857Y-86618095D01*
X183097047Y-86618095D01*
X183211333Y-86580000D01*
X183249428Y-86541904D01*
X184049428Y-85894285D02*
X184011333Y-85856190D01*
X183897047Y-85818095D01*
X183820857Y-85818095D01*
X183706571Y-85856190D01*
X183630380Y-85932380D01*
X183592285Y-86008571D01*
X183554190Y-86160952D01*
X183554190Y-86275238D01*
X183592285Y-86427619D01*
X183630380Y-86503809D01*
X183706571Y-86580000D01*
X183820857Y-86618095D01*
X183897047Y-86618095D01*
X184011333Y-86580000D01*
X184049428Y-86541904D01*
X184316095Y-86618095D02*
X184506571Y-85818095D01*
X184658952Y-86389523D01*
X184811333Y-85818095D01*
X185001809Y-86618095D01*
X178487523Y-84498095D02*
X178030380Y-84498095D01*
X178258952Y-84498095D02*
X178258952Y-85298095D01*
X178182761Y-85183809D01*
X178106571Y-85107619D01*
X178030380Y-85069523D01*
X179249428Y-84498095D02*
X178792285Y-84498095D01*
X179020857Y-84498095D02*
X179020857Y-85298095D01*
X178944666Y-85183809D01*
X178868476Y-85107619D01*
X178792285Y-85069523D01*
X180201809Y-84802857D02*
X180811333Y-84802857D01*
X181192285Y-85031428D02*
X181801809Y-84802857D01*
X181192285Y-84574285D01*
X183058952Y-84917142D02*
X183173238Y-84879047D01*
X183211333Y-84840952D01*
X183249428Y-84764761D01*
X183249428Y-84650476D01*
X183211333Y-84574285D01*
X183173238Y-84536190D01*
X183097047Y-84498095D01*
X182792285Y-84498095D01*
X182792285Y-85298095D01*
X183058952Y-85298095D01*
X183135142Y-85260000D01*
X183173238Y-85221904D01*
X183211333Y-85145714D01*
X183211333Y-85069523D01*
X183173238Y-84993333D01*
X183135142Y-84955238D01*
X183058952Y-84917142D01*
X182792285Y-84917142D01*
X183592285Y-84498095D02*
X183592285Y-85031428D01*
X183592285Y-84879047D02*
X183630380Y-84955238D01*
X183668476Y-84993333D01*
X183744666Y-85031428D01*
X183820857Y-85031428D01*
X184430380Y-84498095D02*
X184430380Y-84917142D01*
X184392285Y-84993333D01*
X184316095Y-85031428D01*
X184163714Y-85031428D01*
X184087523Y-84993333D01*
X184430380Y-84536190D02*
X184354190Y-84498095D01*
X184163714Y-84498095D01*
X184087523Y-84536190D01*
X184049428Y-84612380D01*
X184049428Y-84688571D01*
X184087523Y-84764761D01*
X184163714Y-84802857D01*
X184354190Y-84802857D01*
X184430380Y-84840952D01*
X184811333Y-84498095D02*
X184811333Y-85298095D01*
X184887523Y-84802857D02*
X185116095Y-84498095D01*
X185116095Y-85031428D02*
X184811333Y-84726666D01*
X185763714Y-84536190D02*
X185687523Y-84498095D01*
X185535142Y-84498095D01*
X185458952Y-84536190D01*
X185420857Y-84612380D01*
X185420857Y-84917142D01*
X185458952Y-84993333D01*
X185535142Y-85031428D01*
X185687523Y-85031428D01*
X185763714Y-84993333D01*
X185801809Y-84917142D01*
X185801809Y-84840952D01*
X185420857Y-84764761D01*
D13*
X189650000Y-75450000D02*
X189650000Y-108250000D01*
X108850000Y-111750000D02*
G75*
G02X105350000Y-108250000I0J3500000D01*
G01*
X105350000Y-108250000D02*
X105350000Y-75450000D01*
X189650000Y-108250000D02*
G75*
G02X186150000Y-111750000I-3500000J0D01*
G01*
X105350000Y-148050000D02*
X105350000Y-115250000D01*
X189650000Y-115250000D02*
X189650000Y-148050000D01*
D10*
X120742857Y-113071428D02*
X120371428Y-113071428D01*
X120571428Y-113300000D01*
X120485714Y-113300000D01*
X120428571Y-113328571D01*
X120400000Y-113357142D01*
X120371428Y-113414285D01*
X120371428Y-113557142D01*
X120400000Y-113614285D01*
X120428571Y-113642857D01*
X120485714Y-113671428D01*
X120657142Y-113671428D01*
X120714285Y-113642857D01*
X120742857Y-113614285D01*
X120200000Y-113071428D02*
X120000000Y-113671428D01*
X119800000Y-113071428D01*
X119657142Y-113071428D02*
X119285714Y-113071428D01*
X119485714Y-113300000D01*
X119400000Y-113300000D01*
X119342857Y-113328571D01*
X119314285Y-113357142D01*
X119285714Y-113414285D01*
X119285714Y-113557142D01*
X119314285Y-113614285D01*
X119342857Y-113642857D01*
X119400000Y-113671428D01*
X119571428Y-113671428D01*
X119628571Y-113642857D01*
X119657142Y-113614285D01*
X123957142Y-113242857D02*
X123871428Y-113271428D01*
X123728571Y-113271428D01*
X123671428Y-113242857D01*
X123642857Y-113214285D01*
X123614285Y-113157142D01*
X123614285Y-113100000D01*
X123642857Y-113042857D01*
X123671428Y-113014285D01*
X123728571Y-112985714D01*
X123842857Y-112957142D01*
X123900000Y-112928571D01*
X123928571Y-112900000D01*
X123957142Y-112842857D01*
X123957142Y-112785714D01*
X123928571Y-112728571D01*
X123900000Y-112700000D01*
X123842857Y-112671428D01*
X123700000Y-112671428D01*
X123614285Y-112700000D01*
X123414285Y-112671428D02*
X123271428Y-113271428D01*
X123157142Y-112842857D01*
X123042857Y-113271428D01*
X122900000Y-112671428D01*
X122328571Y-113214285D02*
X122357142Y-113242857D01*
X122442857Y-113271428D01*
X122500000Y-113271428D01*
X122585714Y-113242857D01*
X122642857Y-113185714D01*
X122671428Y-113128571D01*
X122700000Y-113014285D01*
X122700000Y-112928571D01*
X122671428Y-112814285D01*
X122642857Y-112757142D01*
X122585714Y-112700000D01*
X122500000Y-112671428D01*
X122442857Y-112671428D01*
X122357142Y-112700000D01*
X122328571Y-112728571D01*
X121785714Y-113271428D02*
X122071428Y-113271428D01*
X122071428Y-112671428D01*
X121585714Y-113271428D02*
X121585714Y-112671428D01*
X121242857Y-113271428D02*
X121500000Y-112928571D01*
X121242857Y-112671428D02*
X121585714Y-113014285D01*
X125657142Y-113100000D02*
X125714285Y-113071428D01*
X125800000Y-113071428D01*
X125885714Y-113100000D01*
X125942857Y-113157142D01*
X125971428Y-113214285D01*
X126000000Y-113328571D01*
X126000000Y-113414285D01*
X125971428Y-113528571D01*
X125942857Y-113585714D01*
X125885714Y-113642857D01*
X125800000Y-113671428D01*
X125742857Y-113671428D01*
X125657142Y-113642857D01*
X125628571Y-113614285D01*
X125628571Y-113414285D01*
X125742857Y-113414285D01*
X125371428Y-113671428D02*
X125371428Y-113071428D01*
X125028571Y-113671428D01*
X125028571Y-113071428D01*
X124742857Y-113671428D02*
X124742857Y-113071428D01*
X124600000Y-113071428D01*
X124514285Y-113100000D01*
X124457142Y-113157142D01*
X124428571Y-113214285D01*
X124400000Y-113328571D01*
X124400000Y-113414285D01*
X124428571Y-113528571D01*
X124457142Y-113585714D01*
X124514285Y-113642857D01*
X124600000Y-113671428D01*
X124742857Y-113671428D01*
X128871428Y-113242857D02*
X128785714Y-113271428D01*
X128642857Y-113271428D01*
X128585714Y-113242857D01*
X128557142Y-113214285D01*
X128528571Y-113157142D01*
X128528571Y-113100000D01*
X128557142Y-113042857D01*
X128585714Y-113014285D01*
X128642857Y-112985714D01*
X128757142Y-112957142D01*
X128814285Y-112928571D01*
X128842857Y-112900000D01*
X128871428Y-112842857D01*
X128871428Y-112785714D01*
X128842857Y-112728571D01*
X128814285Y-112700000D01*
X128757142Y-112671428D01*
X128614285Y-112671428D01*
X128528571Y-112700000D01*
X128328571Y-112671428D02*
X128185714Y-113271428D01*
X128071428Y-112842857D01*
X127957142Y-113271428D01*
X127814285Y-112671428D01*
X127585714Y-113271428D02*
X127585714Y-112671428D01*
X127442857Y-112671428D01*
X127357142Y-112700000D01*
X127300000Y-112757142D01*
X127271428Y-112814285D01*
X127242857Y-112928571D01*
X127242857Y-113014285D01*
X127271428Y-113128571D01*
X127300000Y-113185714D01*
X127357142Y-113242857D01*
X127442857Y-113271428D01*
X127585714Y-113271428D01*
X126985714Y-113271428D02*
X126985714Y-112671428D01*
X126585714Y-112671428D02*
X126471428Y-112671428D01*
X126414285Y-112700000D01*
X126357142Y-112757142D01*
X126328571Y-112871428D01*
X126328571Y-113071428D01*
X126357142Y-113185714D01*
X126414285Y-113242857D01*
X126471428Y-113271428D01*
X126585714Y-113271428D01*
X126642857Y-113242857D01*
X126700000Y-113185714D01*
X126728571Y-113071428D01*
X126728571Y-112871428D01*
X126700000Y-112757142D01*
X126642857Y-112700000D01*
X126585714Y-112671428D01*
X131185714Y-113671428D02*
X131185714Y-113071428D01*
X130842857Y-113671428D01*
X130842857Y-113071428D01*
X130214285Y-113671428D02*
X130414285Y-113385714D01*
X130557142Y-113671428D02*
X130557142Y-113071428D01*
X130328571Y-113071428D01*
X130271428Y-113100000D01*
X130242857Y-113128571D01*
X130214285Y-113185714D01*
X130214285Y-113271428D01*
X130242857Y-113328571D01*
X130271428Y-113357142D01*
X130328571Y-113385714D01*
X130557142Y-113385714D01*
X129985714Y-113642857D02*
X129900000Y-113671428D01*
X129757142Y-113671428D01*
X129700000Y-113642857D01*
X129671428Y-113614285D01*
X129642857Y-113557142D01*
X129642857Y-113500000D01*
X129671428Y-113442857D01*
X129700000Y-113414285D01*
X129757142Y-113385714D01*
X129871428Y-113357142D01*
X129928571Y-113328571D01*
X129957142Y-113300000D01*
X129985714Y-113242857D01*
X129985714Y-113185714D01*
X129957142Y-113128571D01*
X129928571Y-113100000D01*
X129871428Y-113071428D01*
X129728571Y-113071428D01*
X129642857Y-113100000D01*
X129471428Y-113071428D02*
X129128571Y-113071428D01*
X129300000Y-113671428D02*
X129300000Y-113071428D01*
D11*
X173623809Y-115332142D02*
X173671428Y-115379761D01*
X173814285Y-115427380D01*
X173909523Y-115427380D01*
X174052380Y-115379761D01*
X174147619Y-115284523D01*
X174195238Y-115189285D01*
X174242857Y-114998809D01*
X174242857Y-114855952D01*
X174195238Y-114665476D01*
X174147619Y-114570238D01*
X174052380Y-114475000D01*
X173909523Y-114427380D01*
X173814285Y-114427380D01*
X173671428Y-114475000D01*
X173623809Y-114522619D01*
X173242857Y-115141666D02*
X172766666Y-115141666D01*
X173338095Y-115427380D02*
X173004761Y-114427380D01*
X172671428Y-115427380D01*
X172338095Y-115427380D02*
X172338095Y-114427380D01*
X171766666Y-115427380D01*
X171766666Y-114427380D01*
X170528571Y-115427380D02*
X170528571Y-114427380D01*
X170528571Y-114903571D02*
X169957142Y-114903571D01*
X169957142Y-115427380D02*
X169957142Y-114427380D01*
X169480952Y-115046428D02*
X168719047Y-115046428D01*
X167909523Y-114903571D02*
X167766666Y-114951190D01*
X167719047Y-114998809D01*
X167671428Y-115094047D01*
X167671428Y-115236904D01*
X167719047Y-115332142D01*
X167766666Y-115379761D01*
X167861904Y-115427380D01*
X168242857Y-115427380D01*
X168242857Y-114427380D01*
X167909523Y-114427380D01*
X167814285Y-114475000D01*
X167766666Y-114522619D01*
X167719047Y-114617857D01*
X167719047Y-114713095D01*
X167766666Y-114808333D01*
X167814285Y-114855952D01*
X167909523Y-114903571D01*
X168242857Y-114903571D01*
X167242857Y-115427380D02*
X167242857Y-114760714D01*
X167242857Y-114951190D02*
X167195238Y-114855952D01*
X167147619Y-114808333D01*
X167052380Y-114760714D01*
X166957142Y-114760714D01*
X166623809Y-115427380D02*
X166623809Y-114760714D01*
X166623809Y-114427380D02*
X166671428Y-114475000D01*
X166623809Y-114522619D01*
X166576190Y-114475000D01*
X166623809Y-114427380D01*
X166623809Y-114522619D01*
X165719047Y-115427380D02*
X165719047Y-114427380D01*
X165719047Y-115379761D02*
X165814285Y-115427380D01*
X166004761Y-115427380D01*
X166100000Y-115379761D01*
X166147619Y-115332142D01*
X166195238Y-115236904D01*
X166195238Y-114951190D01*
X166147619Y-114855952D01*
X166100000Y-114808333D01*
X166004761Y-114760714D01*
X165814285Y-114760714D01*
X165719047Y-114808333D01*
X164814285Y-114760714D02*
X164814285Y-115570238D01*
X164861904Y-115665476D01*
X164909523Y-115713095D01*
X165004761Y-115760714D01*
X165147619Y-115760714D01*
X165242857Y-115713095D01*
X164814285Y-115379761D02*
X164909523Y-115427380D01*
X165100000Y-115427380D01*
X165195238Y-115379761D01*
X165242857Y-115332142D01*
X165290476Y-115236904D01*
X165290476Y-114951190D01*
X165242857Y-114855952D01*
X165195238Y-114808333D01*
X165100000Y-114760714D01*
X164909523Y-114760714D01*
X164814285Y-114808333D01*
X163957142Y-115379761D02*
X164052380Y-115427380D01*
X164242857Y-115427380D01*
X164338095Y-115379761D01*
X164385714Y-115284523D01*
X164385714Y-114903571D01*
X164338095Y-114808333D01*
X164242857Y-114760714D01*
X164052380Y-114760714D01*
X163957142Y-114808333D01*
X163909523Y-114903571D01*
X163909523Y-114998809D01*
X164385714Y-115094047D01*
X162766666Y-115379761D02*
X162623809Y-115427380D01*
X162385714Y-115427380D01*
X162290476Y-115379761D01*
X162242857Y-115332142D01*
X162195238Y-115236904D01*
X162195238Y-115141666D01*
X162242857Y-115046428D01*
X162290476Y-114998809D01*
X162385714Y-114951190D01*
X162576190Y-114903571D01*
X162671428Y-114855952D01*
X162719047Y-114808333D01*
X162766666Y-114713095D01*
X162766666Y-114617857D01*
X162719047Y-114522619D01*
X162671428Y-114475000D01*
X162576190Y-114427380D01*
X162338095Y-114427380D01*
X162195238Y-114475000D01*
X161623809Y-115427380D02*
X161719047Y-115379761D01*
X161766666Y-115332142D01*
X161814285Y-115236904D01*
X161814285Y-114951190D01*
X161766666Y-114855952D01*
X161719047Y-114808333D01*
X161623809Y-114760714D01*
X161480952Y-114760714D01*
X161385714Y-114808333D01*
X161338095Y-114855952D01*
X161290476Y-114951190D01*
X161290476Y-115236904D01*
X161338095Y-115332142D01*
X161385714Y-115379761D01*
X161480952Y-115427380D01*
X161623809Y-115427380D01*
X160719047Y-115427380D02*
X160814285Y-115379761D01*
X160861904Y-115284523D01*
X160861904Y-114427380D01*
X160195238Y-115427380D02*
X160290476Y-115379761D01*
X160338095Y-115332142D01*
X160385714Y-115236904D01*
X160385714Y-114951190D01*
X160338095Y-114855952D01*
X160290476Y-114808333D01*
X160195238Y-114760714D01*
X160052380Y-114760714D01*
X159957142Y-114808333D01*
X159909523Y-114855952D01*
X159861904Y-114951190D01*
X159861904Y-115236904D01*
X159909523Y-115332142D01*
X159957142Y-115379761D01*
X160052380Y-115427380D01*
X160195238Y-115427380D01*
X158671428Y-115427380D02*
X158671428Y-114427380D01*
X158338095Y-115141666D01*
X158004761Y-114427380D01*
X158004761Y-115427380D01*
X157528571Y-115427380D02*
X157528571Y-114427380D01*
X157290476Y-114427380D01*
X157147619Y-114475000D01*
X157052380Y-114570238D01*
X157004761Y-114665476D01*
X156957142Y-114855952D01*
X156957142Y-114998809D01*
X157004761Y-115189285D01*
X157052380Y-115284523D01*
X157147619Y-115379761D01*
X157290476Y-115427380D01*
X157528571Y-115427380D01*
X170480952Y-117077380D02*
X170480952Y-116077380D01*
X170100000Y-116077380D01*
X170004761Y-116125000D01*
X169957142Y-116172619D01*
X169909523Y-116267857D01*
X169909523Y-116410714D01*
X169957142Y-116505952D01*
X170004761Y-116553571D01*
X170100000Y-116601190D01*
X170480952Y-116601190D01*
X169480952Y-117077380D02*
X169480952Y-116410714D01*
X169480952Y-116601190D02*
X169433333Y-116505952D01*
X169385714Y-116458333D01*
X169290476Y-116410714D01*
X169195238Y-116410714D01*
X168719047Y-117077380D02*
X168814285Y-117029761D01*
X168861904Y-116982142D01*
X168909523Y-116886904D01*
X168909523Y-116601190D01*
X168861904Y-116505952D01*
X168814285Y-116458333D01*
X168719047Y-116410714D01*
X168576190Y-116410714D01*
X168480952Y-116458333D01*
X168433333Y-116505952D01*
X168385714Y-116601190D01*
X168385714Y-116886904D01*
X168433333Y-116982142D01*
X168480952Y-117029761D01*
X168576190Y-117077380D01*
X168719047Y-117077380D01*
X168100000Y-116410714D02*
X167719047Y-116410714D01*
X167957142Y-116077380D02*
X167957142Y-116934523D01*
X167909523Y-117029761D01*
X167814285Y-117077380D01*
X167719047Y-117077380D01*
X167242857Y-117077380D02*
X167338095Y-117029761D01*
X167385714Y-116982142D01*
X167433333Y-116886904D01*
X167433333Y-116601190D01*
X167385714Y-116505952D01*
X167338095Y-116458333D01*
X167242857Y-116410714D01*
X167100000Y-116410714D01*
X167004761Y-116458333D01*
X166957142Y-116505952D01*
X166909523Y-116601190D01*
X166909523Y-116886904D01*
X166957142Y-116982142D01*
X167004761Y-117029761D01*
X167100000Y-117077380D01*
X167242857Y-117077380D01*
X166623809Y-116410714D02*
X166242857Y-116410714D01*
X166480952Y-116077380D02*
X166480952Y-116934523D01*
X166433333Y-117029761D01*
X166338095Y-117077380D01*
X166242857Y-117077380D01*
X166004761Y-116410714D02*
X165766666Y-117077380D01*
X165528571Y-116410714D02*
X165766666Y-117077380D01*
X165861904Y-117315476D01*
X165909523Y-117363095D01*
X166004761Y-117410714D01*
X165147619Y-116410714D02*
X165147619Y-117410714D01*
X165147619Y-116458333D02*
X165052380Y-116410714D01*
X164861904Y-116410714D01*
X164766666Y-116458333D01*
X164719047Y-116505952D01*
X164671428Y-116601190D01*
X164671428Y-116886904D01*
X164719047Y-116982142D01*
X164766666Y-117029761D01*
X164861904Y-117077380D01*
X165052380Y-117077380D01*
X165147619Y-117029761D01*
X163861904Y-117029761D02*
X163957142Y-117077380D01*
X164147619Y-117077380D01*
X164242857Y-117029761D01*
X164290476Y-116934523D01*
X164290476Y-116553571D01*
X164242857Y-116458333D01*
X164147619Y-116410714D01*
X163957142Y-116410714D01*
X163861904Y-116458333D01*
X163814285Y-116553571D01*
X163814285Y-116648809D01*
X164290476Y-116744047D01*
X162100000Y-117077380D02*
X162671428Y-117077380D01*
X162385714Y-117077380D02*
X162385714Y-116077380D01*
X162480952Y-116220238D01*
X162576190Y-116315476D01*
X162671428Y-116363095D01*
X161671428Y-116982142D02*
X161623809Y-117029761D01*
X161671428Y-117077380D01*
X161719047Y-117029761D01*
X161671428Y-116982142D01*
X161671428Y-117077380D01*
X160671428Y-117077380D02*
X161242857Y-117077380D01*
X160957142Y-117077380D02*
X160957142Y-116077380D01*
X161052380Y-116220238D01*
X161147619Y-116315476D01*
X161242857Y-116363095D01*
D13*
X186150000Y-111750000D02*
G75*
G02X189650000Y-115250000I0J-3500000D01*
G01*
X105350000Y-115250000D02*
G75*
G02X108850000Y-111750000I3500000J0D01*
G01*
D12*
X116550571Y-133721904D02*
X116931523Y-133721904D01*
X116931523Y-132921904D01*
X116283904Y-133302857D02*
X116017238Y-133302857D01*
X115902952Y-133721904D02*
X116283904Y-133721904D01*
X116283904Y-132921904D01*
X115902952Y-132921904D01*
X115560095Y-133721904D02*
X115560095Y-132921904D01*
X115369619Y-132921904D01*
X115255333Y-132960000D01*
X115179142Y-133036190D01*
X115141047Y-133112380D01*
X115102952Y-133264761D01*
X115102952Y-133379047D01*
X115141047Y-133531428D01*
X115179142Y-133607619D01*
X115255333Y-133683809D01*
X115369619Y-133721904D01*
X115560095Y-133721904D01*
X114531523Y-134026666D02*
X114569619Y-133988571D01*
X114645809Y-133874285D01*
X114683904Y-133798095D01*
X114722000Y-133683809D01*
X114760095Y-133493333D01*
X114760095Y-133340952D01*
X114722000Y-133150476D01*
X114683904Y-133036190D01*
X114645809Y-132960000D01*
X114569619Y-132845714D01*
X114531523Y-132807619D01*
X114074380Y-132921904D02*
X113922000Y-132921904D01*
X113845809Y-132960000D01*
X113769619Y-133036190D01*
X113731523Y-133188571D01*
X113731523Y-133455238D01*
X113769619Y-133607619D01*
X113845809Y-133683809D01*
X113922000Y-133721904D01*
X114074380Y-133721904D01*
X114150571Y-133683809D01*
X114226761Y-133607619D01*
X114264857Y-133455238D01*
X114264857Y-133188571D01*
X114226761Y-133036190D01*
X114150571Y-132960000D01*
X114074380Y-132921904D01*
X113388666Y-133721904D02*
X113388666Y-132921904D01*
X112931523Y-133721904D01*
X112931523Y-132921904D01*
X112550571Y-133645714D02*
X112512476Y-133683809D01*
X112550571Y-133721904D01*
X112588666Y-133683809D01*
X112550571Y-133645714D01*
X112550571Y-133721904D01*
X112550571Y-133226666D02*
X112512476Y-133264761D01*
X112550571Y-133302857D01*
X112588666Y-133264761D01*
X112550571Y-133226666D01*
X112550571Y-133302857D01*
X111750571Y-133721904D02*
X112207714Y-133721904D01*
X111979142Y-133721904D02*
X111979142Y-132921904D01*
X112055333Y-133036190D01*
X112131523Y-133112380D01*
X112207714Y-133150476D01*
X110645809Y-132921904D02*
X110493428Y-132921904D01*
X110417238Y-132960000D01*
X110341047Y-133036190D01*
X110302952Y-133188571D01*
X110302952Y-133455238D01*
X110341047Y-133607619D01*
X110417238Y-133683809D01*
X110493428Y-133721904D01*
X110645809Y-133721904D01*
X110722000Y-133683809D01*
X110798190Y-133607619D01*
X110836285Y-133455238D01*
X110836285Y-133188571D01*
X110798190Y-133036190D01*
X110722000Y-132960000D01*
X110645809Y-132921904D01*
X109693428Y-133302857D02*
X109960095Y-133302857D01*
X109960095Y-133721904D02*
X109960095Y-132921904D01*
X109579142Y-132921904D01*
X109007714Y-133302857D02*
X109274380Y-133302857D01*
X109274380Y-133721904D02*
X109274380Y-132921904D01*
X108893428Y-132921904D01*
X108588666Y-133645714D02*
X108550571Y-133683809D01*
X108588666Y-133721904D01*
X108626761Y-133683809D01*
X108588666Y-133645714D01*
X108588666Y-133721904D01*
X108588666Y-133226666D02*
X108550571Y-133264761D01*
X108588666Y-133302857D01*
X108626761Y-133264761D01*
X108588666Y-133226666D01*
X108588666Y-133302857D01*
X108055333Y-132921904D02*
X107979142Y-132921904D01*
X107902952Y-132960000D01*
X107864857Y-132998095D01*
X107826761Y-133074285D01*
X107788666Y-133226666D01*
X107788666Y-133417142D01*
X107826761Y-133569523D01*
X107864857Y-133645714D01*
X107902952Y-133683809D01*
X107979142Y-133721904D01*
X108055333Y-133721904D01*
X108131523Y-133683809D01*
X108169619Y-133645714D01*
X108207714Y-133569523D01*
X108245809Y-133417142D01*
X108245809Y-133226666D01*
X108207714Y-133074285D01*
X108169619Y-132998095D01*
X108131523Y-132960000D01*
X108055333Y-132921904D01*
X107522000Y-134026666D02*
X107483904Y-133988571D01*
X107407714Y-133874285D01*
X107369619Y-133798095D01*
X107331523Y-133683809D01*
X107293428Y-133493333D01*
X107293428Y-133340952D01*
X107331523Y-133150476D01*
X107369619Y-133036190D01*
X107407714Y-132960000D01*
X107483904Y-132845714D01*
X107522000Y-132807619D01*
X116779142Y-134241904D02*
X116702952Y-134241904D01*
X116626761Y-134280000D01*
X116588666Y-134318095D01*
X116550571Y-134394285D01*
X116512476Y-134546666D01*
X116512476Y-134737142D01*
X116550571Y-134889523D01*
X116588666Y-134965714D01*
X116626761Y-135003809D01*
X116702952Y-135041904D01*
X116779142Y-135041904D01*
X116855333Y-135003809D01*
X116893428Y-134965714D01*
X116931523Y-134889523D01*
X116969619Y-134737142D01*
X116969619Y-134546666D01*
X116931523Y-134394285D01*
X116893428Y-134318095D01*
X116855333Y-134280000D01*
X116779142Y-134241904D01*
X116017238Y-134241904D02*
X115941047Y-134241904D01*
X115864857Y-134280000D01*
X115826761Y-134318095D01*
X115788666Y-134394285D01*
X115750571Y-134546666D01*
X115750571Y-134737142D01*
X115788666Y-134889523D01*
X115826761Y-134965714D01*
X115864857Y-135003809D01*
X115941047Y-135041904D01*
X116017238Y-135041904D01*
X116093428Y-135003809D01*
X116131523Y-134965714D01*
X116169619Y-134889523D01*
X116207714Y-134737142D01*
X116207714Y-134546666D01*
X116169619Y-134394285D01*
X116131523Y-134318095D01*
X116093428Y-134280000D01*
X116017238Y-134241904D01*
X114798190Y-134737142D02*
X114188666Y-134737142D01*
X113807714Y-134508571D02*
X113198190Y-134737142D01*
X113807714Y-134965714D01*
X111941047Y-134622857D02*
X112207714Y-134622857D01*
X112207714Y-135041904D02*
X112207714Y-134241904D01*
X111826761Y-134241904D01*
X111522000Y-135041904D02*
X111522000Y-134508571D01*
X111522000Y-134660952D02*
X111483904Y-134584761D01*
X111445809Y-134546666D01*
X111369619Y-134508571D01*
X111293428Y-134508571D01*
X110722000Y-135003809D02*
X110798190Y-135041904D01*
X110950571Y-135041904D01*
X111026761Y-135003809D01*
X111064857Y-134927619D01*
X111064857Y-134622857D01*
X111026761Y-134546666D01*
X110950571Y-134508571D01*
X110798190Y-134508571D01*
X110722000Y-134546666D01*
X110683904Y-134622857D01*
X110683904Y-134699047D01*
X111064857Y-134775238D01*
X110036285Y-135003809D02*
X110112476Y-135041904D01*
X110264857Y-135041904D01*
X110341047Y-135003809D01*
X110379142Y-134927619D01*
X110379142Y-134622857D01*
X110341047Y-134546666D01*
X110264857Y-134508571D01*
X110112476Y-134508571D01*
X110036285Y-134546666D01*
X109998190Y-134622857D01*
X109998190Y-134699047D01*
X110379142Y-134775238D01*
X116779142Y-135561904D02*
X116702952Y-135561904D01*
X116626761Y-135600000D01*
X116588666Y-135638095D01*
X116550571Y-135714285D01*
X116512476Y-135866666D01*
X116512476Y-136057142D01*
X116550571Y-136209523D01*
X116588666Y-136285714D01*
X116626761Y-136323809D01*
X116702952Y-136361904D01*
X116779142Y-136361904D01*
X116855333Y-136323809D01*
X116893428Y-136285714D01*
X116931523Y-136209523D01*
X116969619Y-136057142D01*
X116969619Y-135866666D01*
X116931523Y-135714285D01*
X116893428Y-135638095D01*
X116855333Y-135600000D01*
X116779142Y-135561904D01*
X115750571Y-136361904D02*
X116207714Y-136361904D01*
X115979142Y-136361904D02*
X115979142Y-135561904D01*
X116055333Y-135676190D01*
X116131523Y-135752380D01*
X116207714Y-135790476D01*
X114798190Y-136057142D02*
X114188666Y-136057142D01*
X113807714Y-135828571D02*
X113198190Y-136057142D01*
X113807714Y-136285714D01*
X111750571Y-136285714D02*
X111788666Y-136323809D01*
X111902952Y-136361904D01*
X111979142Y-136361904D01*
X112093428Y-136323809D01*
X112169619Y-136247619D01*
X112207714Y-136171428D01*
X112245809Y-136019047D01*
X112245809Y-135904761D01*
X112207714Y-135752380D01*
X112169619Y-135676190D01*
X112093428Y-135600000D01*
X111979142Y-135561904D01*
X111902952Y-135561904D01*
X111788666Y-135600000D01*
X111750571Y-135638095D01*
X111483904Y-135561904D02*
X111293428Y-136361904D01*
X111141047Y-135790476D01*
X110988666Y-136361904D01*
X110798190Y-135561904D01*
X116512476Y-137681904D02*
X116969619Y-137681904D01*
X116741047Y-137681904D02*
X116741047Y-136881904D01*
X116817238Y-136996190D01*
X116893428Y-137072380D01*
X116969619Y-137110476D01*
X116017238Y-136881904D02*
X115941047Y-136881904D01*
X115864857Y-136920000D01*
X115826761Y-136958095D01*
X115788666Y-137034285D01*
X115750571Y-137186666D01*
X115750571Y-137377142D01*
X115788666Y-137529523D01*
X115826761Y-137605714D01*
X115864857Y-137643809D01*
X115941047Y-137681904D01*
X116017238Y-137681904D01*
X116093428Y-137643809D01*
X116131523Y-137605714D01*
X116169619Y-137529523D01*
X116207714Y-137377142D01*
X116207714Y-137186666D01*
X116169619Y-137034285D01*
X116131523Y-136958095D01*
X116093428Y-136920000D01*
X116017238Y-136881904D01*
X114798190Y-137377142D02*
X114188666Y-137377142D01*
X113807714Y-137148571D02*
X113198190Y-137377142D01*
X113807714Y-137605714D01*
X111750571Y-137605714D02*
X111788666Y-137643809D01*
X111902952Y-137681904D01*
X111979142Y-137681904D01*
X112093428Y-137643809D01*
X112169619Y-137567619D01*
X112207714Y-137491428D01*
X112245809Y-137339047D01*
X112245809Y-137224761D01*
X112207714Y-137072380D01*
X112169619Y-136996190D01*
X112093428Y-136920000D01*
X111979142Y-136881904D01*
X111902952Y-136881904D01*
X111788666Y-136920000D01*
X111750571Y-136958095D01*
X110950571Y-137605714D02*
X110988666Y-137643809D01*
X111102952Y-137681904D01*
X111179142Y-137681904D01*
X111293428Y-137643809D01*
X111369619Y-137567619D01*
X111407714Y-137491428D01*
X111445809Y-137339047D01*
X111445809Y-137224761D01*
X111407714Y-137072380D01*
X111369619Y-136996190D01*
X111293428Y-136920000D01*
X111179142Y-136881904D01*
X111102952Y-136881904D01*
X110988666Y-136920000D01*
X110950571Y-136958095D01*
X110683904Y-136881904D02*
X110493428Y-137681904D01*
X110341047Y-137110476D01*
X110188666Y-137681904D01*
X109998190Y-136881904D01*
X116512476Y-139001904D02*
X116969619Y-139001904D01*
X116741047Y-139001904D02*
X116741047Y-138201904D01*
X116817238Y-138316190D01*
X116893428Y-138392380D01*
X116969619Y-138430476D01*
X115750571Y-139001904D02*
X116207714Y-139001904D01*
X115979142Y-139001904D02*
X115979142Y-138201904D01*
X116055333Y-138316190D01*
X116131523Y-138392380D01*
X116207714Y-138430476D01*
X114798190Y-138697142D02*
X114188666Y-138697142D01*
X113807714Y-138468571D02*
X113198190Y-138697142D01*
X113807714Y-138925714D01*
X111941047Y-138582857D02*
X111826761Y-138620952D01*
X111788666Y-138659047D01*
X111750571Y-138735238D01*
X111750571Y-138849523D01*
X111788666Y-138925714D01*
X111826761Y-138963809D01*
X111902952Y-139001904D01*
X112207714Y-139001904D01*
X112207714Y-138201904D01*
X111941047Y-138201904D01*
X111864857Y-138240000D01*
X111826761Y-138278095D01*
X111788666Y-138354285D01*
X111788666Y-138430476D01*
X111826761Y-138506666D01*
X111864857Y-138544761D01*
X111941047Y-138582857D01*
X112207714Y-138582857D01*
X111407714Y-139001904D02*
X111407714Y-138468571D01*
X111407714Y-138620952D02*
X111369619Y-138544761D01*
X111331523Y-138506666D01*
X111255333Y-138468571D01*
X111179142Y-138468571D01*
X110569619Y-139001904D02*
X110569619Y-138582857D01*
X110607714Y-138506666D01*
X110683904Y-138468571D01*
X110836285Y-138468571D01*
X110912476Y-138506666D01*
X110569619Y-138963809D02*
X110645809Y-139001904D01*
X110836285Y-139001904D01*
X110912476Y-138963809D01*
X110950571Y-138887619D01*
X110950571Y-138811428D01*
X110912476Y-138735238D01*
X110836285Y-138697142D01*
X110645809Y-138697142D01*
X110569619Y-138659047D01*
X110188666Y-139001904D02*
X110188666Y-138201904D01*
X110112476Y-138697142D02*
X109883904Y-139001904D01*
X109883904Y-138468571D02*
X110188666Y-138773333D01*
X109236285Y-138963809D02*
X109312476Y-139001904D01*
X109464857Y-139001904D01*
X109541047Y-138963809D01*
X109579142Y-138887619D01*
X109579142Y-138582857D01*
X109541047Y-138506666D01*
X109464857Y-138468571D01*
X109312476Y-138468571D01*
X109236285Y-138506666D01*
X109198190Y-138582857D01*
X109198190Y-138659047D01*
X109579142Y-138735238D01*
D14*
X202235714Y-110878571D02*
X201735714Y-112378571D01*
X201235714Y-110878571D01*
X200735714Y-111807142D02*
X199592857Y-111807142D01*
X198021428Y-112235714D02*
X198092857Y-112307142D01*
X198307142Y-112378571D01*
X198450000Y-112378571D01*
X198664285Y-112307142D01*
X198807142Y-112164285D01*
X198878571Y-112021428D01*
X198950000Y-111735714D01*
X198950000Y-111521428D01*
X198878571Y-111235714D01*
X198807142Y-111092857D01*
X198664285Y-110950000D01*
X198450000Y-110878571D01*
X198307142Y-110878571D01*
X198092857Y-110950000D01*
X198021428Y-111021428D01*
X197378571Y-110878571D02*
X197378571Y-112092857D01*
X197307142Y-112235714D01*
X197235714Y-112307142D01*
X197092857Y-112378571D01*
X196807142Y-112378571D01*
X196664285Y-112307142D01*
X196592857Y-112235714D01*
X196521428Y-112092857D01*
X196521428Y-110878571D01*
X196021428Y-110878571D02*
X195164285Y-110878571D01*
X195592857Y-112378571D02*
X195592857Y-110878571D01*
D12*
X100000000Y-111750000D02*
X195000000Y-111750000D01*
X181125000Y-77575000D02*
X184575000Y-77575000D01*
X181125000Y-77575000D02*
X179175000Y-77575000D01*
X181125000Y-82695000D02*
X183075000Y-82695000D01*
X181125000Y-82695000D02*
X179175000Y-82695000D01*
D15*
X123064000Y-86268000D02*
X120000000Y-86268000D01*
X123064000Y-102003000D02*
X123064000Y-86268000D01*
X105000000Y-102003000D02*
X123064000Y-102003000D01*
X105000000Y-89850000D02*
X105000000Y-102003000D01*
D12*
X174290000Y-80901248D02*
X174290000Y-81423752D01*
X175710000Y-80901248D02*
X175710000Y-81423752D01*
D15*
X178440000Y-99150000D02*
X178440000Y-100750000D01*
X188550000Y-101100000D02*
X177450000Y-101100000D01*
X188550000Y-107900000D02*
X188550000Y-101100000D01*
X177450000Y-107900000D02*
X188550000Y-107900000D01*
X177450000Y-101100000D02*
X177450000Y-107900000D01*
D12*
X187998752Y-79990000D02*
X187476248Y-79990000D01*
X187998752Y-81410000D02*
X187476248Y-81410000D01*
X153590000Y-107170000D02*
X153590000Y-108500000D01*
X154920000Y-107170000D02*
X153590000Y-107170000D01*
X156190000Y-107170000D02*
X156190000Y-109830000D01*
X156190000Y-109830000D02*
X161330000Y-109830000D01*
X156190000Y-107170000D02*
X161330000Y-107170000D01*
X161330000Y-107170000D02*
X161330000Y-109830000D01*
X166461252Y-96990000D02*
X165938748Y-96990000D01*
X166461252Y-98410000D02*
X165938748Y-98410000D01*
X167590000Y-78938748D02*
X167590000Y-79461252D01*
X169010000Y-78938748D02*
X169010000Y-79461252D01*
X165816233Y-92210000D02*
X166158767Y-92210000D01*
X165816233Y-91190000D02*
X166158767Y-91190000D01*
X165828733Y-95010000D02*
X166171267Y-95010000D01*
X165828733Y-93990000D02*
X166171267Y-93990000D01*
X169010000Y-85061252D02*
X169010000Y-84538748D01*
X167590000Y-85061252D02*
X167590000Y-84538748D01*
D15*
X164975000Y-81300000D02*
X164125000Y-81300000D01*
X164125000Y-81300000D02*
X164125000Y-84200000D01*
X164125000Y-84200000D02*
X164975000Y-84200000D01*
X164975000Y-84200000D02*
X164975000Y-81300000D01*
X166175000Y-81240000D02*
X165325000Y-81240000D01*
D12*
X166171267Y-88190000D02*
X165828733Y-88190000D01*
X166171267Y-89210000D02*
X165828733Y-89210000D01*
D13*
X178450000Y-74500000D02*
X178450000Y-67550000D01*
X176550000Y-74500000D02*
X176550000Y-67550000D01*
X189650000Y-75450000D02*
X189650000Y-67550000D01*
X189150000Y-67050000D02*
X178950000Y-67050000D01*
X105350000Y-75450000D02*
X105350000Y-67550000D01*
X176050000Y-67050000D02*
X105850000Y-67050000D01*
X189650000Y-67550000D02*
X189150000Y-67050000D01*
X178450000Y-67550000D02*
X178950000Y-67050000D01*
X176550000Y-67550000D02*
X176050000Y-67050000D01*
X105350000Y-67550000D02*
X105850000Y-67050000D01*
X178450000Y-74500000D02*
G75*
G02X176550000Y-74500000I-950000J0D01*
G01*
D12*
X141410000Y-116330000D02*
X141410000Y-115000000D01*
X140080000Y-116330000D02*
X141410000Y-116330000D01*
X138810000Y-116330000D02*
X138810000Y-113670000D01*
X138810000Y-113670000D02*
X133670000Y-113670000D01*
X138810000Y-116330000D02*
X133670000Y-116330000D01*
X133670000Y-116330000D02*
X133670000Y-113670000D01*
D15*
X116560000Y-124350000D02*
X116560000Y-122750000D01*
X106450000Y-122400000D02*
X117550000Y-122400000D01*
X106450000Y-115600000D02*
X106450000Y-122400000D01*
X117550000Y-115600000D02*
X106450000Y-115600000D01*
X117550000Y-122400000D02*
X117550000Y-115600000D01*
D12*
X113875000Y-145925000D02*
X110425000Y-145925000D01*
X113875000Y-145925000D02*
X115825000Y-145925000D01*
X113875000Y-140805000D02*
X111925000Y-140805000D01*
X113875000Y-140805000D02*
X115825000Y-140805000D01*
D15*
X171936000Y-137232000D02*
X175000000Y-137232000D01*
X171936000Y-121497000D02*
X171936000Y-137232000D01*
X190000000Y-121497000D02*
X171936000Y-121497000D01*
X190000000Y-133650000D02*
X190000000Y-121497000D01*
D12*
X120710000Y-142598752D02*
X120710000Y-142076248D01*
X119290000Y-142598752D02*
X119290000Y-142076248D01*
X107001248Y-143510000D02*
X107523752Y-143510000D01*
X107001248Y-142090000D02*
X107523752Y-142090000D01*
X128538748Y-126510000D02*
X129061252Y-126510000D01*
X128538748Y-125090000D02*
X129061252Y-125090000D01*
X129171267Y-128490000D02*
X128828733Y-128490000D01*
X129171267Y-129510000D02*
X128828733Y-129510000D01*
X129183767Y-131290000D02*
X128841233Y-131290000D01*
X129183767Y-132310000D02*
X128841233Y-132310000D01*
X128828733Y-135310000D02*
X129171267Y-135310000D01*
X128828733Y-134290000D02*
X129171267Y-134290000D01*
D13*
X116550000Y-149000000D02*
X116550000Y-155950000D01*
X118450000Y-149000000D02*
X118450000Y-155950000D01*
X105350000Y-148050000D02*
X105350000Y-155950000D01*
X105850000Y-156450000D02*
X116050000Y-156450000D01*
X189650000Y-148050000D02*
X189650000Y-155950000D01*
X118950000Y-156450000D02*
X189150000Y-156450000D01*
X105350000Y-155950000D02*
X105850000Y-156450000D01*
X116550000Y-155950000D02*
X116050000Y-156450000D01*
X118450000Y-155950000D02*
X118950000Y-156450000D01*
X189650000Y-155950000D02*
X189150000Y-156450000D01*
X116550000Y-149000000D02*
G75*
G02X118450000Y-149000000I950000J0D01*
G01*
D12*
X125990000Y-138438748D02*
X125990000Y-138961252D01*
X127410000Y-138438748D02*
X127410000Y-138961252D01*
X127410000Y-144561252D02*
X127410000Y-144038748D01*
X125990000Y-144561252D02*
X125990000Y-144038748D01*
D15*
X130025000Y-142200000D02*
X130875000Y-142200000D01*
X130875000Y-142200000D02*
X130875000Y-139300000D01*
X130875000Y-139300000D02*
X130025000Y-139300000D01*
X130025000Y-139300000D02*
X130025000Y-142200000D01*
X128825000Y-142260000D02*
X129675000Y-142260000D01*
D11*
X181886904Y-76187380D02*
X181886904Y-76996904D01*
X181839285Y-77092142D01*
X181791666Y-77139761D01*
X181696428Y-77187380D01*
X181505952Y-77187380D01*
X181410714Y-77139761D01*
X181363095Y-77092142D01*
X181315476Y-76996904D01*
X181315476Y-76187380D01*
X180934523Y-76187380D02*
X180315476Y-76187380D01*
X180648809Y-76568333D01*
X180505952Y-76568333D01*
X180410714Y-76615952D01*
X180363095Y-76663571D01*
X180315476Y-76758809D01*
X180315476Y-76996904D01*
X180363095Y-77092142D01*
X180410714Y-77139761D01*
X180505952Y-77187380D01*
X180791666Y-77187380D01*
X180886904Y-77139761D01*
X180934523Y-77092142D01*
D16*
X114574523Y-93071904D02*
X113304523Y-93071904D01*
X114211666Y-93495238D01*
X113304523Y-93918571D01*
X114574523Y-93918571D01*
X114574523Y-95188571D02*
X114574523Y-94462857D01*
X114574523Y-94825714D02*
X113304523Y-94825714D01*
X113485952Y-94704761D01*
X113606904Y-94583809D01*
X113667380Y-94462857D01*
D11*
X173707142Y-80995833D02*
X173754761Y-80948214D01*
X173802380Y-80805357D01*
X173802380Y-80710119D01*
X173754761Y-80567261D01*
X173659523Y-80472023D01*
X173564285Y-80424404D01*
X173373809Y-80376785D01*
X173230952Y-80376785D01*
X173040476Y-80424404D01*
X172945238Y-80472023D01*
X172850000Y-80567261D01*
X172802380Y-80710119D01*
X172802380Y-80805357D01*
X172850000Y-80948214D01*
X172897619Y-80995833D01*
X173135714Y-81852976D02*
X173802380Y-81852976D01*
X172754761Y-81614880D02*
X173469047Y-81376785D01*
X173469047Y-81995833D01*
D16*
X183514047Y-103532380D02*
X183574523Y-103713809D01*
X183574523Y-104016190D01*
X183514047Y-104137142D01*
X183453571Y-104197619D01*
X183332619Y-104258095D01*
X183211666Y-104258095D01*
X183090714Y-104197619D01*
X183030238Y-104137142D01*
X182969761Y-104016190D01*
X182909285Y-103774285D01*
X182848809Y-103653333D01*
X182788333Y-103592857D01*
X182667380Y-103532380D01*
X182546428Y-103532380D01*
X182425476Y-103592857D01*
X182365000Y-103653333D01*
X182304523Y-103774285D01*
X182304523Y-104076666D01*
X182365000Y-104258095D01*
X183574523Y-105467619D02*
X183574523Y-104741904D01*
X183574523Y-105104761D02*
X182304523Y-105104761D01*
X182485952Y-104983809D01*
X182606904Y-104862857D01*
X182667380Y-104741904D01*
D11*
X187904166Y-79407142D02*
X187951785Y-79454761D01*
X188094642Y-79502380D01*
X188189880Y-79502380D01*
X188332738Y-79454761D01*
X188427976Y-79359523D01*
X188475595Y-79264285D01*
X188523214Y-79073809D01*
X188523214Y-78930952D01*
X188475595Y-78740476D01*
X188427976Y-78645238D01*
X188332738Y-78550000D01*
X188189880Y-78502380D01*
X188094642Y-78502380D01*
X187951785Y-78550000D01*
X187904166Y-78597619D01*
X186999404Y-78502380D02*
X187475595Y-78502380D01*
X187523214Y-78978571D01*
X187475595Y-78930952D01*
X187380357Y-78883333D01*
X187142261Y-78883333D01*
X187047023Y-78930952D01*
X186999404Y-78978571D01*
X186951785Y-79073809D01*
X186951785Y-79311904D01*
X186999404Y-79407142D01*
X187047023Y-79454761D01*
X187142261Y-79502380D01*
X187380357Y-79502380D01*
X187475595Y-79454761D01*
X187523214Y-79407142D01*
X152042380Y-108166666D02*
X152756666Y-108166666D01*
X152899523Y-108119047D01*
X152994761Y-108023809D01*
X153042380Y-107880952D01*
X153042380Y-107785714D01*
X152137619Y-108595238D02*
X152090000Y-108642857D01*
X152042380Y-108738095D01*
X152042380Y-108976190D01*
X152090000Y-109071428D01*
X152137619Y-109119047D01*
X152232857Y-109166666D01*
X152328095Y-109166666D01*
X152470952Y-109119047D01*
X153042380Y-108547619D01*
X153042380Y-109166666D01*
X166842857Y-99607142D02*
X166890476Y-99654761D01*
X167033333Y-99702380D01*
X167128571Y-99702380D01*
X167271428Y-99654761D01*
X167366666Y-99559523D01*
X167414285Y-99464285D01*
X167461904Y-99273809D01*
X167461904Y-99130952D01*
X167414285Y-98940476D01*
X167366666Y-98845238D01*
X167271428Y-98750000D01*
X167128571Y-98702380D01*
X167033333Y-98702380D01*
X166890476Y-98750000D01*
X166842857Y-98797619D01*
X165890476Y-99702380D02*
X166461904Y-99702380D01*
X166176190Y-99702380D02*
X166176190Y-98702380D01*
X166271428Y-98845238D01*
X166366666Y-98940476D01*
X166461904Y-98988095D01*
X165509523Y-98797619D02*
X165461904Y-98750000D01*
X165366666Y-98702380D01*
X165128571Y-98702380D01*
X165033333Y-98750000D01*
X164985714Y-98797619D01*
X164938095Y-98892857D01*
X164938095Y-98988095D01*
X164985714Y-99130952D01*
X165557142Y-99702380D01*
X164938095Y-99702380D01*
X167007142Y-78557142D02*
X167054761Y-78509523D01*
X167102380Y-78366666D01*
X167102380Y-78271428D01*
X167054761Y-78128571D01*
X166959523Y-78033333D01*
X166864285Y-77985714D01*
X166673809Y-77938095D01*
X166530952Y-77938095D01*
X166340476Y-77985714D01*
X166245238Y-78033333D01*
X166150000Y-78128571D01*
X166102380Y-78271428D01*
X166102380Y-78366666D01*
X166150000Y-78509523D01*
X166197619Y-78557142D01*
X167102380Y-79509523D02*
X167102380Y-78938095D01*
X167102380Y-79223809D02*
X166102380Y-79223809D01*
X166245238Y-79128571D01*
X166340476Y-79033333D01*
X166388095Y-78938095D01*
X166102380Y-80414285D02*
X166102380Y-79938095D01*
X166578571Y-79890476D01*
X166530952Y-79938095D01*
X166483333Y-80033333D01*
X166483333Y-80271428D01*
X166530952Y-80366666D01*
X166578571Y-80414285D01*
X166673809Y-80461904D01*
X166911904Y-80461904D01*
X167007142Y-80414285D01*
X167054761Y-80366666D01*
X167102380Y-80271428D01*
X167102380Y-80033333D01*
X167054761Y-79938095D01*
X167007142Y-79890476D01*
X166630357Y-93582380D02*
X166963690Y-93106190D01*
X167201785Y-93582380D02*
X167201785Y-92582380D01*
X166820833Y-92582380D01*
X166725595Y-92630000D01*
X166677976Y-92677619D01*
X166630357Y-92772857D01*
X166630357Y-92915714D01*
X166677976Y-93010952D01*
X166725595Y-93058571D01*
X166820833Y-93106190D01*
X167201785Y-93106190D01*
X165677976Y-93582380D02*
X166249404Y-93582380D01*
X165963690Y-93582380D02*
X165963690Y-92582380D01*
X166058928Y-92725238D01*
X166154166Y-92820476D01*
X166249404Y-92868095D01*
X164725595Y-93582380D02*
X165297023Y-93582380D01*
X165011309Y-93582380D02*
X165011309Y-92582380D01*
X165106547Y-92725238D01*
X165201785Y-92820476D01*
X165297023Y-92868095D01*
X166642857Y-96382380D02*
X166976190Y-95906190D01*
X167214285Y-96382380D02*
X167214285Y-95382380D01*
X166833333Y-95382380D01*
X166738095Y-95430000D01*
X166690476Y-95477619D01*
X166642857Y-95572857D01*
X166642857Y-95715714D01*
X166690476Y-95810952D01*
X166738095Y-95858571D01*
X166833333Y-95906190D01*
X167214285Y-95906190D01*
X165690476Y-96382380D02*
X166261904Y-96382380D01*
X165976190Y-96382380D02*
X165976190Y-95382380D01*
X166071428Y-95525238D01*
X166166666Y-95620476D01*
X166261904Y-95668095D01*
X165071428Y-95382380D02*
X164976190Y-95382380D01*
X164880952Y-95430000D01*
X164833333Y-95477619D01*
X164785714Y-95572857D01*
X164738095Y-95763333D01*
X164738095Y-96001428D01*
X164785714Y-96191904D01*
X164833333Y-96287142D01*
X164880952Y-96334761D01*
X164976190Y-96382380D01*
X165071428Y-96382380D01*
X165166666Y-96334761D01*
X165214285Y-96287142D01*
X165261904Y-96191904D01*
X165309523Y-96001428D01*
X165309523Y-95763333D01*
X165261904Y-95572857D01*
X165214285Y-95477619D01*
X165166666Y-95430000D01*
X165071428Y-95382380D01*
X170307142Y-84157142D02*
X170354761Y-84109523D01*
X170402380Y-83966666D01*
X170402380Y-83871428D01*
X170354761Y-83728571D01*
X170259523Y-83633333D01*
X170164285Y-83585714D01*
X169973809Y-83538095D01*
X169830952Y-83538095D01*
X169640476Y-83585714D01*
X169545238Y-83633333D01*
X169450000Y-83728571D01*
X169402380Y-83871428D01*
X169402380Y-83966666D01*
X169450000Y-84109523D01*
X169497619Y-84157142D01*
X170402380Y-85109523D02*
X170402380Y-84538095D01*
X170402380Y-84823809D02*
X169402380Y-84823809D01*
X169545238Y-84728571D01*
X169640476Y-84633333D01*
X169688095Y-84538095D01*
X169735714Y-85966666D02*
X170402380Y-85966666D01*
X169354761Y-85728571D02*
X170069047Y-85490476D01*
X170069047Y-86109523D01*
D16*
X165789761Y-83324523D02*
X165789761Y-82054523D01*
X164459285Y-83203571D02*
X164519761Y-83264047D01*
X164701190Y-83324523D01*
X164822142Y-83324523D01*
X165003571Y-83264047D01*
X165124523Y-83143095D01*
X165185000Y-83022142D01*
X165245476Y-82780238D01*
X165245476Y-82598809D01*
X165185000Y-82356904D01*
X165124523Y-82235952D01*
X165003571Y-82115000D01*
X164822142Y-82054523D01*
X164701190Y-82054523D01*
X164519761Y-82115000D01*
X164459285Y-82175476D01*
X164035952Y-82054523D02*
X163249761Y-82054523D01*
X163673095Y-82538333D01*
X163491666Y-82538333D01*
X163370714Y-82598809D01*
X163310238Y-82659285D01*
X163249761Y-82780238D01*
X163249761Y-83082619D01*
X163310238Y-83203571D01*
X163370714Y-83264047D01*
X163491666Y-83324523D01*
X163854523Y-83324523D01*
X163975476Y-83264047D01*
X164035952Y-83203571D01*
D11*
X166642857Y-87722380D02*
X166976190Y-87246190D01*
X167214285Y-87722380D02*
X167214285Y-86722380D01*
X166833333Y-86722380D01*
X166738095Y-86770000D01*
X166690476Y-86817619D01*
X166642857Y-86912857D01*
X166642857Y-87055714D01*
X166690476Y-87150952D01*
X166738095Y-87198571D01*
X166833333Y-87246190D01*
X167214285Y-87246190D01*
X165690476Y-87722380D02*
X166261904Y-87722380D01*
X165976190Y-87722380D02*
X165976190Y-86722380D01*
X166071428Y-86865238D01*
X166166666Y-86960476D01*
X166261904Y-87008095D01*
X165309523Y-86817619D02*
X165261904Y-86770000D01*
X165166666Y-86722380D01*
X164928571Y-86722380D01*
X164833333Y-86770000D01*
X164785714Y-86817619D01*
X164738095Y-86912857D01*
X164738095Y-87008095D01*
X164785714Y-87150952D01*
X165357142Y-87722380D01*
X164738095Y-87722380D01*
X141862380Y-114666666D02*
X142576666Y-114666666D01*
X142719523Y-114619047D01*
X142814761Y-114523809D01*
X142862380Y-114380952D01*
X142862380Y-114285714D01*
X141957619Y-115095238D02*
X141910000Y-115142857D01*
X141862380Y-115238095D01*
X141862380Y-115476190D01*
X141910000Y-115571428D01*
X141957619Y-115619047D01*
X142052857Y-115666666D01*
X142148095Y-115666666D01*
X142290952Y-115619047D01*
X142862380Y-115047619D01*
X142862380Y-115666666D01*
D16*
X112514047Y-118032380D02*
X112574523Y-118213809D01*
X112574523Y-118516190D01*
X112514047Y-118637142D01*
X112453571Y-118697619D01*
X112332619Y-118758095D01*
X112211666Y-118758095D01*
X112090714Y-118697619D01*
X112030238Y-118637142D01*
X111969761Y-118516190D01*
X111909285Y-118274285D01*
X111848809Y-118153333D01*
X111788333Y-118092857D01*
X111667380Y-118032380D01*
X111546428Y-118032380D01*
X111425476Y-118092857D01*
X111365000Y-118153333D01*
X111304523Y-118274285D01*
X111304523Y-118576666D01*
X111365000Y-118758095D01*
X112574523Y-119967619D02*
X112574523Y-119241904D01*
X112574523Y-119604761D02*
X111304523Y-119604761D01*
X111485952Y-119483809D01*
X111606904Y-119362857D01*
X111667380Y-119241904D01*
D11*
X114636904Y-146217380D02*
X114636904Y-147026904D01*
X114589285Y-147122142D01*
X114541666Y-147169761D01*
X114446428Y-147217380D01*
X114255952Y-147217380D01*
X114160714Y-147169761D01*
X114113095Y-147122142D01*
X114065476Y-147026904D01*
X114065476Y-146217380D01*
X113684523Y-146217380D02*
X113065476Y-146217380D01*
X113398809Y-146598333D01*
X113255952Y-146598333D01*
X113160714Y-146645952D01*
X113113095Y-146693571D01*
X113065476Y-146788809D01*
X113065476Y-147026904D01*
X113113095Y-147122142D01*
X113160714Y-147169761D01*
X113255952Y-147217380D01*
X113541666Y-147217380D01*
X113636904Y-147169761D01*
X113684523Y-147122142D01*
D16*
X180425476Y-130428095D02*
X181695476Y-130428095D01*
X180788333Y-130004761D01*
X181695476Y-129581428D01*
X180425476Y-129581428D01*
X180425476Y-128311428D02*
X180425476Y-129037142D01*
X180425476Y-128674285D02*
X181695476Y-128674285D01*
X181514047Y-128795238D01*
X181393095Y-128916190D01*
X181332619Y-129037142D01*
D11*
X122007142Y-142170833D02*
X122054761Y-142123214D01*
X122102380Y-141980357D01*
X122102380Y-141885119D01*
X122054761Y-141742261D01*
X121959523Y-141647023D01*
X121864285Y-141599404D01*
X121673809Y-141551785D01*
X121530952Y-141551785D01*
X121340476Y-141599404D01*
X121245238Y-141647023D01*
X121150000Y-141742261D01*
X121102380Y-141885119D01*
X121102380Y-141980357D01*
X121150000Y-142123214D01*
X121197619Y-142170833D01*
X121435714Y-143027976D02*
X122102380Y-143027976D01*
X121054761Y-142789880D02*
X121769047Y-142551785D01*
X121769047Y-143170833D01*
X107429166Y-144807142D02*
X107476785Y-144854761D01*
X107619642Y-144902380D01*
X107714880Y-144902380D01*
X107857738Y-144854761D01*
X107952976Y-144759523D01*
X108000595Y-144664285D01*
X108048214Y-144473809D01*
X108048214Y-144330952D01*
X108000595Y-144140476D01*
X107952976Y-144045238D01*
X107857738Y-143950000D01*
X107714880Y-143902380D01*
X107619642Y-143902380D01*
X107476785Y-143950000D01*
X107429166Y-143997619D01*
X106524404Y-143902380D02*
X107000595Y-143902380D01*
X107048214Y-144378571D01*
X107000595Y-144330952D01*
X106905357Y-144283333D01*
X106667261Y-144283333D01*
X106572023Y-144330952D01*
X106524404Y-144378571D01*
X106476785Y-144473809D01*
X106476785Y-144711904D01*
X106524404Y-144807142D01*
X106572023Y-144854761D01*
X106667261Y-144902380D01*
X106905357Y-144902380D01*
X107000595Y-144854761D01*
X107048214Y-144807142D01*
X129442857Y-124607142D02*
X129490476Y-124654761D01*
X129633333Y-124702380D01*
X129728571Y-124702380D01*
X129871428Y-124654761D01*
X129966666Y-124559523D01*
X130014285Y-124464285D01*
X130061904Y-124273809D01*
X130061904Y-124130952D01*
X130014285Y-123940476D01*
X129966666Y-123845238D01*
X129871428Y-123750000D01*
X129728571Y-123702380D01*
X129633333Y-123702380D01*
X129490476Y-123750000D01*
X129442857Y-123797619D01*
X128490476Y-124702380D02*
X129061904Y-124702380D01*
X128776190Y-124702380D02*
X128776190Y-123702380D01*
X128871428Y-123845238D01*
X128966666Y-123940476D01*
X129061904Y-123988095D01*
X128109523Y-123797619D02*
X128061904Y-123750000D01*
X127966666Y-123702380D01*
X127728571Y-123702380D01*
X127633333Y-123750000D01*
X127585714Y-123797619D01*
X127538095Y-123892857D01*
X127538095Y-123988095D01*
X127585714Y-124130952D01*
X128157142Y-124702380D01*
X127538095Y-124702380D01*
X129642857Y-128022380D02*
X129976190Y-127546190D01*
X130214285Y-128022380D02*
X130214285Y-127022380D01*
X129833333Y-127022380D01*
X129738095Y-127070000D01*
X129690476Y-127117619D01*
X129642857Y-127212857D01*
X129642857Y-127355714D01*
X129690476Y-127450952D01*
X129738095Y-127498571D01*
X129833333Y-127546190D01*
X130214285Y-127546190D01*
X128690476Y-128022380D02*
X129261904Y-128022380D01*
X128976190Y-128022380D02*
X128976190Y-127022380D01*
X129071428Y-127165238D01*
X129166666Y-127260476D01*
X129261904Y-127308095D01*
X128071428Y-127022380D02*
X127976190Y-127022380D01*
X127880952Y-127070000D01*
X127833333Y-127117619D01*
X127785714Y-127212857D01*
X127738095Y-127403333D01*
X127738095Y-127641428D01*
X127785714Y-127831904D01*
X127833333Y-127927142D01*
X127880952Y-127974761D01*
X127976190Y-128022380D01*
X128071428Y-128022380D01*
X128166666Y-127974761D01*
X128214285Y-127927142D01*
X128261904Y-127831904D01*
X128309523Y-127641428D01*
X128309523Y-127403333D01*
X128261904Y-127212857D01*
X128214285Y-127117619D01*
X128166666Y-127070000D01*
X128071428Y-127022380D01*
X129655357Y-130822380D02*
X129988690Y-130346190D01*
X130226785Y-130822380D02*
X130226785Y-129822380D01*
X129845833Y-129822380D01*
X129750595Y-129870000D01*
X129702976Y-129917619D01*
X129655357Y-130012857D01*
X129655357Y-130155714D01*
X129702976Y-130250952D01*
X129750595Y-130298571D01*
X129845833Y-130346190D01*
X130226785Y-130346190D01*
X128702976Y-130822380D02*
X129274404Y-130822380D01*
X128988690Y-130822380D02*
X128988690Y-129822380D01*
X129083928Y-129965238D01*
X129179166Y-130060476D01*
X129274404Y-130108095D01*
X127750595Y-130822380D02*
X128322023Y-130822380D01*
X128036309Y-130822380D02*
X128036309Y-129822380D01*
X128131547Y-129965238D01*
X128226785Y-130060476D01*
X128322023Y-130108095D01*
X129642857Y-136682380D02*
X129976190Y-136206190D01*
X130214285Y-136682380D02*
X130214285Y-135682380D01*
X129833333Y-135682380D01*
X129738095Y-135730000D01*
X129690476Y-135777619D01*
X129642857Y-135872857D01*
X129642857Y-136015714D01*
X129690476Y-136110952D01*
X129738095Y-136158571D01*
X129833333Y-136206190D01*
X130214285Y-136206190D01*
X128690476Y-136682380D02*
X129261904Y-136682380D01*
X128976190Y-136682380D02*
X128976190Y-135682380D01*
X129071428Y-135825238D01*
X129166666Y-135920476D01*
X129261904Y-135968095D01*
X128309523Y-135777619D02*
X128261904Y-135730000D01*
X128166666Y-135682380D01*
X127928571Y-135682380D01*
X127833333Y-135730000D01*
X127785714Y-135777619D01*
X127738095Y-135872857D01*
X127738095Y-135968095D01*
X127785714Y-136110952D01*
X128357142Y-136682380D01*
X127738095Y-136682380D01*
X125407142Y-138057142D02*
X125454761Y-138009523D01*
X125502380Y-137866666D01*
X125502380Y-137771428D01*
X125454761Y-137628571D01*
X125359523Y-137533333D01*
X125264285Y-137485714D01*
X125073809Y-137438095D01*
X124930952Y-137438095D01*
X124740476Y-137485714D01*
X124645238Y-137533333D01*
X124550000Y-137628571D01*
X124502380Y-137771428D01*
X124502380Y-137866666D01*
X124550000Y-138009523D01*
X124597619Y-138057142D01*
X125502380Y-139009523D02*
X125502380Y-138438095D01*
X125502380Y-138723809D02*
X124502380Y-138723809D01*
X124645238Y-138628571D01*
X124740476Y-138533333D01*
X124788095Y-138438095D01*
X124835714Y-139866666D02*
X125502380Y-139866666D01*
X124454761Y-139628571D02*
X125169047Y-139390476D01*
X125169047Y-140009523D01*
X128707142Y-143657142D02*
X128754761Y-143609523D01*
X128802380Y-143466666D01*
X128802380Y-143371428D01*
X128754761Y-143228571D01*
X128659523Y-143133333D01*
X128564285Y-143085714D01*
X128373809Y-143038095D01*
X128230952Y-143038095D01*
X128040476Y-143085714D01*
X127945238Y-143133333D01*
X127850000Y-143228571D01*
X127802380Y-143371428D01*
X127802380Y-143466666D01*
X127850000Y-143609523D01*
X127897619Y-143657142D01*
X128802380Y-144609523D02*
X128802380Y-144038095D01*
X128802380Y-144323809D02*
X127802380Y-144323809D01*
X127945238Y-144228571D01*
X128040476Y-144133333D01*
X128088095Y-144038095D01*
X127802380Y-145514285D02*
X127802380Y-145038095D01*
X128278571Y-144990476D01*
X128230952Y-145038095D01*
X128183333Y-145133333D01*
X128183333Y-145371428D01*
X128230952Y-145466666D01*
X128278571Y-145514285D01*
X128373809Y-145561904D01*
X128611904Y-145561904D01*
X128707142Y-145514285D01*
X128754761Y-145466666D01*
X128802380Y-145371428D01*
X128802380Y-145133333D01*
X128754761Y-145038095D01*
X128707142Y-144990476D01*
D16*
X131689761Y-141324523D02*
X131689761Y-140054523D01*
X130359285Y-141203571D02*
X130419761Y-141264047D01*
X130601190Y-141324523D01*
X130722142Y-141324523D01*
X130903571Y-141264047D01*
X131024523Y-141143095D01*
X131085000Y-141022142D01*
X131145476Y-140780238D01*
X131145476Y-140598809D01*
X131085000Y-140356904D01*
X131024523Y-140235952D01*
X130903571Y-140115000D01*
X130722142Y-140054523D01*
X130601190Y-140054523D01*
X130419761Y-140115000D01*
X130359285Y-140175476D01*
X129935952Y-140054523D02*
X129149761Y-140054523D01*
X129573095Y-140538333D01*
X129391666Y-140538333D01*
X129270714Y-140598809D01*
X129210238Y-140659285D01*
X129149761Y-140780238D01*
X129149761Y-141082619D01*
X129210238Y-141203571D01*
X129270714Y-141264047D01*
X129391666Y-141324523D01*
X129754523Y-141324523D01*
X129875476Y-141264047D01*
X129935952Y-141203571D01*
%LPC*%
D13*
G36*
X179517702Y-77879845D02*
G01*
X179534738Y-77882372D01*
X179551445Y-77886557D01*
X179567661Y-77892359D01*
X179583230Y-77899723D01*
X179598003Y-77908577D01*
X179611836Y-77918837D01*
X179624597Y-77930403D01*
X179636163Y-77943164D01*
X179646423Y-77956997D01*
X179655277Y-77971770D01*
X179662641Y-77987339D01*
X179668443Y-78003555D01*
X179672628Y-78020262D01*
X179675155Y-78037298D01*
X179676000Y-78054500D01*
X179676000Y-78405500D01*
X179675155Y-78422702D01*
X179672628Y-78439738D01*
X179668443Y-78456445D01*
X179662641Y-78472661D01*
X179655277Y-78488230D01*
X179646423Y-78503003D01*
X179636163Y-78516836D01*
X179624597Y-78529597D01*
X179611836Y-78541163D01*
X179598003Y-78551423D01*
X179583230Y-78560277D01*
X179567661Y-78567641D01*
X179551445Y-78573443D01*
X179534738Y-78577628D01*
X179517702Y-78580155D01*
X179500500Y-78581000D01*
X177799500Y-78581000D01*
X177782298Y-78580155D01*
X177765262Y-78577628D01*
X177748555Y-78573443D01*
X177732339Y-78567641D01*
X177716770Y-78560277D01*
X177701997Y-78551423D01*
X177688164Y-78541163D01*
X177675403Y-78529597D01*
X177663837Y-78516836D01*
X177653577Y-78503003D01*
X177644723Y-78488230D01*
X177637359Y-78472661D01*
X177631557Y-78456445D01*
X177627372Y-78439738D01*
X177624845Y-78422702D01*
X177624000Y-78405500D01*
X177624000Y-78054500D01*
X177624845Y-78037298D01*
X177627372Y-78020262D01*
X177631557Y-78003555D01*
X177637359Y-77987339D01*
X177644723Y-77971770D01*
X177653577Y-77956997D01*
X177663837Y-77943164D01*
X177675403Y-77930403D01*
X177688164Y-77918837D01*
X177701997Y-77908577D01*
X177716770Y-77899723D01*
X177732339Y-77892359D01*
X177748555Y-77886557D01*
X177765262Y-77882372D01*
X177782298Y-77879845D01*
X177799500Y-77879000D01*
X179500500Y-77879000D01*
X179517702Y-77879845D01*
G37*
G36*
X179517702Y-79149845D02*
G01*
X179534738Y-79152372D01*
X179551445Y-79156557D01*
X179567661Y-79162359D01*
X179583230Y-79169723D01*
X179598003Y-79178577D01*
X179611836Y-79188837D01*
X179624597Y-79200403D01*
X179636163Y-79213164D01*
X179646423Y-79226997D01*
X179655277Y-79241770D01*
X179662641Y-79257339D01*
X179668443Y-79273555D01*
X179672628Y-79290262D01*
X179675155Y-79307298D01*
X179676000Y-79324500D01*
X179676000Y-79675500D01*
X179675155Y-79692702D01*
X179672628Y-79709738D01*
X179668443Y-79726445D01*
X179662641Y-79742661D01*
X179655277Y-79758230D01*
X179646423Y-79773003D01*
X179636163Y-79786836D01*
X179624597Y-79799597D01*
X179611836Y-79811163D01*
X179598003Y-79821423D01*
X179583230Y-79830277D01*
X179567661Y-79837641D01*
X179551445Y-79843443D01*
X179534738Y-79847628D01*
X179517702Y-79850155D01*
X179500500Y-79851000D01*
X177799500Y-79851000D01*
X177782298Y-79850155D01*
X177765262Y-79847628D01*
X177748555Y-79843443D01*
X177732339Y-79837641D01*
X177716770Y-79830277D01*
X177701997Y-79821423D01*
X177688164Y-79811163D01*
X177675403Y-79799597D01*
X177663837Y-79786836D01*
X177653577Y-79773003D01*
X177644723Y-79758230D01*
X177637359Y-79742661D01*
X177631557Y-79726445D01*
X177627372Y-79709738D01*
X177624845Y-79692702D01*
X177624000Y-79675500D01*
X177624000Y-79324500D01*
X177624845Y-79307298D01*
X177627372Y-79290262D01*
X177631557Y-79273555D01*
X177637359Y-79257339D01*
X177644723Y-79241770D01*
X177653577Y-79226997D01*
X177663837Y-79213164D01*
X177675403Y-79200403D01*
X177688164Y-79188837D01*
X177701997Y-79178577D01*
X177716770Y-79169723D01*
X177732339Y-79162359D01*
X177748555Y-79156557D01*
X177765262Y-79152372D01*
X177782298Y-79149845D01*
X177799500Y-79149000D01*
X179500500Y-79149000D01*
X179517702Y-79149845D01*
G37*
G36*
X179517702Y-80419845D02*
G01*
X179534738Y-80422372D01*
X179551445Y-80426557D01*
X179567661Y-80432359D01*
X179583230Y-80439723D01*
X179598003Y-80448577D01*
X179611836Y-80458837D01*
X179624597Y-80470403D01*
X179636163Y-80483164D01*
X179646423Y-80496997D01*
X179655277Y-80511770D01*
X179662641Y-80527339D01*
X179668443Y-80543555D01*
X179672628Y-80560262D01*
X179675155Y-80577298D01*
X179676000Y-80594500D01*
X179676000Y-80945500D01*
X179675155Y-80962702D01*
X179672628Y-80979738D01*
X179668443Y-80996445D01*
X179662641Y-81012661D01*
X179655277Y-81028230D01*
X179646423Y-81043003D01*
X179636163Y-81056836D01*
X179624597Y-81069597D01*
X179611836Y-81081163D01*
X179598003Y-81091423D01*
X179583230Y-81100277D01*
X179567661Y-81107641D01*
X179551445Y-81113443D01*
X179534738Y-81117628D01*
X179517702Y-81120155D01*
X179500500Y-81121000D01*
X177799500Y-81121000D01*
X177782298Y-81120155D01*
X177765262Y-81117628D01*
X177748555Y-81113443D01*
X177732339Y-81107641D01*
X177716770Y-81100277D01*
X177701997Y-81091423D01*
X177688164Y-81081163D01*
X177675403Y-81069597D01*
X177663837Y-81056836D01*
X177653577Y-81043003D01*
X177644723Y-81028230D01*
X177637359Y-81012661D01*
X177631557Y-80996445D01*
X177627372Y-80979738D01*
X177624845Y-80962702D01*
X177624000Y-80945500D01*
X177624000Y-80594500D01*
X177624845Y-80577298D01*
X177627372Y-80560262D01*
X177631557Y-80543555D01*
X177637359Y-80527339D01*
X177644723Y-80511770D01*
X177653577Y-80496997D01*
X177663837Y-80483164D01*
X177675403Y-80470403D01*
X177688164Y-80458837D01*
X177701997Y-80448577D01*
X177716770Y-80439723D01*
X177732339Y-80432359D01*
X177748555Y-80426557D01*
X177765262Y-80422372D01*
X177782298Y-80419845D01*
X177799500Y-80419000D01*
X179500500Y-80419000D01*
X179517702Y-80419845D01*
G37*
G36*
X179517702Y-81689845D02*
G01*
X179534738Y-81692372D01*
X179551445Y-81696557D01*
X179567661Y-81702359D01*
X179583230Y-81709723D01*
X179598003Y-81718577D01*
X179611836Y-81728837D01*
X179624597Y-81740403D01*
X179636163Y-81753164D01*
X179646423Y-81766997D01*
X179655277Y-81781770D01*
X179662641Y-81797339D01*
X179668443Y-81813555D01*
X179672628Y-81830262D01*
X179675155Y-81847298D01*
X179676000Y-81864500D01*
X179676000Y-82215500D01*
X179675155Y-82232702D01*
X179672628Y-82249738D01*
X179668443Y-82266445D01*
X179662641Y-82282661D01*
X179655277Y-82298230D01*
X179646423Y-82313003D01*
X179636163Y-82326836D01*
X179624597Y-82339597D01*
X179611836Y-82351163D01*
X179598003Y-82361423D01*
X179583230Y-82370277D01*
X179567661Y-82377641D01*
X179551445Y-82383443D01*
X179534738Y-82387628D01*
X179517702Y-82390155D01*
X179500500Y-82391000D01*
X177799500Y-82391000D01*
X177782298Y-82390155D01*
X177765262Y-82387628D01*
X177748555Y-82383443D01*
X177732339Y-82377641D01*
X177716770Y-82370277D01*
X177701997Y-82361423D01*
X177688164Y-82351163D01*
X177675403Y-82339597D01*
X177663837Y-82326836D01*
X177653577Y-82313003D01*
X177644723Y-82298230D01*
X177637359Y-82282661D01*
X177631557Y-82266445D01*
X177627372Y-82249738D01*
X177624845Y-82232702D01*
X177624000Y-82215500D01*
X177624000Y-81864500D01*
X177624845Y-81847298D01*
X177627372Y-81830262D01*
X177631557Y-81813555D01*
X177637359Y-81797339D01*
X177644723Y-81781770D01*
X177653577Y-81766997D01*
X177663837Y-81753164D01*
X177675403Y-81740403D01*
X177688164Y-81728837D01*
X177701997Y-81718577D01*
X177716770Y-81709723D01*
X177732339Y-81702359D01*
X177748555Y-81696557D01*
X177765262Y-81692372D01*
X177782298Y-81689845D01*
X177799500Y-81689000D01*
X179500500Y-81689000D01*
X179517702Y-81689845D01*
G37*
G36*
X184467702Y-81689845D02*
G01*
X184484738Y-81692372D01*
X184501445Y-81696557D01*
X184517661Y-81702359D01*
X184533230Y-81709723D01*
X184548003Y-81718577D01*
X184561836Y-81728837D01*
X184574597Y-81740403D01*
X184586163Y-81753164D01*
X184596423Y-81766997D01*
X184605277Y-81781770D01*
X184612641Y-81797339D01*
X184618443Y-81813555D01*
X184622628Y-81830262D01*
X184625155Y-81847298D01*
X184626000Y-81864500D01*
X184626000Y-82215500D01*
X184625155Y-82232702D01*
X184622628Y-82249738D01*
X184618443Y-82266445D01*
X184612641Y-82282661D01*
X184605277Y-82298230D01*
X184596423Y-82313003D01*
X184586163Y-82326836D01*
X184574597Y-82339597D01*
X184561836Y-82351163D01*
X184548003Y-82361423D01*
X184533230Y-82370277D01*
X184517661Y-82377641D01*
X184501445Y-82383443D01*
X184484738Y-82387628D01*
X184467702Y-82390155D01*
X184450500Y-82391000D01*
X182749500Y-82391000D01*
X182732298Y-82390155D01*
X182715262Y-82387628D01*
X182698555Y-82383443D01*
X182682339Y-82377641D01*
X182666770Y-82370277D01*
X182651997Y-82361423D01*
X182638164Y-82351163D01*
X182625403Y-82339597D01*
X182613837Y-82326836D01*
X182603577Y-82313003D01*
X182594723Y-82298230D01*
X182587359Y-82282661D01*
X182581557Y-82266445D01*
X182577372Y-82249738D01*
X182574845Y-82232702D01*
X182574000Y-82215500D01*
X182574000Y-81864500D01*
X182574845Y-81847298D01*
X182577372Y-81830262D01*
X182581557Y-81813555D01*
X182587359Y-81797339D01*
X182594723Y-81781770D01*
X182603577Y-81766997D01*
X182613837Y-81753164D01*
X182625403Y-81740403D01*
X182638164Y-81728837D01*
X182651997Y-81718577D01*
X182666770Y-81709723D01*
X182682339Y-81702359D01*
X182698555Y-81696557D01*
X182715262Y-81692372D01*
X182732298Y-81689845D01*
X182749500Y-81689000D01*
X184450500Y-81689000D01*
X184467702Y-81689845D01*
G37*
G36*
X184467702Y-80419845D02*
G01*
X184484738Y-80422372D01*
X184501445Y-80426557D01*
X184517661Y-80432359D01*
X184533230Y-80439723D01*
X184548003Y-80448577D01*
X184561836Y-80458837D01*
X184574597Y-80470403D01*
X184586163Y-80483164D01*
X184596423Y-80496997D01*
X184605277Y-80511770D01*
X184612641Y-80527339D01*
X184618443Y-80543555D01*
X184622628Y-80560262D01*
X184625155Y-80577298D01*
X184626000Y-80594500D01*
X184626000Y-80945500D01*
X184625155Y-80962702D01*
X184622628Y-80979738D01*
X184618443Y-80996445D01*
X184612641Y-81012661D01*
X184605277Y-81028230D01*
X184596423Y-81043003D01*
X184586163Y-81056836D01*
X184574597Y-81069597D01*
X184561836Y-81081163D01*
X184548003Y-81091423D01*
X184533230Y-81100277D01*
X184517661Y-81107641D01*
X184501445Y-81113443D01*
X184484738Y-81117628D01*
X184467702Y-81120155D01*
X184450500Y-81121000D01*
X182749500Y-81121000D01*
X182732298Y-81120155D01*
X182715262Y-81117628D01*
X182698555Y-81113443D01*
X182682339Y-81107641D01*
X182666770Y-81100277D01*
X182651997Y-81091423D01*
X182638164Y-81081163D01*
X182625403Y-81069597D01*
X182613837Y-81056836D01*
X182603577Y-81043003D01*
X182594723Y-81028230D01*
X182587359Y-81012661D01*
X182581557Y-80996445D01*
X182577372Y-80979738D01*
X182574845Y-80962702D01*
X182574000Y-80945500D01*
X182574000Y-80594500D01*
X182574845Y-80577298D01*
X182577372Y-80560262D01*
X182581557Y-80543555D01*
X182587359Y-80527339D01*
X182594723Y-80511770D01*
X182603577Y-80496997D01*
X182613837Y-80483164D01*
X182625403Y-80470403D01*
X182638164Y-80458837D01*
X182651997Y-80448577D01*
X182666770Y-80439723D01*
X182682339Y-80432359D01*
X182698555Y-80426557D01*
X182715262Y-80422372D01*
X182732298Y-80419845D01*
X182749500Y-80419000D01*
X184450500Y-80419000D01*
X184467702Y-80419845D01*
G37*
G36*
X184467702Y-79149845D02*
G01*
X184484738Y-79152372D01*
X184501445Y-79156557D01*
X184517661Y-79162359D01*
X184533230Y-79169723D01*
X184548003Y-79178577D01*
X184561836Y-79188837D01*
X184574597Y-79200403D01*
X184586163Y-79213164D01*
X184596423Y-79226997D01*
X184605277Y-79241770D01*
X184612641Y-79257339D01*
X184618443Y-79273555D01*
X184622628Y-79290262D01*
X184625155Y-79307298D01*
X184626000Y-79324500D01*
X184626000Y-79675500D01*
X184625155Y-79692702D01*
X184622628Y-79709738D01*
X184618443Y-79726445D01*
X184612641Y-79742661D01*
X184605277Y-79758230D01*
X184596423Y-79773003D01*
X184586163Y-79786836D01*
X184574597Y-79799597D01*
X184561836Y-79811163D01*
X184548003Y-79821423D01*
X184533230Y-79830277D01*
X184517661Y-79837641D01*
X184501445Y-79843443D01*
X184484738Y-79847628D01*
X184467702Y-79850155D01*
X184450500Y-79851000D01*
X182749500Y-79851000D01*
X182732298Y-79850155D01*
X182715262Y-79847628D01*
X182698555Y-79843443D01*
X182682339Y-79837641D01*
X182666770Y-79830277D01*
X182651997Y-79821423D01*
X182638164Y-79811163D01*
X182625403Y-79799597D01*
X182613837Y-79786836D01*
X182603577Y-79773003D01*
X182594723Y-79758230D01*
X182587359Y-79742661D01*
X182581557Y-79726445D01*
X182577372Y-79709738D01*
X182574845Y-79692702D01*
X182574000Y-79675500D01*
X182574000Y-79324500D01*
X182574845Y-79307298D01*
X182577372Y-79290262D01*
X182581557Y-79273555D01*
X182587359Y-79257339D01*
X182594723Y-79241770D01*
X182603577Y-79226997D01*
X182613837Y-79213164D01*
X182625403Y-79200403D01*
X182638164Y-79188837D01*
X182651997Y-79178577D01*
X182666770Y-79169723D01*
X182682339Y-79162359D01*
X182698555Y-79156557D01*
X182715262Y-79152372D01*
X182732298Y-79149845D01*
X182749500Y-79149000D01*
X184450500Y-79149000D01*
X184467702Y-79149845D01*
G37*
G36*
X184467702Y-77879845D02*
G01*
X184484738Y-77882372D01*
X184501445Y-77886557D01*
X184517661Y-77892359D01*
X184533230Y-77899723D01*
X184548003Y-77908577D01*
X184561836Y-77918837D01*
X184574597Y-77930403D01*
X184586163Y-77943164D01*
X184596423Y-77956997D01*
X184605277Y-77971770D01*
X184612641Y-77987339D01*
X184618443Y-78003555D01*
X184622628Y-78020262D01*
X184625155Y-78037298D01*
X184626000Y-78054500D01*
X184626000Y-78405500D01*
X184625155Y-78422702D01*
X184622628Y-78439738D01*
X184618443Y-78456445D01*
X184612641Y-78472661D01*
X184605277Y-78488230D01*
X184596423Y-78503003D01*
X184586163Y-78516836D01*
X184574597Y-78529597D01*
X184561836Y-78541163D01*
X184548003Y-78551423D01*
X184533230Y-78560277D01*
X184517661Y-78567641D01*
X184501445Y-78573443D01*
X184484738Y-78577628D01*
X184467702Y-78580155D01*
X184450500Y-78581000D01*
X182749500Y-78581000D01*
X182732298Y-78580155D01*
X182715262Y-78577628D01*
X182698555Y-78573443D01*
X182682339Y-78567641D01*
X182666770Y-78560277D01*
X182651997Y-78551423D01*
X182638164Y-78541163D01*
X182625403Y-78529597D01*
X182613837Y-78516836D01*
X182603577Y-78503003D01*
X182594723Y-78488230D01*
X182587359Y-78472661D01*
X182581557Y-78456445D01*
X182577372Y-78439738D01*
X182574845Y-78422702D01*
X182574000Y-78405500D01*
X182574000Y-78054500D01*
X182574845Y-78037298D01*
X182577372Y-78020262D01*
X182581557Y-78003555D01*
X182587359Y-77987339D01*
X182594723Y-77971770D01*
X182603577Y-77956997D01*
X182613837Y-77943164D01*
X182625403Y-77930403D01*
X182638164Y-77918837D01*
X182651997Y-77908577D01*
X182666770Y-77899723D01*
X182682339Y-77892359D01*
X182698555Y-77886557D01*
X182715262Y-77882372D01*
X182732298Y-77879845D01*
X182749500Y-77879000D01*
X184450500Y-77879000D01*
X184467702Y-77879845D01*
G37*
D17*
X114000000Y-100850000D03*
X114000000Y-87350000D03*
D18*
X120000000Y-97700000D03*
X120000000Y-90500000D03*
D19*
X136000000Y-106250000D03*
X138540000Y-103710000D03*
D20*
X141080000Y-106250000D03*
D13*
G36*
X175505505Y-79512811D02*
G01*
X175531925Y-79516730D01*
X175557835Y-79523220D01*
X175582983Y-79532218D01*
X175607128Y-79543638D01*
X175630038Y-79557369D01*
X175651492Y-79573280D01*
X175671282Y-79591218D01*
X175689220Y-79611008D01*
X175705131Y-79632462D01*
X175718862Y-79655372D01*
X175730282Y-79679517D01*
X175739280Y-79704665D01*
X175745770Y-79730575D01*
X175749689Y-79756995D01*
X175751000Y-79783673D01*
X175751000Y-80491327D01*
X175749689Y-80518005D01*
X175745770Y-80544425D01*
X175739280Y-80570335D01*
X175730282Y-80595483D01*
X175718862Y-80619628D01*
X175705131Y-80642538D01*
X175689220Y-80663992D01*
X175671282Y-80683782D01*
X175651492Y-80701720D01*
X175630038Y-80717631D01*
X175607128Y-80731362D01*
X175582983Y-80742782D01*
X175557835Y-80751780D01*
X175531925Y-80758270D01*
X175505505Y-80762189D01*
X175478827Y-80763500D01*
X174521173Y-80763500D01*
X174494495Y-80762189D01*
X174468075Y-80758270D01*
X174442165Y-80751780D01*
X174417017Y-80742782D01*
X174392872Y-80731362D01*
X174369962Y-80717631D01*
X174348508Y-80701720D01*
X174328718Y-80683782D01*
X174310780Y-80663992D01*
X174294869Y-80642538D01*
X174281138Y-80619628D01*
X174269718Y-80595483D01*
X174260720Y-80570335D01*
X174254230Y-80544425D01*
X174250311Y-80518005D01*
X174249000Y-80491327D01*
X174249000Y-79783673D01*
X174250311Y-79756995D01*
X174254230Y-79730575D01*
X174260720Y-79704665D01*
X174269718Y-79679517D01*
X174281138Y-79655372D01*
X174294869Y-79632462D01*
X174310780Y-79611008D01*
X174328718Y-79591218D01*
X174348508Y-79573280D01*
X174369962Y-79557369D01*
X174392872Y-79543638D01*
X174417017Y-79532218D01*
X174442165Y-79523220D01*
X174468075Y-79516730D01*
X174494495Y-79512811D01*
X174521173Y-79511500D01*
X175478827Y-79511500D01*
X175505505Y-79512811D01*
G37*
G36*
X175505505Y-81562811D02*
G01*
X175531925Y-81566730D01*
X175557835Y-81573220D01*
X175582983Y-81582218D01*
X175607128Y-81593638D01*
X175630038Y-81607369D01*
X175651492Y-81623280D01*
X175671282Y-81641218D01*
X175689220Y-81661008D01*
X175705131Y-81682462D01*
X175718862Y-81705372D01*
X175730282Y-81729517D01*
X175739280Y-81754665D01*
X175745770Y-81780575D01*
X175749689Y-81806995D01*
X175751000Y-81833673D01*
X175751000Y-82541327D01*
X175749689Y-82568005D01*
X175745770Y-82594425D01*
X175739280Y-82620335D01*
X175730282Y-82645483D01*
X175718862Y-82669628D01*
X175705131Y-82692538D01*
X175689220Y-82713992D01*
X175671282Y-82733782D01*
X175651492Y-82751720D01*
X175630038Y-82767631D01*
X175607128Y-82781362D01*
X175582983Y-82792782D01*
X175557835Y-82801780D01*
X175531925Y-82808270D01*
X175505505Y-82812189D01*
X175478827Y-82813500D01*
X174521173Y-82813500D01*
X174494495Y-82812189D01*
X174468075Y-82808270D01*
X174442165Y-82801780D01*
X174417017Y-82792782D01*
X174392872Y-82781362D01*
X174369962Y-82767631D01*
X174348508Y-82751720D01*
X174328718Y-82733782D01*
X174310780Y-82713992D01*
X174294869Y-82692538D01*
X174281138Y-82669628D01*
X174269718Y-82645483D01*
X174260720Y-82620335D01*
X174254230Y-82594425D01*
X174250311Y-82568005D01*
X174249000Y-82541327D01*
X174249000Y-81833673D01*
X174250311Y-81806995D01*
X174254230Y-81780575D01*
X174260720Y-81754665D01*
X174269718Y-81729517D01*
X174281138Y-81705372D01*
X174294869Y-81682462D01*
X174310780Y-81661008D01*
X174328718Y-81641218D01*
X174348508Y-81623280D01*
X174369962Y-81607369D01*
X174392872Y-81593638D01*
X174417017Y-81582218D01*
X174442165Y-81573220D01*
X174468075Y-81566730D01*
X174494495Y-81562811D01*
X174521173Y-81561500D01*
X175478827Y-81561500D01*
X175505505Y-81562811D01*
G37*
D21*
X179190000Y-109050000D03*
X181730000Y-109050000D03*
X184270000Y-109050000D03*
X186810000Y-109050000D03*
X186810000Y-99950000D03*
X184270000Y-99950000D03*
X181730000Y-99950000D03*
X179190000Y-99950000D03*
D19*
X135920000Y-81750000D03*
X138460000Y-84290000D03*
D20*
X141000000Y-81750000D03*
D13*
G36*
X189143005Y-79950311D02*
G01*
X189169425Y-79954230D01*
X189195335Y-79960720D01*
X189220483Y-79969718D01*
X189244628Y-79981138D01*
X189267538Y-79994869D01*
X189288992Y-80010780D01*
X189308782Y-80028718D01*
X189326720Y-80048508D01*
X189342631Y-80069962D01*
X189356362Y-80092872D01*
X189367782Y-80117017D01*
X189376780Y-80142165D01*
X189383270Y-80168075D01*
X189387189Y-80194495D01*
X189388500Y-80221173D01*
X189388500Y-81178827D01*
X189387189Y-81205505D01*
X189383270Y-81231925D01*
X189376780Y-81257835D01*
X189367782Y-81282983D01*
X189356362Y-81307128D01*
X189342631Y-81330038D01*
X189326720Y-81351492D01*
X189308782Y-81371282D01*
X189288992Y-81389220D01*
X189267538Y-81405131D01*
X189244628Y-81418862D01*
X189220483Y-81430282D01*
X189195335Y-81439280D01*
X189169425Y-81445770D01*
X189143005Y-81449689D01*
X189116327Y-81451000D01*
X188408673Y-81451000D01*
X188381995Y-81449689D01*
X188355575Y-81445770D01*
X188329665Y-81439280D01*
X188304517Y-81430282D01*
X188280372Y-81418862D01*
X188257462Y-81405131D01*
X188236008Y-81389220D01*
X188216218Y-81371282D01*
X188198280Y-81351492D01*
X188182369Y-81330038D01*
X188168638Y-81307128D01*
X188157218Y-81282983D01*
X188148220Y-81257835D01*
X188141730Y-81231925D01*
X188137811Y-81205505D01*
X188136500Y-81178827D01*
X188136500Y-80221173D01*
X188137811Y-80194495D01*
X188141730Y-80168075D01*
X188148220Y-80142165D01*
X188157218Y-80117017D01*
X188168638Y-80092872D01*
X188182369Y-80069962D01*
X188198280Y-80048508D01*
X188216218Y-80028718D01*
X188236008Y-80010780D01*
X188257462Y-79994869D01*
X188280372Y-79981138D01*
X188304517Y-79969718D01*
X188329665Y-79960720D01*
X188355575Y-79954230D01*
X188381995Y-79950311D01*
X188408673Y-79949000D01*
X189116327Y-79949000D01*
X189143005Y-79950311D01*
G37*
G36*
X187093005Y-79950311D02*
G01*
X187119425Y-79954230D01*
X187145335Y-79960720D01*
X187170483Y-79969718D01*
X187194628Y-79981138D01*
X187217538Y-79994869D01*
X187238992Y-80010780D01*
X187258782Y-80028718D01*
X187276720Y-80048508D01*
X187292631Y-80069962D01*
X187306362Y-80092872D01*
X187317782Y-80117017D01*
X187326780Y-80142165D01*
X187333270Y-80168075D01*
X187337189Y-80194495D01*
X187338500Y-80221173D01*
X187338500Y-81178827D01*
X187337189Y-81205505D01*
X187333270Y-81231925D01*
X187326780Y-81257835D01*
X187317782Y-81282983D01*
X187306362Y-81307128D01*
X187292631Y-81330038D01*
X187276720Y-81351492D01*
X187258782Y-81371282D01*
X187238992Y-81389220D01*
X187217538Y-81405131D01*
X187194628Y-81418862D01*
X187170483Y-81430282D01*
X187145335Y-81439280D01*
X187119425Y-81445770D01*
X187093005Y-81449689D01*
X187066327Y-81451000D01*
X186358673Y-81451000D01*
X186331995Y-81449689D01*
X186305575Y-81445770D01*
X186279665Y-81439280D01*
X186254517Y-81430282D01*
X186230372Y-81418862D01*
X186207462Y-81405131D01*
X186186008Y-81389220D01*
X186166218Y-81371282D01*
X186148280Y-81351492D01*
X186132369Y-81330038D01*
X186118638Y-81307128D01*
X186107218Y-81282983D01*
X186098220Y-81257835D01*
X186091730Y-81231925D01*
X186087811Y-81205505D01*
X186086500Y-81178827D01*
X186086500Y-80221173D01*
X186087811Y-80194495D01*
X186091730Y-80168075D01*
X186098220Y-80142165D01*
X186107218Y-80117017D01*
X186118638Y-80092872D01*
X186132369Y-80069962D01*
X186148280Y-80048508D01*
X186166218Y-80028718D01*
X186186008Y-80010780D01*
X186207462Y-79994869D01*
X186230372Y-79981138D01*
X186254517Y-79969718D01*
X186279665Y-79960720D01*
X186305575Y-79954230D01*
X186331995Y-79950311D01*
X186358673Y-79949000D01*
X187066327Y-79949000D01*
X187093005Y-79950311D01*
G37*
D22*
X174960000Y-108500000D03*
X172420000Y-108500000D03*
X169880000Y-108500000D03*
X167340000Y-108500000D03*
D23*
X164800000Y-108500000D03*
D19*
X114920000Y-106500000D03*
X117460000Y-103960000D03*
D20*
X120000000Y-106500000D03*
X120000000Y-81500000D03*
D19*
X117460000Y-84040000D03*
X114920000Y-81500000D03*
D22*
X160000000Y-108500000D03*
X157460000Y-108500000D03*
D23*
X154920000Y-108500000D03*
D13*
G36*
X167605505Y-96950311D02*
G01*
X167631925Y-96954230D01*
X167657835Y-96960720D01*
X167682983Y-96969718D01*
X167707128Y-96981138D01*
X167730038Y-96994869D01*
X167751492Y-97010780D01*
X167771282Y-97028718D01*
X167789220Y-97048508D01*
X167805131Y-97069962D01*
X167818862Y-97092872D01*
X167830282Y-97117017D01*
X167839280Y-97142165D01*
X167845770Y-97168075D01*
X167849689Y-97194495D01*
X167851000Y-97221173D01*
X167851000Y-98178827D01*
X167849689Y-98205505D01*
X167845770Y-98231925D01*
X167839280Y-98257835D01*
X167830282Y-98282983D01*
X167818862Y-98307128D01*
X167805131Y-98330038D01*
X167789220Y-98351492D01*
X167771282Y-98371282D01*
X167751492Y-98389220D01*
X167730038Y-98405131D01*
X167707128Y-98418862D01*
X167682983Y-98430282D01*
X167657835Y-98439280D01*
X167631925Y-98445770D01*
X167605505Y-98449689D01*
X167578827Y-98451000D01*
X166871173Y-98451000D01*
X166844495Y-98449689D01*
X166818075Y-98445770D01*
X166792165Y-98439280D01*
X166767017Y-98430282D01*
X166742872Y-98418862D01*
X166719962Y-98405131D01*
X166698508Y-98389220D01*
X166678718Y-98371282D01*
X166660780Y-98351492D01*
X166644869Y-98330038D01*
X166631138Y-98307128D01*
X166619718Y-98282983D01*
X166610720Y-98257835D01*
X166604230Y-98231925D01*
X166600311Y-98205505D01*
X166599000Y-98178827D01*
X166599000Y-97221173D01*
X166600311Y-97194495D01*
X166604230Y-97168075D01*
X166610720Y-97142165D01*
X166619718Y-97117017D01*
X166631138Y-97092872D01*
X166644869Y-97069962D01*
X166660780Y-97048508D01*
X166678718Y-97028718D01*
X166698508Y-97010780D01*
X166719962Y-96994869D01*
X166742872Y-96981138D01*
X166767017Y-96969718D01*
X166792165Y-96960720D01*
X166818075Y-96954230D01*
X166844495Y-96950311D01*
X166871173Y-96949000D01*
X167578827Y-96949000D01*
X167605505Y-96950311D01*
G37*
G36*
X165555505Y-96950311D02*
G01*
X165581925Y-96954230D01*
X165607835Y-96960720D01*
X165632983Y-96969718D01*
X165657128Y-96981138D01*
X165680038Y-96994869D01*
X165701492Y-97010780D01*
X165721282Y-97028718D01*
X165739220Y-97048508D01*
X165755131Y-97069962D01*
X165768862Y-97092872D01*
X165780282Y-97117017D01*
X165789280Y-97142165D01*
X165795770Y-97168075D01*
X165799689Y-97194495D01*
X165801000Y-97221173D01*
X165801000Y-98178827D01*
X165799689Y-98205505D01*
X165795770Y-98231925D01*
X165789280Y-98257835D01*
X165780282Y-98282983D01*
X165768862Y-98307128D01*
X165755131Y-98330038D01*
X165739220Y-98351492D01*
X165721282Y-98371282D01*
X165701492Y-98389220D01*
X165680038Y-98405131D01*
X165657128Y-98418862D01*
X165632983Y-98430282D01*
X165607835Y-98439280D01*
X165581925Y-98445770D01*
X165555505Y-98449689D01*
X165528827Y-98451000D01*
X164821173Y-98451000D01*
X164794495Y-98449689D01*
X164768075Y-98445770D01*
X164742165Y-98439280D01*
X164717017Y-98430282D01*
X164692872Y-98418862D01*
X164669962Y-98405131D01*
X164648508Y-98389220D01*
X164628718Y-98371282D01*
X164610780Y-98351492D01*
X164594869Y-98330038D01*
X164581138Y-98307128D01*
X164569718Y-98282983D01*
X164560720Y-98257835D01*
X164554230Y-98231925D01*
X164550311Y-98205505D01*
X164549000Y-98178827D01*
X164549000Y-97221173D01*
X164550311Y-97194495D01*
X164554230Y-97168075D01*
X164560720Y-97142165D01*
X164569718Y-97117017D01*
X164581138Y-97092872D01*
X164594869Y-97069962D01*
X164610780Y-97048508D01*
X164628718Y-97028718D01*
X164648508Y-97010780D01*
X164669962Y-96994869D01*
X164692872Y-96981138D01*
X164717017Y-96969718D01*
X164742165Y-96960720D01*
X164768075Y-96954230D01*
X164794495Y-96950311D01*
X164821173Y-96949000D01*
X165528827Y-96949000D01*
X165555505Y-96950311D01*
G37*
G36*
X168805505Y-77550311D02*
G01*
X168831925Y-77554230D01*
X168857835Y-77560720D01*
X168882983Y-77569718D01*
X168907128Y-77581138D01*
X168930038Y-77594869D01*
X168951492Y-77610780D01*
X168971282Y-77628718D01*
X168989220Y-77648508D01*
X169005131Y-77669962D01*
X169018862Y-77692872D01*
X169030282Y-77717017D01*
X169039280Y-77742165D01*
X169045770Y-77768075D01*
X169049689Y-77794495D01*
X169051000Y-77821173D01*
X169051000Y-78528827D01*
X169049689Y-78555505D01*
X169045770Y-78581925D01*
X169039280Y-78607835D01*
X169030282Y-78632983D01*
X169018862Y-78657128D01*
X169005131Y-78680038D01*
X168989220Y-78701492D01*
X168971282Y-78721282D01*
X168951492Y-78739220D01*
X168930038Y-78755131D01*
X168907128Y-78768862D01*
X168882983Y-78780282D01*
X168857835Y-78789280D01*
X168831925Y-78795770D01*
X168805505Y-78799689D01*
X168778827Y-78801000D01*
X167821173Y-78801000D01*
X167794495Y-78799689D01*
X167768075Y-78795770D01*
X167742165Y-78789280D01*
X167717017Y-78780282D01*
X167692872Y-78768862D01*
X167669962Y-78755131D01*
X167648508Y-78739220D01*
X167628718Y-78721282D01*
X167610780Y-78701492D01*
X167594869Y-78680038D01*
X167581138Y-78657128D01*
X167569718Y-78632983D01*
X167560720Y-78607835D01*
X167554230Y-78581925D01*
X167550311Y-78555505D01*
X167549000Y-78528827D01*
X167549000Y-77821173D01*
X167550311Y-77794495D01*
X167554230Y-77768075D01*
X167560720Y-77742165D01*
X167569718Y-77717017D01*
X167581138Y-77692872D01*
X167594869Y-77669962D01*
X167610780Y-77648508D01*
X167628718Y-77628718D01*
X167648508Y-77610780D01*
X167669962Y-77594869D01*
X167692872Y-77581138D01*
X167717017Y-77569718D01*
X167742165Y-77560720D01*
X167768075Y-77554230D01*
X167794495Y-77550311D01*
X167821173Y-77549000D01*
X168778827Y-77549000D01*
X168805505Y-77550311D01*
G37*
G36*
X168805505Y-79600311D02*
G01*
X168831925Y-79604230D01*
X168857835Y-79610720D01*
X168882983Y-79619718D01*
X168907128Y-79631138D01*
X168930038Y-79644869D01*
X168951492Y-79660780D01*
X168971282Y-79678718D01*
X168989220Y-79698508D01*
X169005131Y-79719962D01*
X169018862Y-79742872D01*
X169030282Y-79767017D01*
X169039280Y-79792165D01*
X169045770Y-79818075D01*
X169049689Y-79844495D01*
X169051000Y-79871173D01*
X169051000Y-80578827D01*
X169049689Y-80605505D01*
X169045770Y-80631925D01*
X169039280Y-80657835D01*
X169030282Y-80682983D01*
X169018862Y-80707128D01*
X169005131Y-80730038D01*
X168989220Y-80751492D01*
X168971282Y-80771282D01*
X168951492Y-80789220D01*
X168930038Y-80805131D01*
X168907128Y-80818862D01*
X168882983Y-80830282D01*
X168857835Y-80839280D01*
X168831925Y-80845770D01*
X168805505Y-80849689D01*
X168778827Y-80851000D01*
X167821173Y-80851000D01*
X167794495Y-80849689D01*
X167768075Y-80845770D01*
X167742165Y-80839280D01*
X167717017Y-80830282D01*
X167692872Y-80818862D01*
X167669962Y-80805131D01*
X167648508Y-80789220D01*
X167628718Y-80771282D01*
X167610780Y-80751492D01*
X167594869Y-80730038D01*
X167581138Y-80707128D01*
X167569718Y-80682983D01*
X167560720Y-80657835D01*
X167554230Y-80631925D01*
X167550311Y-80605505D01*
X167549000Y-80578827D01*
X167549000Y-79871173D01*
X167550311Y-79844495D01*
X167554230Y-79818075D01*
X167560720Y-79792165D01*
X167569718Y-79767017D01*
X167581138Y-79742872D01*
X167594869Y-79719962D01*
X167610780Y-79698508D01*
X167628718Y-79678718D01*
X167648508Y-79660780D01*
X167669962Y-79644869D01*
X167692872Y-79631138D01*
X167717017Y-79619718D01*
X167742165Y-79610720D01*
X167768075Y-79604230D01*
X167794495Y-79600311D01*
X167821173Y-79599000D01*
X168778827Y-79599000D01*
X168805505Y-79600311D01*
G37*
G36*
X165451279Y-91175266D02*
G01*
X165476809Y-91179053D01*
X165501845Y-91185325D01*
X165526146Y-91194020D01*
X165549477Y-91205055D01*
X165571615Y-91218323D01*
X165592345Y-91233698D01*
X165611469Y-91251031D01*
X165628802Y-91270155D01*
X165644177Y-91290885D01*
X165657445Y-91313023D01*
X165668480Y-91336354D01*
X165677175Y-91360655D01*
X165683447Y-91385691D01*
X165687234Y-91411221D01*
X165688500Y-91437000D01*
X165688500Y-91963000D01*
X165687234Y-91988779D01*
X165683447Y-92014309D01*
X165677175Y-92039345D01*
X165668480Y-92063646D01*
X165657445Y-92086977D01*
X165644177Y-92109115D01*
X165628802Y-92129845D01*
X165611469Y-92148969D01*
X165592345Y-92166302D01*
X165571615Y-92181677D01*
X165549477Y-92194945D01*
X165526146Y-92205980D01*
X165501845Y-92214675D01*
X165476809Y-92220947D01*
X165451279Y-92224734D01*
X165425500Y-92226000D01*
X164799500Y-92226000D01*
X164773721Y-92224734D01*
X164748191Y-92220947D01*
X164723155Y-92214675D01*
X164698854Y-92205980D01*
X164675523Y-92194945D01*
X164653385Y-92181677D01*
X164632655Y-92166302D01*
X164613531Y-92148969D01*
X164596198Y-92129845D01*
X164580823Y-92109115D01*
X164567555Y-92086977D01*
X164556520Y-92063646D01*
X164547825Y-92039345D01*
X164541553Y-92014309D01*
X164537766Y-91988779D01*
X164536500Y-91963000D01*
X164536500Y-91437000D01*
X164537766Y-91411221D01*
X164541553Y-91385691D01*
X164547825Y-91360655D01*
X164556520Y-91336354D01*
X164567555Y-91313023D01*
X164580823Y-91290885D01*
X164596198Y-91270155D01*
X164613531Y-91251031D01*
X164632655Y-91233698D01*
X164653385Y-91218323D01*
X164675523Y-91205055D01*
X164698854Y-91194020D01*
X164723155Y-91185325D01*
X164748191Y-91179053D01*
X164773721Y-91175266D01*
X164799500Y-91174000D01*
X165425500Y-91174000D01*
X165451279Y-91175266D01*
G37*
G36*
X167201279Y-91175266D02*
G01*
X167226809Y-91179053D01*
X167251845Y-91185325D01*
X167276146Y-91194020D01*
X167299477Y-91205055D01*
X167321615Y-91218323D01*
X167342345Y-91233698D01*
X167361469Y-91251031D01*
X167378802Y-91270155D01*
X167394177Y-91290885D01*
X167407445Y-91313023D01*
X167418480Y-91336354D01*
X167427175Y-91360655D01*
X167433447Y-91385691D01*
X167437234Y-91411221D01*
X167438500Y-91437000D01*
X167438500Y-91963000D01*
X167437234Y-91988779D01*
X167433447Y-92014309D01*
X167427175Y-92039345D01*
X167418480Y-92063646D01*
X167407445Y-92086977D01*
X167394177Y-92109115D01*
X167378802Y-92129845D01*
X167361469Y-92148969D01*
X167342345Y-92166302D01*
X167321615Y-92181677D01*
X167299477Y-92194945D01*
X167276146Y-92205980D01*
X167251845Y-92214675D01*
X167226809Y-92220947D01*
X167201279Y-92224734D01*
X167175500Y-92226000D01*
X166549500Y-92226000D01*
X166523721Y-92224734D01*
X166498191Y-92220947D01*
X166473155Y-92214675D01*
X166448854Y-92205980D01*
X166425523Y-92194945D01*
X166403385Y-92181677D01*
X166382655Y-92166302D01*
X166363531Y-92148969D01*
X166346198Y-92129845D01*
X166330823Y-92109115D01*
X166317555Y-92086977D01*
X166306520Y-92063646D01*
X166297825Y-92039345D01*
X166291553Y-92014309D01*
X166287766Y-91988779D01*
X166286500Y-91963000D01*
X166286500Y-91437000D01*
X166287766Y-91411221D01*
X166291553Y-91385691D01*
X166297825Y-91360655D01*
X166306520Y-91336354D01*
X166317555Y-91313023D01*
X166330823Y-91290885D01*
X166346198Y-91270155D01*
X166363531Y-91251031D01*
X166382655Y-91233698D01*
X166403385Y-91218323D01*
X166425523Y-91205055D01*
X166448854Y-91194020D01*
X166473155Y-91185325D01*
X166498191Y-91179053D01*
X166523721Y-91175266D01*
X166549500Y-91174000D01*
X167175500Y-91174000D01*
X167201279Y-91175266D01*
G37*
G36*
X165463779Y-93975266D02*
G01*
X165489309Y-93979053D01*
X165514345Y-93985325D01*
X165538646Y-93994020D01*
X165561977Y-94005055D01*
X165584115Y-94018323D01*
X165604845Y-94033698D01*
X165623969Y-94051031D01*
X165641302Y-94070155D01*
X165656677Y-94090885D01*
X165669945Y-94113023D01*
X165680980Y-94136354D01*
X165689675Y-94160655D01*
X165695947Y-94185691D01*
X165699734Y-94211221D01*
X165701000Y-94237000D01*
X165701000Y-94763000D01*
X165699734Y-94788779D01*
X165695947Y-94814309D01*
X165689675Y-94839345D01*
X165680980Y-94863646D01*
X165669945Y-94886977D01*
X165656677Y-94909115D01*
X165641302Y-94929845D01*
X165623969Y-94948969D01*
X165604845Y-94966302D01*
X165584115Y-94981677D01*
X165561977Y-94994945D01*
X165538646Y-95005980D01*
X165514345Y-95014675D01*
X165489309Y-95020947D01*
X165463779Y-95024734D01*
X165438000Y-95026000D01*
X164812000Y-95026000D01*
X164786221Y-95024734D01*
X164760691Y-95020947D01*
X164735655Y-95014675D01*
X164711354Y-95005980D01*
X164688023Y-94994945D01*
X164665885Y-94981677D01*
X164645155Y-94966302D01*
X164626031Y-94948969D01*
X164608698Y-94929845D01*
X164593323Y-94909115D01*
X164580055Y-94886977D01*
X164569020Y-94863646D01*
X164560325Y-94839345D01*
X164554053Y-94814309D01*
X164550266Y-94788779D01*
X164549000Y-94763000D01*
X164549000Y-94237000D01*
X164550266Y-94211221D01*
X164554053Y-94185691D01*
X164560325Y-94160655D01*
X164569020Y-94136354D01*
X164580055Y-94113023D01*
X164593323Y-94090885D01*
X164608698Y-94070155D01*
X164626031Y-94051031D01*
X164645155Y-94033698D01*
X164665885Y-94018323D01*
X164688023Y-94005055D01*
X164711354Y-93994020D01*
X164735655Y-93985325D01*
X164760691Y-93979053D01*
X164786221Y-93975266D01*
X164812000Y-93974000D01*
X165438000Y-93974000D01*
X165463779Y-93975266D01*
G37*
G36*
X167213779Y-93975266D02*
G01*
X167239309Y-93979053D01*
X167264345Y-93985325D01*
X167288646Y-93994020D01*
X167311977Y-94005055D01*
X167334115Y-94018323D01*
X167354845Y-94033698D01*
X167373969Y-94051031D01*
X167391302Y-94070155D01*
X167406677Y-94090885D01*
X167419945Y-94113023D01*
X167430980Y-94136354D01*
X167439675Y-94160655D01*
X167445947Y-94185691D01*
X167449734Y-94211221D01*
X167451000Y-94237000D01*
X167451000Y-94763000D01*
X167449734Y-94788779D01*
X167445947Y-94814309D01*
X167439675Y-94839345D01*
X167430980Y-94863646D01*
X167419945Y-94886977D01*
X167406677Y-94909115D01*
X167391302Y-94929845D01*
X167373969Y-94948969D01*
X167354845Y-94966302D01*
X167334115Y-94981677D01*
X167311977Y-94994945D01*
X167288646Y-95005980D01*
X167264345Y-95014675D01*
X167239309Y-95020947D01*
X167213779Y-95024734D01*
X167188000Y-95026000D01*
X166562000Y-95026000D01*
X166536221Y-95024734D01*
X166510691Y-95020947D01*
X166485655Y-95014675D01*
X166461354Y-95005980D01*
X166438023Y-94994945D01*
X166415885Y-94981677D01*
X166395155Y-94966302D01*
X166376031Y-94948969D01*
X166358698Y-94929845D01*
X166343323Y-94909115D01*
X166330055Y-94886977D01*
X166319020Y-94863646D01*
X166310325Y-94839345D01*
X166304053Y-94814309D01*
X166300266Y-94788779D01*
X166299000Y-94763000D01*
X166299000Y-94237000D01*
X166300266Y-94211221D01*
X166304053Y-94185691D01*
X166310325Y-94160655D01*
X166319020Y-94136354D01*
X166330055Y-94113023D01*
X166343323Y-94090885D01*
X166358698Y-94070155D01*
X166376031Y-94051031D01*
X166395155Y-94033698D01*
X166415885Y-94018323D01*
X166438023Y-94005055D01*
X166461354Y-93994020D01*
X166485655Y-93985325D01*
X166510691Y-93979053D01*
X166536221Y-93975266D01*
X166562000Y-93974000D01*
X167188000Y-93974000D01*
X167213779Y-93975266D01*
G37*
G36*
X168805505Y-85200311D02*
G01*
X168831925Y-85204230D01*
X168857835Y-85210720D01*
X168882983Y-85219718D01*
X168907128Y-85231138D01*
X168930038Y-85244869D01*
X168951492Y-85260780D01*
X168971282Y-85278718D01*
X168989220Y-85298508D01*
X169005131Y-85319962D01*
X169018862Y-85342872D01*
X169030282Y-85367017D01*
X169039280Y-85392165D01*
X169045770Y-85418075D01*
X169049689Y-85444495D01*
X169051000Y-85471173D01*
X169051000Y-86178827D01*
X169049689Y-86205505D01*
X169045770Y-86231925D01*
X169039280Y-86257835D01*
X169030282Y-86282983D01*
X169018862Y-86307128D01*
X169005131Y-86330038D01*
X168989220Y-86351492D01*
X168971282Y-86371282D01*
X168951492Y-86389220D01*
X168930038Y-86405131D01*
X168907128Y-86418862D01*
X168882983Y-86430282D01*
X168857835Y-86439280D01*
X168831925Y-86445770D01*
X168805505Y-86449689D01*
X168778827Y-86451000D01*
X167821173Y-86451000D01*
X167794495Y-86449689D01*
X167768075Y-86445770D01*
X167742165Y-86439280D01*
X167717017Y-86430282D01*
X167692872Y-86418862D01*
X167669962Y-86405131D01*
X167648508Y-86389220D01*
X167628718Y-86371282D01*
X167610780Y-86351492D01*
X167594869Y-86330038D01*
X167581138Y-86307128D01*
X167569718Y-86282983D01*
X167560720Y-86257835D01*
X167554230Y-86231925D01*
X167550311Y-86205505D01*
X167549000Y-86178827D01*
X167549000Y-85471173D01*
X167550311Y-85444495D01*
X167554230Y-85418075D01*
X167560720Y-85392165D01*
X167569718Y-85367017D01*
X167581138Y-85342872D01*
X167594869Y-85319962D01*
X167610780Y-85298508D01*
X167628718Y-85278718D01*
X167648508Y-85260780D01*
X167669962Y-85244869D01*
X167692872Y-85231138D01*
X167717017Y-85219718D01*
X167742165Y-85210720D01*
X167768075Y-85204230D01*
X167794495Y-85200311D01*
X167821173Y-85199000D01*
X168778827Y-85199000D01*
X168805505Y-85200311D01*
G37*
G36*
X168805505Y-83150311D02*
G01*
X168831925Y-83154230D01*
X168857835Y-83160720D01*
X168882983Y-83169718D01*
X168907128Y-83181138D01*
X168930038Y-83194869D01*
X168951492Y-83210780D01*
X168971282Y-83228718D01*
X168989220Y-83248508D01*
X169005131Y-83269962D01*
X169018862Y-83292872D01*
X169030282Y-83317017D01*
X169039280Y-83342165D01*
X169045770Y-83368075D01*
X169049689Y-83394495D01*
X169051000Y-83421173D01*
X169051000Y-84128827D01*
X169049689Y-84155505D01*
X169045770Y-84181925D01*
X169039280Y-84207835D01*
X169030282Y-84232983D01*
X169018862Y-84257128D01*
X169005131Y-84280038D01*
X168989220Y-84301492D01*
X168971282Y-84321282D01*
X168951492Y-84339220D01*
X168930038Y-84355131D01*
X168907128Y-84368862D01*
X168882983Y-84380282D01*
X168857835Y-84389280D01*
X168831925Y-84395770D01*
X168805505Y-84399689D01*
X168778827Y-84401000D01*
X167821173Y-84401000D01*
X167794495Y-84399689D01*
X167768075Y-84395770D01*
X167742165Y-84389280D01*
X167717017Y-84380282D01*
X167692872Y-84368862D01*
X167669962Y-84355131D01*
X167648508Y-84339220D01*
X167628718Y-84321282D01*
X167610780Y-84301492D01*
X167594869Y-84280038D01*
X167581138Y-84257128D01*
X167569718Y-84232983D01*
X167560720Y-84207835D01*
X167554230Y-84181925D01*
X167550311Y-84155505D01*
X167549000Y-84128827D01*
X167549000Y-83421173D01*
X167550311Y-83394495D01*
X167554230Y-83368075D01*
X167560720Y-83342165D01*
X167569718Y-83317017D01*
X167581138Y-83292872D01*
X167594869Y-83269962D01*
X167610780Y-83248508D01*
X167628718Y-83228718D01*
X167648508Y-83210780D01*
X167669962Y-83194869D01*
X167692872Y-83181138D01*
X167717017Y-83169718D01*
X167742165Y-83160720D01*
X167768075Y-83154230D01*
X167794495Y-83150311D01*
X167821173Y-83149000D01*
X168778827Y-83149000D01*
X168805505Y-83150311D01*
G37*
D24*
X165750000Y-81790000D03*
X165750000Y-83710000D03*
X163350000Y-82750000D03*
D13*
G36*
X167213779Y-88175266D02*
G01*
X167239309Y-88179053D01*
X167264345Y-88185325D01*
X167288646Y-88194020D01*
X167311977Y-88205055D01*
X167334115Y-88218323D01*
X167354845Y-88233698D01*
X167373969Y-88251031D01*
X167391302Y-88270155D01*
X167406677Y-88290885D01*
X167419945Y-88313023D01*
X167430980Y-88336354D01*
X167439675Y-88360655D01*
X167445947Y-88385691D01*
X167449734Y-88411221D01*
X167451000Y-88437000D01*
X167451000Y-88963000D01*
X167449734Y-88988779D01*
X167445947Y-89014309D01*
X167439675Y-89039345D01*
X167430980Y-89063646D01*
X167419945Y-89086977D01*
X167406677Y-89109115D01*
X167391302Y-89129845D01*
X167373969Y-89148969D01*
X167354845Y-89166302D01*
X167334115Y-89181677D01*
X167311977Y-89194945D01*
X167288646Y-89205980D01*
X167264345Y-89214675D01*
X167239309Y-89220947D01*
X167213779Y-89224734D01*
X167188000Y-89226000D01*
X166562000Y-89226000D01*
X166536221Y-89224734D01*
X166510691Y-89220947D01*
X166485655Y-89214675D01*
X166461354Y-89205980D01*
X166438023Y-89194945D01*
X166415885Y-89181677D01*
X166395155Y-89166302D01*
X166376031Y-89148969D01*
X166358698Y-89129845D01*
X166343323Y-89109115D01*
X166330055Y-89086977D01*
X166319020Y-89063646D01*
X166310325Y-89039345D01*
X166304053Y-89014309D01*
X166300266Y-88988779D01*
X166299000Y-88963000D01*
X166299000Y-88437000D01*
X166300266Y-88411221D01*
X166304053Y-88385691D01*
X166310325Y-88360655D01*
X166319020Y-88336354D01*
X166330055Y-88313023D01*
X166343323Y-88290885D01*
X166358698Y-88270155D01*
X166376031Y-88251031D01*
X166395155Y-88233698D01*
X166415885Y-88218323D01*
X166438023Y-88205055D01*
X166461354Y-88194020D01*
X166485655Y-88185325D01*
X166510691Y-88179053D01*
X166536221Y-88175266D01*
X166562000Y-88174000D01*
X167188000Y-88174000D01*
X167213779Y-88175266D01*
G37*
G36*
X165463779Y-88175266D02*
G01*
X165489309Y-88179053D01*
X165514345Y-88185325D01*
X165538646Y-88194020D01*
X165561977Y-88205055D01*
X165584115Y-88218323D01*
X165604845Y-88233698D01*
X165623969Y-88251031D01*
X165641302Y-88270155D01*
X165656677Y-88290885D01*
X165669945Y-88313023D01*
X165680980Y-88336354D01*
X165689675Y-88360655D01*
X165695947Y-88385691D01*
X165699734Y-88411221D01*
X165701000Y-88437000D01*
X165701000Y-88963000D01*
X165699734Y-88988779D01*
X165695947Y-89014309D01*
X165689675Y-89039345D01*
X165680980Y-89063646D01*
X165669945Y-89086977D01*
X165656677Y-89109115D01*
X165641302Y-89129845D01*
X165623969Y-89148969D01*
X165604845Y-89166302D01*
X165584115Y-89181677D01*
X165561977Y-89194945D01*
X165538646Y-89205980D01*
X165514345Y-89214675D01*
X165489309Y-89220947D01*
X165463779Y-89224734D01*
X165438000Y-89226000D01*
X164812000Y-89226000D01*
X164786221Y-89224734D01*
X164760691Y-89220947D01*
X164735655Y-89214675D01*
X164711354Y-89205980D01*
X164688023Y-89194945D01*
X164665885Y-89181677D01*
X164645155Y-89166302D01*
X164626031Y-89148969D01*
X164608698Y-89129845D01*
X164593323Y-89109115D01*
X164580055Y-89086977D01*
X164569020Y-89063646D01*
X164560325Y-89039345D01*
X164554053Y-89014309D01*
X164550266Y-88988779D01*
X164549000Y-88963000D01*
X164549000Y-88437000D01*
X164550266Y-88411221D01*
X164554053Y-88385691D01*
X164560325Y-88360655D01*
X164569020Y-88336354D01*
X164580055Y-88313023D01*
X164593323Y-88290885D01*
X164608698Y-88270155D01*
X164626031Y-88251031D01*
X164645155Y-88233698D01*
X164665885Y-88218323D01*
X164688023Y-88205055D01*
X164711354Y-88194020D01*
X164735655Y-88185325D01*
X164760691Y-88179053D01*
X164786221Y-88175266D01*
X164812000Y-88174000D01*
X165438000Y-88174000D01*
X165463779Y-88175266D01*
G37*
D25*
X147000000Y-70500000D03*
X148000000Y-70500000D03*
X149000000Y-70500000D03*
X150000000Y-70500000D03*
X151000000Y-70500000D03*
X152000000Y-70500000D03*
X153000000Y-70500000D03*
X154000000Y-70500000D03*
X155000000Y-70500000D03*
X156000000Y-70500000D03*
X157000000Y-70500000D03*
X158000000Y-70500000D03*
X159000000Y-70500000D03*
X160000000Y-70500000D03*
X161000000Y-70500000D03*
X162000000Y-70500000D03*
X163000000Y-70500000D03*
X164000000Y-70500000D03*
X165000000Y-70500000D03*
X166000000Y-70500000D03*
X167000000Y-70500000D03*
X168000000Y-70500000D03*
X169000000Y-70500000D03*
D26*
X189000000Y-71050000D03*
D25*
X188000000Y-70500000D03*
X187000000Y-70500000D03*
X186000000Y-70500000D03*
X185000000Y-70500000D03*
X184000000Y-70500000D03*
X183000000Y-70500000D03*
X182000000Y-70500000D03*
X181000000Y-70500000D03*
X180000000Y-70500000D03*
X179000000Y-70500000D03*
X174000000Y-70500000D03*
X173000000Y-70500000D03*
X172000000Y-70500000D03*
X171000000Y-70500000D03*
X170000000Y-70500000D03*
X176000000Y-70500000D03*
X175000000Y-70500000D03*
X146000000Y-70500000D03*
X145000000Y-70500000D03*
X144000000Y-70500000D03*
X143000000Y-70500000D03*
X142000000Y-70500000D03*
X141000000Y-70500000D03*
X140000000Y-70500000D03*
X139000000Y-70500000D03*
X138000000Y-70500000D03*
X137000000Y-70500000D03*
X136000000Y-70500000D03*
X135000000Y-70500000D03*
X134000000Y-70500000D03*
X133000000Y-70500000D03*
X132000000Y-70500000D03*
X131000000Y-70500000D03*
X130000000Y-70500000D03*
X129000000Y-70500000D03*
X128000000Y-70500000D03*
X127000000Y-70500000D03*
X126000000Y-70500000D03*
X125000000Y-70500000D03*
X124000000Y-70500000D03*
X123000000Y-70500000D03*
X122000000Y-70500000D03*
X121000000Y-70500000D03*
X120000000Y-70500000D03*
X119000000Y-70500000D03*
X118000000Y-70500000D03*
X117000000Y-70500000D03*
X116000000Y-70500000D03*
X115000000Y-70500000D03*
X114000000Y-70500000D03*
X113000000Y-70500000D03*
X112000000Y-70500000D03*
X111000000Y-70500000D03*
X110000000Y-70500000D03*
X109000000Y-70500000D03*
X108000000Y-70500000D03*
X107000000Y-70500000D03*
X106000000Y-70500000D03*
D22*
X135000000Y-115000000D03*
X137540000Y-115000000D03*
D23*
X140080000Y-115000000D03*
D22*
X120040000Y-115000000D03*
X122580000Y-115000000D03*
X125120000Y-115000000D03*
X127660000Y-115000000D03*
D23*
X130200000Y-115000000D03*
D21*
X115810000Y-114450000D03*
X113270000Y-114450000D03*
X110730000Y-114450000D03*
X108190000Y-114450000D03*
X108190000Y-123550000D03*
X110730000Y-123550000D03*
X113270000Y-123550000D03*
X115810000Y-123550000D03*
D13*
G36*
X117217702Y-144919845D02*
G01*
X117234738Y-144922372D01*
X117251445Y-144926557D01*
X117267661Y-144932359D01*
X117283230Y-144939723D01*
X117298003Y-144948577D01*
X117311836Y-144958837D01*
X117324597Y-144970403D01*
X117336163Y-144983164D01*
X117346423Y-144996997D01*
X117355277Y-145011770D01*
X117362641Y-145027339D01*
X117368443Y-145043555D01*
X117372628Y-145060262D01*
X117375155Y-145077298D01*
X117376000Y-145094500D01*
X117376000Y-145445500D01*
X117375155Y-145462702D01*
X117372628Y-145479738D01*
X117368443Y-145496445D01*
X117362641Y-145512661D01*
X117355277Y-145528230D01*
X117346423Y-145543003D01*
X117336163Y-145556836D01*
X117324597Y-145569597D01*
X117311836Y-145581163D01*
X117298003Y-145591423D01*
X117283230Y-145600277D01*
X117267661Y-145607641D01*
X117251445Y-145613443D01*
X117234738Y-145617628D01*
X117217702Y-145620155D01*
X117200500Y-145621000D01*
X115499500Y-145621000D01*
X115482298Y-145620155D01*
X115465262Y-145617628D01*
X115448555Y-145613443D01*
X115432339Y-145607641D01*
X115416770Y-145600277D01*
X115401997Y-145591423D01*
X115388164Y-145581163D01*
X115375403Y-145569597D01*
X115363837Y-145556836D01*
X115353577Y-145543003D01*
X115344723Y-145528230D01*
X115337359Y-145512661D01*
X115331557Y-145496445D01*
X115327372Y-145479738D01*
X115324845Y-145462702D01*
X115324000Y-145445500D01*
X115324000Y-145094500D01*
X115324845Y-145077298D01*
X115327372Y-145060262D01*
X115331557Y-145043555D01*
X115337359Y-145027339D01*
X115344723Y-145011770D01*
X115353577Y-144996997D01*
X115363837Y-144983164D01*
X115375403Y-144970403D01*
X115388164Y-144958837D01*
X115401997Y-144948577D01*
X115416770Y-144939723D01*
X115432339Y-144932359D01*
X115448555Y-144926557D01*
X115465262Y-144922372D01*
X115482298Y-144919845D01*
X115499500Y-144919000D01*
X117200500Y-144919000D01*
X117217702Y-144919845D01*
G37*
G36*
X117217702Y-143649845D02*
G01*
X117234738Y-143652372D01*
X117251445Y-143656557D01*
X117267661Y-143662359D01*
X117283230Y-143669723D01*
X117298003Y-143678577D01*
X117311836Y-143688837D01*
X117324597Y-143700403D01*
X117336163Y-143713164D01*
X117346423Y-143726997D01*
X117355277Y-143741770D01*
X117362641Y-143757339D01*
X117368443Y-143773555D01*
X117372628Y-143790262D01*
X117375155Y-143807298D01*
X117376000Y-143824500D01*
X117376000Y-144175500D01*
X117375155Y-144192702D01*
X117372628Y-144209738D01*
X117368443Y-144226445D01*
X117362641Y-144242661D01*
X117355277Y-144258230D01*
X117346423Y-144273003D01*
X117336163Y-144286836D01*
X117324597Y-144299597D01*
X117311836Y-144311163D01*
X117298003Y-144321423D01*
X117283230Y-144330277D01*
X117267661Y-144337641D01*
X117251445Y-144343443D01*
X117234738Y-144347628D01*
X117217702Y-144350155D01*
X117200500Y-144351000D01*
X115499500Y-144351000D01*
X115482298Y-144350155D01*
X115465262Y-144347628D01*
X115448555Y-144343443D01*
X115432339Y-144337641D01*
X115416770Y-144330277D01*
X115401997Y-144321423D01*
X115388164Y-144311163D01*
X115375403Y-144299597D01*
X115363837Y-144286836D01*
X115353577Y-144273003D01*
X115344723Y-144258230D01*
X115337359Y-144242661D01*
X115331557Y-144226445D01*
X115327372Y-144209738D01*
X115324845Y-144192702D01*
X115324000Y-144175500D01*
X115324000Y-143824500D01*
X115324845Y-143807298D01*
X115327372Y-143790262D01*
X115331557Y-143773555D01*
X115337359Y-143757339D01*
X115344723Y-143741770D01*
X115353577Y-143726997D01*
X115363837Y-143713164D01*
X115375403Y-143700403D01*
X115388164Y-143688837D01*
X115401997Y-143678577D01*
X115416770Y-143669723D01*
X115432339Y-143662359D01*
X115448555Y-143656557D01*
X115465262Y-143652372D01*
X115482298Y-143649845D01*
X115499500Y-143649000D01*
X117200500Y-143649000D01*
X117217702Y-143649845D01*
G37*
G36*
X117217702Y-142379845D02*
G01*
X117234738Y-142382372D01*
X117251445Y-142386557D01*
X117267661Y-142392359D01*
X117283230Y-142399723D01*
X117298003Y-142408577D01*
X117311836Y-142418837D01*
X117324597Y-142430403D01*
X117336163Y-142443164D01*
X117346423Y-142456997D01*
X117355277Y-142471770D01*
X117362641Y-142487339D01*
X117368443Y-142503555D01*
X117372628Y-142520262D01*
X117375155Y-142537298D01*
X117376000Y-142554500D01*
X117376000Y-142905500D01*
X117375155Y-142922702D01*
X117372628Y-142939738D01*
X117368443Y-142956445D01*
X117362641Y-142972661D01*
X117355277Y-142988230D01*
X117346423Y-143003003D01*
X117336163Y-143016836D01*
X117324597Y-143029597D01*
X117311836Y-143041163D01*
X117298003Y-143051423D01*
X117283230Y-143060277D01*
X117267661Y-143067641D01*
X117251445Y-143073443D01*
X117234738Y-143077628D01*
X117217702Y-143080155D01*
X117200500Y-143081000D01*
X115499500Y-143081000D01*
X115482298Y-143080155D01*
X115465262Y-143077628D01*
X115448555Y-143073443D01*
X115432339Y-143067641D01*
X115416770Y-143060277D01*
X115401997Y-143051423D01*
X115388164Y-143041163D01*
X115375403Y-143029597D01*
X115363837Y-143016836D01*
X115353577Y-143003003D01*
X115344723Y-142988230D01*
X115337359Y-142972661D01*
X115331557Y-142956445D01*
X115327372Y-142939738D01*
X115324845Y-142922702D01*
X115324000Y-142905500D01*
X115324000Y-142554500D01*
X115324845Y-142537298D01*
X115327372Y-142520262D01*
X115331557Y-142503555D01*
X115337359Y-142487339D01*
X115344723Y-142471770D01*
X115353577Y-142456997D01*
X115363837Y-142443164D01*
X115375403Y-142430403D01*
X115388164Y-142418837D01*
X115401997Y-142408577D01*
X115416770Y-142399723D01*
X115432339Y-142392359D01*
X115448555Y-142386557D01*
X115465262Y-142382372D01*
X115482298Y-142379845D01*
X115499500Y-142379000D01*
X117200500Y-142379000D01*
X117217702Y-142379845D01*
G37*
G36*
X117217702Y-141109845D02*
G01*
X117234738Y-141112372D01*
X117251445Y-141116557D01*
X117267661Y-141122359D01*
X117283230Y-141129723D01*
X117298003Y-141138577D01*
X117311836Y-141148837D01*
X117324597Y-141160403D01*
X117336163Y-141173164D01*
X117346423Y-141186997D01*
X117355277Y-141201770D01*
X117362641Y-141217339D01*
X117368443Y-141233555D01*
X117372628Y-141250262D01*
X117375155Y-141267298D01*
X117376000Y-141284500D01*
X117376000Y-141635500D01*
X117375155Y-141652702D01*
X117372628Y-141669738D01*
X117368443Y-141686445D01*
X117362641Y-141702661D01*
X117355277Y-141718230D01*
X117346423Y-141733003D01*
X117336163Y-141746836D01*
X117324597Y-141759597D01*
X117311836Y-141771163D01*
X117298003Y-141781423D01*
X117283230Y-141790277D01*
X117267661Y-141797641D01*
X117251445Y-141803443D01*
X117234738Y-141807628D01*
X117217702Y-141810155D01*
X117200500Y-141811000D01*
X115499500Y-141811000D01*
X115482298Y-141810155D01*
X115465262Y-141807628D01*
X115448555Y-141803443D01*
X115432339Y-141797641D01*
X115416770Y-141790277D01*
X115401997Y-141781423D01*
X115388164Y-141771163D01*
X115375403Y-141759597D01*
X115363837Y-141746836D01*
X115353577Y-141733003D01*
X115344723Y-141718230D01*
X115337359Y-141702661D01*
X115331557Y-141686445D01*
X115327372Y-141669738D01*
X115324845Y-141652702D01*
X115324000Y-141635500D01*
X115324000Y-141284500D01*
X115324845Y-141267298D01*
X115327372Y-141250262D01*
X115331557Y-141233555D01*
X115337359Y-141217339D01*
X115344723Y-141201770D01*
X115353577Y-141186997D01*
X115363837Y-141173164D01*
X115375403Y-141160403D01*
X115388164Y-141148837D01*
X115401997Y-141138577D01*
X115416770Y-141129723D01*
X115432339Y-141122359D01*
X115448555Y-141116557D01*
X115465262Y-141112372D01*
X115482298Y-141109845D01*
X115499500Y-141109000D01*
X117200500Y-141109000D01*
X117217702Y-141109845D01*
G37*
G36*
X112267702Y-141109845D02*
G01*
X112284738Y-141112372D01*
X112301445Y-141116557D01*
X112317661Y-141122359D01*
X112333230Y-141129723D01*
X112348003Y-141138577D01*
X112361836Y-141148837D01*
X112374597Y-141160403D01*
X112386163Y-141173164D01*
X112396423Y-141186997D01*
X112405277Y-141201770D01*
X112412641Y-141217339D01*
X112418443Y-141233555D01*
X112422628Y-141250262D01*
X112425155Y-141267298D01*
X112426000Y-141284500D01*
X112426000Y-141635500D01*
X112425155Y-141652702D01*
X112422628Y-141669738D01*
X112418443Y-141686445D01*
X112412641Y-141702661D01*
X112405277Y-141718230D01*
X112396423Y-141733003D01*
X112386163Y-141746836D01*
X112374597Y-141759597D01*
X112361836Y-141771163D01*
X112348003Y-141781423D01*
X112333230Y-141790277D01*
X112317661Y-141797641D01*
X112301445Y-141803443D01*
X112284738Y-141807628D01*
X112267702Y-141810155D01*
X112250500Y-141811000D01*
X110549500Y-141811000D01*
X110532298Y-141810155D01*
X110515262Y-141807628D01*
X110498555Y-141803443D01*
X110482339Y-141797641D01*
X110466770Y-141790277D01*
X110451997Y-141781423D01*
X110438164Y-141771163D01*
X110425403Y-141759597D01*
X110413837Y-141746836D01*
X110403577Y-141733003D01*
X110394723Y-141718230D01*
X110387359Y-141702661D01*
X110381557Y-141686445D01*
X110377372Y-141669738D01*
X110374845Y-141652702D01*
X110374000Y-141635500D01*
X110374000Y-141284500D01*
X110374845Y-141267298D01*
X110377372Y-141250262D01*
X110381557Y-141233555D01*
X110387359Y-141217339D01*
X110394723Y-141201770D01*
X110403577Y-141186997D01*
X110413837Y-141173164D01*
X110425403Y-141160403D01*
X110438164Y-141148837D01*
X110451997Y-141138577D01*
X110466770Y-141129723D01*
X110482339Y-141122359D01*
X110498555Y-141116557D01*
X110515262Y-141112372D01*
X110532298Y-141109845D01*
X110549500Y-141109000D01*
X112250500Y-141109000D01*
X112267702Y-141109845D01*
G37*
G36*
X112267702Y-142379845D02*
G01*
X112284738Y-142382372D01*
X112301445Y-142386557D01*
X112317661Y-142392359D01*
X112333230Y-142399723D01*
X112348003Y-142408577D01*
X112361836Y-142418837D01*
X112374597Y-142430403D01*
X112386163Y-142443164D01*
X112396423Y-142456997D01*
X112405277Y-142471770D01*
X112412641Y-142487339D01*
X112418443Y-142503555D01*
X112422628Y-142520262D01*
X112425155Y-142537298D01*
X112426000Y-142554500D01*
X112426000Y-142905500D01*
X112425155Y-142922702D01*
X112422628Y-142939738D01*
X112418443Y-142956445D01*
X112412641Y-142972661D01*
X112405277Y-142988230D01*
X112396423Y-143003003D01*
X112386163Y-143016836D01*
X112374597Y-143029597D01*
X112361836Y-143041163D01*
X112348003Y-143051423D01*
X112333230Y-143060277D01*
X112317661Y-143067641D01*
X112301445Y-143073443D01*
X112284738Y-143077628D01*
X112267702Y-143080155D01*
X112250500Y-143081000D01*
X110549500Y-143081000D01*
X110532298Y-143080155D01*
X110515262Y-143077628D01*
X110498555Y-143073443D01*
X110482339Y-143067641D01*
X110466770Y-143060277D01*
X110451997Y-143051423D01*
X110438164Y-143041163D01*
X110425403Y-143029597D01*
X110413837Y-143016836D01*
X110403577Y-143003003D01*
X110394723Y-142988230D01*
X110387359Y-142972661D01*
X110381557Y-142956445D01*
X110377372Y-142939738D01*
X110374845Y-142922702D01*
X110374000Y-142905500D01*
X110374000Y-142554500D01*
X110374845Y-142537298D01*
X110377372Y-142520262D01*
X110381557Y-142503555D01*
X110387359Y-142487339D01*
X110394723Y-142471770D01*
X110403577Y-142456997D01*
X110413837Y-142443164D01*
X110425403Y-142430403D01*
X110438164Y-142418837D01*
X110451997Y-142408577D01*
X110466770Y-142399723D01*
X110482339Y-142392359D01*
X110498555Y-142386557D01*
X110515262Y-142382372D01*
X110532298Y-142379845D01*
X110549500Y-142379000D01*
X112250500Y-142379000D01*
X112267702Y-142379845D01*
G37*
G36*
X112267702Y-143649845D02*
G01*
X112284738Y-143652372D01*
X112301445Y-143656557D01*
X112317661Y-143662359D01*
X112333230Y-143669723D01*
X112348003Y-143678577D01*
X112361836Y-143688837D01*
X112374597Y-143700403D01*
X112386163Y-143713164D01*
X112396423Y-143726997D01*
X112405277Y-143741770D01*
X112412641Y-143757339D01*
X112418443Y-143773555D01*
X112422628Y-143790262D01*
X112425155Y-143807298D01*
X112426000Y-143824500D01*
X112426000Y-144175500D01*
X112425155Y-144192702D01*
X112422628Y-144209738D01*
X112418443Y-144226445D01*
X112412641Y-144242661D01*
X112405277Y-144258230D01*
X112396423Y-144273003D01*
X112386163Y-144286836D01*
X112374597Y-144299597D01*
X112361836Y-144311163D01*
X112348003Y-144321423D01*
X112333230Y-144330277D01*
X112317661Y-144337641D01*
X112301445Y-144343443D01*
X112284738Y-144347628D01*
X112267702Y-144350155D01*
X112250500Y-144351000D01*
X110549500Y-144351000D01*
X110532298Y-144350155D01*
X110515262Y-144347628D01*
X110498555Y-144343443D01*
X110482339Y-144337641D01*
X110466770Y-144330277D01*
X110451997Y-144321423D01*
X110438164Y-144311163D01*
X110425403Y-144299597D01*
X110413837Y-144286836D01*
X110403577Y-144273003D01*
X110394723Y-144258230D01*
X110387359Y-144242661D01*
X110381557Y-144226445D01*
X110377372Y-144209738D01*
X110374845Y-144192702D01*
X110374000Y-144175500D01*
X110374000Y-143824500D01*
X110374845Y-143807298D01*
X110377372Y-143790262D01*
X110381557Y-143773555D01*
X110387359Y-143757339D01*
X110394723Y-143741770D01*
X110403577Y-143726997D01*
X110413837Y-143713164D01*
X110425403Y-143700403D01*
X110438164Y-143688837D01*
X110451997Y-143678577D01*
X110466770Y-143669723D01*
X110482339Y-143662359D01*
X110498555Y-143656557D01*
X110515262Y-143652372D01*
X110532298Y-143649845D01*
X110549500Y-143649000D01*
X112250500Y-143649000D01*
X112267702Y-143649845D01*
G37*
G36*
X112267702Y-144919845D02*
G01*
X112284738Y-144922372D01*
X112301445Y-144926557D01*
X112317661Y-144932359D01*
X112333230Y-144939723D01*
X112348003Y-144948577D01*
X112361836Y-144958837D01*
X112374597Y-144970403D01*
X112386163Y-144983164D01*
X112396423Y-144996997D01*
X112405277Y-145011770D01*
X112412641Y-145027339D01*
X112418443Y-145043555D01*
X112422628Y-145060262D01*
X112425155Y-145077298D01*
X112426000Y-145094500D01*
X112426000Y-145445500D01*
X112425155Y-145462702D01*
X112422628Y-145479738D01*
X112418443Y-145496445D01*
X112412641Y-145512661D01*
X112405277Y-145528230D01*
X112396423Y-145543003D01*
X112386163Y-145556836D01*
X112374597Y-145569597D01*
X112361836Y-145581163D01*
X112348003Y-145591423D01*
X112333230Y-145600277D01*
X112317661Y-145607641D01*
X112301445Y-145613443D01*
X112284738Y-145617628D01*
X112267702Y-145620155D01*
X112250500Y-145621000D01*
X110549500Y-145621000D01*
X110532298Y-145620155D01*
X110515262Y-145617628D01*
X110498555Y-145613443D01*
X110482339Y-145607641D01*
X110466770Y-145600277D01*
X110451997Y-145591423D01*
X110438164Y-145581163D01*
X110425403Y-145569597D01*
X110413837Y-145556836D01*
X110403577Y-145543003D01*
X110394723Y-145528230D01*
X110387359Y-145512661D01*
X110381557Y-145496445D01*
X110377372Y-145479738D01*
X110374845Y-145462702D01*
X110374000Y-145445500D01*
X110374000Y-145094500D01*
X110374845Y-145077298D01*
X110377372Y-145060262D01*
X110381557Y-145043555D01*
X110387359Y-145027339D01*
X110394723Y-145011770D01*
X110403577Y-144996997D01*
X110413837Y-144983164D01*
X110425403Y-144970403D01*
X110438164Y-144958837D01*
X110451997Y-144948577D01*
X110466770Y-144939723D01*
X110482339Y-144932359D01*
X110498555Y-144926557D01*
X110515262Y-144922372D01*
X110532298Y-144919845D01*
X110549500Y-144919000D01*
X112250500Y-144919000D01*
X112267702Y-144919845D01*
G37*
D17*
X181000000Y-122650000D03*
X181000000Y-136150000D03*
D18*
X175000000Y-125800000D03*
X175000000Y-133000000D03*
D19*
X159000000Y-117250000D03*
X156460000Y-119790000D03*
D20*
X153920000Y-117250000D03*
D19*
X159080000Y-141750000D03*
X156540000Y-139210000D03*
D20*
X154000000Y-141750000D03*
X175000000Y-142000000D03*
D19*
X177540000Y-139460000D03*
X180080000Y-142000000D03*
X180080000Y-117000000D03*
X177540000Y-119540000D03*
D20*
X175000000Y-117000000D03*
D13*
G36*
X120505505Y-142737811D02*
G01*
X120531925Y-142741730D01*
X120557835Y-142748220D01*
X120582983Y-142757218D01*
X120607128Y-142768638D01*
X120630038Y-142782369D01*
X120651492Y-142798280D01*
X120671282Y-142816218D01*
X120689220Y-142836008D01*
X120705131Y-142857462D01*
X120718862Y-142880372D01*
X120730282Y-142904517D01*
X120739280Y-142929665D01*
X120745770Y-142955575D01*
X120749689Y-142981995D01*
X120751000Y-143008673D01*
X120751000Y-143716327D01*
X120749689Y-143743005D01*
X120745770Y-143769425D01*
X120739280Y-143795335D01*
X120730282Y-143820483D01*
X120718862Y-143844628D01*
X120705131Y-143867538D01*
X120689220Y-143888992D01*
X120671282Y-143908782D01*
X120651492Y-143926720D01*
X120630038Y-143942631D01*
X120607128Y-143956362D01*
X120582983Y-143967782D01*
X120557835Y-143976780D01*
X120531925Y-143983270D01*
X120505505Y-143987189D01*
X120478827Y-143988500D01*
X119521173Y-143988500D01*
X119494495Y-143987189D01*
X119468075Y-143983270D01*
X119442165Y-143976780D01*
X119417017Y-143967782D01*
X119392872Y-143956362D01*
X119369962Y-143942631D01*
X119348508Y-143926720D01*
X119328718Y-143908782D01*
X119310780Y-143888992D01*
X119294869Y-143867538D01*
X119281138Y-143844628D01*
X119269718Y-143820483D01*
X119260720Y-143795335D01*
X119254230Y-143769425D01*
X119250311Y-143743005D01*
X119249000Y-143716327D01*
X119249000Y-143008673D01*
X119250311Y-142981995D01*
X119254230Y-142955575D01*
X119260720Y-142929665D01*
X119269718Y-142904517D01*
X119281138Y-142880372D01*
X119294869Y-142857462D01*
X119310780Y-142836008D01*
X119328718Y-142816218D01*
X119348508Y-142798280D01*
X119369962Y-142782369D01*
X119392872Y-142768638D01*
X119417017Y-142757218D01*
X119442165Y-142748220D01*
X119468075Y-142741730D01*
X119494495Y-142737811D01*
X119521173Y-142736500D01*
X120478827Y-142736500D01*
X120505505Y-142737811D01*
G37*
G36*
X120505505Y-140687811D02*
G01*
X120531925Y-140691730D01*
X120557835Y-140698220D01*
X120582983Y-140707218D01*
X120607128Y-140718638D01*
X120630038Y-140732369D01*
X120651492Y-140748280D01*
X120671282Y-140766218D01*
X120689220Y-140786008D01*
X120705131Y-140807462D01*
X120718862Y-140830372D01*
X120730282Y-140854517D01*
X120739280Y-140879665D01*
X120745770Y-140905575D01*
X120749689Y-140931995D01*
X120751000Y-140958673D01*
X120751000Y-141666327D01*
X120749689Y-141693005D01*
X120745770Y-141719425D01*
X120739280Y-141745335D01*
X120730282Y-141770483D01*
X120718862Y-141794628D01*
X120705131Y-141817538D01*
X120689220Y-141838992D01*
X120671282Y-141858782D01*
X120651492Y-141876720D01*
X120630038Y-141892631D01*
X120607128Y-141906362D01*
X120582983Y-141917782D01*
X120557835Y-141926780D01*
X120531925Y-141933270D01*
X120505505Y-141937189D01*
X120478827Y-141938500D01*
X119521173Y-141938500D01*
X119494495Y-141937189D01*
X119468075Y-141933270D01*
X119442165Y-141926780D01*
X119417017Y-141917782D01*
X119392872Y-141906362D01*
X119369962Y-141892631D01*
X119348508Y-141876720D01*
X119328718Y-141858782D01*
X119310780Y-141838992D01*
X119294869Y-141817538D01*
X119281138Y-141794628D01*
X119269718Y-141770483D01*
X119260720Y-141745335D01*
X119254230Y-141719425D01*
X119250311Y-141693005D01*
X119249000Y-141666327D01*
X119249000Y-140958673D01*
X119250311Y-140931995D01*
X119254230Y-140905575D01*
X119260720Y-140879665D01*
X119269718Y-140854517D01*
X119281138Y-140830372D01*
X119294869Y-140807462D01*
X119310780Y-140786008D01*
X119328718Y-140766218D01*
X119348508Y-140748280D01*
X119369962Y-140732369D01*
X119392872Y-140718638D01*
X119417017Y-140707218D01*
X119442165Y-140698220D01*
X119468075Y-140691730D01*
X119494495Y-140687811D01*
X119521173Y-140686500D01*
X120478827Y-140686500D01*
X120505505Y-140687811D01*
G37*
G36*
X106618005Y-142050311D02*
G01*
X106644425Y-142054230D01*
X106670335Y-142060720D01*
X106695483Y-142069718D01*
X106719628Y-142081138D01*
X106742538Y-142094869D01*
X106763992Y-142110780D01*
X106783782Y-142128718D01*
X106801720Y-142148508D01*
X106817631Y-142169962D01*
X106831362Y-142192872D01*
X106842782Y-142217017D01*
X106851780Y-142242165D01*
X106858270Y-142268075D01*
X106862189Y-142294495D01*
X106863500Y-142321173D01*
X106863500Y-143278827D01*
X106862189Y-143305505D01*
X106858270Y-143331925D01*
X106851780Y-143357835D01*
X106842782Y-143382983D01*
X106831362Y-143407128D01*
X106817631Y-143430038D01*
X106801720Y-143451492D01*
X106783782Y-143471282D01*
X106763992Y-143489220D01*
X106742538Y-143505131D01*
X106719628Y-143518862D01*
X106695483Y-143530282D01*
X106670335Y-143539280D01*
X106644425Y-143545770D01*
X106618005Y-143549689D01*
X106591327Y-143551000D01*
X105883673Y-143551000D01*
X105856995Y-143549689D01*
X105830575Y-143545770D01*
X105804665Y-143539280D01*
X105779517Y-143530282D01*
X105755372Y-143518862D01*
X105732462Y-143505131D01*
X105711008Y-143489220D01*
X105691218Y-143471282D01*
X105673280Y-143451492D01*
X105657369Y-143430038D01*
X105643638Y-143407128D01*
X105632218Y-143382983D01*
X105623220Y-143357835D01*
X105616730Y-143331925D01*
X105612811Y-143305505D01*
X105611500Y-143278827D01*
X105611500Y-142321173D01*
X105612811Y-142294495D01*
X105616730Y-142268075D01*
X105623220Y-142242165D01*
X105632218Y-142217017D01*
X105643638Y-142192872D01*
X105657369Y-142169962D01*
X105673280Y-142148508D01*
X105691218Y-142128718D01*
X105711008Y-142110780D01*
X105732462Y-142094869D01*
X105755372Y-142081138D01*
X105779517Y-142069718D01*
X105804665Y-142060720D01*
X105830575Y-142054230D01*
X105856995Y-142050311D01*
X105883673Y-142049000D01*
X106591327Y-142049000D01*
X106618005Y-142050311D01*
G37*
G36*
X108668005Y-142050311D02*
G01*
X108694425Y-142054230D01*
X108720335Y-142060720D01*
X108745483Y-142069718D01*
X108769628Y-142081138D01*
X108792538Y-142094869D01*
X108813992Y-142110780D01*
X108833782Y-142128718D01*
X108851720Y-142148508D01*
X108867631Y-142169962D01*
X108881362Y-142192872D01*
X108892782Y-142217017D01*
X108901780Y-142242165D01*
X108908270Y-142268075D01*
X108912189Y-142294495D01*
X108913500Y-142321173D01*
X108913500Y-143278827D01*
X108912189Y-143305505D01*
X108908270Y-143331925D01*
X108901780Y-143357835D01*
X108892782Y-143382983D01*
X108881362Y-143407128D01*
X108867631Y-143430038D01*
X108851720Y-143451492D01*
X108833782Y-143471282D01*
X108813992Y-143489220D01*
X108792538Y-143505131D01*
X108769628Y-143518862D01*
X108745483Y-143530282D01*
X108720335Y-143539280D01*
X108694425Y-143545770D01*
X108668005Y-143549689D01*
X108641327Y-143551000D01*
X107933673Y-143551000D01*
X107906995Y-143549689D01*
X107880575Y-143545770D01*
X107854665Y-143539280D01*
X107829517Y-143530282D01*
X107805372Y-143518862D01*
X107782462Y-143505131D01*
X107761008Y-143489220D01*
X107741218Y-143471282D01*
X107723280Y-143451492D01*
X107707369Y-143430038D01*
X107693638Y-143407128D01*
X107682218Y-143382983D01*
X107673220Y-143357835D01*
X107666730Y-143331925D01*
X107662811Y-143305505D01*
X107661500Y-143278827D01*
X107661500Y-142321173D01*
X107662811Y-142294495D01*
X107666730Y-142268075D01*
X107673220Y-142242165D01*
X107682218Y-142217017D01*
X107693638Y-142192872D01*
X107707369Y-142169962D01*
X107723280Y-142148508D01*
X107741218Y-142128718D01*
X107761008Y-142110780D01*
X107782462Y-142094869D01*
X107805372Y-142081138D01*
X107829517Y-142069718D01*
X107854665Y-142060720D01*
X107880575Y-142054230D01*
X107906995Y-142050311D01*
X107933673Y-142049000D01*
X108641327Y-142049000D01*
X108668005Y-142050311D01*
G37*
G36*
X128155505Y-125050311D02*
G01*
X128181925Y-125054230D01*
X128207835Y-125060720D01*
X128232983Y-125069718D01*
X128257128Y-125081138D01*
X128280038Y-125094869D01*
X128301492Y-125110780D01*
X128321282Y-125128718D01*
X128339220Y-125148508D01*
X128355131Y-125169962D01*
X128368862Y-125192872D01*
X128380282Y-125217017D01*
X128389280Y-125242165D01*
X128395770Y-125268075D01*
X128399689Y-125294495D01*
X128401000Y-125321173D01*
X128401000Y-126278827D01*
X128399689Y-126305505D01*
X128395770Y-126331925D01*
X128389280Y-126357835D01*
X128380282Y-126382983D01*
X128368862Y-126407128D01*
X128355131Y-126430038D01*
X128339220Y-126451492D01*
X128321282Y-126471282D01*
X128301492Y-126489220D01*
X128280038Y-126505131D01*
X128257128Y-126518862D01*
X128232983Y-126530282D01*
X128207835Y-126539280D01*
X128181925Y-126545770D01*
X128155505Y-126549689D01*
X128128827Y-126551000D01*
X127421173Y-126551000D01*
X127394495Y-126549689D01*
X127368075Y-126545770D01*
X127342165Y-126539280D01*
X127317017Y-126530282D01*
X127292872Y-126518862D01*
X127269962Y-126505131D01*
X127248508Y-126489220D01*
X127228718Y-126471282D01*
X127210780Y-126451492D01*
X127194869Y-126430038D01*
X127181138Y-126407128D01*
X127169718Y-126382983D01*
X127160720Y-126357835D01*
X127154230Y-126331925D01*
X127150311Y-126305505D01*
X127149000Y-126278827D01*
X127149000Y-125321173D01*
X127150311Y-125294495D01*
X127154230Y-125268075D01*
X127160720Y-125242165D01*
X127169718Y-125217017D01*
X127181138Y-125192872D01*
X127194869Y-125169962D01*
X127210780Y-125148508D01*
X127228718Y-125128718D01*
X127248508Y-125110780D01*
X127269962Y-125094869D01*
X127292872Y-125081138D01*
X127317017Y-125069718D01*
X127342165Y-125060720D01*
X127368075Y-125054230D01*
X127394495Y-125050311D01*
X127421173Y-125049000D01*
X128128827Y-125049000D01*
X128155505Y-125050311D01*
G37*
G36*
X130205505Y-125050311D02*
G01*
X130231925Y-125054230D01*
X130257835Y-125060720D01*
X130282983Y-125069718D01*
X130307128Y-125081138D01*
X130330038Y-125094869D01*
X130351492Y-125110780D01*
X130371282Y-125128718D01*
X130389220Y-125148508D01*
X130405131Y-125169962D01*
X130418862Y-125192872D01*
X130430282Y-125217017D01*
X130439280Y-125242165D01*
X130445770Y-125268075D01*
X130449689Y-125294495D01*
X130451000Y-125321173D01*
X130451000Y-126278827D01*
X130449689Y-126305505D01*
X130445770Y-126331925D01*
X130439280Y-126357835D01*
X130430282Y-126382983D01*
X130418862Y-126407128D01*
X130405131Y-126430038D01*
X130389220Y-126451492D01*
X130371282Y-126471282D01*
X130351492Y-126489220D01*
X130330038Y-126505131D01*
X130307128Y-126518862D01*
X130282983Y-126530282D01*
X130257835Y-126539280D01*
X130231925Y-126545770D01*
X130205505Y-126549689D01*
X130178827Y-126551000D01*
X129471173Y-126551000D01*
X129444495Y-126549689D01*
X129418075Y-126545770D01*
X129392165Y-126539280D01*
X129367017Y-126530282D01*
X129342872Y-126518862D01*
X129319962Y-126505131D01*
X129298508Y-126489220D01*
X129278718Y-126471282D01*
X129260780Y-126451492D01*
X129244869Y-126430038D01*
X129231138Y-126407128D01*
X129219718Y-126382983D01*
X129210720Y-126357835D01*
X129204230Y-126331925D01*
X129200311Y-126305505D01*
X129199000Y-126278827D01*
X129199000Y-125321173D01*
X129200311Y-125294495D01*
X129204230Y-125268075D01*
X129210720Y-125242165D01*
X129219718Y-125217017D01*
X129231138Y-125192872D01*
X129244869Y-125169962D01*
X129260780Y-125148508D01*
X129278718Y-125128718D01*
X129298508Y-125110780D01*
X129319962Y-125094869D01*
X129342872Y-125081138D01*
X129367017Y-125069718D01*
X129392165Y-125060720D01*
X129418075Y-125054230D01*
X129444495Y-125050311D01*
X129471173Y-125049000D01*
X130178827Y-125049000D01*
X130205505Y-125050311D01*
G37*
G36*
X130213779Y-128475266D02*
G01*
X130239309Y-128479053D01*
X130264345Y-128485325D01*
X130288646Y-128494020D01*
X130311977Y-128505055D01*
X130334115Y-128518323D01*
X130354845Y-128533698D01*
X130373969Y-128551031D01*
X130391302Y-128570155D01*
X130406677Y-128590885D01*
X130419945Y-128613023D01*
X130430980Y-128636354D01*
X130439675Y-128660655D01*
X130445947Y-128685691D01*
X130449734Y-128711221D01*
X130451000Y-128737000D01*
X130451000Y-129263000D01*
X130449734Y-129288779D01*
X130445947Y-129314309D01*
X130439675Y-129339345D01*
X130430980Y-129363646D01*
X130419945Y-129386977D01*
X130406677Y-129409115D01*
X130391302Y-129429845D01*
X130373969Y-129448969D01*
X130354845Y-129466302D01*
X130334115Y-129481677D01*
X130311977Y-129494945D01*
X130288646Y-129505980D01*
X130264345Y-129514675D01*
X130239309Y-129520947D01*
X130213779Y-129524734D01*
X130188000Y-129526000D01*
X129562000Y-129526000D01*
X129536221Y-129524734D01*
X129510691Y-129520947D01*
X129485655Y-129514675D01*
X129461354Y-129505980D01*
X129438023Y-129494945D01*
X129415885Y-129481677D01*
X129395155Y-129466302D01*
X129376031Y-129448969D01*
X129358698Y-129429845D01*
X129343323Y-129409115D01*
X129330055Y-129386977D01*
X129319020Y-129363646D01*
X129310325Y-129339345D01*
X129304053Y-129314309D01*
X129300266Y-129288779D01*
X129299000Y-129263000D01*
X129299000Y-128737000D01*
X129300266Y-128711221D01*
X129304053Y-128685691D01*
X129310325Y-128660655D01*
X129319020Y-128636354D01*
X129330055Y-128613023D01*
X129343323Y-128590885D01*
X129358698Y-128570155D01*
X129376031Y-128551031D01*
X129395155Y-128533698D01*
X129415885Y-128518323D01*
X129438023Y-128505055D01*
X129461354Y-128494020D01*
X129485655Y-128485325D01*
X129510691Y-128479053D01*
X129536221Y-128475266D01*
X129562000Y-128474000D01*
X130188000Y-128474000D01*
X130213779Y-128475266D01*
G37*
G36*
X128463779Y-128475266D02*
G01*
X128489309Y-128479053D01*
X128514345Y-128485325D01*
X128538646Y-128494020D01*
X128561977Y-128505055D01*
X128584115Y-128518323D01*
X128604845Y-128533698D01*
X128623969Y-128551031D01*
X128641302Y-128570155D01*
X128656677Y-128590885D01*
X128669945Y-128613023D01*
X128680980Y-128636354D01*
X128689675Y-128660655D01*
X128695947Y-128685691D01*
X128699734Y-128711221D01*
X128701000Y-128737000D01*
X128701000Y-129263000D01*
X128699734Y-129288779D01*
X128695947Y-129314309D01*
X128689675Y-129339345D01*
X128680980Y-129363646D01*
X128669945Y-129386977D01*
X128656677Y-129409115D01*
X128641302Y-129429845D01*
X128623969Y-129448969D01*
X128604845Y-129466302D01*
X128584115Y-129481677D01*
X128561977Y-129494945D01*
X128538646Y-129505980D01*
X128514345Y-129514675D01*
X128489309Y-129520947D01*
X128463779Y-129524734D01*
X128438000Y-129526000D01*
X127812000Y-129526000D01*
X127786221Y-129524734D01*
X127760691Y-129520947D01*
X127735655Y-129514675D01*
X127711354Y-129505980D01*
X127688023Y-129494945D01*
X127665885Y-129481677D01*
X127645155Y-129466302D01*
X127626031Y-129448969D01*
X127608698Y-129429845D01*
X127593323Y-129409115D01*
X127580055Y-129386977D01*
X127569020Y-129363646D01*
X127560325Y-129339345D01*
X127554053Y-129314309D01*
X127550266Y-129288779D01*
X127549000Y-129263000D01*
X127549000Y-128737000D01*
X127550266Y-128711221D01*
X127554053Y-128685691D01*
X127560325Y-128660655D01*
X127569020Y-128636354D01*
X127580055Y-128613023D01*
X127593323Y-128590885D01*
X127608698Y-128570155D01*
X127626031Y-128551031D01*
X127645155Y-128533698D01*
X127665885Y-128518323D01*
X127688023Y-128505055D01*
X127711354Y-128494020D01*
X127735655Y-128485325D01*
X127760691Y-128479053D01*
X127786221Y-128475266D01*
X127812000Y-128474000D01*
X128438000Y-128474000D01*
X128463779Y-128475266D01*
G37*
G36*
X130226279Y-131275266D02*
G01*
X130251809Y-131279053D01*
X130276845Y-131285325D01*
X130301146Y-131294020D01*
X130324477Y-131305055D01*
X130346615Y-131318323D01*
X130367345Y-131333698D01*
X130386469Y-131351031D01*
X130403802Y-131370155D01*
X130419177Y-131390885D01*
X130432445Y-131413023D01*
X130443480Y-131436354D01*
X130452175Y-131460655D01*
X130458447Y-131485691D01*
X130462234Y-131511221D01*
X130463500Y-131537000D01*
X130463500Y-132063000D01*
X130462234Y-132088779D01*
X130458447Y-132114309D01*
X130452175Y-132139345D01*
X130443480Y-132163646D01*
X130432445Y-132186977D01*
X130419177Y-132209115D01*
X130403802Y-132229845D01*
X130386469Y-132248969D01*
X130367345Y-132266302D01*
X130346615Y-132281677D01*
X130324477Y-132294945D01*
X130301146Y-132305980D01*
X130276845Y-132314675D01*
X130251809Y-132320947D01*
X130226279Y-132324734D01*
X130200500Y-132326000D01*
X129574500Y-132326000D01*
X129548721Y-132324734D01*
X129523191Y-132320947D01*
X129498155Y-132314675D01*
X129473854Y-132305980D01*
X129450523Y-132294945D01*
X129428385Y-132281677D01*
X129407655Y-132266302D01*
X129388531Y-132248969D01*
X129371198Y-132229845D01*
X129355823Y-132209115D01*
X129342555Y-132186977D01*
X129331520Y-132163646D01*
X129322825Y-132139345D01*
X129316553Y-132114309D01*
X129312766Y-132088779D01*
X129311500Y-132063000D01*
X129311500Y-131537000D01*
X129312766Y-131511221D01*
X129316553Y-131485691D01*
X129322825Y-131460655D01*
X129331520Y-131436354D01*
X129342555Y-131413023D01*
X129355823Y-131390885D01*
X129371198Y-131370155D01*
X129388531Y-131351031D01*
X129407655Y-131333698D01*
X129428385Y-131318323D01*
X129450523Y-131305055D01*
X129473854Y-131294020D01*
X129498155Y-131285325D01*
X129523191Y-131279053D01*
X129548721Y-131275266D01*
X129574500Y-131274000D01*
X130200500Y-131274000D01*
X130226279Y-131275266D01*
G37*
G36*
X128476279Y-131275266D02*
G01*
X128501809Y-131279053D01*
X128526845Y-131285325D01*
X128551146Y-131294020D01*
X128574477Y-131305055D01*
X128596615Y-131318323D01*
X128617345Y-131333698D01*
X128636469Y-131351031D01*
X128653802Y-131370155D01*
X128669177Y-131390885D01*
X128682445Y-131413023D01*
X128693480Y-131436354D01*
X128702175Y-131460655D01*
X128708447Y-131485691D01*
X128712234Y-131511221D01*
X128713500Y-131537000D01*
X128713500Y-132063000D01*
X128712234Y-132088779D01*
X128708447Y-132114309D01*
X128702175Y-132139345D01*
X128693480Y-132163646D01*
X128682445Y-132186977D01*
X128669177Y-132209115D01*
X128653802Y-132229845D01*
X128636469Y-132248969D01*
X128617345Y-132266302D01*
X128596615Y-132281677D01*
X128574477Y-132294945D01*
X128551146Y-132305980D01*
X128526845Y-132314675D01*
X128501809Y-132320947D01*
X128476279Y-132324734D01*
X128450500Y-132326000D01*
X127824500Y-132326000D01*
X127798721Y-132324734D01*
X127773191Y-132320947D01*
X127748155Y-132314675D01*
X127723854Y-132305980D01*
X127700523Y-132294945D01*
X127678385Y-132281677D01*
X127657655Y-132266302D01*
X127638531Y-132248969D01*
X127621198Y-132229845D01*
X127605823Y-132209115D01*
X127592555Y-132186977D01*
X127581520Y-132163646D01*
X127572825Y-132139345D01*
X127566553Y-132114309D01*
X127562766Y-132088779D01*
X127561500Y-132063000D01*
X127561500Y-131537000D01*
X127562766Y-131511221D01*
X127566553Y-131485691D01*
X127572825Y-131460655D01*
X127581520Y-131436354D01*
X127592555Y-131413023D01*
X127605823Y-131390885D01*
X127621198Y-131370155D01*
X127638531Y-131351031D01*
X127657655Y-131333698D01*
X127678385Y-131318323D01*
X127700523Y-131305055D01*
X127723854Y-131294020D01*
X127748155Y-131285325D01*
X127773191Y-131279053D01*
X127798721Y-131275266D01*
X127824500Y-131274000D01*
X128450500Y-131274000D01*
X128476279Y-131275266D01*
G37*
G36*
X128463779Y-134275266D02*
G01*
X128489309Y-134279053D01*
X128514345Y-134285325D01*
X128538646Y-134294020D01*
X128561977Y-134305055D01*
X128584115Y-134318323D01*
X128604845Y-134333698D01*
X128623969Y-134351031D01*
X128641302Y-134370155D01*
X128656677Y-134390885D01*
X128669945Y-134413023D01*
X128680980Y-134436354D01*
X128689675Y-134460655D01*
X128695947Y-134485691D01*
X128699734Y-134511221D01*
X128701000Y-134537000D01*
X128701000Y-135063000D01*
X128699734Y-135088779D01*
X128695947Y-135114309D01*
X128689675Y-135139345D01*
X128680980Y-135163646D01*
X128669945Y-135186977D01*
X128656677Y-135209115D01*
X128641302Y-135229845D01*
X128623969Y-135248969D01*
X128604845Y-135266302D01*
X128584115Y-135281677D01*
X128561977Y-135294945D01*
X128538646Y-135305980D01*
X128514345Y-135314675D01*
X128489309Y-135320947D01*
X128463779Y-135324734D01*
X128438000Y-135326000D01*
X127812000Y-135326000D01*
X127786221Y-135324734D01*
X127760691Y-135320947D01*
X127735655Y-135314675D01*
X127711354Y-135305980D01*
X127688023Y-135294945D01*
X127665885Y-135281677D01*
X127645155Y-135266302D01*
X127626031Y-135248969D01*
X127608698Y-135229845D01*
X127593323Y-135209115D01*
X127580055Y-135186977D01*
X127569020Y-135163646D01*
X127560325Y-135139345D01*
X127554053Y-135114309D01*
X127550266Y-135088779D01*
X127549000Y-135063000D01*
X127549000Y-134537000D01*
X127550266Y-134511221D01*
X127554053Y-134485691D01*
X127560325Y-134460655D01*
X127569020Y-134436354D01*
X127580055Y-134413023D01*
X127593323Y-134390885D01*
X127608698Y-134370155D01*
X127626031Y-134351031D01*
X127645155Y-134333698D01*
X127665885Y-134318323D01*
X127688023Y-134305055D01*
X127711354Y-134294020D01*
X127735655Y-134285325D01*
X127760691Y-134279053D01*
X127786221Y-134275266D01*
X127812000Y-134274000D01*
X128438000Y-134274000D01*
X128463779Y-134275266D01*
G37*
G36*
X130213779Y-134275266D02*
G01*
X130239309Y-134279053D01*
X130264345Y-134285325D01*
X130288646Y-134294020D01*
X130311977Y-134305055D01*
X130334115Y-134318323D01*
X130354845Y-134333698D01*
X130373969Y-134351031D01*
X130391302Y-134370155D01*
X130406677Y-134390885D01*
X130419945Y-134413023D01*
X130430980Y-134436354D01*
X130439675Y-134460655D01*
X130445947Y-134485691D01*
X130449734Y-134511221D01*
X130451000Y-134537000D01*
X130451000Y-135063000D01*
X130449734Y-135088779D01*
X130445947Y-135114309D01*
X130439675Y-135139345D01*
X130430980Y-135163646D01*
X130419945Y-135186977D01*
X130406677Y-135209115D01*
X130391302Y-135229845D01*
X130373969Y-135248969D01*
X130354845Y-135266302D01*
X130334115Y-135281677D01*
X130311977Y-135294945D01*
X130288646Y-135305980D01*
X130264345Y-135314675D01*
X130239309Y-135320947D01*
X130213779Y-135324734D01*
X130188000Y-135326000D01*
X129562000Y-135326000D01*
X129536221Y-135324734D01*
X129510691Y-135320947D01*
X129485655Y-135314675D01*
X129461354Y-135305980D01*
X129438023Y-135294945D01*
X129415885Y-135281677D01*
X129395155Y-135266302D01*
X129376031Y-135248969D01*
X129358698Y-135229845D01*
X129343323Y-135209115D01*
X129330055Y-135186977D01*
X129319020Y-135163646D01*
X129310325Y-135139345D01*
X129304053Y-135114309D01*
X129300266Y-135088779D01*
X129299000Y-135063000D01*
X129299000Y-134537000D01*
X129300266Y-134511221D01*
X129304053Y-134485691D01*
X129310325Y-134460655D01*
X129319020Y-134436354D01*
X129330055Y-134413023D01*
X129343323Y-134390885D01*
X129358698Y-134370155D01*
X129376031Y-134351031D01*
X129395155Y-134333698D01*
X129415885Y-134318323D01*
X129438023Y-134305055D01*
X129461354Y-134294020D01*
X129485655Y-134285325D01*
X129510691Y-134279053D01*
X129536221Y-134275266D01*
X129562000Y-134274000D01*
X130188000Y-134274000D01*
X130213779Y-134275266D01*
G37*
D25*
X148000000Y-153000000D03*
X147000000Y-153000000D03*
X146000000Y-153000000D03*
X145000000Y-153000000D03*
X144000000Y-153000000D03*
X143000000Y-153000000D03*
X142000000Y-153000000D03*
X141000000Y-153000000D03*
X140000000Y-153000000D03*
X139000000Y-153000000D03*
X138000000Y-153000000D03*
X137000000Y-153000000D03*
X136000000Y-153000000D03*
X135000000Y-153000000D03*
X134000000Y-153000000D03*
X133000000Y-153000000D03*
X132000000Y-153000000D03*
X131000000Y-153000000D03*
X130000000Y-153000000D03*
X129000000Y-153000000D03*
X128000000Y-153000000D03*
X127000000Y-153000000D03*
X126000000Y-153000000D03*
D26*
X106000000Y-152450000D03*
D25*
X107000000Y-153000000D03*
X108000000Y-153000000D03*
X109000000Y-153000000D03*
X110000000Y-153000000D03*
X111000000Y-153000000D03*
X112000000Y-153000000D03*
X113000000Y-153000000D03*
X114000000Y-153000000D03*
X115000000Y-153000000D03*
X116000000Y-153000000D03*
X121000000Y-153000000D03*
X122000000Y-153000000D03*
X123000000Y-153000000D03*
X124000000Y-153000000D03*
X125000000Y-153000000D03*
X119000000Y-153000000D03*
X120000000Y-153000000D03*
X149000000Y-153000000D03*
X150000000Y-153000000D03*
X151000000Y-153000000D03*
X152000000Y-153000000D03*
X153000000Y-153000000D03*
X154000000Y-153000000D03*
X155000000Y-153000000D03*
X156000000Y-153000000D03*
X157000000Y-153000000D03*
X158000000Y-153000000D03*
X159000000Y-153000000D03*
X160000000Y-153000000D03*
X161000000Y-153000000D03*
X162000000Y-153000000D03*
X163000000Y-153000000D03*
X164000000Y-153000000D03*
X165000000Y-153000000D03*
X166000000Y-153000000D03*
X167000000Y-153000000D03*
X168000000Y-153000000D03*
X169000000Y-153000000D03*
X170000000Y-153000000D03*
X171000000Y-153000000D03*
X172000000Y-153000000D03*
X173000000Y-153000000D03*
X174000000Y-153000000D03*
X175000000Y-153000000D03*
X176000000Y-153000000D03*
X177000000Y-153000000D03*
X178000000Y-153000000D03*
X179000000Y-153000000D03*
X180000000Y-153000000D03*
X181000000Y-153000000D03*
X182000000Y-153000000D03*
X183000000Y-153000000D03*
X184000000Y-153000000D03*
X185000000Y-153000000D03*
X186000000Y-153000000D03*
X187000000Y-153000000D03*
X188000000Y-153000000D03*
X189000000Y-153000000D03*
D13*
G36*
X127205505Y-137050311D02*
G01*
X127231925Y-137054230D01*
X127257835Y-137060720D01*
X127282983Y-137069718D01*
X127307128Y-137081138D01*
X127330038Y-137094869D01*
X127351492Y-137110780D01*
X127371282Y-137128718D01*
X127389220Y-137148508D01*
X127405131Y-137169962D01*
X127418862Y-137192872D01*
X127430282Y-137217017D01*
X127439280Y-137242165D01*
X127445770Y-137268075D01*
X127449689Y-137294495D01*
X127451000Y-137321173D01*
X127451000Y-138028827D01*
X127449689Y-138055505D01*
X127445770Y-138081925D01*
X127439280Y-138107835D01*
X127430282Y-138132983D01*
X127418862Y-138157128D01*
X127405131Y-138180038D01*
X127389220Y-138201492D01*
X127371282Y-138221282D01*
X127351492Y-138239220D01*
X127330038Y-138255131D01*
X127307128Y-138268862D01*
X127282983Y-138280282D01*
X127257835Y-138289280D01*
X127231925Y-138295770D01*
X127205505Y-138299689D01*
X127178827Y-138301000D01*
X126221173Y-138301000D01*
X126194495Y-138299689D01*
X126168075Y-138295770D01*
X126142165Y-138289280D01*
X126117017Y-138280282D01*
X126092872Y-138268862D01*
X126069962Y-138255131D01*
X126048508Y-138239220D01*
X126028718Y-138221282D01*
X126010780Y-138201492D01*
X125994869Y-138180038D01*
X125981138Y-138157128D01*
X125969718Y-138132983D01*
X125960720Y-138107835D01*
X125954230Y-138081925D01*
X125950311Y-138055505D01*
X125949000Y-138028827D01*
X125949000Y-137321173D01*
X125950311Y-137294495D01*
X125954230Y-137268075D01*
X125960720Y-137242165D01*
X125969718Y-137217017D01*
X125981138Y-137192872D01*
X125994869Y-137169962D01*
X126010780Y-137148508D01*
X126028718Y-137128718D01*
X126048508Y-137110780D01*
X126069962Y-137094869D01*
X126092872Y-137081138D01*
X126117017Y-137069718D01*
X126142165Y-137060720D01*
X126168075Y-137054230D01*
X126194495Y-137050311D01*
X126221173Y-137049000D01*
X127178827Y-137049000D01*
X127205505Y-137050311D01*
G37*
G36*
X127205505Y-139100311D02*
G01*
X127231925Y-139104230D01*
X127257835Y-139110720D01*
X127282983Y-139119718D01*
X127307128Y-139131138D01*
X127330038Y-139144869D01*
X127351492Y-139160780D01*
X127371282Y-139178718D01*
X127389220Y-139198508D01*
X127405131Y-139219962D01*
X127418862Y-139242872D01*
X127430282Y-139267017D01*
X127439280Y-139292165D01*
X127445770Y-139318075D01*
X127449689Y-139344495D01*
X127451000Y-139371173D01*
X127451000Y-140078827D01*
X127449689Y-140105505D01*
X127445770Y-140131925D01*
X127439280Y-140157835D01*
X127430282Y-140182983D01*
X127418862Y-140207128D01*
X127405131Y-140230038D01*
X127389220Y-140251492D01*
X127371282Y-140271282D01*
X127351492Y-140289220D01*
X127330038Y-140305131D01*
X127307128Y-140318862D01*
X127282983Y-140330282D01*
X127257835Y-140339280D01*
X127231925Y-140345770D01*
X127205505Y-140349689D01*
X127178827Y-140351000D01*
X126221173Y-140351000D01*
X126194495Y-140349689D01*
X126168075Y-140345770D01*
X126142165Y-140339280D01*
X126117017Y-140330282D01*
X126092872Y-140318862D01*
X126069962Y-140305131D01*
X126048508Y-140289220D01*
X126028718Y-140271282D01*
X126010780Y-140251492D01*
X125994869Y-140230038D01*
X125981138Y-140207128D01*
X125969718Y-140182983D01*
X125960720Y-140157835D01*
X125954230Y-140131925D01*
X125950311Y-140105505D01*
X125949000Y-140078827D01*
X125949000Y-139371173D01*
X125950311Y-139344495D01*
X125954230Y-139318075D01*
X125960720Y-139292165D01*
X125969718Y-139267017D01*
X125981138Y-139242872D01*
X125994869Y-139219962D01*
X126010780Y-139198508D01*
X126028718Y-139178718D01*
X126048508Y-139160780D01*
X126069962Y-139144869D01*
X126092872Y-139131138D01*
X126117017Y-139119718D01*
X126142165Y-139110720D01*
X126168075Y-139104230D01*
X126194495Y-139100311D01*
X126221173Y-139099000D01*
X127178827Y-139099000D01*
X127205505Y-139100311D01*
G37*
G36*
X127205505Y-144700311D02*
G01*
X127231925Y-144704230D01*
X127257835Y-144710720D01*
X127282983Y-144719718D01*
X127307128Y-144731138D01*
X127330038Y-144744869D01*
X127351492Y-144760780D01*
X127371282Y-144778718D01*
X127389220Y-144798508D01*
X127405131Y-144819962D01*
X127418862Y-144842872D01*
X127430282Y-144867017D01*
X127439280Y-144892165D01*
X127445770Y-144918075D01*
X127449689Y-144944495D01*
X127451000Y-144971173D01*
X127451000Y-145678827D01*
X127449689Y-145705505D01*
X127445770Y-145731925D01*
X127439280Y-145757835D01*
X127430282Y-145782983D01*
X127418862Y-145807128D01*
X127405131Y-145830038D01*
X127389220Y-145851492D01*
X127371282Y-145871282D01*
X127351492Y-145889220D01*
X127330038Y-145905131D01*
X127307128Y-145918862D01*
X127282983Y-145930282D01*
X127257835Y-145939280D01*
X127231925Y-145945770D01*
X127205505Y-145949689D01*
X127178827Y-145951000D01*
X126221173Y-145951000D01*
X126194495Y-145949689D01*
X126168075Y-145945770D01*
X126142165Y-145939280D01*
X126117017Y-145930282D01*
X126092872Y-145918862D01*
X126069962Y-145905131D01*
X126048508Y-145889220D01*
X126028718Y-145871282D01*
X126010780Y-145851492D01*
X125994869Y-145830038D01*
X125981138Y-145807128D01*
X125969718Y-145782983D01*
X125960720Y-145757835D01*
X125954230Y-145731925D01*
X125950311Y-145705505D01*
X125949000Y-145678827D01*
X125949000Y-144971173D01*
X125950311Y-144944495D01*
X125954230Y-144918075D01*
X125960720Y-144892165D01*
X125969718Y-144867017D01*
X125981138Y-144842872D01*
X125994869Y-144819962D01*
X126010780Y-144798508D01*
X126028718Y-144778718D01*
X126048508Y-144760780D01*
X126069962Y-144744869D01*
X126092872Y-144731138D01*
X126117017Y-144719718D01*
X126142165Y-144710720D01*
X126168075Y-144704230D01*
X126194495Y-144700311D01*
X126221173Y-144699000D01*
X127178827Y-144699000D01*
X127205505Y-144700311D01*
G37*
G36*
X127205505Y-142650311D02*
G01*
X127231925Y-142654230D01*
X127257835Y-142660720D01*
X127282983Y-142669718D01*
X127307128Y-142681138D01*
X127330038Y-142694869D01*
X127351492Y-142710780D01*
X127371282Y-142728718D01*
X127389220Y-142748508D01*
X127405131Y-142769962D01*
X127418862Y-142792872D01*
X127430282Y-142817017D01*
X127439280Y-142842165D01*
X127445770Y-142868075D01*
X127449689Y-142894495D01*
X127451000Y-142921173D01*
X127451000Y-143628827D01*
X127449689Y-143655505D01*
X127445770Y-143681925D01*
X127439280Y-143707835D01*
X127430282Y-143732983D01*
X127418862Y-143757128D01*
X127405131Y-143780038D01*
X127389220Y-143801492D01*
X127371282Y-143821282D01*
X127351492Y-143839220D01*
X127330038Y-143855131D01*
X127307128Y-143868862D01*
X127282983Y-143880282D01*
X127257835Y-143889280D01*
X127231925Y-143895770D01*
X127205505Y-143899689D01*
X127178827Y-143901000D01*
X126221173Y-143901000D01*
X126194495Y-143899689D01*
X126168075Y-143895770D01*
X126142165Y-143889280D01*
X126117017Y-143880282D01*
X126092872Y-143868862D01*
X126069962Y-143855131D01*
X126048508Y-143839220D01*
X126028718Y-143821282D01*
X126010780Y-143801492D01*
X125994869Y-143780038D01*
X125981138Y-143757128D01*
X125969718Y-143732983D01*
X125960720Y-143707835D01*
X125954230Y-143681925D01*
X125950311Y-143655505D01*
X125949000Y-143628827D01*
X125949000Y-142921173D01*
X125950311Y-142894495D01*
X125954230Y-142868075D01*
X125960720Y-142842165D01*
X125969718Y-142817017D01*
X125981138Y-142792872D01*
X125994869Y-142769962D01*
X126010780Y-142748508D01*
X126028718Y-142728718D01*
X126048508Y-142710780D01*
X126069962Y-142694869D01*
X126092872Y-142681138D01*
X126117017Y-142669718D01*
X126142165Y-142660720D01*
X126168075Y-142654230D01*
X126194495Y-142650311D01*
X126221173Y-142649000D01*
X127178827Y-142649000D01*
X127205505Y-142650311D01*
G37*
D24*
X129250000Y-141710000D03*
X129250000Y-139790000D03*
X131650000Y-140750000D03*
D16*
G36*
X157673000Y-139373000D02*
G01*
X155327000Y-139373000D01*
X155327000Y-119877000D01*
X157673000Y-119877000D01*
X157673000Y-139373000D01*
G37*
X157673000Y-139373000D02*
X155327000Y-139373000D01*
X155327000Y-119877000D01*
X157673000Y-119877000D01*
X157673000Y-139373000D01*
G36*
X181873000Y-147373000D02*
G01*
X179527000Y-147373000D01*
X179527000Y-116727000D01*
X181873000Y-116727000D01*
X181873000Y-147373000D01*
G37*
X181873000Y-147373000D02*
X179527000Y-147373000D01*
X179527000Y-116727000D01*
X181873000Y-116727000D01*
X181873000Y-147373000D01*
G36*
X158911941Y-147373000D02*
G01*
X137965941Y-147373000D01*
X137965941Y-145027000D01*
X158911941Y-145027000D01*
X158911941Y-147373000D01*
G37*
X158911941Y-147373000D02*
X137965941Y-147373000D01*
X137965941Y-145027000D01*
X158911941Y-145027000D01*
X158911941Y-147373000D01*
G36*
X149173000Y-145773000D02*
G01*
X146827000Y-145773000D01*
X146827000Y-129027000D01*
X149173000Y-129027000D01*
X149173000Y-145773000D01*
G37*
X149173000Y-145773000D02*
X146827000Y-145773000D01*
X146827000Y-129027000D01*
X149173000Y-129027000D01*
X149173000Y-145773000D01*
G36*
X157673000Y-131373000D02*
G01*
X146827000Y-131373000D01*
X146827000Y-129027000D01*
X157673000Y-129027000D01*
X157673000Y-131373000D01*
G37*
X157673000Y-131373000D02*
X146827000Y-131373000D01*
X146827000Y-129027000D01*
X157673000Y-129027000D01*
X157673000Y-131373000D01*
G36*
X187854504Y-147373000D02*
G01*
X163741614Y-147373000D01*
X163741614Y-145027000D01*
X187854504Y-145027000D01*
X187854504Y-147373000D01*
G37*
X187854504Y-147373000D02*
X163741614Y-147373000D01*
X163741614Y-145027000D01*
X187854504Y-145027000D01*
X187854504Y-147373000D01*
G36*
X139673000Y-103623000D02*
G01*
X137327000Y-103623000D01*
X137327000Y-84127000D01*
X139673000Y-84127000D01*
X139673000Y-103623000D01*
G37*
X139673000Y-103623000D02*
X137327000Y-103623000D01*
X137327000Y-84127000D01*
X139673000Y-84127000D01*
X139673000Y-103623000D01*
G36*
X131258386Y-78473000D02*
G01*
X107145496Y-78473000D01*
X107145496Y-76127000D01*
X131258386Y-76127000D01*
X131258386Y-78473000D01*
G37*
X131258386Y-78473000D02*
X107145496Y-78473000D01*
X107145496Y-76127000D01*
X131258386Y-76127000D01*
X131258386Y-78473000D01*
G36*
X148173000Y-94473000D02*
G01*
X145827000Y-94473000D01*
X145827000Y-77727000D01*
X148173000Y-77727000D01*
X148173000Y-94473000D01*
G37*
X148173000Y-94473000D02*
X145827000Y-94473000D01*
X145827000Y-77727000D01*
X148173000Y-77727000D01*
X148173000Y-94473000D01*
G36*
X157034059Y-78473000D02*
G01*
X136088059Y-78473000D01*
X136088059Y-76127000D01*
X157034059Y-76127000D01*
X157034059Y-78473000D01*
G37*
X157034059Y-78473000D02*
X136088059Y-78473000D01*
X136088059Y-76127000D01*
X157034059Y-76127000D01*
X157034059Y-78473000D01*
G36*
X115473000Y-106773000D02*
G01*
X113127000Y-106773000D01*
X113127000Y-76127000D01*
X115473000Y-76127000D01*
X115473000Y-106773000D01*
G37*
X115473000Y-106773000D02*
X113127000Y-106773000D01*
X113127000Y-76127000D01*
X115473000Y-76127000D01*
X115473000Y-106773000D01*
G36*
X148173000Y-94473000D02*
G01*
X137327000Y-94473000D01*
X137327000Y-92127000D01*
X148173000Y-92127000D01*
X148173000Y-94473000D01*
G37*
X148173000Y-94473000D02*
X137327000Y-94473000D01*
X137327000Y-92127000D01*
X148173000Y-92127000D01*
X148173000Y-94473000D01*
M02*
