M48
METRIC,TZ
T1C0.300
T2C0.400
T3C0.850
T4C1.000
T5C1.100
T6C3.400
%
G90
G05
T1
X106200Y-130000
X106200Y-141000
X107000Y-137000
X107000Y-148600
X107000Y-149400
X107000Y-150200
X107500Y-76000
X107500Y-81000
X107500Y-86000
X107500Y-91000
X107500Y-96000
X107500Y-101000
X107500Y-106000
X107800Y-131600
X108400Y-136600
X109200Y-149200
X110000Y-73500
X110000Y-78500
X110000Y-83500
X110000Y-88500
X110000Y-93500
X110000Y-98500
X110000Y-103500
X110000Y-108500
X110000Y-147000
X110200Y-121000
X111800Y-116800
X111800Y-117600
X112000Y-121200
X112000Y-138000
X112500Y-76000
X112500Y-81000
X112500Y-86000
X112500Y-91000
X112500Y-96000
X112500Y-106000
X112500Y-111000
X113200Y-136800
X114000Y-138000
X114200Y-148600
X115000Y-73500
X115000Y-78500
X115000Y-93500
X115000Y-98500
X115000Y-108500
X115000Y-134000
X115000Y-150000
X117500Y-76000
X117600Y-114000
X118000Y-119600
X118200Y-127000
X118200Y-130600
X118600Y-126000
X119000Y-134000
X119400Y-127600
X119600Y-120700
X119600Y-137800
X119950Y-117650
X120000Y-73500
X120000Y-86000
X122000Y-117800
X122000Y-133000
X122500Y-76000
X122500Y-83500
X122500Y-103500
X124000Y-109500
X124600Y-131300
X125000Y-73500
X125000Y-81000
X125000Y-86000
X125000Y-91000
X125000Y-96000
X125000Y-101000
X125000Y-106000
X127000Y-136000
X127200Y-147400
X127200Y-148400
X127200Y-149600
X127500Y-76000
X127500Y-83500
X127500Y-88500
X127500Y-98500
X127500Y-103500
X127700Y-79700
X128400Y-147400
X128400Y-148400
X128400Y-149600
X129000Y-118000
X130000Y-73500
X130000Y-81000
X130000Y-86000
X130000Y-91000
X130000Y-96000
X130000Y-101000
X130000Y-106000
X130000Y-121000
X131000Y-132800
X131300Y-136300
X132000Y-144000
X132300Y-123300
X132500Y-76000
X132500Y-83500
X132500Y-88500
X132500Y-98500
X132500Y-103500
X132600Y-79700
X132800Y-113600
X133000Y-115000
X135000Y-86000
X135000Y-91000
X135000Y-96000
X135000Y-101000
X135000Y-149000
X136000Y-109500
X140938Y-132462
X140938Y-133062
X140938Y-133662
X140938Y-134300
X142000Y-115000
X145000Y-113000
X146000Y-108500
X149000Y-115000
X150000Y-110500
X153000Y-108500
X154062Y-89200
X154062Y-89838
X154062Y-90438
X154062Y-91038
X159000Y-114000
X160000Y-74500
X160000Y-122500
X160000Y-127500
X160000Y-132500
X160000Y-137500
X162000Y-108500
X162200Y-109900
X162400Y-143800
X162500Y-120000
X162500Y-125000
X162500Y-135000
X162500Y-140000
X162500Y-147500
X162700Y-100200
X163000Y-79500
X163700Y-87200
X164000Y-90700
X165000Y-102500
X165000Y-117500
X165000Y-122500
X165000Y-127500
X165000Y-132500
X165000Y-137500
X165000Y-142500
X165000Y-150000
X166000Y-105500
X166600Y-73900
X166600Y-75100
X166600Y-76100
X167300Y-143800
X167500Y-120000
X167500Y-125000
X167500Y-135000
X167500Y-140000
X167500Y-147500
X167800Y-73900
X167800Y-75100
X167800Y-76100
X168000Y-87500
X170000Y-117500
X170000Y-122500
X170000Y-127500
X170000Y-132500
X170000Y-137500
X170000Y-142500
X170000Y-150000
X170400Y-92200
X171000Y-114000
X172500Y-120000
X172500Y-140000
X172500Y-147500
X173000Y-90500
X173000Y-105700
X175000Y-137500
X175000Y-150000
X175050Y-105850
X175400Y-85700
X175400Y-102800
X175600Y-95900
X176000Y-89500
X176400Y-97500
X176800Y-92900
X176800Y-96500
X177000Y-103900
X177400Y-109500
X177500Y-147500
X180000Y-73500
X180000Y-89500
X180000Y-115000
X180000Y-125000
X180000Y-130000
X180000Y-145000
X180000Y-150000
X180800Y-74900
X181000Y-85500
X181800Y-86700
X182500Y-112500
X182500Y-117500
X182500Y-127500
X182500Y-132500
X182500Y-137500
X182500Y-142500
X182500Y-147500
X183000Y-85500
X183000Y-102300
X183200Y-105900
X183200Y-106700
X184800Y-102500
X185000Y-76500
X185000Y-115000
X185000Y-120000
X185000Y-125000
X185000Y-130000
X185000Y-135000
X185000Y-140000
X185000Y-145000
X185000Y-150000
X185800Y-74300
X186600Y-86900
X187200Y-91900
X187500Y-117500
X187500Y-122500
X187500Y-127500
X187500Y-132500
X187500Y-137500
X187500Y-142500
X187500Y-147500
X188000Y-73300
X188000Y-74100
X188000Y-74900
X188000Y-86500
X188800Y-82500
X188800Y-93500
T2
X107800Y-120500
X108600Y-127000
X109618Y-127200
X111400Y-128400
X112016Y-130723
X112189Y-127586
X112400Y-129800
X113989Y-128782
X120000Y-139800
X125050Y-139000
X129225Y-145025
X129850Y-145650
X131200Y-130400
X132400Y-125400
X133000Y-130200
X133000Y-131600
X134800Y-132600
X134800Y-134200
X134800Y-138600
X142903Y-131772
X143600Y-117800
X144700Y-117800
X144800Y-132500
X146400Y-121650
X146600Y-101500
X148400Y-122000
X148600Y-101850
X150200Y-91000
X150300Y-105700
X151400Y-105700
X152097Y-91728
X160200Y-84900
X160200Y-89300
X160200Y-90900
X162000Y-91900
X162000Y-93300
X162600Y-98100
X163800Y-93100
X165150Y-77850
X165775Y-78475
X169950Y-84500
X175000Y-83700
X181011Y-94718
X182600Y-93700
X182811Y-95914
X182984Y-92777
X183600Y-95100
X185382Y-96300
X186400Y-96500
X187200Y-103000
T3
X120040Y-115000
X122580Y-115000
X125120Y-115000
X127660Y-115000
X130200Y-115000
X164800Y-108500
X167340Y-108500
X169880Y-108500
X172420Y-108500
X174960Y-108500
T4
X135000Y-115000
X137540Y-115000
X140080Y-115000
X154920Y-108500
X157460Y-108500
X160000Y-108500
T5
X154000Y-141750
X156540Y-139210
X159080Y-141750
X114920Y-106500
X117460Y-103960
X120000Y-106500
X136000Y-106250
X138540Y-103710
X141080Y-106250
X153920Y-117250
X156460Y-119790
X159000Y-117250
X114920Y-81500
X117460Y-84040
X120000Y-81500
X135920Y-81750
X138460Y-84290
X141000Y-81750
X175000Y-117000
X177540Y-119540
X180080Y-117000
X175000Y-142000
X177540Y-139460
X180080Y-142000
T6
X175000Y-125800
X175000Y-133000
X120000Y-90500
X120000Y-97700
T4
G00X180400Y-122650
M15
G01X181600Y-122650
M16
G05
G00X180400Y-136150
M15
G01X181600Y-136150
M16
G05
G00X114600Y-87350
M15
G01X113400Y-87350
M16
G05
G00X114600Y-100850
M15
G01X113400Y-100850
M16
G05
T0
M30
