%TF.GenerationSoftware,KiCad,Pcbnew,(5.1.6)-1*%
%TF.CreationDate,2020-06-21T16:44:25+09:00*%
%TF.ProjectId,CAN_H-Bridge_Solo_MD_fin,43414e5f-482d-4427-9269-6467655f536f,rev?*%
%TF.SameCoordinates,Original*%
%TF.FileFunction,Profile,NP*%
%FSLAX46Y46*%
G04 Gerber Fmt 4.6, Leading zero omitted, Abs format (unit mm)*
G04 Created by KiCad (PCBNEW (5.1.6)-1) date 2020-06-21 16:44:25*
%MOMM*%
%LPD*%
G01*
G04 APERTURE LIST*
%TA.AperFunction,Profile*%
%ADD10C,0.100000*%
%TD*%
G04 APERTURE END LIST*
D10*
X184650000Y-62950000D02*
X184650000Y-99500000D01*
X103850000Y-103000000D02*
G75*
G02*
X100350000Y-99500000I0J3500000D01*
G01*
X184650000Y-99500000D02*
G75*
G02*
X181150000Y-103000000I-3500000J0D01*
G01*
X100350000Y-99500000D02*
X100350000Y-62950000D01*
X100350000Y-106500000D02*
G75*
G02*
X103850000Y-103000000I3500000J0D01*
G01*
X181150000Y-103000000D02*
G75*
G02*
X184650000Y-106500000I0J-3500000D01*
G01*
X184650000Y-106500000D02*
X184650000Y-143050000D01*
X100350000Y-143050000D02*
X100350000Y-106500000D01*
%TO.C,J3*%
X173450000Y-62000000D02*
X173450000Y-55050000D01*
X171550000Y-62000000D02*
X171550000Y-55050000D01*
X184650000Y-62950000D02*
X184650000Y-55050000D01*
X184150000Y-54550000D02*
X173950000Y-54550000D01*
X100350000Y-62950000D02*
X100350000Y-55050000D01*
X171050000Y-54550000D02*
X100850000Y-54550000D01*
X184650000Y-55050000D02*
X184150000Y-54550000D01*
X173450000Y-55050000D02*
X173950000Y-54550000D01*
X171550000Y-55050000D02*
X171050000Y-54550000D01*
X100350000Y-55050000D02*
X100850000Y-54550000D01*
X173450000Y-62000000D02*
G75*
G02*
X171550000Y-62000000I-950000J0D01*
G01*
X184650000Y-150950000D02*
X184150000Y-151450000D01*
X113450000Y-150950000D02*
X113950000Y-151450000D01*
X111550000Y-150950000D02*
X111050000Y-151450000D01*
X100350000Y-150950000D02*
X100850000Y-151450000D01*
X113950000Y-151450000D02*
X184150000Y-151450000D01*
X184650000Y-143050000D02*
X184650000Y-150950000D01*
X100850000Y-151450000D02*
X111050000Y-151450000D01*
X100350000Y-143050000D02*
X100350000Y-150950000D01*
X113450000Y-144000000D02*
X113450000Y-150950000D01*
X111550000Y-144000000D02*
X111550000Y-150950000D01*
X111550000Y-144000000D02*
G75*
G02*
X113450000Y-144000000I950000J0D01*
G01*
%TD*%
M02*
