M48
; DRILL file {KiCad (5.1.5)-3} date 2020/02/02 14:12:42
; FORMAT={-:-/ absolute / metric / decimal}
; #@! TF.CreationDate,2020-02-02T14:12:42+09:00
; #@! TF.GenerationSoftware,Kicad,Pcbnew,(5.1.5)-3
; #@! TF.FileFunction,Plated,1,2,PTH
FMAT,2
METRIC
T1C0.300
T2C0.400
T3C0.850
T4C1.000
T5C1.100
T6C3.400
%
G90
G05
T1
X106.2Y-130.0
X106.2Y-141.0
X107.0Y-137.0
X107.0Y-148.6
X107.0Y-149.4
X107.0Y-150.2
X107.5Y-76.0
X107.5Y-81.0
X107.5Y-86.0
X107.5Y-91.0
X107.5Y-96.0
X107.5Y-101.0
X107.5Y-106.0
X107.8Y-131.6
X108.4Y-136.6
X109.2Y-149.2
X110.0Y-73.5
X110.0Y-78.5
X110.0Y-83.5
X110.0Y-88.5
X110.0Y-93.5
X110.0Y-98.5
X110.0Y-103.5
X110.0Y-108.5
X110.0Y-147.0
X110.2Y-121.0
X111.8Y-116.8
X111.8Y-117.6
X112.0Y-121.2
X112.0Y-138.0
X112.5Y-76.0
X112.5Y-81.0
X112.5Y-86.0
X112.5Y-91.0
X112.5Y-96.0
X112.5Y-106.0
X112.5Y-111.0
X113.2Y-136.8
X114.0Y-138.0
X114.2Y-148.6
X115.0Y-73.5
X115.0Y-78.5
X115.0Y-93.5
X115.0Y-98.5
X115.0Y-108.5
X115.0Y-134.0
X115.0Y-150.0
X117.5Y-76.0
X117.6Y-114.0
X118.0Y-119.6
X118.2Y-127.0
X118.2Y-130.6
X118.6Y-126.0
X119.0Y-134.0
X119.4Y-127.6
X119.6Y-120.7
X119.6Y-137.8
X119.95Y-117.65
X120.0Y-73.5
X120.0Y-86.0
X122.0Y-117.8
X122.0Y-133.0
X122.5Y-76.0
X122.5Y-83.5
X122.5Y-103.5
X124.0Y-109.5
X124.6Y-131.3
X125.0Y-73.5
X125.0Y-81.0
X125.0Y-86.0
X125.0Y-91.0
X125.0Y-96.0
X125.0Y-101.0
X125.0Y-106.0
X127.0Y-136.0
X127.2Y-147.4
X127.2Y-148.4
X127.2Y-149.6
X127.5Y-76.0
X127.5Y-83.5
X127.5Y-88.5
X127.5Y-98.5
X127.5Y-103.5
X127.7Y-79.7
X128.4Y-147.4
X128.4Y-148.4
X128.4Y-149.6
X129.0Y-118.0
X130.0Y-73.5
X130.0Y-81.0
X130.0Y-86.0
X130.0Y-91.0
X130.0Y-96.0
X130.0Y-101.0
X130.0Y-106.0
X130.0Y-121.0
X131.0Y-132.8
X131.3Y-136.3
X132.0Y-144.0
X132.3Y-123.3
X132.5Y-76.0
X132.5Y-83.5
X132.5Y-88.5
X132.5Y-98.5
X132.5Y-103.5
X132.6Y-79.7
X132.8Y-113.6
X133.0Y-115.0
X135.0Y-86.0
X135.0Y-91.0
X135.0Y-96.0
X135.0Y-101.0
X135.0Y-149.0
X136.0Y-109.5
X140.938Y-132.462
X140.938Y-133.062
X140.938Y-133.662
X140.938Y-134.3
X142.0Y-115.0
X145.0Y-113.0
X146.0Y-108.5
X149.0Y-115.0
X150.0Y-110.5
X153.0Y-108.5
X154.062Y-89.2
X154.062Y-89.838
X154.062Y-90.438
X154.062Y-91.038
X159.0Y-114.0
X160.0Y-74.5
X160.0Y-122.5
X160.0Y-127.5
X160.0Y-132.5
X160.0Y-137.5
X162.0Y-108.5
X162.2Y-109.9
X162.4Y-143.8
X162.5Y-120.0
X162.5Y-125.0
X162.5Y-135.0
X162.5Y-140.0
X162.5Y-147.5
X162.7Y-100.2
X163.0Y-79.5
X163.7Y-87.2
X164.0Y-90.7
X165.0Y-102.5
X165.0Y-117.5
X165.0Y-122.5
X165.0Y-127.5
X165.0Y-132.5
X165.0Y-137.5
X165.0Y-142.5
X165.0Y-150.0
X166.0Y-105.5
X166.6Y-73.9
X166.6Y-75.1
X166.6Y-76.1
X167.3Y-143.8
X167.5Y-120.0
X167.5Y-125.0
X167.5Y-135.0
X167.5Y-140.0
X167.5Y-147.5
X167.8Y-73.9
X167.8Y-75.1
X167.8Y-76.1
X168.0Y-87.5
X170.0Y-117.5
X170.0Y-122.5
X170.0Y-127.5
X170.0Y-132.5
X170.0Y-137.5
X170.0Y-142.5
X170.0Y-150.0
X170.4Y-92.2
X171.0Y-114.0
X172.5Y-120.0
X172.5Y-140.0
X172.5Y-147.5
X173.0Y-90.5
X173.0Y-105.7
X175.0Y-137.5
X175.0Y-150.0
X175.05Y-105.85
X175.4Y-85.7
X175.4Y-102.8
X175.6Y-95.9
X176.0Y-89.5
X176.4Y-97.5
X176.8Y-92.9
X176.8Y-96.5
X177.0Y-103.9
X177.4Y-109.5
X177.5Y-147.5
X180.0Y-73.5
X180.0Y-89.5
X180.0Y-115.0
X180.0Y-125.0
X180.0Y-130.0
X180.0Y-145.0
X180.0Y-150.0
X180.8Y-74.9
X181.0Y-85.5
X181.8Y-86.7
X182.5Y-112.5
X182.5Y-117.5
X182.5Y-127.5
X182.5Y-132.5
X182.5Y-137.5
X182.5Y-142.5
X182.5Y-147.5
X183.0Y-85.5
X183.0Y-102.3
X183.2Y-105.9
X183.2Y-106.7
X184.8Y-102.5
X185.0Y-76.5
X185.0Y-115.0
X185.0Y-120.0
X185.0Y-125.0
X185.0Y-130.0
X185.0Y-135.0
X185.0Y-140.0
X185.0Y-145.0
X185.0Y-150.0
X185.8Y-74.3
X186.6Y-86.9
X187.2Y-91.9
X187.5Y-117.5
X187.5Y-122.5
X187.5Y-127.5
X187.5Y-132.5
X187.5Y-137.5
X187.5Y-142.5
X187.5Y-147.5
X188.0Y-73.3
X188.0Y-74.1
X188.0Y-74.9
X188.0Y-86.5
X188.8Y-82.5
X188.8Y-93.5
T2
X107.8Y-120.5
X108.6Y-127.0
X109.618Y-127.2
X111.4Y-128.4
X112.016Y-130.723
X112.189Y-127.586
X112.4Y-129.8
X113.989Y-128.782
X120.0Y-139.8
X125.05Y-139.0
X129.225Y-145.025
X129.85Y-145.65
X131.2Y-130.4
X132.4Y-125.4
X133.0Y-130.2
X133.0Y-131.6
X134.8Y-132.6
X134.8Y-134.2
X134.8Y-138.6
X142.903Y-131.772
X143.6Y-117.8
X144.7Y-117.8
X144.8Y-132.5
X146.4Y-121.65
X146.6Y-101.5
X148.4Y-122.0
X148.6Y-101.85
X150.2Y-91.0
X150.3Y-105.7
X151.4Y-105.7
X152.097Y-91.728
X160.2Y-84.9
X160.2Y-89.3
X160.2Y-90.9
X162.0Y-91.9
X162.0Y-93.3
X162.6Y-98.1
X163.8Y-93.1
X165.15Y-77.85
X165.775Y-78.475
X169.95Y-84.5
X175.0Y-83.7
X181.011Y-94.718
X182.6Y-93.7
X182.811Y-95.914
X182.984Y-92.777
X183.6Y-95.1
X185.382Y-96.3
X186.4Y-96.5
X187.2Y-103.0
T3
X120.04Y-115.0
X122.58Y-115.0
X125.12Y-115.0
X127.66Y-115.0
X130.2Y-115.0
X164.8Y-108.5
X167.34Y-108.5
X169.88Y-108.5
X172.42Y-108.5
X174.96Y-108.5
T4
X135.0Y-115.0
X137.54Y-115.0
X140.08Y-115.0
X154.92Y-108.5
X157.46Y-108.5
X160.0Y-108.5
T5
X154.0Y-141.75
X156.54Y-139.21
X159.08Y-141.75
X114.92Y-106.5
X117.46Y-103.96
X120.0Y-106.5
X136.0Y-106.25
X138.54Y-103.71
X141.08Y-106.25
X153.92Y-117.25
X156.46Y-119.79
X159.0Y-117.25
X114.92Y-81.5
X117.46Y-84.04
X120.0Y-81.5
X135.92Y-81.75
X138.46Y-84.29
X141.0Y-81.75
X175.0Y-117.0
X177.54Y-119.54
X180.08Y-117.0
X175.0Y-142.0
X177.54Y-139.46
X180.08Y-142.0
T6
X175.0Y-125.8
X175.0Y-133.0
X120.0Y-90.5
X120.0Y-97.7
T4
G00X180.4Y-122.65
M15
G01X181.6Y-122.65
M16
G05
G00X180.4Y-136.15
M15
G01X181.6Y-136.15
M16
G05
G00X114.6Y-87.35
M15
G01X113.4Y-87.35
M16
G05
G00X114.6Y-100.85
M15
G01X113.4Y-100.85
M16
G05
T0
M30
