%TF.GenerationSoftware,KiCad,Pcbnew,(5.1.6)-1*%
%TF.CreationDate,2020-06-21T16:44:25+09:00*%
%TF.ProjectId,CAN_H-Bridge_Solo_MD_fin,43414e5f-482d-4427-9269-6467655f536f,rev?*%
%TF.SameCoordinates,Original*%
%TF.FileFunction,Soldermask,Bot*%
%TF.FilePolarity,Negative*%
%FSLAX46Y46*%
G04 Gerber Fmt 4.6, Leading zero omitted, Abs format (unit mm)*
G04 Created by KiCad (PCBNEW (5.1.6)-1) date 2020-06-21 16:44:25*
%MOMM*%
%LPD*%
G01*
G04 APERTURE LIST*
%TA.AperFunction,Profile*%
%ADD10C,0.100000*%
%TD*%
%ADD11C,0.100000*%
G04 APERTURE END LIST*
D10*
X184650000Y-62950000D02*
X184650000Y-99500000D01*
X103850000Y-103000000D02*
G75*
G02*
X100350000Y-99500000I0J3500000D01*
G01*
X184650000Y-99500000D02*
G75*
G02*
X181150000Y-103000000I-3500000J0D01*
G01*
X100350000Y-99500000D02*
X100350000Y-62950000D01*
X100350000Y-106500000D02*
G75*
G02*
X103850000Y-103000000I3500000J0D01*
G01*
X181150000Y-103000000D02*
G75*
G02*
X184650000Y-106500000I0J-3500000D01*
G01*
X184650000Y-106500000D02*
X184650000Y-143050000D01*
X100350000Y-143050000D02*
X100350000Y-106500000D01*
D11*
G36*
X184401000Y-150201000D02*
G01*
X113599000Y-150201000D01*
X113599000Y-145799000D01*
X184401000Y-145799000D01*
X184401000Y-150201000D01*
G37*
G36*
X111401000Y-150201000D02*
G01*
X101599000Y-150201000D01*
X101599000Y-149225999D01*
X101596598Y-149201613D01*
X101589485Y-149178164D01*
X101577934Y-149156553D01*
X101562389Y-149137611D01*
X101543447Y-149122066D01*
X101521836Y-149110515D01*
X101498387Y-149103402D01*
X101474001Y-149101000D01*
X100599000Y-149101000D01*
X100599000Y-145799000D01*
X111401000Y-145799000D01*
X111401000Y-150201000D01*
G37*
G36*
X146000000Y-107924001D02*
G01*
X146002402Y-107948387D01*
X146009515Y-107971836D01*
X146021066Y-107993447D01*
X146036611Y-108012389D01*
X146055553Y-108027934D01*
X146077164Y-108039485D01*
X146100613Y-108046598D01*
X146124999Y-108049000D01*
X152451000Y-108049000D01*
X152451000Y-113951000D01*
X146124999Y-113951000D01*
X146100613Y-113953402D01*
X146077164Y-113960515D01*
X146055553Y-113972066D01*
X146036611Y-113987611D01*
X146021066Y-114006553D01*
X146009515Y-114028164D01*
X146002402Y-114051613D01*
X146000000Y-114075999D01*
X146000000Y-132024001D01*
X146002402Y-132048387D01*
X146009515Y-132071836D01*
X146021066Y-132093447D01*
X146036611Y-132112389D01*
X146055553Y-132127934D01*
X146077164Y-132139485D01*
X146100613Y-132146598D01*
X146124999Y-132149000D01*
X152351000Y-132149000D01*
X152351000Y-138051000D01*
X146124999Y-138051000D01*
X146100613Y-138053402D01*
X146077164Y-138060515D01*
X146055553Y-138072066D01*
X146036611Y-138087611D01*
X146021066Y-138106553D01*
X146009515Y-138128164D01*
X146002402Y-138151613D01*
X146000000Y-138175999D01*
X146000000Y-139875001D01*
X146002402Y-139899387D01*
X146009515Y-139922836D01*
X146021066Y-139944447D01*
X146036611Y-139963389D01*
X146055553Y-139978934D01*
X146077164Y-139990485D01*
X146100613Y-139997598D01*
X146124999Y-140000000D01*
X152509107Y-140000000D01*
X152500000Y-142500000D01*
X132481787Y-142500000D01*
X132490894Y-140000000D01*
X141375001Y-140000000D01*
X141399387Y-139997598D01*
X141422836Y-139990485D01*
X141444447Y-139978934D01*
X141463389Y-139963389D01*
X141478934Y-139944447D01*
X141490485Y-139922836D01*
X141497598Y-139899387D01*
X141500000Y-139875001D01*
X141500000Y-107593165D01*
X146000000Y-107593165D01*
X146000000Y-107924001D01*
G37*
G36*
X181000000Y-139875001D02*
G01*
X181002402Y-139899387D01*
X181009515Y-139922836D01*
X181021066Y-139944447D01*
X181036611Y-139963389D01*
X181055553Y-139978934D01*
X181077164Y-139990485D01*
X181100613Y-139997598D01*
X181124999Y-140000000D01*
X182981504Y-140000000D01*
X182981504Y-142500000D01*
X158614614Y-142500000D01*
X158614614Y-140000000D01*
X176375001Y-140000000D01*
X176399387Y-139997598D01*
X176422836Y-139990485D01*
X176444447Y-139978934D01*
X176463389Y-139963389D01*
X176478934Y-139944447D01*
X176490485Y-139922836D01*
X176497598Y-139899387D01*
X176500000Y-139875001D01*
X176500000Y-138255999D01*
X176497598Y-138231613D01*
X176490485Y-138208164D01*
X176478934Y-138186553D01*
X176463389Y-138167611D01*
X176444447Y-138152066D01*
X176422836Y-138140515D01*
X176399387Y-138133402D01*
X176375001Y-138131000D01*
X174349000Y-138131000D01*
X174349000Y-136829000D01*
X176375001Y-136829000D01*
X176399387Y-136826598D01*
X176422836Y-136819485D01*
X176444447Y-136807934D01*
X176463389Y-136792389D01*
X176478934Y-136773447D01*
X176490485Y-136751836D01*
X176497598Y-136728387D01*
X176500000Y-136704001D01*
X176500000Y-133695999D01*
X176497598Y-133671613D01*
X176490485Y-133648164D01*
X176478934Y-133626553D01*
X176463389Y-133607611D01*
X176444447Y-133592066D01*
X176422836Y-133580515D01*
X176399387Y-133573402D01*
X176375001Y-133571000D01*
X174349000Y-133571000D01*
X174349000Y-132269000D01*
X176375001Y-132269000D01*
X176399387Y-132266598D01*
X176422836Y-132259485D01*
X176444447Y-132247934D01*
X176463389Y-132232389D01*
X176478934Y-132213447D01*
X176490485Y-132191836D01*
X176497598Y-132168387D01*
X176500000Y-132144001D01*
X176500000Y-130675999D01*
X176497598Y-130651613D01*
X176490485Y-130628164D01*
X176478934Y-130606553D01*
X176463389Y-130587611D01*
X176444447Y-130572066D01*
X176422836Y-130560515D01*
X176399387Y-130553402D01*
X176375001Y-130551000D01*
X176310654Y-130551000D01*
X176271429Y-130547137D01*
X176192977Y-130539410D01*
X176092318Y-130508875D01*
X176041987Y-130493608D01*
X175902835Y-130419229D01*
X175780867Y-130319133D01*
X175680771Y-130197165D01*
X175606392Y-130058013D01*
X175591125Y-130007682D01*
X175560590Y-129907023D01*
X175545125Y-129750000D01*
X175560590Y-129592977D01*
X175606392Y-129441988D01*
X175606392Y-129441987D01*
X175680771Y-129302835D01*
X175780867Y-129180867D01*
X175902835Y-129080771D01*
X176041987Y-129006392D01*
X176092318Y-128991125D01*
X176192977Y-128960590D01*
X176271429Y-128952863D01*
X176310654Y-128949000D01*
X176375001Y-128949000D01*
X176399387Y-128946598D01*
X176422836Y-128939485D01*
X176444447Y-128927934D01*
X176463389Y-128912389D01*
X176478934Y-128893447D01*
X176490485Y-128871836D01*
X176497598Y-128848387D01*
X176500000Y-128824001D01*
X176500000Y-117175999D01*
X176497598Y-117151613D01*
X176490485Y-117128164D01*
X176478934Y-117106553D01*
X176463389Y-117087611D01*
X176444447Y-117072066D01*
X176422836Y-117060515D01*
X176399387Y-117053402D01*
X176375001Y-117051000D01*
X176310654Y-117051000D01*
X176271429Y-117047137D01*
X176192977Y-117039410D01*
X176092318Y-117008875D01*
X176041987Y-116993608D01*
X175902835Y-116919229D01*
X175780867Y-116819133D01*
X175680771Y-116697165D01*
X175606392Y-116558013D01*
X175591125Y-116507682D01*
X175560590Y-116407023D01*
X175545125Y-116250000D01*
X175560590Y-116092977D01*
X175606392Y-115941988D01*
X175606392Y-115941987D01*
X175680771Y-115802835D01*
X175780867Y-115680867D01*
X175902835Y-115580771D01*
X176041987Y-115506392D01*
X176092318Y-115491125D01*
X176192977Y-115460590D01*
X176271429Y-115452863D01*
X176310654Y-115449000D01*
X176375001Y-115449000D01*
X176399387Y-115446598D01*
X176422836Y-115439485D01*
X176444447Y-115427934D01*
X176463389Y-115412389D01*
X176478934Y-115393447D01*
X176490485Y-115371836D01*
X176497598Y-115348387D01*
X176500000Y-115324001D01*
X176500000Y-113980999D01*
X176497598Y-113956613D01*
X176490485Y-113933164D01*
X176478934Y-113911553D01*
X176463389Y-113892611D01*
X176444447Y-113877066D01*
X176422836Y-113865515D01*
X176399387Y-113858402D01*
X176375001Y-113856000D01*
X174274000Y-113856000D01*
X174274000Y-112554000D01*
X176375001Y-112554000D01*
X176399387Y-112551598D01*
X176422836Y-112544485D01*
X176444447Y-112532934D01*
X176463389Y-112517389D01*
X176478934Y-112498447D01*
X176490485Y-112476836D01*
X176497598Y-112453387D01*
X176500000Y-112429001D01*
X176500000Y-111593165D01*
X181000000Y-111593165D01*
X181000000Y-139875001D01*
G37*
G36*
X107334928Y-139921764D02*
G01*
X107356009Y-139928160D01*
X107375445Y-139938548D01*
X107392476Y-139952524D01*
X107406452Y-139969555D01*
X107416840Y-139988991D01*
X107423236Y-140010072D01*
X107426000Y-140038140D01*
X107426000Y-140501860D01*
X107423236Y-140529928D01*
X107416840Y-140551009D01*
X107406452Y-140570445D01*
X107392476Y-140587476D01*
X107375445Y-140601452D01*
X107356009Y-140611840D01*
X107334928Y-140618236D01*
X107306860Y-140621000D01*
X105493140Y-140621000D01*
X105465072Y-140618236D01*
X105443991Y-140611840D01*
X105424555Y-140601452D01*
X105407524Y-140587476D01*
X105393548Y-140570445D01*
X105383160Y-140551009D01*
X105376764Y-140529928D01*
X105374000Y-140501860D01*
X105374000Y-140038140D01*
X105376764Y-140010072D01*
X105383160Y-139988991D01*
X105393548Y-139969555D01*
X105407524Y-139952524D01*
X105424555Y-139938548D01*
X105443991Y-139928160D01*
X105465072Y-139921764D01*
X105493140Y-139919000D01*
X107306860Y-139919000D01*
X107334928Y-139921764D01*
G37*
G36*
X112284928Y-139921764D02*
G01*
X112306009Y-139928160D01*
X112325445Y-139938548D01*
X112342476Y-139952524D01*
X112356452Y-139969555D01*
X112366840Y-139988991D01*
X112373236Y-140010072D01*
X112376000Y-140038140D01*
X112376000Y-140501860D01*
X112373236Y-140529928D01*
X112366840Y-140551009D01*
X112356452Y-140570445D01*
X112342476Y-140587476D01*
X112325445Y-140601452D01*
X112306009Y-140611840D01*
X112284928Y-140618236D01*
X112256860Y-140621000D01*
X110443140Y-140621000D01*
X110415072Y-140618236D01*
X110393991Y-140611840D01*
X110374555Y-140601452D01*
X110357524Y-140587476D01*
X110343548Y-140570445D01*
X110333160Y-140551009D01*
X110326764Y-140529928D01*
X110324000Y-140501860D01*
X110324000Y-140038140D01*
X110326764Y-140010072D01*
X110333160Y-139988991D01*
X110343548Y-139969555D01*
X110357524Y-139952524D01*
X110374555Y-139938548D01*
X110393991Y-139928160D01*
X110415072Y-139921764D01*
X110443140Y-139919000D01*
X112256860Y-139919000D01*
X112284928Y-139921764D01*
G37*
G36*
X112284928Y-138651764D02*
G01*
X112306009Y-138658160D01*
X112325445Y-138668548D01*
X112342476Y-138682524D01*
X112356452Y-138699555D01*
X112366840Y-138718991D01*
X112373236Y-138740072D01*
X112376000Y-138768140D01*
X112376000Y-139231860D01*
X112373236Y-139259928D01*
X112366840Y-139281009D01*
X112356452Y-139300445D01*
X112342476Y-139317476D01*
X112325445Y-139331452D01*
X112306009Y-139341840D01*
X112284928Y-139348236D01*
X112256860Y-139351000D01*
X110443140Y-139351000D01*
X110415072Y-139348236D01*
X110393991Y-139341840D01*
X110374555Y-139331452D01*
X110357524Y-139317476D01*
X110343548Y-139300445D01*
X110333160Y-139281009D01*
X110326764Y-139259928D01*
X110324000Y-139231860D01*
X110324000Y-138768140D01*
X110326764Y-138740072D01*
X110333160Y-138718991D01*
X110343548Y-138699555D01*
X110357524Y-138682524D01*
X110374555Y-138668548D01*
X110393991Y-138658160D01*
X110415072Y-138651764D01*
X110443140Y-138649000D01*
X112256860Y-138649000D01*
X112284928Y-138651764D01*
G37*
G36*
X107334928Y-138651764D02*
G01*
X107356009Y-138658160D01*
X107375445Y-138668548D01*
X107392476Y-138682524D01*
X107406452Y-138699555D01*
X107416840Y-138718991D01*
X107423236Y-138740072D01*
X107426000Y-138768140D01*
X107426000Y-139231860D01*
X107423236Y-139259928D01*
X107416840Y-139281009D01*
X107406452Y-139300445D01*
X107392476Y-139317476D01*
X107375445Y-139331452D01*
X107356009Y-139341840D01*
X107334928Y-139348236D01*
X107306860Y-139351000D01*
X105493140Y-139351000D01*
X105465072Y-139348236D01*
X105443991Y-139341840D01*
X105424555Y-139331452D01*
X105407524Y-139317476D01*
X105393548Y-139300445D01*
X105383160Y-139281009D01*
X105376764Y-139259928D01*
X105374000Y-139231860D01*
X105374000Y-138768140D01*
X105376764Y-138740072D01*
X105383160Y-138718991D01*
X105393548Y-138699555D01*
X105407524Y-138682524D01*
X105424555Y-138668548D01*
X105443991Y-138658160D01*
X105465072Y-138651764D01*
X105493140Y-138649000D01*
X107306860Y-138649000D01*
X107334928Y-138651764D01*
G37*
G36*
X101701174Y-137053465D02*
G01*
X101738867Y-137064899D01*
X101773603Y-137083466D01*
X101804048Y-137108452D01*
X101829034Y-137138897D01*
X101847601Y-137173633D01*
X101859035Y-137211326D01*
X101863500Y-137256661D01*
X101863500Y-138343339D01*
X101859035Y-138388674D01*
X101847601Y-138426367D01*
X101829034Y-138461103D01*
X101804048Y-138491548D01*
X101773603Y-138516534D01*
X101738867Y-138535101D01*
X101701174Y-138546535D01*
X101655839Y-138551000D01*
X100819161Y-138551000D01*
X100773826Y-138546535D01*
X100736133Y-138535101D01*
X100701397Y-138516534D01*
X100670952Y-138491548D01*
X100645966Y-138461103D01*
X100627399Y-138426367D01*
X100615965Y-138388674D01*
X100611500Y-138343339D01*
X100611500Y-137256661D01*
X100615965Y-137211326D01*
X100627399Y-137173633D01*
X100645966Y-137138897D01*
X100670952Y-137108452D01*
X100701397Y-137083466D01*
X100736133Y-137064899D01*
X100773826Y-137053465D01*
X100819161Y-137049000D01*
X101655839Y-137049000D01*
X101701174Y-137053465D01*
G37*
G36*
X103751174Y-137053465D02*
G01*
X103788867Y-137064899D01*
X103823603Y-137083466D01*
X103854048Y-137108452D01*
X103879034Y-137138897D01*
X103897601Y-137173633D01*
X103909035Y-137211326D01*
X103913500Y-137256661D01*
X103913500Y-138343339D01*
X103909035Y-138388674D01*
X103897601Y-138426367D01*
X103879034Y-138461103D01*
X103854048Y-138491548D01*
X103823603Y-138516534D01*
X103788867Y-138535101D01*
X103751174Y-138546535D01*
X103705839Y-138551000D01*
X102869161Y-138551000D01*
X102823826Y-138546535D01*
X102786133Y-138535101D01*
X102751397Y-138516534D01*
X102720952Y-138491548D01*
X102695966Y-138461103D01*
X102677399Y-138426367D01*
X102665965Y-138388674D01*
X102661500Y-138343339D01*
X102661500Y-137256661D01*
X102665965Y-137211326D01*
X102677399Y-137173633D01*
X102695966Y-137138897D01*
X102720952Y-137108452D01*
X102751397Y-137083466D01*
X102786133Y-137064899D01*
X102823826Y-137053465D01*
X102869161Y-137049000D01*
X103705839Y-137049000D01*
X103751174Y-137053465D01*
G37*
G36*
X172451000Y-138151000D02*
G01*
X165949000Y-138151000D01*
X165949000Y-132249000D01*
X172451000Y-132249000D01*
X172451000Y-138151000D01*
G37*
G36*
X112284928Y-137381764D02*
G01*
X112306009Y-137388160D01*
X112325445Y-137398548D01*
X112342476Y-137412524D01*
X112356452Y-137429555D01*
X112366840Y-137448991D01*
X112373236Y-137470072D01*
X112376000Y-137498140D01*
X112376000Y-137961860D01*
X112373236Y-137989928D01*
X112366840Y-138011009D01*
X112356452Y-138030445D01*
X112342476Y-138047476D01*
X112325445Y-138061452D01*
X112306009Y-138071840D01*
X112284928Y-138078236D01*
X112256860Y-138081000D01*
X110443140Y-138081000D01*
X110415072Y-138078236D01*
X110393991Y-138071840D01*
X110374555Y-138061452D01*
X110357524Y-138047476D01*
X110343548Y-138030445D01*
X110333160Y-138011009D01*
X110326764Y-137989928D01*
X110324000Y-137961860D01*
X110324000Y-137498140D01*
X110326764Y-137470072D01*
X110333160Y-137448991D01*
X110343548Y-137429555D01*
X110357524Y-137412524D01*
X110374555Y-137398548D01*
X110393991Y-137388160D01*
X110415072Y-137381764D01*
X110443140Y-137379000D01*
X112256860Y-137379000D01*
X112284928Y-137381764D01*
G37*
G36*
X107334928Y-137381764D02*
G01*
X107356009Y-137388160D01*
X107375445Y-137398548D01*
X107392476Y-137412524D01*
X107406452Y-137429555D01*
X107416840Y-137448991D01*
X107423236Y-137470072D01*
X107426000Y-137498140D01*
X107426000Y-137961860D01*
X107423236Y-137989928D01*
X107416840Y-138011009D01*
X107406452Y-138030445D01*
X107392476Y-138047476D01*
X107375445Y-138061452D01*
X107356009Y-138071840D01*
X107334928Y-138078236D01*
X107306860Y-138081000D01*
X105493140Y-138081000D01*
X105465072Y-138078236D01*
X105443991Y-138071840D01*
X105424555Y-138061452D01*
X105407524Y-138047476D01*
X105393548Y-138030445D01*
X105383160Y-138011009D01*
X105376764Y-137989928D01*
X105374000Y-137961860D01*
X105374000Y-137498140D01*
X105376764Y-137470072D01*
X105383160Y-137448991D01*
X105393548Y-137429555D01*
X105407524Y-137412524D01*
X105424555Y-137398548D01*
X105443991Y-137388160D01*
X105465072Y-137381764D01*
X105493140Y-137379000D01*
X107306860Y-137379000D01*
X107334928Y-137381764D01*
G37*
G36*
X156551000Y-138031000D02*
G01*
X154249000Y-138031000D01*
X154249000Y-136729000D01*
X156551000Y-136729000D01*
X156551000Y-138031000D01*
G37*
G36*
X117313674Y-135653465D02*
G01*
X117351367Y-135664899D01*
X117386103Y-135683466D01*
X117416548Y-135708452D01*
X117441534Y-135738897D01*
X117460101Y-135773633D01*
X117471535Y-135811326D01*
X117476000Y-135856661D01*
X117476000Y-136943339D01*
X117471535Y-136988674D01*
X117460101Y-137026367D01*
X117441534Y-137061103D01*
X117416548Y-137091548D01*
X117386103Y-137116534D01*
X117351367Y-137135101D01*
X117313674Y-137146535D01*
X117268339Y-137151000D01*
X116431661Y-137151000D01*
X116386326Y-137146535D01*
X116348633Y-137135101D01*
X116313897Y-137116534D01*
X116283452Y-137091548D01*
X116258466Y-137061103D01*
X116239899Y-137026367D01*
X116228465Y-136988674D01*
X116224000Y-136943339D01*
X116224000Y-135856661D01*
X116228465Y-135811326D01*
X116239899Y-135773633D01*
X116258466Y-135738897D01*
X116283452Y-135708452D01*
X116313897Y-135683466D01*
X116348633Y-135664899D01*
X116386326Y-135653465D01*
X116431661Y-135649000D01*
X117268339Y-135649000D01*
X117313674Y-135653465D01*
G37*
G36*
X115263674Y-135653465D02*
G01*
X115301367Y-135664899D01*
X115336103Y-135683466D01*
X115366548Y-135708452D01*
X115391534Y-135738897D01*
X115410101Y-135773633D01*
X115421535Y-135811326D01*
X115426000Y-135856661D01*
X115426000Y-136943339D01*
X115421535Y-136988674D01*
X115410101Y-137026367D01*
X115391534Y-137061103D01*
X115366548Y-137091548D01*
X115336103Y-137116534D01*
X115301367Y-137135101D01*
X115263674Y-137146535D01*
X115218339Y-137151000D01*
X114381661Y-137151000D01*
X114336326Y-137146535D01*
X114298633Y-137135101D01*
X114263897Y-137116534D01*
X114233452Y-137091548D01*
X114208466Y-137061103D01*
X114189899Y-137026367D01*
X114178465Y-136988674D01*
X114174000Y-136943339D01*
X114174000Y-135856661D01*
X114178465Y-135811326D01*
X114189899Y-135773633D01*
X114208466Y-135738897D01*
X114233452Y-135708452D01*
X114263897Y-135683466D01*
X114298633Y-135664899D01*
X114336326Y-135653465D01*
X114381661Y-135649000D01*
X115218339Y-135649000D01*
X115263674Y-135653465D01*
G37*
G36*
X112284928Y-136111764D02*
G01*
X112306009Y-136118160D01*
X112325445Y-136128548D01*
X112342476Y-136142524D01*
X112356452Y-136159555D01*
X112366840Y-136178991D01*
X112373236Y-136200072D01*
X112376000Y-136228140D01*
X112376000Y-136691860D01*
X112373236Y-136719928D01*
X112366840Y-136741009D01*
X112356452Y-136760445D01*
X112342476Y-136777476D01*
X112325445Y-136791452D01*
X112306009Y-136801840D01*
X112284928Y-136808236D01*
X112256860Y-136811000D01*
X110443140Y-136811000D01*
X110415072Y-136808236D01*
X110393991Y-136801840D01*
X110374555Y-136791452D01*
X110357524Y-136777476D01*
X110343548Y-136760445D01*
X110333160Y-136741009D01*
X110326764Y-136719928D01*
X110324000Y-136691860D01*
X110324000Y-136228140D01*
X110326764Y-136200072D01*
X110333160Y-136178991D01*
X110343548Y-136159555D01*
X110357524Y-136142524D01*
X110374555Y-136128548D01*
X110393991Y-136118160D01*
X110415072Y-136111764D01*
X110443140Y-136109000D01*
X112256860Y-136109000D01*
X112284928Y-136111764D01*
G37*
G36*
X107334928Y-136111764D02*
G01*
X107356009Y-136118160D01*
X107375445Y-136128548D01*
X107392476Y-136142524D01*
X107406452Y-136159555D01*
X107416840Y-136178991D01*
X107423236Y-136200072D01*
X107426000Y-136228140D01*
X107426000Y-136691860D01*
X107423236Y-136719928D01*
X107416840Y-136741009D01*
X107406452Y-136760445D01*
X107392476Y-136777476D01*
X107375445Y-136791452D01*
X107356009Y-136801840D01*
X107334928Y-136808236D01*
X107306860Y-136811000D01*
X105493140Y-136811000D01*
X105465072Y-136808236D01*
X105443991Y-136801840D01*
X105424555Y-136791452D01*
X105407524Y-136777476D01*
X105393548Y-136760445D01*
X105383160Y-136741009D01*
X105376764Y-136719928D01*
X105374000Y-136691860D01*
X105374000Y-136228140D01*
X105376764Y-136200072D01*
X105383160Y-136178991D01*
X105393548Y-136159555D01*
X105407524Y-136142524D01*
X105424555Y-136128548D01*
X105443991Y-136118160D01*
X105465072Y-136111764D01*
X105493140Y-136109000D01*
X107306860Y-136109000D01*
X107334928Y-136111764D01*
G37*
G36*
X156551000Y-133471000D02*
G01*
X154249000Y-133471000D01*
X154249000Y-132169000D01*
X156551000Y-132169000D01*
X156551000Y-133471000D01*
G37*
G36*
X125289499Y-129278445D02*
G01*
X125326995Y-129289820D01*
X125361554Y-129308292D01*
X125391847Y-129333153D01*
X125416708Y-129363446D01*
X125435180Y-129398005D01*
X125446555Y-129435501D01*
X125451000Y-129480638D01*
X125451000Y-130119362D01*
X125446555Y-130164499D01*
X125435180Y-130201995D01*
X125416708Y-130236554D01*
X125391847Y-130266847D01*
X125361554Y-130291708D01*
X125326995Y-130310180D01*
X125289499Y-130321555D01*
X125244362Y-130326000D01*
X124505638Y-130326000D01*
X124460501Y-130321555D01*
X124423005Y-130310180D01*
X124388446Y-130291708D01*
X124358153Y-130266847D01*
X124333292Y-130236554D01*
X124314820Y-130201995D01*
X124303445Y-130164499D01*
X124299000Y-130119362D01*
X124299000Y-129480638D01*
X124303445Y-129435501D01*
X124314820Y-129398005D01*
X124333292Y-129363446D01*
X124358153Y-129333153D01*
X124388446Y-129308292D01*
X124423005Y-129289820D01*
X124460501Y-129278445D01*
X124505638Y-129274000D01*
X125244362Y-129274000D01*
X125289499Y-129278445D01*
G37*
G36*
X123539499Y-129278445D02*
G01*
X123576995Y-129289820D01*
X123611554Y-129308292D01*
X123641847Y-129333153D01*
X123666708Y-129363446D01*
X123685180Y-129398005D01*
X123696555Y-129435501D01*
X123701000Y-129480638D01*
X123701000Y-130119362D01*
X123696555Y-130164499D01*
X123685180Y-130201995D01*
X123666708Y-130236554D01*
X123641847Y-130266847D01*
X123611554Y-130291708D01*
X123576995Y-130310180D01*
X123539499Y-130321555D01*
X123494362Y-130326000D01*
X122755638Y-130326000D01*
X122710501Y-130321555D01*
X122673005Y-130310180D01*
X122638446Y-130291708D01*
X122608153Y-130266847D01*
X122583292Y-130236554D01*
X122564820Y-130201995D01*
X122553445Y-130164499D01*
X122549000Y-130119362D01*
X122549000Y-129480638D01*
X122553445Y-129435501D01*
X122564820Y-129398005D01*
X122583292Y-129363446D01*
X122608153Y-129333153D01*
X122638446Y-129308292D01*
X122673005Y-129289820D01*
X122710501Y-129278445D01*
X122755638Y-129274000D01*
X123494362Y-129274000D01*
X123539499Y-129278445D01*
G37*
G36*
X171507430Y-124048977D02*
G01*
X171758684Y-124098955D01*
X171954752Y-124180169D01*
X172232034Y-124295023D01*
X172336012Y-124364499D01*
X172658041Y-124579671D01*
X173020329Y-124941959D01*
X173210524Y-125226607D01*
X173304977Y-125367966D01*
X173501045Y-125841317D01*
X173598878Y-126333153D01*
X173601000Y-126343824D01*
X173601000Y-126856176D01*
X173516363Y-127281677D01*
X173501045Y-127358683D01*
X173304977Y-127832034D01*
X173304976Y-127832035D01*
X173020329Y-128258041D01*
X172658041Y-128620329D01*
X172373393Y-128810524D01*
X172232034Y-128904977D01*
X171987196Y-129006392D01*
X171758684Y-129101045D01*
X171507430Y-129151023D01*
X171256177Y-129201000D01*
X170743823Y-129201000D01*
X170492570Y-129151023D01*
X170241316Y-129101045D01*
X170012804Y-129006392D01*
X169767966Y-128904977D01*
X169626607Y-128810524D01*
X169341959Y-128620329D01*
X168979671Y-128258041D01*
X168695024Y-127832035D01*
X168695023Y-127832034D01*
X168498955Y-127358683D01*
X168483638Y-127281677D01*
X168399000Y-126856176D01*
X168399000Y-126343824D01*
X168401123Y-126333153D01*
X168498955Y-125841317D01*
X168695023Y-125367966D01*
X168789476Y-125226607D01*
X168979671Y-124941959D01*
X169341959Y-124579671D01*
X169663988Y-124364499D01*
X169767966Y-124295023D01*
X170045248Y-124180169D01*
X170241316Y-124098955D01*
X170492570Y-124048977D01*
X170743823Y-123999000D01*
X171256177Y-123999000D01*
X171507430Y-124048977D01*
G37*
G36*
X123551999Y-126278445D02*
G01*
X123589495Y-126289820D01*
X123624054Y-126308292D01*
X123654347Y-126333153D01*
X123679208Y-126363446D01*
X123697680Y-126398005D01*
X123709055Y-126435501D01*
X123713500Y-126480638D01*
X123713500Y-127119362D01*
X123709055Y-127164499D01*
X123697680Y-127201995D01*
X123679208Y-127236554D01*
X123654347Y-127266847D01*
X123624054Y-127291708D01*
X123589495Y-127310180D01*
X123551999Y-127321555D01*
X123506862Y-127326000D01*
X122768138Y-127326000D01*
X122723001Y-127321555D01*
X122685505Y-127310180D01*
X122650946Y-127291708D01*
X122620653Y-127266847D01*
X122595792Y-127236554D01*
X122577320Y-127201995D01*
X122565945Y-127164499D01*
X122561500Y-127119362D01*
X122561500Y-126480638D01*
X122565945Y-126435501D01*
X122577320Y-126398005D01*
X122595792Y-126363446D01*
X122620653Y-126333153D01*
X122650946Y-126308292D01*
X122685505Y-126289820D01*
X122723001Y-126278445D01*
X122768138Y-126274000D01*
X123506862Y-126274000D01*
X123551999Y-126278445D01*
G37*
G36*
X125301999Y-126278445D02*
G01*
X125339495Y-126289820D01*
X125374054Y-126308292D01*
X125404347Y-126333153D01*
X125429208Y-126363446D01*
X125447680Y-126398005D01*
X125459055Y-126435501D01*
X125463500Y-126480638D01*
X125463500Y-127119362D01*
X125459055Y-127164499D01*
X125447680Y-127201995D01*
X125429208Y-127236554D01*
X125404347Y-127266847D01*
X125374054Y-127291708D01*
X125339495Y-127310180D01*
X125301999Y-127321555D01*
X125256862Y-127326000D01*
X124518138Y-127326000D01*
X124473001Y-127321555D01*
X124435505Y-127310180D01*
X124400946Y-127291708D01*
X124370653Y-127266847D01*
X124345792Y-127236554D01*
X124327320Y-127201995D01*
X124315945Y-127164499D01*
X124311500Y-127119362D01*
X124311500Y-126480638D01*
X124315945Y-126435501D01*
X124327320Y-126398005D01*
X124345792Y-126363446D01*
X124370653Y-126333153D01*
X124400946Y-126308292D01*
X124435505Y-126289820D01*
X124473001Y-126278445D01*
X124518138Y-126274000D01*
X125256862Y-126274000D01*
X125301999Y-126278445D01*
G37*
G36*
X125289499Y-123478445D02*
G01*
X125326995Y-123489820D01*
X125361554Y-123508292D01*
X125391847Y-123533153D01*
X125416708Y-123563446D01*
X125435180Y-123598005D01*
X125446555Y-123635501D01*
X125451000Y-123680638D01*
X125451000Y-124319362D01*
X125446555Y-124364499D01*
X125435180Y-124401995D01*
X125416708Y-124436554D01*
X125391847Y-124466847D01*
X125361554Y-124491708D01*
X125326995Y-124510180D01*
X125289499Y-124521555D01*
X125244362Y-124526000D01*
X124505638Y-124526000D01*
X124460501Y-124521555D01*
X124423005Y-124510180D01*
X124388446Y-124491708D01*
X124358153Y-124466847D01*
X124333292Y-124436554D01*
X124314820Y-124401995D01*
X124303445Y-124364499D01*
X124299000Y-124319362D01*
X124299000Y-123680638D01*
X124303445Y-123635501D01*
X124314820Y-123598005D01*
X124333292Y-123563446D01*
X124358153Y-123533153D01*
X124388446Y-123508292D01*
X124423005Y-123489820D01*
X124460501Y-123478445D01*
X124505638Y-123474000D01*
X125244362Y-123474000D01*
X125289499Y-123478445D01*
G37*
G36*
X123539499Y-123478445D02*
G01*
X123576995Y-123489820D01*
X123611554Y-123508292D01*
X123641847Y-123533153D01*
X123666708Y-123563446D01*
X123685180Y-123598005D01*
X123696555Y-123635501D01*
X123701000Y-123680638D01*
X123701000Y-124319362D01*
X123696555Y-124364499D01*
X123685180Y-124401995D01*
X123666708Y-124436554D01*
X123641847Y-124466847D01*
X123611554Y-124491708D01*
X123576995Y-124510180D01*
X123539499Y-124521555D01*
X123494362Y-124526000D01*
X122755638Y-124526000D01*
X122710501Y-124521555D01*
X122673005Y-124510180D01*
X122638446Y-124491708D01*
X122608153Y-124466847D01*
X122583292Y-124436554D01*
X122564820Y-124401995D01*
X122553445Y-124364499D01*
X122549000Y-124319362D01*
X122549000Y-123680638D01*
X122553445Y-123635501D01*
X122564820Y-123598005D01*
X122583292Y-123563446D01*
X122608153Y-123533153D01*
X122638446Y-123508292D01*
X122673005Y-123489820D01*
X122710501Y-123478445D01*
X122755638Y-123474000D01*
X123494362Y-123474000D01*
X123539499Y-123478445D01*
G37*
G36*
X171507430Y-116848977D02*
G01*
X171758684Y-116898955D01*
X171954752Y-116980169D01*
X172232034Y-117095023D01*
X172281633Y-117128164D01*
X172658041Y-117379671D01*
X173020329Y-117741959D01*
X173210524Y-118026607D01*
X173304977Y-118167966D01*
X173419831Y-118445248D01*
X173501045Y-118641316D01*
X173601000Y-119143824D01*
X173601000Y-119656176D01*
X173501045Y-120158684D01*
X173433740Y-120321173D01*
X173304977Y-120632034D01*
X173304976Y-120632035D01*
X173020329Y-121058041D01*
X172658041Y-121420329D01*
X172462477Y-121551000D01*
X172232034Y-121704977D01*
X171954752Y-121819831D01*
X171758684Y-121901045D01*
X171507430Y-121951022D01*
X171256177Y-122001000D01*
X170743823Y-122001000D01*
X170492570Y-121951022D01*
X170241316Y-121901045D01*
X170045248Y-121819831D01*
X169767966Y-121704977D01*
X169537523Y-121551000D01*
X169341959Y-121420329D01*
X168979671Y-121058041D01*
X168695024Y-120632035D01*
X168695023Y-120632034D01*
X168566260Y-120321173D01*
X168498955Y-120158684D01*
X168399000Y-119656176D01*
X168399000Y-119143824D01*
X168498955Y-118641316D01*
X168580169Y-118445248D01*
X168695023Y-118167966D01*
X168789476Y-118026607D01*
X168979671Y-117741959D01*
X169341959Y-117379671D01*
X169718367Y-117128164D01*
X169767966Y-117095023D01*
X170045248Y-116980169D01*
X170241316Y-116898955D01*
X170492570Y-116848977D01*
X170743823Y-116799000D01*
X171256177Y-116799000D01*
X171507430Y-116848977D01*
G37*
G36*
X123238674Y-120053465D02*
G01*
X123276367Y-120064899D01*
X123311103Y-120083466D01*
X123341548Y-120108452D01*
X123366534Y-120138897D01*
X123385101Y-120173633D01*
X123396535Y-120211326D01*
X123401000Y-120256661D01*
X123401000Y-121343339D01*
X123396535Y-121388674D01*
X123385101Y-121426367D01*
X123366534Y-121461103D01*
X123341548Y-121491548D01*
X123311103Y-121516534D01*
X123276367Y-121535101D01*
X123238674Y-121546535D01*
X123193339Y-121551000D01*
X122356661Y-121551000D01*
X122311326Y-121546535D01*
X122273633Y-121535101D01*
X122238897Y-121516534D01*
X122208452Y-121491548D01*
X122183466Y-121461103D01*
X122164899Y-121426367D01*
X122153465Y-121388674D01*
X122149000Y-121343339D01*
X122149000Y-120256661D01*
X122153465Y-120211326D01*
X122164899Y-120173633D01*
X122183466Y-120138897D01*
X122208452Y-120108452D01*
X122238897Y-120083466D01*
X122273633Y-120064899D01*
X122311326Y-120053465D01*
X122356661Y-120049000D01*
X123193339Y-120049000D01*
X123238674Y-120053465D01*
G37*
G36*
X125288674Y-120053465D02*
G01*
X125326367Y-120064899D01*
X125361103Y-120083466D01*
X125391548Y-120108452D01*
X125416534Y-120138897D01*
X125435101Y-120173633D01*
X125446535Y-120211326D01*
X125451000Y-120256661D01*
X125451000Y-121343339D01*
X125446535Y-121388674D01*
X125435101Y-121426367D01*
X125416534Y-121461103D01*
X125391548Y-121491548D01*
X125361103Y-121516534D01*
X125326367Y-121535101D01*
X125288674Y-121546535D01*
X125243339Y-121551000D01*
X124406661Y-121551000D01*
X124361326Y-121546535D01*
X124323633Y-121535101D01*
X124288897Y-121516534D01*
X124258452Y-121491548D01*
X124233466Y-121461103D01*
X124214899Y-121426367D01*
X124203465Y-121388674D01*
X124199000Y-121343339D01*
X124199000Y-120256661D01*
X124203465Y-120211326D01*
X124214899Y-120173633D01*
X124233466Y-120138897D01*
X124258452Y-120108452D01*
X124288897Y-120083466D01*
X124323633Y-120064899D01*
X124361326Y-120053465D01*
X124406661Y-120049000D01*
X125243339Y-120049000D01*
X125288674Y-120053465D01*
G37*
G36*
X156651000Y-113931000D02*
G01*
X154349000Y-113931000D01*
X154349000Y-112629000D01*
X156651000Y-112629000D01*
X156651000Y-113931000D01*
G37*
G36*
X172376000Y-113876000D02*
G01*
X165874000Y-113876000D01*
X165874000Y-107974000D01*
X172376000Y-107974000D01*
X172376000Y-113876000D01*
G37*
G36*
X106668228Y-112201703D02*
G01*
X106823100Y-112265853D01*
X106962481Y-112358985D01*
X107081015Y-112477519D01*
X107174147Y-112616900D01*
X107238297Y-112771772D01*
X107271000Y-112936184D01*
X107271000Y-113103816D01*
X107238297Y-113268228D01*
X107174147Y-113423100D01*
X107081015Y-113562481D01*
X106962481Y-113681015D01*
X106823100Y-113774147D01*
X106668228Y-113838297D01*
X106503816Y-113871000D01*
X106336184Y-113871000D01*
X106171772Y-113838297D01*
X106016900Y-113774147D01*
X105877519Y-113681015D01*
X105758985Y-113562481D01*
X105665853Y-113423100D01*
X105601703Y-113268228D01*
X105569000Y-113103816D01*
X105569000Y-112936184D01*
X105601703Y-112771772D01*
X105665853Y-112616900D01*
X105758985Y-112477519D01*
X105877519Y-112358985D01*
X106016900Y-112265853D01*
X106171772Y-112201703D01*
X106336184Y-112169000D01*
X106503816Y-112169000D01*
X106668228Y-112201703D01*
G37*
G36*
X112351000Y-113871000D02*
G01*
X110649000Y-113871000D01*
X110649000Y-112169000D01*
X112351000Y-112169000D01*
X112351000Y-113871000D01*
G37*
G36*
X109208228Y-112201703D02*
G01*
X109363100Y-112265853D01*
X109502481Y-112358985D01*
X109621015Y-112477519D01*
X109714147Y-112616900D01*
X109778297Y-112771772D01*
X109811000Y-112936184D01*
X109811000Y-113103816D01*
X109778297Y-113268228D01*
X109714147Y-113423100D01*
X109621015Y-113562481D01*
X109502481Y-113681015D01*
X109363100Y-113774147D01*
X109208228Y-113838297D01*
X109043816Y-113871000D01*
X108876184Y-113871000D01*
X108711772Y-113838297D01*
X108556900Y-113774147D01*
X108417519Y-113681015D01*
X108298985Y-113562481D01*
X108205853Y-113423100D01*
X108141703Y-113268228D01*
X108109000Y-113103816D01*
X108109000Y-112936184D01*
X108141703Y-112771772D01*
X108205853Y-112616900D01*
X108298985Y-112477519D01*
X108417519Y-112358985D01*
X108556900Y-112265853D01*
X108711772Y-112201703D01*
X108876184Y-112169000D01*
X109043816Y-112169000D01*
X109208228Y-112201703D01*
G37*
G36*
X104128228Y-112201703D02*
G01*
X104283100Y-112265853D01*
X104422481Y-112358985D01*
X104541015Y-112477519D01*
X104634147Y-112616900D01*
X104698297Y-112771772D01*
X104731000Y-112936184D01*
X104731000Y-113103816D01*
X104698297Y-113268228D01*
X104634147Y-113423100D01*
X104541015Y-113562481D01*
X104422481Y-113681015D01*
X104283100Y-113774147D01*
X104128228Y-113838297D01*
X103963816Y-113871000D01*
X103796184Y-113871000D01*
X103631772Y-113838297D01*
X103476900Y-113774147D01*
X103337519Y-113681015D01*
X103218985Y-113562481D01*
X103125853Y-113423100D01*
X103061703Y-113268228D01*
X103029000Y-113103816D01*
X103029000Y-112936184D01*
X103061703Y-112771772D01*
X103125853Y-112616900D01*
X103218985Y-112477519D01*
X103337519Y-112358985D01*
X103476900Y-112265853D01*
X103631772Y-112201703D01*
X103796184Y-112169000D01*
X103963816Y-112169000D01*
X104128228Y-112201703D01*
G37*
G36*
X117693512Y-109103927D02*
G01*
X117842812Y-109133624D01*
X118006784Y-109201544D01*
X118154354Y-109300147D01*
X118279853Y-109425646D01*
X118378456Y-109573216D01*
X118446376Y-109737188D01*
X118481000Y-109911259D01*
X118481000Y-110088741D01*
X118446376Y-110262812D01*
X118378456Y-110426784D01*
X118279853Y-110574354D01*
X118154354Y-110699853D01*
X118006784Y-110798456D01*
X117842812Y-110866376D01*
X117693512Y-110896073D01*
X117668742Y-110901000D01*
X117491258Y-110901000D01*
X117466488Y-110896073D01*
X117317188Y-110866376D01*
X117153216Y-110798456D01*
X117005646Y-110699853D01*
X116880147Y-110574354D01*
X116781544Y-110426784D01*
X116713624Y-110262812D01*
X116679000Y-110088741D01*
X116679000Y-109911259D01*
X116713624Y-109737188D01*
X116781544Y-109573216D01*
X116880147Y-109425646D01*
X117005646Y-109300147D01*
X117153216Y-109201544D01*
X117317188Y-109133624D01*
X117466488Y-109103927D01*
X117491258Y-109099000D01*
X117668742Y-109099000D01*
X117693512Y-109103927D01*
G37*
G36*
X130113512Y-109103927D02*
G01*
X130262812Y-109133624D01*
X130426784Y-109201544D01*
X130574354Y-109300147D01*
X130699853Y-109425646D01*
X130798456Y-109573216D01*
X130866376Y-109737188D01*
X130901000Y-109911259D01*
X130901000Y-110088741D01*
X130866376Y-110262812D01*
X130798456Y-110426784D01*
X130699853Y-110574354D01*
X130574354Y-110699853D01*
X130426784Y-110798456D01*
X130262812Y-110866376D01*
X130113512Y-110896073D01*
X130088742Y-110901000D01*
X129911258Y-110901000D01*
X129886488Y-110896073D01*
X129737188Y-110866376D01*
X129573216Y-110798456D01*
X129425646Y-110699853D01*
X129300147Y-110574354D01*
X129201544Y-110426784D01*
X129133624Y-110262812D01*
X129099000Y-110088741D01*
X129099000Y-109911259D01*
X129133624Y-109737188D01*
X129201544Y-109573216D01*
X129300147Y-109425646D01*
X129425646Y-109300147D01*
X129573216Y-109201544D01*
X129737188Y-109133624D01*
X129886488Y-109103927D01*
X129911258Y-109099000D01*
X130088742Y-109099000D01*
X130113512Y-109103927D01*
G37*
G36*
X132653512Y-109103927D02*
G01*
X132802812Y-109133624D01*
X132966784Y-109201544D01*
X133114354Y-109300147D01*
X133239853Y-109425646D01*
X133338456Y-109573216D01*
X133406376Y-109737188D01*
X133441000Y-109911259D01*
X133441000Y-110088741D01*
X133406376Y-110262812D01*
X133338456Y-110426784D01*
X133239853Y-110574354D01*
X133114354Y-110699853D01*
X132966784Y-110798456D01*
X132802812Y-110866376D01*
X132653512Y-110896073D01*
X132628742Y-110901000D01*
X132451258Y-110901000D01*
X132426488Y-110896073D01*
X132277188Y-110866376D01*
X132113216Y-110798456D01*
X131965646Y-110699853D01*
X131840147Y-110574354D01*
X131741544Y-110426784D01*
X131673624Y-110262812D01*
X131639000Y-110088741D01*
X131639000Y-109911259D01*
X131673624Y-109737188D01*
X131741544Y-109573216D01*
X131840147Y-109425646D01*
X131965646Y-109300147D01*
X132113216Y-109201544D01*
X132277188Y-109133624D01*
X132426488Y-109103927D01*
X132451258Y-109099000D01*
X132628742Y-109099000D01*
X132653512Y-109103927D01*
G37*
G36*
X135981000Y-110901000D02*
G01*
X134179000Y-110901000D01*
X134179000Y-109099000D01*
X135981000Y-109099000D01*
X135981000Y-110901000D01*
G37*
G36*
X115153512Y-109103927D02*
G01*
X115302812Y-109133624D01*
X115466784Y-109201544D01*
X115614354Y-109300147D01*
X115739853Y-109425646D01*
X115838456Y-109573216D01*
X115906376Y-109737188D01*
X115941000Y-109911259D01*
X115941000Y-110088741D01*
X115906376Y-110262812D01*
X115838456Y-110426784D01*
X115739853Y-110574354D01*
X115614354Y-110699853D01*
X115466784Y-110798456D01*
X115302812Y-110866376D01*
X115153512Y-110896073D01*
X115128742Y-110901000D01*
X114951258Y-110901000D01*
X114926488Y-110896073D01*
X114777188Y-110866376D01*
X114613216Y-110798456D01*
X114465646Y-110699853D01*
X114340147Y-110574354D01*
X114241544Y-110426784D01*
X114173624Y-110262812D01*
X114139000Y-110088741D01*
X114139000Y-109911259D01*
X114173624Y-109737188D01*
X114241544Y-109573216D01*
X114340147Y-109425646D01*
X114465646Y-109300147D01*
X114613216Y-109201544D01*
X114777188Y-109133624D01*
X114926488Y-109103927D01*
X114951258Y-109099000D01*
X115128742Y-109099000D01*
X115153512Y-109103927D01*
G37*
G36*
X120233512Y-109103927D02*
G01*
X120382812Y-109133624D01*
X120546784Y-109201544D01*
X120694354Y-109300147D01*
X120819853Y-109425646D01*
X120918456Y-109573216D01*
X120986376Y-109737188D01*
X121021000Y-109911259D01*
X121021000Y-110088741D01*
X120986376Y-110262812D01*
X120918456Y-110426784D01*
X120819853Y-110574354D01*
X120694354Y-110699853D01*
X120546784Y-110798456D01*
X120382812Y-110866376D01*
X120233512Y-110896073D01*
X120208742Y-110901000D01*
X120031258Y-110901000D01*
X120006488Y-110896073D01*
X119857188Y-110866376D01*
X119693216Y-110798456D01*
X119545646Y-110699853D01*
X119420147Y-110574354D01*
X119321544Y-110426784D01*
X119253624Y-110262812D01*
X119219000Y-110088741D01*
X119219000Y-109911259D01*
X119253624Y-109737188D01*
X119321544Y-109573216D01*
X119420147Y-109425646D01*
X119545646Y-109300147D01*
X119693216Y-109201544D01*
X119857188Y-109133624D01*
X120006488Y-109103927D01*
X120031258Y-109099000D01*
X120208742Y-109099000D01*
X120233512Y-109103927D01*
G37*
G36*
X122773512Y-109103927D02*
G01*
X122922812Y-109133624D01*
X123086784Y-109201544D01*
X123234354Y-109300147D01*
X123359853Y-109425646D01*
X123458456Y-109573216D01*
X123526376Y-109737188D01*
X123561000Y-109911259D01*
X123561000Y-110088741D01*
X123526376Y-110262812D01*
X123458456Y-110426784D01*
X123359853Y-110574354D01*
X123234354Y-110699853D01*
X123086784Y-110798456D01*
X122922812Y-110866376D01*
X122773512Y-110896073D01*
X122748742Y-110901000D01*
X122571258Y-110901000D01*
X122546488Y-110896073D01*
X122397188Y-110866376D01*
X122233216Y-110798456D01*
X122085646Y-110699853D01*
X121960147Y-110574354D01*
X121861544Y-110426784D01*
X121793624Y-110262812D01*
X121759000Y-110088741D01*
X121759000Y-109911259D01*
X121793624Y-109737188D01*
X121861544Y-109573216D01*
X121960147Y-109425646D01*
X122085646Y-109300147D01*
X122233216Y-109201544D01*
X122397188Y-109133624D01*
X122546488Y-109103927D01*
X122571258Y-109099000D01*
X122748742Y-109099000D01*
X122773512Y-109103927D01*
G37*
G36*
X126101000Y-110901000D02*
G01*
X124299000Y-110901000D01*
X124299000Y-109099000D01*
X126101000Y-109099000D01*
X126101000Y-110901000D01*
G37*
G36*
X156651000Y-109371000D02*
G01*
X154349000Y-109371000D01*
X154349000Y-108069000D01*
X156651000Y-108069000D01*
X156651000Y-109371000D01*
G37*
G36*
X176576000Y-109296000D02*
G01*
X174274000Y-109296000D01*
X174274000Y-107994000D01*
X176576000Y-107994000D01*
X176576000Y-109296000D01*
G37*
G36*
X106668228Y-104581703D02*
G01*
X106823100Y-104645853D01*
X106962481Y-104738985D01*
X107081015Y-104857519D01*
X107174147Y-104996900D01*
X107238297Y-105151772D01*
X107271000Y-105316184D01*
X107271000Y-105483816D01*
X107238297Y-105648228D01*
X107174147Y-105803100D01*
X107081015Y-105942481D01*
X106962481Y-106061015D01*
X106823100Y-106154147D01*
X106668228Y-106218297D01*
X106503816Y-106251000D01*
X106336184Y-106251000D01*
X106171772Y-106218297D01*
X106016900Y-106154147D01*
X105877519Y-106061015D01*
X105758985Y-105942481D01*
X105665853Y-105803100D01*
X105601703Y-105648228D01*
X105569000Y-105483816D01*
X105569000Y-105316184D01*
X105601703Y-105151772D01*
X105665853Y-104996900D01*
X105758985Y-104857519D01*
X105877519Y-104738985D01*
X106016900Y-104645853D01*
X106171772Y-104581703D01*
X106336184Y-104549000D01*
X106503816Y-104549000D01*
X106668228Y-104581703D01*
G37*
G36*
X104128228Y-104581703D02*
G01*
X104283100Y-104645853D01*
X104422481Y-104738985D01*
X104541015Y-104857519D01*
X104634147Y-104996900D01*
X104698297Y-105151772D01*
X104731000Y-105316184D01*
X104731000Y-105483816D01*
X104698297Y-105648228D01*
X104634147Y-105803100D01*
X104541015Y-105942481D01*
X104422481Y-106061015D01*
X104283100Y-106154147D01*
X104128228Y-106218297D01*
X103963816Y-106251000D01*
X103796184Y-106251000D01*
X103631772Y-106218297D01*
X103476900Y-106154147D01*
X103337519Y-106061015D01*
X103218985Y-105942481D01*
X103125853Y-105803100D01*
X103061703Y-105648228D01*
X103029000Y-105483816D01*
X103029000Y-105316184D01*
X103061703Y-105151772D01*
X103125853Y-104996900D01*
X103218985Y-104857519D01*
X103337519Y-104738985D01*
X103476900Y-104645853D01*
X103631772Y-104581703D01*
X103796184Y-104549000D01*
X103963816Y-104549000D01*
X104128228Y-104581703D01*
G37*
G36*
X109208228Y-104581703D02*
G01*
X109363100Y-104645853D01*
X109502481Y-104738985D01*
X109621015Y-104857519D01*
X109714147Y-104996900D01*
X109778297Y-105151772D01*
X109811000Y-105316184D01*
X109811000Y-105483816D01*
X109778297Y-105648228D01*
X109714147Y-105803100D01*
X109621015Y-105942481D01*
X109502481Y-106061015D01*
X109363100Y-106154147D01*
X109208228Y-106218297D01*
X109043816Y-106251000D01*
X108876184Y-106251000D01*
X108711772Y-106218297D01*
X108556900Y-106154147D01*
X108417519Y-106061015D01*
X108298985Y-105942481D01*
X108205853Y-105803100D01*
X108141703Y-105648228D01*
X108109000Y-105483816D01*
X108109000Y-105316184D01*
X108141703Y-105151772D01*
X108205853Y-104996900D01*
X108298985Y-104857519D01*
X108417519Y-104738985D01*
X108556900Y-104645853D01*
X108711772Y-104581703D01*
X108876184Y-104549000D01*
X109043816Y-104549000D01*
X109208228Y-104581703D01*
G37*
G36*
X111748228Y-104581703D02*
G01*
X111903100Y-104645853D01*
X112042481Y-104738985D01*
X112161015Y-104857519D01*
X112254147Y-104996900D01*
X112318297Y-105151772D01*
X112351000Y-105316184D01*
X112351000Y-105483816D01*
X112318297Y-105648228D01*
X112254147Y-105803100D01*
X112161015Y-105942481D01*
X112042481Y-106061015D01*
X111903100Y-106154147D01*
X111748228Y-106218297D01*
X111583816Y-106251000D01*
X111416184Y-106251000D01*
X111251772Y-106218297D01*
X111096900Y-106154147D01*
X110957519Y-106061015D01*
X110838985Y-105942481D01*
X110745853Y-105803100D01*
X110681703Y-105648228D01*
X110649000Y-105483816D01*
X110649000Y-105316184D01*
X110681703Y-105151772D01*
X110745853Y-104996900D01*
X110838985Y-104857519D01*
X110957519Y-104738985D01*
X111096900Y-104645853D01*
X111251772Y-104581703D01*
X111416184Y-104549000D01*
X111583816Y-104549000D01*
X111748228Y-104581703D01*
G37*
G36*
X181368228Y-99781703D02*
G01*
X181523100Y-99845853D01*
X181662481Y-99938985D01*
X181781015Y-100057519D01*
X181874147Y-100196900D01*
X181938297Y-100351772D01*
X181971000Y-100516184D01*
X181971000Y-100683816D01*
X181938297Y-100848228D01*
X181874147Y-101003100D01*
X181781015Y-101142481D01*
X181662481Y-101261015D01*
X181523100Y-101354147D01*
X181368228Y-101418297D01*
X181203816Y-101451000D01*
X181036184Y-101451000D01*
X180871772Y-101418297D01*
X180716900Y-101354147D01*
X180577519Y-101261015D01*
X180458985Y-101142481D01*
X180365853Y-101003100D01*
X180301703Y-100848228D01*
X180269000Y-100683816D01*
X180269000Y-100516184D01*
X180301703Y-100351772D01*
X180365853Y-100196900D01*
X180458985Y-100057519D01*
X180577519Y-99938985D01*
X180716900Y-99845853D01*
X180871772Y-99781703D01*
X181036184Y-99749000D01*
X181203816Y-99749000D01*
X181368228Y-99781703D01*
G37*
G36*
X176288228Y-99781703D02*
G01*
X176443100Y-99845853D01*
X176582481Y-99938985D01*
X176701015Y-100057519D01*
X176794147Y-100196900D01*
X176858297Y-100351772D01*
X176891000Y-100516184D01*
X176891000Y-100683816D01*
X176858297Y-100848228D01*
X176794147Y-101003100D01*
X176701015Y-101142481D01*
X176582481Y-101261015D01*
X176443100Y-101354147D01*
X176288228Y-101418297D01*
X176123816Y-101451000D01*
X175956184Y-101451000D01*
X175791772Y-101418297D01*
X175636900Y-101354147D01*
X175497519Y-101261015D01*
X175378985Y-101142481D01*
X175285853Y-101003100D01*
X175221703Y-100848228D01*
X175189000Y-100683816D01*
X175189000Y-100516184D01*
X175221703Y-100351772D01*
X175285853Y-100196900D01*
X175378985Y-100057519D01*
X175497519Y-99938985D01*
X175636900Y-99845853D01*
X175791772Y-99781703D01*
X175956184Y-99749000D01*
X176123816Y-99749000D01*
X176288228Y-99781703D01*
G37*
G36*
X173748228Y-99781703D02*
G01*
X173903100Y-99845853D01*
X174042481Y-99938985D01*
X174161015Y-100057519D01*
X174254147Y-100196900D01*
X174318297Y-100351772D01*
X174351000Y-100516184D01*
X174351000Y-100683816D01*
X174318297Y-100848228D01*
X174254147Y-101003100D01*
X174161015Y-101142481D01*
X174042481Y-101261015D01*
X173903100Y-101354147D01*
X173748228Y-101418297D01*
X173583816Y-101451000D01*
X173416184Y-101451000D01*
X173251772Y-101418297D01*
X173096900Y-101354147D01*
X172957519Y-101261015D01*
X172838985Y-101142481D01*
X172745853Y-101003100D01*
X172681703Y-100848228D01*
X172649000Y-100683816D01*
X172649000Y-100516184D01*
X172681703Y-100351772D01*
X172745853Y-100196900D01*
X172838985Y-100057519D01*
X172957519Y-99938985D01*
X173096900Y-99845853D01*
X173251772Y-99781703D01*
X173416184Y-99749000D01*
X173583816Y-99749000D01*
X173748228Y-99781703D01*
G37*
G36*
X178828228Y-99781703D02*
G01*
X178983100Y-99845853D01*
X179122481Y-99938985D01*
X179241015Y-100057519D01*
X179334147Y-100196900D01*
X179398297Y-100351772D01*
X179431000Y-100516184D01*
X179431000Y-100683816D01*
X179398297Y-100848228D01*
X179334147Y-101003100D01*
X179241015Y-101142481D01*
X179122481Y-101261015D01*
X178983100Y-101354147D01*
X178828228Y-101418297D01*
X178663816Y-101451000D01*
X178496184Y-101451000D01*
X178331772Y-101418297D01*
X178176900Y-101354147D01*
X178037519Y-101261015D01*
X177918985Y-101142481D01*
X177825853Y-101003100D01*
X177761703Y-100848228D01*
X177729000Y-100683816D01*
X177729000Y-100516184D01*
X177761703Y-100351772D01*
X177825853Y-100196900D01*
X177918985Y-100057519D01*
X178037519Y-99938985D01*
X178176900Y-99845853D01*
X178331772Y-99781703D01*
X178496184Y-99749000D01*
X178663816Y-99749000D01*
X178828228Y-99781703D01*
G37*
G36*
X152509106Y-66000000D02*
G01*
X143624999Y-66000000D01*
X143600613Y-66002402D01*
X143577164Y-66009515D01*
X143555553Y-66021066D01*
X143536611Y-66036611D01*
X143521066Y-66055553D01*
X143509515Y-66077164D01*
X143502402Y-66100613D01*
X143500000Y-66124999D01*
X143500000Y-98406835D01*
X139000000Y-98406835D01*
X139000000Y-98075999D01*
X138997598Y-98051613D01*
X138990485Y-98028164D01*
X138978934Y-98006553D01*
X138963389Y-97987611D01*
X138944447Y-97972066D01*
X138922836Y-97960515D01*
X138899387Y-97953402D01*
X138875001Y-97951000D01*
X132549000Y-97951000D01*
X132549000Y-92049000D01*
X138875001Y-92049000D01*
X138899387Y-92046598D01*
X138922836Y-92039485D01*
X138944447Y-92027934D01*
X138963389Y-92012389D01*
X138978934Y-91993447D01*
X138990485Y-91971836D01*
X138997598Y-91948387D01*
X139000000Y-91924001D01*
X139000000Y-73975999D01*
X138997598Y-73951613D01*
X138990485Y-73928164D01*
X138978934Y-73906553D01*
X138963389Y-73887611D01*
X138944447Y-73872066D01*
X138922836Y-73860515D01*
X138899387Y-73853402D01*
X138875001Y-73851000D01*
X132649000Y-73851000D01*
X132649000Y-67949000D01*
X138875001Y-67949000D01*
X138899387Y-67946598D01*
X138922836Y-67939485D01*
X138944447Y-67927934D01*
X138963389Y-67912389D01*
X138978934Y-67893447D01*
X138990485Y-67871836D01*
X138997598Y-67848387D01*
X139000000Y-67824001D01*
X139000000Y-66124999D01*
X138997598Y-66100613D01*
X138990485Y-66077164D01*
X138978934Y-66055553D01*
X138963389Y-66036611D01*
X138944447Y-66021066D01*
X138922836Y-66009515D01*
X138899387Y-66002402D01*
X138875001Y-66000000D01*
X132490893Y-66000000D01*
X132500000Y-63500000D01*
X152518213Y-63500000D01*
X152509106Y-66000000D01*
G37*
G36*
X119126000Y-98026000D02*
G01*
X112624000Y-98026000D01*
X112624000Y-92124000D01*
X119126000Y-92124000D01*
X119126000Y-98026000D01*
G37*
G36*
X110726000Y-98006000D02*
G01*
X108424000Y-98006000D01*
X108424000Y-96704000D01*
X110726000Y-96704000D01*
X110726000Y-98006000D01*
G37*
G36*
X130651000Y-97931000D02*
G01*
X128349000Y-97931000D01*
X128349000Y-96629000D01*
X130651000Y-96629000D01*
X130651000Y-97931000D01*
G37*
G36*
X150821000Y-96901000D02*
G01*
X149019000Y-96901000D01*
X149019000Y-95099000D01*
X150821000Y-95099000D01*
X150821000Y-96901000D01*
G37*
G36*
X170073512Y-95103927D02*
G01*
X170222812Y-95133624D01*
X170386784Y-95201544D01*
X170534354Y-95300147D01*
X170659853Y-95425646D01*
X170758456Y-95573216D01*
X170826376Y-95737188D01*
X170861000Y-95911259D01*
X170861000Y-96088741D01*
X170826376Y-96262812D01*
X170758456Y-96426784D01*
X170659853Y-96574354D01*
X170534354Y-96699853D01*
X170386784Y-96798456D01*
X170222812Y-96866376D01*
X170073512Y-96896073D01*
X170048742Y-96901000D01*
X169871258Y-96901000D01*
X169846488Y-96896073D01*
X169697188Y-96866376D01*
X169533216Y-96798456D01*
X169385646Y-96699853D01*
X169260147Y-96574354D01*
X169161544Y-96426784D01*
X169093624Y-96262812D01*
X169059000Y-96088741D01*
X169059000Y-95911259D01*
X169093624Y-95737188D01*
X169161544Y-95573216D01*
X169260147Y-95425646D01*
X169385646Y-95300147D01*
X169533216Y-95201544D01*
X169697188Y-95133624D01*
X169846488Y-95103927D01*
X169871258Y-95099000D01*
X170048742Y-95099000D01*
X170073512Y-95103927D01*
G37*
G36*
X167533512Y-95103927D02*
G01*
X167682812Y-95133624D01*
X167846784Y-95201544D01*
X167994354Y-95300147D01*
X168119853Y-95425646D01*
X168218456Y-95573216D01*
X168286376Y-95737188D01*
X168321000Y-95911259D01*
X168321000Y-96088741D01*
X168286376Y-96262812D01*
X168218456Y-96426784D01*
X168119853Y-96574354D01*
X167994354Y-96699853D01*
X167846784Y-96798456D01*
X167682812Y-96866376D01*
X167533512Y-96896073D01*
X167508742Y-96901000D01*
X167331258Y-96901000D01*
X167306488Y-96896073D01*
X167157188Y-96866376D01*
X166993216Y-96798456D01*
X166845646Y-96699853D01*
X166720147Y-96574354D01*
X166621544Y-96426784D01*
X166553624Y-96262812D01*
X166519000Y-96088741D01*
X166519000Y-95911259D01*
X166553624Y-95737188D01*
X166621544Y-95573216D01*
X166720147Y-95425646D01*
X166845646Y-95300147D01*
X166993216Y-95201544D01*
X167157188Y-95133624D01*
X167306488Y-95103927D01*
X167331258Y-95099000D01*
X167508742Y-95099000D01*
X167533512Y-95103927D01*
G37*
G36*
X164993512Y-95103927D02*
G01*
X165142812Y-95133624D01*
X165306784Y-95201544D01*
X165454354Y-95300147D01*
X165579853Y-95425646D01*
X165678456Y-95573216D01*
X165746376Y-95737188D01*
X165781000Y-95911259D01*
X165781000Y-96088741D01*
X165746376Y-96262812D01*
X165678456Y-96426784D01*
X165579853Y-96574354D01*
X165454354Y-96699853D01*
X165306784Y-96798456D01*
X165142812Y-96866376D01*
X164993512Y-96896073D01*
X164968742Y-96901000D01*
X164791258Y-96901000D01*
X164766488Y-96896073D01*
X164617188Y-96866376D01*
X164453216Y-96798456D01*
X164305646Y-96699853D01*
X164180147Y-96574354D01*
X164081544Y-96426784D01*
X164013624Y-96262812D01*
X163979000Y-96088741D01*
X163979000Y-95911259D01*
X164013624Y-95737188D01*
X164081544Y-95573216D01*
X164180147Y-95425646D01*
X164305646Y-95300147D01*
X164453216Y-95201544D01*
X164617188Y-95133624D01*
X164766488Y-95103927D01*
X164791258Y-95099000D01*
X164968742Y-95099000D01*
X164993512Y-95103927D01*
G37*
G36*
X162453512Y-95103927D02*
G01*
X162602812Y-95133624D01*
X162766784Y-95201544D01*
X162914354Y-95300147D01*
X163039853Y-95425646D01*
X163138456Y-95573216D01*
X163206376Y-95737188D01*
X163241000Y-95911259D01*
X163241000Y-96088741D01*
X163206376Y-96262812D01*
X163138456Y-96426784D01*
X163039853Y-96574354D01*
X162914354Y-96699853D01*
X162766784Y-96798456D01*
X162602812Y-96866376D01*
X162453512Y-96896073D01*
X162428742Y-96901000D01*
X162251258Y-96901000D01*
X162226488Y-96896073D01*
X162077188Y-96866376D01*
X161913216Y-96798456D01*
X161765646Y-96699853D01*
X161640147Y-96574354D01*
X161541544Y-96426784D01*
X161473624Y-96262812D01*
X161439000Y-96088741D01*
X161439000Y-95911259D01*
X161473624Y-95737188D01*
X161541544Y-95573216D01*
X161640147Y-95425646D01*
X161765646Y-95300147D01*
X161913216Y-95201544D01*
X162077188Y-95133624D01*
X162226488Y-95103927D01*
X162251258Y-95099000D01*
X162428742Y-95099000D01*
X162453512Y-95103927D01*
G37*
G36*
X160701000Y-96901000D02*
G01*
X158899000Y-96901000D01*
X158899000Y-95099000D01*
X160701000Y-95099000D01*
X160701000Y-96901000D01*
G37*
G36*
X155113512Y-95103927D02*
G01*
X155262812Y-95133624D01*
X155426784Y-95201544D01*
X155574354Y-95300147D01*
X155699853Y-95425646D01*
X155798456Y-95573216D01*
X155866376Y-95737188D01*
X155901000Y-95911259D01*
X155901000Y-96088741D01*
X155866376Y-96262812D01*
X155798456Y-96426784D01*
X155699853Y-96574354D01*
X155574354Y-96699853D01*
X155426784Y-96798456D01*
X155262812Y-96866376D01*
X155113512Y-96896073D01*
X155088742Y-96901000D01*
X154911258Y-96901000D01*
X154886488Y-96896073D01*
X154737188Y-96866376D01*
X154573216Y-96798456D01*
X154425646Y-96699853D01*
X154300147Y-96574354D01*
X154201544Y-96426784D01*
X154133624Y-96262812D01*
X154099000Y-96088741D01*
X154099000Y-95911259D01*
X154133624Y-95737188D01*
X154201544Y-95573216D01*
X154300147Y-95425646D01*
X154425646Y-95300147D01*
X154573216Y-95201544D01*
X154737188Y-95133624D01*
X154886488Y-95103927D01*
X154911258Y-95099000D01*
X155088742Y-95099000D01*
X155113512Y-95103927D01*
G37*
G36*
X152573512Y-95103927D02*
G01*
X152722812Y-95133624D01*
X152886784Y-95201544D01*
X153034354Y-95300147D01*
X153159853Y-95425646D01*
X153258456Y-95573216D01*
X153326376Y-95737188D01*
X153361000Y-95911259D01*
X153361000Y-96088741D01*
X153326376Y-96262812D01*
X153258456Y-96426784D01*
X153159853Y-96574354D01*
X153034354Y-96699853D01*
X152886784Y-96798456D01*
X152722812Y-96866376D01*
X152573512Y-96896073D01*
X152548742Y-96901000D01*
X152371258Y-96901000D01*
X152346488Y-96896073D01*
X152197188Y-96866376D01*
X152033216Y-96798456D01*
X151885646Y-96699853D01*
X151760147Y-96574354D01*
X151661544Y-96426784D01*
X151593624Y-96262812D01*
X151559000Y-96088741D01*
X151559000Y-95911259D01*
X151593624Y-95737188D01*
X151661544Y-95573216D01*
X151760147Y-95425646D01*
X151885646Y-95300147D01*
X152033216Y-95201544D01*
X152197188Y-95133624D01*
X152346488Y-95103927D01*
X152371258Y-95099000D01*
X152548742Y-95099000D01*
X152573512Y-95103927D01*
G37*
G36*
X126385386Y-66000000D02*
G01*
X108624999Y-66000000D01*
X108600613Y-66002402D01*
X108577164Y-66009515D01*
X108555553Y-66021066D01*
X108536611Y-66036611D01*
X108521066Y-66055553D01*
X108509515Y-66077164D01*
X108502402Y-66100613D01*
X108500000Y-66124999D01*
X108500000Y-67744001D01*
X108502402Y-67768387D01*
X108509515Y-67791836D01*
X108521066Y-67813447D01*
X108536611Y-67832389D01*
X108555553Y-67847934D01*
X108577164Y-67859485D01*
X108600613Y-67866598D01*
X108624999Y-67869000D01*
X110651000Y-67869000D01*
X110651000Y-69171000D01*
X108624999Y-69171000D01*
X108600613Y-69173402D01*
X108577164Y-69180515D01*
X108555553Y-69192066D01*
X108536611Y-69207611D01*
X108521066Y-69226553D01*
X108509515Y-69248164D01*
X108502402Y-69271613D01*
X108500000Y-69295999D01*
X108500000Y-72304001D01*
X108502402Y-72328387D01*
X108509515Y-72351836D01*
X108521066Y-72373447D01*
X108536611Y-72392389D01*
X108555553Y-72407934D01*
X108577164Y-72419485D01*
X108600613Y-72426598D01*
X108624999Y-72429000D01*
X110651000Y-72429000D01*
X110651000Y-73731000D01*
X108624999Y-73731000D01*
X108600613Y-73733402D01*
X108577164Y-73740515D01*
X108555553Y-73752066D01*
X108536611Y-73767611D01*
X108521066Y-73786553D01*
X108509515Y-73808164D01*
X108502402Y-73831613D01*
X108500000Y-73855999D01*
X108500000Y-75324001D01*
X108502402Y-75348387D01*
X108509515Y-75371836D01*
X108521066Y-75393447D01*
X108536611Y-75412389D01*
X108555553Y-75427934D01*
X108577164Y-75439485D01*
X108600613Y-75446598D01*
X108624999Y-75449000D01*
X108689346Y-75449000D01*
X108728571Y-75452863D01*
X108807023Y-75460590D01*
X108907682Y-75491125D01*
X108958013Y-75506392D01*
X109097165Y-75580771D01*
X109219133Y-75680867D01*
X109319229Y-75802835D01*
X109393608Y-75941987D01*
X109393608Y-75941988D01*
X109439410Y-76092977D01*
X109454875Y-76250000D01*
X109439410Y-76407023D01*
X109408875Y-76507682D01*
X109393608Y-76558013D01*
X109319229Y-76697165D01*
X109219133Y-76819133D01*
X109097165Y-76919229D01*
X108958013Y-76993608D01*
X108907682Y-77008875D01*
X108807023Y-77039410D01*
X108728571Y-77047137D01*
X108689346Y-77051000D01*
X108624999Y-77051000D01*
X108600613Y-77053402D01*
X108577164Y-77060515D01*
X108555553Y-77072066D01*
X108536611Y-77087611D01*
X108521066Y-77106553D01*
X108509515Y-77128164D01*
X108502402Y-77151613D01*
X108500000Y-77175999D01*
X108500000Y-88824001D01*
X108502402Y-88848387D01*
X108509515Y-88871836D01*
X108521066Y-88893447D01*
X108536611Y-88912389D01*
X108555553Y-88927934D01*
X108577164Y-88939485D01*
X108600613Y-88946598D01*
X108624999Y-88949000D01*
X108689346Y-88949000D01*
X108728571Y-88952863D01*
X108807023Y-88960590D01*
X108907682Y-88991125D01*
X108958013Y-89006392D01*
X109097165Y-89080771D01*
X109219133Y-89180867D01*
X109319229Y-89302835D01*
X109393608Y-89441987D01*
X109393608Y-89441988D01*
X109439410Y-89592977D01*
X109454875Y-89750000D01*
X109439410Y-89907023D01*
X109408875Y-90007682D01*
X109393608Y-90058013D01*
X109319229Y-90197165D01*
X109219133Y-90319133D01*
X109097165Y-90419229D01*
X108958013Y-90493608D01*
X108907682Y-90508875D01*
X108807023Y-90539410D01*
X108728571Y-90547137D01*
X108689346Y-90551000D01*
X108624999Y-90551000D01*
X108600613Y-90553402D01*
X108577164Y-90560515D01*
X108555553Y-90572066D01*
X108536611Y-90587611D01*
X108521066Y-90606553D01*
X108509515Y-90628164D01*
X108502402Y-90651613D01*
X108500000Y-90675999D01*
X108500000Y-92019001D01*
X108502402Y-92043387D01*
X108509515Y-92066836D01*
X108521066Y-92088447D01*
X108536611Y-92107389D01*
X108555553Y-92122934D01*
X108577164Y-92134485D01*
X108600613Y-92141598D01*
X108624999Y-92144000D01*
X110726000Y-92144000D01*
X110726000Y-93446000D01*
X108624999Y-93446000D01*
X108600613Y-93448402D01*
X108577164Y-93455515D01*
X108555553Y-93467066D01*
X108536611Y-93482611D01*
X108521066Y-93501553D01*
X108509515Y-93523164D01*
X108502402Y-93546613D01*
X108500000Y-93570999D01*
X108500000Y-94406835D01*
X104000000Y-94406835D01*
X104000000Y-66124999D01*
X103997598Y-66100613D01*
X103990485Y-66077164D01*
X103978934Y-66055553D01*
X103963389Y-66036611D01*
X103944447Y-66021066D01*
X103922836Y-66009515D01*
X103899387Y-66002402D01*
X103875001Y-66000000D01*
X102018496Y-66000000D01*
X102018496Y-63500000D01*
X126385386Y-63500000D01*
X126385386Y-66000000D01*
G37*
G36*
X181368228Y-92161703D02*
G01*
X181523100Y-92225853D01*
X181662481Y-92318985D01*
X181781015Y-92437519D01*
X181874147Y-92576900D01*
X181938297Y-92731772D01*
X181971000Y-92896184D01*
X181971000Y-93063816D01*
X181938297Y-93228228D01*
X181874147Y-93383100D01*
X181781015Y-93522481D01*
X181662481Y-93641015D01*
X181523100Y-93734147D01*
X181368228Y-93798297D01*
X181203816Y-93831000D01*
X181036184Y-93831000D01*
X180871772Y-93798297D01*
X180716900Y-93734147D01*
X180577519Y-93641015D01*
X180458985Y-93522481D01*
X180365853Y-93383100D01*
X180301703Y-93228228D01*
X180269000Y-93063816D01*
X180269000Y-92896184D01*
X180301703Y-92731772D01*
X180365853Y-92576900D01*
X180458985Y-92437519D01*
X180577519Y-92318985D01*
X180716900Y-92225853D01*
X180871772Y-92161703D01*
X181036184Y-92129000D01*
X181203816Y-92129000D01*
X181368228Y-92161703D01*
G37*
G36*
X174351000Y-93831000D02*
G01*
X172649000Y-93831000D01*
X172649000Y-92129000D01*
X174351000Y-92129000D01*
X174351000Y-93831000D01*
G37*
G36*
X178828228Y-92161703D02*
G01*
X178983100Y-92225853D01*
X179122481Y-92318985D01*
X179241015Y-92437519D01*
X179334147Y-92576900D01*
X179398297Y-92731772D01*
X179431000Y-92896184D01*
X179431000Y-93063816D01*
X179398297Y-93228228D01*
X179334147Y-93383100D01*
X179241015Y-93522481D01*
X179122481Y-93641015D01*
X178983100Y-93734147D01*
X178828228Y-93798297D01*
X178663816Y-93831000D01*
X178496184Y-93831000D01*
X178331772Y-93798297D01*
X178176900Y-93734147D01*
X178037519Y-93641015D01*
X177918985Y-93522481D01*
X177825853Y-93383100D01*
X177761703Y-93228228D01*
X177729000Y-93063816D01*
X177729000Y-92896184D01*
X177761703Y-92731772D01*
X177825853Y-92576900D01*
X177918985Y-92437519D01*
X178037519Y-92318985D01*
X178176900Y-92225853D01*
X178331772Y-92161703D01*
X178496184Y-92129000D01*
X178663816Y-92129000D01*
X178828228Y-92161703D01*
G37*
G36*
X176288228Y-92161703D02*
G01*
X176443100Y-92225853D01*
X176582481Y-92318985D01*
X176701015Y-92437519D01*
X176794147Y-92576900D01*
X176858297Y-92731772D01*
X176891000Y-92896184D01*
X176891000Y-93063816D01*
X176858297Y-93228228D01*
X176794147Y-93383100D01*
X176701015Y-93522481D01*
X176582481Y-93641015D01*
X176443100Y-93734147D01*
X176288228Y-93798297D01*
X176123816Y-93831000D01*
X175956184Y-93831000D01*
X175791772Y-93798297D01*
X175636900Y-93734147D01*
X175497519Y-93641015D01*
X175378985Y-93522481D01*
X175285853Y-93383100D01*
X175221703Y-93228228D01*
X175189000Y-93063816D01*
X175189000Y-92896184D01*
X175221703Y-92731772D01*
X175285853Y-92576900D01*
X175378985Y-92437519D01*
X175497519Y-92318985D01*
X175636900Y-92225853D01*
X175791772Y-92161703D01*
X175956184Y-92129000D01*
X176123816Y-92129000D01*
X176288228Y-92161703D01*
G37*
G36*
X130651000Y-93371000D02*
G01*
X128349000Y-93371000D01*
X128349000Y-92069000D01*
X130651000Y-92069000D01*
X130651000Y-93371000D01*
G37*
G36*
X114507430Y-84048977D02*
G01*
X114758684Y-84098955D01*
X114954752Y-84180169D01*
X115232034Y-84295023D01*
X115232035Y-84295024D01*
X115658041Y-84579671D01*
X116020329Y-84941959D01*
X116210524Y-85226607D01*
X116304977Y-85367966D01*
X116419831Y-85645248D01*
X116501045Y-85841316D01*
X116516007Y-85916534D01*
X116601000Y-86343823D01*
X116601000Y-86856177D01*
X116501045Y-87358683D01*
X116304977Y-87832034D01*
X116304976Y-87832035D01*
X116020329Y-88258041D01*
X115658041Y-88620329D01*
X115373393Y-88810524D01*
X115232034Y-88904977D01*
X114987196Y-89006392D01*
X114758684Y-89101045D01*
X114507430Y-89151022D01*
X114256177Y-89201000D01*
X113743823Y-89201000D01*
X113492570Y-89151022D01*
X113241316Y-89101045D01*
X113012804Y-89006392D01*
X112767966Y-88904977D01*
X112626607Y-88810524D01*
X112341959Y-88620329D01*
X111979671Y-88258041D01*
X111695024Y-87832035D01*
X111695023Y-87832034D01*
X111498955Y-87358683D01*
X111399000Y-86856177D01*
X111399000Y-86343823D01*
X111483993Y-85916534D01*
X111498955Y-85841316D01*
X111580169Y-85645248D01*
X111695023Y-85367966D01*
X111789476Y-85226607D01*
X111979671Y-84941959D01*
X112341959Y-84579671D01*
X112767965Y-84295024D01*
X112767966Y-84295023D01*
X113045248Y-84180169D01*
X113241316Y-84098955D01*
X113492570Y-84048977D01*
X113743823Y-83999000D01*
X114256177Y-83999000D01*
X114507430Y-84048977D01*
G37*
G36*
X162688674Y-84453465D02*
G01*
X162726367Y-84464899D01*
X162761103Y-84483466D01*
X162791548Y-84508452D01*
X162816534Y-84538897D01*
X162835101Y-84573633D01*
X162846535Y-84611326D01*
X162851000Y-84656661D01*
X162851000Y-85743339D01*
X162846535Y-85788674D01*
X162835101Y-85826367D01*
X162816534Y-85861103D01*
X162791548Y-85891548D01*
X162761103Y-85916534D01*
X162726367Y-85935101D01*
X162688674Y-85946535D01*
X162643339Y-85951000D01*
X161806661Y-85951000D01*
X161761326Y-85946535D01*
X161723633Y-85935101D01*
X161688897Y-85916534D01*
X161658452Y-85891548D01*
X161633466Y-85861103D01*
X161614899Y-85826367D01*
X161603465Y-85788674D01*
X161599000Y-85743339D01*
X161599000Y-84656661D01*
X161603465Y-84611326D01*
X161614899Y-84573633D01*
X161633466Y-84538897D01*
X161658452Y-84508452D01*
X161688897Y-84483466D01*
X161723633Y-84464899D01*
X161761326Y-84453465D01*
X161806661Y-84449000D01*
X162643339Y-84449000D01*
X162688674Y-84453465D01*
G37*
G36*
X160638674Y-84453465D02*
G01*
X160676367Y-84464899D01*
X160711103Y-84483466D01*
X160741548Y-84508452D01*
X160766534Y-84538897D01*
X160785101Y-84573633D01*
X160796535Y-84611326D01*
X160801000Y-84656661D01*
X160801000Y-85743339D01*
X160796535Y-85788674D01*
X160785101Y-85826367D01*
X160766534Y-85861103D01*
X160741548Y-85891548D01*
X160711103Y-85916534D01*
X160676367Y-85935101D01*
X160638674Y-85946535D01*
X160593339Y-85951000D01*
X159756661Y-85951000D01*
X159711326Y-85946535D01*
X159673633Y-85935101D01*
X159638897Y-85916534D01*
X159608452Y-85891548D01*
X159583466Y-85861103D01*
X159564899Y-85826367D01*
X159553465Y-85788674D01*
X159549000Y-85743339D01*
X159549000Y-84656661D01*
X159553465Y-84611326D01*
X159564899Y-84573633D01*
X159583466Y-84538897D01*
X159608452Y-84508452D01*
X159638897Y-84483466D01*
X159673633Y-84464899D01*
X159711326Y-84453465D01*
X159756661Y-84449000D01*
X160593339Y-84449000D01*
X160638674Y-84453465D01*
G37*
G36*
X160539499Y-81478445D02*
G01*
X160576995Y-81489820D01*
X160611554Y-81508292D01*
X160641847Y-81533153D01*
X160666708Y-81563446D01*
X160685180Y-81598005D01*
X160696555Y-81635501D01*
X160701000Y-81680638D01*
X160701000Y-82319362D01*
X160696555Y-82364499D01*
X160685180Y-82401995D01*
X160666708Y-82436554D01*
X160641847Y-82466847D01*
X160611554Y-82491708D01*
X160576995Y-82510180D01*
X160539499Y-82521555D01*
X160494362Y-82526000D01*
X159755638Y-82526000D01*
X159710501Y-82521555D01*
X159673005Y-82510180D01*
X159638446Y-82491708D01*
X159608153Y-82466847D01*
X159583292Y-82436554D01*
X159564820Y-82401995D01*
X159553445Y-82364499D01*
X159549000Y-82319362D01*
X159549000Y-81680638D01*
X159553445Y-81635501D01*
X159564820Y-81598005D01*
X159583292Y-81563446D01*
X159608153Y-81533153D01*
X159638446Y-81508292D01*
X159673005Y-81489820D01*
X159710501Y-81478445D01*
X159755638Y-81474000D01*
X160494362Y-81474000D01*
X160539499Y-81478445D01*
G37*
G36*
X162289499Y-81478445D02*
G01*
X162326995Y-81489820D01*
X162361554Y-81508292D01*
X162391847Y-81533153D01*
X162416708Y-81563446D01*
X162435180Y-81598005D01*
X162446555Y-81635501D01*
X162451000Y-81680638D01*
X162451000Y-82319362D01*
X162446555Y-82364499D01*
X162435180Y-82401995D01*
X162416708Y-82436554D01*
X162391847Y-82466847D01*
X162361554Y-82491708D01*
X162326995Y-82510180D01*
X162289499Y-82521555D01*
X162244362Y-82526000D01*
X161505638Y-82526000D01*
X161460501Y-82521555D01*
X161423005Y-82510180D01*
X161388446Y-82491708D01*
X161358153Y-82466847D01*
X161333292Y-82436554D01*
X161314820Y-82401995D01*
X161303445Y-82364499D01*
X161299000Y-82319362D01*
X161299000Y-81680638D01*
X161303445Y-81635501D01*
X161314820Y-81598005D01*
X161333292Y-81563446D01*
X161358153Y-81533153D01*
X161388446Y-81508292D01*
X161423005Y-81489820D01*
X161460501Y-81478445D01*
X161505638Y-81474000D01*
X162244362Y-81474000D01*
X162289499Y-81478445D01*
G37*
G36*
X114507430Y-76848977D02*
G01*
X114758684Y-76898955D01*
X114954752Y-76980169D01*
X115232034Y-77095023D01*
X115281633Y-77128164D01*
X115658041Y-77379671D01*
X116020329Y-77741959D01*
X116210524Y-78026607D01*
X116304977Y-78167966D01*
X116419831Y-78445248D01*
X116501045Y-78641316D01*
X116522869Y-78751031D01*
X116601000Y-79143823D01*
X116601000Y-79656177D01*
X116501045Y-80158683D01*
X116304977Y-80632034D01*
X116304976Y-80632035D01*
X116020329Y-81058041D01*
X115658041Y-81420329D01*
X115511382Y-81518323D01*
X115232034Y-81704977D01*
X114954752Y-81819831D01*
X114758684Y-81901045D01*
X114507430Y-81951022D01*
X114256177Y-82001000D01*
X113743823Y-82001000D01*
X113492570Y-81951022D01*
X113241316Y-81901045D01*
X113045248Y-81819831D01*
X112767966Y-81704977D01*
X112488618Y-81518323D01*
X112341959Y-81420329D01*
X111979671Y-81058041D01*
X111695024Y-80632035D01*
X111695023Y-80632034D01*
X111498955Y-80158683D01*
X111399000Y-79656177D01*
X111399000Y-79143823D01*
X111477131Y-78751031D01*
X111498955Y-78641316D01*
X111580169Y-78445248D01*
X111695023Y-78167966D01*
X111789476Y-78026607D01*
X111979671Y-77741959D01*
X112341959Y-77379671D01*
X112718367Y-77128164D01*
X112767966Y-77095023D01*
X113045248Y-76980169D01*
X113241316Y-76898955D01*
X113492570Y-76848977D01*
X113743823Y-76799000D01*
X114256177Y-76799000D01*
X114507430Y-76848977D01*
G37*
G36*
X160526999Y-78678445D02*
G01*
X160564495Y-78689820D01*
X160599054Y-78708292D01*
X160629347Y-78733153D01*
X160654208Y-78763446D01*
X160672680Y-78798005D01*
X160684055Y-78835501D01*
X160688500Y-78880638D01*
X160688500Y-79519362D01*
X160684055Y-79564499D01*
X160672680Y-79601995D01*
X160654208Y-79636554D01*
X160629347Y-79666847D01*
X160599054Y-79691708D01*
X160564495Y-79710180D01*
X160526999Y-79721555D01*
X160481862Y-79726000D01*
X159743138Y-79726000D01*
X159698001Y-79721555D01*
X159660505Y-79710180D01*
X159625946Y-79691708D01*
X159595653Y-79666847D01*
X159570792Y-79636554D01*
X159552320Y-79601995D01*
X159540945Y-79564499D01*
X159536500Y-79519362D01*
X159536500Y-78880638D01*
X159540945Y-78835501D01*
X159552320Y-78798005D01*
X159570792Y-78763446D01*
X159595653Y-78733153D01*
X159625946Y-78708292D01*
X159660505Y-78689820D01*
X159698001Y-78678445D01*
X159743138Y-78674000D01*
X160481862Y-78674000D01*
X160526999Y-78678445D01*
G37*
G36*
X162276999Y-78678445D02*
G01*
X162314495Y-78689820D01*
X162349054Y-78708292D01*
X162379347Y-78733153D01*
X162404208Y-78763446D01*
X162422680Y-78798005D01*
X162434055Y-78835501D01*
X162438500Y-78880638D01*
X162438500Y-79519362D01*
X162434055Y-79564499D01*
X162422680Y-79601995D01*
X162404208Y-79636554D01*
X162379347Y-79666847D01*
X162349054Y-79691708D01*
X162314495Y-79710180D01*
X162276999Y-79721555D01*
X162231862Y-79726000D01*
X161493138Y-79726000D01*
X161448001Y-79721555D01*
X161410505Y-79710180D01*
X161375946Y-79691708D01*
X161345653Y-79666847D01*
X161320792Y-79636554D01*
X161302320Y-79601995D01*
X161290945Y-79564499D01*
X161286500Y-79519362D01*
X161286500Y-78880638D01*
X161290945Y-78835501D01*
X161302320Y-78798005D01*
X161320792Y-78763446D01*
X161345653Y-78733153D01*
X161375946Y-78708292D01*
X161410505Y-78689820D01*
X161448001Y-78678445D01*
X161493138Y-78674000D01*
X162231862Y-78674000D01*
X162276999Y-78678445D01*
G37*
G36*
X160539499Y-75678445D02*
G01*
X160576995Y-75689820D01*
X160611554Y-75708292D01*
X160641847Y-75733153D01*
X160666708Y-75763446D01*
X160685180Y-75798005D01*
X160696555Y-75835501D01*
X160701000Y-75880638D01*
X160701000Y-76519362D01*
X160696555Y-76564499D01*
X160685180Y-76601995D01*
X160666708Y-76636554D01*
X160641847Y-76666847D01*
X160611554Y-76691708D01*
X160576995Y-76710180D01*
X160539499Y-76721555D01*
X160494362Y-76726000D01*
X159755638Y-76726000D01*
X159710501Y-76721555D01*
X159673005Y-76710180D01*
X159638446Y-76691708D01*
X159608153Y-76666847D01*
X159583292Y-76636554D01*
X159564820Y-76601995D01*
X159553445Y-76564499D01*
X159549000Y-76519362D01*
X159549000Y-75880638D01*
X159553445Y-75835501D01*
X159564820Y-75798005D01*
X159583292Y-75763446D01*
X159608153Y-75733153D01*
X159638446Y-75708292D01*
X159673005Y-75689820D01*
X159710501Y-75678445D01*
X159755638Y-75674000D01*
X160494362Y-75674000D01*
X160539499Y-75678445D01*
G37*
G36*
X162289499Y-75678445D02*
G01*
X162326995Y-75689820D01*
X162361554Y-75708292D01*
X162391847Y-75733153D01*
X162416708Y-75763446D01*
X162435180Y-75798005D01*
X162446555Y-75835501D01*
X162451000Y-75880638D01*
X162451000Y-76519362D01*
X162446555Y-76564499D01*
X162435180Y-76601995D01*
X162416708Y-76636554D01*
X162391847Y-76666847D01*
X162361554Y-76691708D01*
X162326995Y-76710180D01*
X162289499Y-76721555D01*
X162244362Y-76726000D01*
X161505638Y-76726000D01*
X161460501Y-76721555D01*
X161423005Y-76710180D01*
X161388446Y-76691708D01*
X161358153Y-76666847D01*
X161333292Y-76636554D01*
X161314820Y-76601995D01*
X161303445Y-76564499D01*
X161299000Y-76519362D01*
X161299000Y-75880638D01*
X161303445Y-75835501D01*
X161314820Y-75798005D01*
X161333292Y-75763446D01*
X161358153Y-75733153D01*
X161388446Y-75708292D01*
X161423005Y-75689820D01*
X161460501Y-75678445D01*
X161505638Y-75674000D01*
X162244362Y-75674000D01*
X162289499Y-75678445D01*
G37*
G36*
X130751000Y-73831000D02*
G01*
X128449000Y-73831000D01*
X128449000Y-72529000D01*
X130751000Y-72529000D01*
X130751000Y-73831000D01*
G37*
G36*
X119051000Y-73751000D02*
G01*
X112549000Y-73751000D01*
X112549000Y-67849000D01*
X119051000Y-67849000D01*
X119051000Y-73751000D01*
G37*
G36*
X168613674Y-68853465D02*
G01*
X168651367Y-68864899D01*
X168686103Y-68883466D01*
X168716548Y-68908452D01*
X168741534Y-68938897D01*
X168760101Y-68973633D01*
X168771535Y-69011326D01*
X168776000Y-69056661D01*
X168776000Y-70143339D01*
X168771535Y-70188674D01*
X168760101Y-70226367D01*
X168741534Y-70261103D01*
X168716548Y-70291548D01*
X168686103Y-70316534D01*
X168651367Y-70335101D01*
X168613674Y-70346535D01*
X168568339Y-70351000D01*
X167731661Y-70351000D01*
X167686326Y-70346535D01*
X167648633Y-70335101D01*
X167613897Y-70316534D01*
X167583452Y-70291548D01*
X167558466Y-70261103D01*
X167539899Y-70226367D01*
X167528465Y-70188674D01*
X167524000Y-70143339D01*
X167524000Y-69056661D01*
X167528465Y-69011326D01*
X167539899Y-68973633D01*
X167558466Y-68938897D01*
X167583452Y-68908452D01*
X167613897Y-68883466D01*
X167648633Y-68864899D01*
X167686326Y-68853465D01*
X167731661Y-68849000D01*
X168568339Y-68849000D01*
X168613674Y-68853465D01*
G37*
G36*
X170663674Y-68853465D02*
G01*
X170701367Y-68864899D01*
X170736103Y-68883466D01*
X170766548Y-68908452D01*
X170791534Y-68938897D01*
X170810101Y-68973633D01*
X170821535Y-69011326D01*
X170826000Y-69056661D01*
X170826000Y-70143339D01*
X170821535Y-70188674D01*
X170810101Y-70226367D01*
X170791534Y-70261103D01*
X170766548Y-70291548D01*
X170736103Y-70316534D01*
X170701367Y-70335101D01*
X170663674Y-70346535D01*
X170618339Y-70351000D01*
X169781661Y-70351000D01*
X169736326Y-70346535D01*
X169698633Y-70335101D01*
X169663897Y-70316534D01*
X169633452Y-70291548D01*
X169608466Y-70261103D01*
X169589899Y-70226367D01*
X169578465Y-70188674D01*
X169574000Y-70143339D01*
X169574000Y-69056661D01*
X169578465Y-69011326D01*
X169589899Y-68973633D01*
X169608466Y-68938897D01*
X169633452Y-68908452D01*
X169663897Y-68883466D01*
X169698633Y-68864899D01*
X169736326Y-68853465D01*
X169781661Y-68849000D01*
X170618339Y-68849000D01*
X170663674Y-68853465D01*
G37*
G36*
X179534928Y-69191764D02*
G01*
X179556009Y-69198160D01*
X179575445Y-69208548D01*
X179592476Y-69222524D01*
X179606452Y-69239555D01*
X179616840Y-69258991D01*
X179623236Y-69280072D01*
X179626000Y-69308140D01*
X179626000Y-69771860D01*
X179623236Y-69799928D01*
X179616840Y-69821009D01*
X179606452Y-69840445D01*
X179592476Y-69857476D01*
X179575445Y-69871452D01*
X179556009Y-69881840D01*
X179534928Y-69888236D01*
X179506860Y-69891000D01*
X177693140Y-69891000D01*
X177665072Y-69888236D01*
X177643991Y-69881840D01*
X177624555Y-69871452D01*
X177607524Y-69857476D01*
X177593548Y-69840445D01*
X177583160Y-69821009D01*
X177576764Y-69799928D01*
X177574000Y-69771860D01*
X177574000Y-69308140D01*
X177576764Y-69280072D01*
X177583160Y-69258991D01*
X177593548Y-69239555D01*
X177607524Y-69222524D01*
X177624555Y-69208548D01*
X177643991Y-69198160D01*
X177665072Y-69191764D01*
X177693140Y-69189000D01*
X179506860Y-69189000D01*
X179534928Y-69191764D01*
G37*
G36*
X174584928Y-69191764D02*
G01*
X174606009Y-69198160D01*
X174625445Y-69208548D01*
X174642476Y-69222524D01*
X174656452Y-69239555D01*
X174666840Y-69258991D01*
X174673236Y-69280072D01*
X174676000Y-69308140D01*
X174676000Y-69771860D01*
X174673236Y-69799928D01*
X174666840Y-69821009D01*
X174656452Y-69840445D01*
X174642476Y-69857476D01*
X174625445Y-69871452D01*
X174606009Y-69881840D01*
X174584928Y-69888236D01*
X174556860Y-69891000D01*
X172743140Y-69891000D01*
X172715072Y-69888236D01*
X172693991Y-69881840D01*
X172674555Y-69871452D01*
X172657524Y-69857476D01*
X172643548Y-69840445D01*
X172633160Y-69821009D01*
X172626764Y-69799928D01*
X172624000Y-69771860D01*
X172624000Y-69308140D01*
X172626764Y-69280072D01*
X172633160Y-69258991D01*
X172643548Y-69239555D01*
X172657524Y-69222524D01*
X172674555Y-69208548D01*
X172693991Y-69198160D01*
X172715072Y-69191764D01*
X172743140Y-69189000D01*
X174556860Y-69189000D01*
X174584928Y-69191764D01*
G37*
G36*
X130751000Y-69271000D02*
G01*
X128449000Y-69271000D01*
X128449000Y-67969000D01*
X130751000Y-67969000D01*
X130751000Y-69271000D01*
G37*
G36*
X184226174Y-67453465D02*
G01*
X184263867Y-67464899D01*
X184298603Y-67483466D01*
X184329048Y-67508452D01*
X184354034Y-67538897D01*
X184372601Y-67573633D01*
X184384035Y-67611326D01*
X184388500Y-67656661D01*
X184388500Y-68743339D01*
X184384035Y-68788674D01*
X184372601Y-68826367D01*
X184354034Y-68861103D01*
X184329048Y-68891548D01*
X184298603Y-68916534D01*
X184263867Y-68935101D01*
X184226174Y-68946535D01*
X184180839Y-68951000D01*
X183344161Y-68951000D01*
X183298826Y-68946535D01*
X183261133Y-68935101D01*
X183226397Y-68916534D01*
X183195952Y-68891548D01*
X183170966Y-68861103D01*
X183152399Y-68826367D01*
X183140965Y-68788674D01*
X183136500Y-68743339D01*
X183136500Y-67656661D01*
X183140965Y-67611326D01*
X183152399Y-67573633D01*
X183170966Y-67538897D01*
X183195952Y-67508452D01*
X183226397Y-67483466D01*
X183261133Y-67464899D01*
X183298826Y-67453465D01*
X183344161Y-67449000D01*
X184180839Y-67449000D01*
X184226174Y-67453465D01*
G37*
G36*
X182176174Y-67453465D02*
G01*
X182213867Y-67464899D01*
X182248603Y-67483466D01*
X182279048Y-67508452D01*
X182304034Y-67538897D01*
X182322601Y-67573633D01*
X182334035Y-67611326D01*
X182338500Y-67656661D01*
X182338500Y-68743339D01*
X182334035Y-68788674D01*
X182322601Y-68826367D01*
X182304034Y-68861103D01*
X182279048Y-68891548D01*
X182248603Y-68916534D01*
X182213867Y-68935101D01*
X182176174Y-68946535D01*
X182130839Y-68951000D01*
X181294161Y-68951000D01*
X181248826Y-68946535D01*
X181211133Y-68935101D01*
X181176397Y-68916534D01*
X181145952Y-68891548D01*
X181120966Y-68861103D01*
X181102399Y-68826367D01*
X181090965Y-68788674D01*
X181086500Y-68743339D01*
X181086500Y-67656661D01*
X181090965Y-67611326D01*
X181102399Y-67573633D01*
X181120966Y-67538897D01*
X181145952Y-67508452D01*
X181176397Y-67483466D01*
X181211133Y-67464899D01*
X181248826Y-67453465D01*
X181294161Y-67449000D01*
X182130839Y-67449000D01*
X182176174Y-67453465D01*
G37*
G36*
X174584928Y-67921764D02*
G01*
X174606009Y-67928160D01*
X174625445Y-67938548D01*
X174642476Y-67952524D01*
X174656452Y-67969555D01*
X174666840Y-67988991D01*
X174673236Y-68010072D01*
X174676000Y-68038140D01*
X174676000Y-68501860D01*
X174673236Y-68529928D01*
X174666840Y-68551009D01*
X174656452Y-68570445D01*
X174642476Y-68587476D01*
X174625445Y-68601452D01*
X174606009Y-68611840D01*
X174584928Y-68618236D01*
X174556860Y-68621000D01*
X172743140Y-68621000D01*
X172715072Y-68618236D01*
X172693991Y-68611840D01*
X172674555Y-68601452D01*
X172657524Y-68587476D01*
X172643548Y-68570445D01*
X172633160Y-68551009D01*
X172626764Y-68529928D01*
X172624000Y-68501860D01*
X172624000Y-68038140D01*
X172626764Y-68010072D01*
X172633160Y-67988991D01*
X172643548Y-67969555D01*
X172657524Y-67952524D01*
X172674555Y-67938548D01*
X172693991Y-67928160D01*
X172715072Y-67921764D01*
X172743140Y-67919000D01*
X174556860Y-67919000D01*
X174584928Y-67921764D01*
G37*
G36*
X179534928Y-67921764D02*
G01*
X179556009Y-67928160D01*
X179575445Y-67938548D01*
X179592476Y-67952524D01*
X179606452Y-67969555D01*
X179616840Y-67988991D01*
X179623236Y-68010072D01*
X179626000Y-68038140D01*
X179626000Y-68501860D01*
X179623236Y-68529928D01*
X179616840Y-68551009D01*
X179606452Y-68570445D01*
X179592476Y-68587476D01*
X179575445Y-68601452D01*
X179556009Y-68611840D01*
X179534928Y-68618236D01*
X179506860Y-68621000D01*
X177693140Y-68621000D01*
X177665072Y-68618236D01*
X177643991Y-68611840D01*
X177624555Y-68601452D01*
X177607524Y-68587476D01*
X177593548Y-68570445D01*
X177583160Y-68551009D01*
X177576764Y-68529928D01*
X177574000Y-68501860D01*
X177574000Y-68038140D01*
X177576764Y-68010072D01*
X177583160Y-67988991D01*
X177593548Y-67969555D01*
X177607524Y-67952524D01*
X177624555Y-67938548D01*
X177643991Y-67928160D01*
X177665072Y-67921764D01*
X177693140Y-67919000D01*
X179506860Y-67919000D01*
X179534928Y-67921764D01*
G37*
G36*
X179534928Y-66651764D02*
G01*
X179556009Y-66658160D01*
X179575445Y-66668548D01*
X179592476Y-66682524D01*
X179606452Y-66699555D01*
X179616840Y-66718991D01*
X179623236Y-66740072D01*
X179626000Y-66768140D01*
X179626000Y-67231860D01*
X179623236Y-67259928D01*
X179616840Y-67281009D01*
X179606452Y-67300445D01*
X179592476Y-67317476D01*
X179575445Y-67331452D01*
X179556009Y-67341840D01*
X179534928Y-67348236D01*
X179506860Y-67351000D01*
X177693140Y-67351000D01*
X177665072Y-67348236D01*
X177643991Y-67341840D01*
X177624555Y-67331452D01*
X177607524Y-67317476D01*
X177593548Y-67300445D01*
X177583160Y-67281009D01*
X177576764Y-67259928D01*
X177574000Y-67231860D01*
X177574000Y-66768140D01*
X177576764Y-66740072D01*
X177583160Y-66718991D01*
X177593548Y-66699555D01*
X177607524Y-66682524D01*
X177624555Y-66668548D01*
X177643991Y-66658160D01*
X177665072Y-66651764D01*
X177693140Y-66649000D01*
X179506860Y-66649000D01*
X179534928Y-66651764D01*
G37*
G36*
X174584928Y-66651764D02*
G01*
X174606009Y-66658160D01*
X174625445Y-66668548D01*
X174642476Y-66682524D01*
X174656452Y-66699555D01*
X174666840Y-66718991D01*
X174673236Y-66740072D01*
X174676000Y-66768140D01*
X174676000Y-67231860D01*
X174673236Y-67259928D01*
X174666840Y-67281009D01*
X174656452Y-67300445D01*
X174642476Y-67317476D01*
X174625445Y-67331452D01*
X174606009Y-67341840D01*
X174584928Y-67348236D01*
X174556860Y-67351000D01*
X172743140Y-67351000D01*
X172715072Y-67348236D01*
X172693991Y-67341840D01*
X172674555Y-67331452D01*
X172657524Y-67317476D01*
X172643548Y-67300445D01*
X172633160Y-67281009D01*
X172626764Y-67259928D01*
X172624000Y-67231860D01*
X172624000Y-66768140D01*
X172626764Y-66740072D01*
X172633160Y-66718991D01*
X172643548Y-66699555D01*
X172657524Y-66682524D01*
X172674555Y-66668548D01*
X172693991Y-66658160D01*
X172715072Y-66651764D01*
X172743140Y-66649000D01*
X174556860Y-66649000D01*
X174584928Y-66651764D01*
G37*
G36*
X179534928Y-65381764D02*
G01*
X179556009Y-65388160D01*
X179575445Y-65398548D01*
X179592476Y-65412524D01*
X179606452Y-65429555D01*
X179616840Y-65448991D01*
X179623236Y-65470072D01*
X179626000Y-65498140D01*
X179626000Y-65961860D01*
X179623236Y-65989928D01*
X179616840Y-66011009D01*
X179606452Y-66030445D01*
X179592476Y-66047476D01*
X179575445Y-66061452D01*
X179556009Y-66071840D01*
X179534928Y-66078236D01*
X179506860Y-66081000D01*
X177693140Y-66081000D01*
X177665072Y-66078236D01*
X177643991Y-66071840D01*
X177624555Y-66061452D01*
X177607524Y-66047476D01*
X177593548Y-66030445D01*
X177583160Y-66011009D01*
X177576764Y-65989928D01*
X177574000Y-65961860D01*
X177574000Y-65498140D01*
X177576764Y-65470072D01*
X177583160Y-65448991D01*
X177593548Y-65429555D01*
X177607524Y-65412524D01*
X177624555Y-65398548D01*
X177643991Y-65388160D01*
X177665072Y-65381764D01*
X177693140Y-65379000D01*
X179506860Y-65379000D01*
X179534928Y-65381764D01*
G37*
G36*
X174584928Y-65381764D02*
G01*
X174606009Y-65388160D01*
X174625445Y-65398548D01*
X174642476Y-65412524D01*
X174656452Y-65429555D01*
X174666840Y-65448991D01*
X174673236Y-65470072D01*
X174676000Y-65498140D01*
X174676000Y-65961860D01*
X174673236Y-65989928D01*
X174666840Y-66011009D01*
X174656452Y-66030445D01*
X174642476Y-66047476D01*
X174625445Y-66061452D01*
X174606009Y-66071840D01*
X174584928Y-66078236D01*
X174556860Y-66081000D01*
X172743140Y-66081000D01*
X172715072Y-66078236D01*
X172693991Y-66071840D01*
X172674555Y-66061452D01*
X172657524Y-66047476D01*
X172643548Y-66030445D01*
X172633160Y-66011009D01*
X172626764Y-65989928D01*
X172624000Y-65961860D01*
X172624000Y-65498140D01*
X172626764Y-65470072D01*
X172633160Y-65448991D01*
X172643548Y-65429555D01*
X172657524Y-65412524D01*
X172674555Y-65398548D01*
X172693991Y-65388160D01*
X172715072Y-65381764D01*
X172743140Y-65379000D01*
X174556860Y-65379000D01*
X174584928Y-65381764D01*
G37*
G36*
X171401000Y-60201000D02*
G01*
X100599000Y-60201000D01*
X100599000Y-55799000D01*
X171401000Y-55799000D01*
X171401000Y-60201000D01*
G37*
G36*
X183401000Y-56774001D02*
G01*
X183403402Y-56798387D01*
X183410515Y-56821836D01*
X183422066Y-56843447D01*
X183437611Y-56862389D01*
X183456553Y-56877934D01*
X183478164Y-56889485D01*
X183501613Y-56896598D01*
X183525999Y-56899000D01*
X184401000Y-56899000D01*
X184401000Y-60201000D01*
X173599000Y-60201000D01*
X173599000Y-55799000D01*
X183401000Y-55799000D01*
X183401000Y-56774001D01*
G37*
M02*
